<svg xmlns="http://www.w3.org/2000/svg" xmlns:xlink="http://www.w3.org/1999/xlink" id="Layer_2" data-name="Layer 2" viewBox="0 0 214.58 216.25"><metadata></metadata><defs><style>      .cls-1 {        fill: #6f736f;      }      .cls-1, .cls-2, .cls-3, .cls-4, .cls-5, .cls-6, .cls-7, .cls-8, .cls-9, .cls-10, .cls-11, .cls-12, .cls-13, .cls-14, .cls-15, .cls-16, .cls-17, .cls-18, .cls-19, .cls-20, .cls-21, .cls-22, .cls-23, .cls-24, .cls-25 {        stroke-width: 0px;      }      .cls-2 {        fill: #85909d;      }      .cls-3 {        fill: #a1a8b4;      }      .cls-4 {        fill: #4e4c57;      }      .cls-5 {        fill: #824a08;      }      .cls-6 {        fill: #965a0a;      }      .cls-7 {        fill: #1f1805;      }      .cls-8 {        fill: url(#linear-gradient);      }      .cls-9 {        fill: #4d5761;      }      .cls-10 {        fill: #2d353f;      }      .cls-11 {        fill: #1b1f2e;      }      .cls-12 {        fill: #636d7c;      }      .cls-13 {        fill: #eca90b;      }      .cls-14 {        fill: #f5f7ef;      }      .cls-15 {        fill: #df960a;      }      .cls-16 {        fill: #c09f62;      }      .cls-17 {        fill: #583108;      }      .cls-18 {        fill: #201400;      }      .cls-19 {        fill: #e6ddd4;      }      .cls-20 {        fill: #6d3c09;      }      .cls-21 {        fill: url(#linear-gradient-2);      }      .cls-22 {        fill: #a5660a;      }      .cls-23 {        fill: #c37b0a;      }      .cls-24 {        fill: #070c11;      }      .cls-25 {        fill: #f0bf10;      }    </style><linearGradient id="linear-gradient" x1="129.63" y1="29.5" x2="83.88" y2="189.26" gradientUnits="userSpaceOnUse"><stop offset=".15" stop-color="#ede5d8"></stop><stop offset=".66" stop-color="#807f83"></stop><stop offset=".69" stop-color="#7a787d"></stop><stop offset=".73" stop-color="#747277"></stop><stop offset="1" stop-color="#545359"></stop></linearGradient><linearGradient id="linear-gradient-2" x1="114.09" y1="57.23" x2="97.78" y2="160.91" gradientUnits="userSpaceOnUse"><stop offset=".12" stop-color="#005571"></stop><stop offset=".89" stop-color="#08080a"></stop></linearGradient></defs><g id="Layer_1-2" data-name="Layer 1"><g><path class="cls-17" d="M40.07,150.78c9.08,9.5,18.45,18.75,27.56,28.23,6.12,6.37,24.14,27.02,29.55,30.61,7.95,5.28,13.87,1.43,20.01-3.98.27,2.27,6-2.56,5.57-.4-1.2.5-1.62,1.64-2.39,2.52-.16.18-.37.63-.53.8-.34.36-.98,1.01-1.33,1.33-.43.39-1.13.95-1.59,1.33-.38.3-4.67,3.24-5.04,3.45-.19.11-1.27.53-1.86.8-.68.31-1.4.59-2.12.8-2.48-.28-5.2.5-10.07-1.59-2.03-.87-3.63-2.34-5.3-3.71-1.28-1.05-2.53-2.29-3.71-3.45-.35-.34-.71-.71-1.06-1.06-.09-.09-.54-.78-1.59-1.86-1.45-1.48-5.94-7.25-7.42-7.69.11-1.17-1.82-2.28-2.65-3.18-14.15-15.36-28.69-30.32-43.2-45.32,2.4,1.36,4.83,3,6.23,5.3,1.62-.97,1.59-1.35.93-2.92Z"></path><path class="cls-20" d="M136.81,192.13c-1.15,1.14-2.29,2.31-3.45,3.45-.36.35-.71.71-1.06,1.06-3.16,3.12-6.38,6.16-9.54,9.28-.6.59-1.74,1.73-2.39,1.86.76-.88,1.18-2.02,2.39-2.52.44-2.17-5.29,2.67-5.57.4,1.21-1.07,3.14-3.24,4.77-4.77.49.45,2.2-2.12,3.05-2.65.03-.02.28.42.53.27,3.09-1.93,6.05-3.91,9.01-6.1.98-.72,1.27-.22,1.33-.27,4.24-3.26,12.79-13.05,17.1-17.23,3.67-3.56,7.47-7.02,11.13-10.6-8.91,9.45-18.09,18.68-27.3,27.83Z"></path><path class="cls-24" d="M42.72,75.51l-7.42,8.48c-4.39,3.82-8.43,8.5-12.46,12.72-2.07,2.17-4.37,4.08-6.36,6.36-1.49,1.71-4.93,3.56-2.65,8.88,1.74,4.06,23.53,25.94,28.36,31.14,8.99,9.69,50.17,54.51,55.79,59.1,2.22,1.81,4.56,3.8,7.69,3.45,4.21-.47,18.05-16.37,21.87-20.14,8.46-8.35,16.81-16.73,25.18-25.18,6.91-6.97,13.56-14.19,20.41-21.2,5.62-5.76,11.63-11.17,17.23-16.96,1.74-1.8,7.05-6.72,7.95-8.48l1.33-1.06c-.44,3.09.53,3.03,1.72,5.57,4.12.15,1.65-.28,2.39-.8.16-.11.01.79,3.05-1.86-1.16,1.88-13.95,14.44-16.96,17.49-8.8,8.94-17.66,17.86-26.5,26.77-3.83,3.86-7.55,7.83-11.4,11.66-5.7,5.68-11.45,11.35-17.23,16.96-4.24,4.12-8.41,8.43-12.72,12.46-1.63,1.53-3.56,3.7-4.77,4.77-6.14,5.41-12.06,9.25-20.01,3.98-5.41-3.59-23.43-24.24-29.55-30.61-9.11-9.48-18.48-18.72-27.56-28.23-4.49-4.69-32.65-33.55-33.93-35.65-2.63-4.31-2.34-8.78.53-12.85.58-.82,4.28-4.69,5.57-6.1,2.7-2.96,5.7-5.82,8.48-8.75,2.35-2.48,4.77-4.97,7.16-7.42,3.99-4.11,8.15-8.12,12.19-12.19-2.76,3.9-3.12,4.27.4,9.54l2.25-1.86Z"></path><path class="cls-20" d="M6.67,102.28c-2.87,4.07-3.16,8.54-.53,12.85,1.28,2.1,29.44,30.95,33.93,35.65.66,1.56.69,1.95-.93,2.92-1.39-2.3-3.83-3.94-6.23-5.3-7.01-7.25-21.42-20.9-26.5-26.77-6.51-7.5-9.17-12.53-2.65-21.47-.28,1.97,1.72,1.61,2.92,2.12Z"></path><path class="cls-4" d="M111.89,214.65l1.33.27c-2.45.51-2.02,1.69-3.18.53.58-.26,1.67-.69,1.86-.8Z"></path><path class="cls-14" d="M114.01,1.83c6.37,2.83,14.57,13.41,21.73,17.76.17.41.48,1.65.53,1.72,1.25,2.1,18.35,18.28,22,22,9.44,9.64,18.53,19.65,27.83,29.42,3.65,3.83,7.58,6.89,7.95,7.29,1.26,1.33,3.92,5.18,7.16,8.61,2.68,2.85,8.31,7.47,10.34,10.2,1.72,2.32,2.23,3.22,2.65,6.1.3,2.02.52,4.62.27,6.63-1.23-.22-.7.63-1.86,2.39.03-.32-.25-.25-.27-.27,1.72-3.02,1.17-6.87.27-10.07-.94-3.35-2.33-4.47-4.51-7.02-24.99-24.39-48.64-50.15-73.42-74.74-11-10.92-21.34-24.83-35.65-19.75-2.2.78-4.21,2.95-5.96,3.45,1.04-1.05,2.09-2.92,3.45-3.71,4.63-2.71,12.67-2.14,17.49,0Z"></path><path class="cls-6" d="M184.25,144.42c-1.63,1.62-3.14,3.42-4.77,5.04-5.06,4.99-10.28,9.87-15.37,14.84-3.67,3.58-7.46,7.04-11.13,10.6,0-.48-.81-.08-.93,0-.96.64-9.12,7.97-12.19,10.34-1.6,1.23-3.56,2.49-5.17,3.18,5.77-5.61,11.52-11.28,17.23-16.96.98,1.1,3.39-3.39,4.37-3.98.39-.23.45.59.53.53,3.53-2.56,13.28-12.47,18.29-16.7,3.16-2.67,6.08-4.02,8.75-7.16l.4.27Z"></path><path class="cls-5" d="M152.97,174.9c-4.31,4.18-12.85,13.97-17.1,17.23-.05.04-.35-.46-1.33.27-2.96,2.18-5.92,4.16-9.01,6.1-.25.16-.5-.28-.53-.27-.85.53-2.56,3.1-3.05,2.65,4.31-4.03,8.48-8.34,12.72-12.46,1.61-.69,3.56-1.95,5.17-3.18,3.07-2.37,11.23-9.69,12.19-10.34.12-.08.93-.48.93,0Z"></path><path class="cls-23" d="M20.72,87.43c-2.78,2.92-5.78,5.78-8.48,8.75,2.04-2.92-.51-2.24-.27-4.77.45-.5.87-1.1,1.33-1.59,3.22-3.49,6.56-6.87,9.81-10.34l.13,1.06c5.3-2.9-1.43,5.29-2.52,6.89Z"></path><path class="cls-6" d="M12.24,96.18c-1.28,1.41-4.99,5.28-5.57,6.1-1.19-.51-3.19-.15-2.92-2.12,2.43-3.34,5.48-5.76,8.22-8.75-.24,2.53,2.3,1.85.27,4.77Z"></path><path class="cls-11" d="M176.3,71.27c6.34,7.33,13.65,13.76,20.41,20.67,2.02,2.07,4.55,3.87,6.1,6.36,1.93,3.1.99,1.82,1.06,3.31,0,.11.77-.01.53,1.06-4.1,1.79-1.62,4.07-4.77,2.25-5.41-3.11-28.73-29.64-35.25-36.44-6.64-6.93-51.67-53.48-55-55.53-2.06-1.26-4.44-1.46-6.63-.27-3.81,2.08-52.13,55.49-60.03,62.81l-2.25,1.86c-3.52-5.27-3.16-5.64-.4-9.54,2.46-3.47,38.6-41.32,44.53-47.18,2.99-2.95,5.96-6.17,9.01-9.01,6.06-5.64,11.76-9.32,20.01-3.98,6.26,4.06,53.29,53.94,62.68,63.61Z"></path><path class="cls-25" d="M212.61,103.6c.9,3.2,1.45,7.05-.27,10.07-.48-.75-.06-.53,0-1.06.64-5.32,1.18-8.52-3.58-11.93-1.17.06.76,2.94-.93,3.05,3.99,1.73,1.13,1.1.8,1.86-.12.26.47,1.12,0,5.7h-.27c.9-5.78-1.37-9.27-5.57-12.99-1.55-2.49-4.08-4.3-6.1-6.36-6.33-7.34-13.67-13.74-20.41-20.67-9.4-9.67-56.42-59.55-62.68-63.61-8.25-5.34-13.95-1.67-20.01,3.98l-9.01,9.01c-5.93,5.85-42.07,43.71-44.53,47.18-4.04,4.07-8.2,8.08-12.19,12.19.06-.2-.28-.34-.27-.4.22-.89,8.6-8.42,12.72-13.12,1.33-1.52,2.97-2.84,4.24-4.37.08-.1.11-1.2,1.06-2.39.74-.93,11.2-12.95,9.67-13.65l-1.99,1.59c7.33-7.64,35.94-38.32,40.95-42.14,18.53-14.14,34.14,13.01,46.51,23.19,20.53,21.84,42.38,42.47,63.08,64.14,3.2,3.35,6.67,6.54,8.75,10.73Z"></path><path class="cls-14" d="M199.62,104.93c2.17,4.3.26,5.86,0,7.69l-1.33,1.06c.8-1.57,1.41-4.26,1.06-5.96-.32-1.55-13.57-13.98-15.9-16.43-15.94-16.73-31.42-33.96-47.71-50.36-3.31-3.33-25.69-25.86-27.43-26.64-1.4-.63-3.36-.69-4.77,0-1.44.7-16.18,16.23-17.63,18.29l-27.3,28.62c-5.13,4.75-9.72,10.09-14.58,15.11-1.08,1.12-2.11,2.32-3.18,3.45-1.11,1.16-2.35,2.28-3.45,3.45.74-2.32-.18-.89-2.12.8l7.42-8.48c7.9-7.33,56.22-60.73,60.03-62.81,2.19-1.19,4.57-1,6.63.27,3.33,2.04,48.36,48.6,55,55.53,6.52,6.81,29.84,33.34,35.25,36.44Z"></path><path class="cls-23" d="M198.3,130.11c-4.5,3.91-7.4,5.25-8.08,5.83-1.89,1.59-6.27,6.33-6.63,6.63-.02.02-.31-.45-.53-.27-1.81,1.52-4,3.86-5.83,5.3-.97.76-2.06.81-3.18,2.39-.25-1.14-.9,1.12-2.12,2.39-1.97,2.05-6.27,6.07-8.61,7.42,8.84-8.91,17.7-17.82,26.5-26.77,3.97-2.8,6.8-6.98,10.47-10.07.22-.19.57.45.8.27,1.37-1.13,3.5-3.82,4.51-4.51,1-.69,3.44-1.1,5.7-3.18-.41,2.82-10.1,12.07-12.99,14.58Z"></path><path class="cls-10" d="M129.12,182.58c1.42.58-1.68,1.79-1.59,2.92-3.82,3.77-17.65,19.67-21.87,20.14-3.13.35-5.47-1.63-7.69-3.45-5.63-4.6-46.8-49.41-55.79-59.1l.27-.8c19.27,21.01,38.82,41.88,59.24,61.75,2.24.88,4.34.71,6.36-.53,1.27-.78,18.15-18.06,21.07-20.94Z"></path><path class="cls-11" d="M208.37,111.29c-.3,1.91-.59,2.62-1.59,4.24-3.03,2.64-2.89,1.74-3.05,1.86-.74.51,1.74.94-2.39.8-1.19-2.54-2.16-2.48-1.72-5.57.26-1.83,2.17-3.38,0-7.69,3.16,1.81.67-.46,4.77-2.25.24-1.07-.52-.95-.53-1.06-.07-1.49.87-.21-1.06-3.31,4.2,3.72,6.46,7.21,5.57,12.99Z"></path><path class="cls-15" d="M40.33,66.5c-4.13,4.7-12.5,12.23-12.72,13.12-.01.05.32.19.27.4-2.38,2.46-4.8,4.94-7.16,7.42,1.09-1.6,7.82-9.79,2.52-6.89l-.13-1.06c7.09-7.57,14.33-15,21.47-22.53-2,2.69-.5,2.86-.53,3.05-.06.37-3.52,3.82-3.71,6.49Z"></path><path class="cls-22" d="M191.4,137.53c-.97.97-1.94,1.94-2.92,2.92-1.36,1.36-2.87,2.62-4.24,3.98l-.4-.27c-2.67,3.13-5.59,4.49-8.75,7.16-5,4.23-14.76,14.13-18.29,16.7-.08.06-.14-.76-.53-.53-.98.58-3.4,5.08-4.37,3.98,3.85-3.83,7.57-7.8,11.4-11.66,2.35-1.35,6.65-5.38,8.61-7.42,1.22-1.27,1.87-3.53,2.12-2.39,1.12-1.57,2.21-1.62,3.18-2.39,1.83-1.44,4.02-3.78,5.83-5.3.22-.18.51.28.53.27.36-.3,4.73-5.04,6.63-6.63.69-.58,3.58-1.92,8.08-5.83-2.06,2.64-4.53,5.06-6.89,7.42Z"></path><path class="cls-12" d="M17.8,103.6c-2.58,2.65-4.08,4.37-2.39,8.35,1.25,2.95,22.82,25.75,27.03,30.35l-.27.8c-4.83-5.2-26.62-27.09-28.36-31.14-2.28-5.32,1.16-7.17,2.65-8.88.44,1.1.35.76,1.33.53Z"></path><path class="cls-9" d="M152.71,160.32c-8.37,8.45-16.71,16.83-25.18,25.18-.09-1.13,3.01-2.33,1.59-2.92,7.34-7.23,14.69-14.47,22-21.73l1.59-.53Z"></path><path class="cls-15" d="M212.34,112.61c-.06.53-.48.31,0,1.06.01.02.29-.06.27.27-.57.87-.56.88-1.33,1.59-2.26,2.08-4.7,2.49-5.7,3.18-1,.69-3.13,3.37-4.51,4.51-.23.19-.57-.45-.8-.27-3.67,3.09-6.5,7.27-10.47,10.07,3.01-3.06,15.8-15.61,16.96-17.49,1-1.62,1.29-2.33,1.59-4.24h.27c-.24,2.37-1.03,2.87.4,2.65.69-1.48,1.95-1.62,3.31-1.33Z"></path><path class="cls-3" d="M37.42,83.19c-.95,1.01-1.82,2.29-2.65,3.18-3.15,3.36-7.59,7.25-10.6,10.6l-1.33-.27c4.03-4.22,8.07-8.9,12.46-12.72,1.94-1.69,2.86-3.12,2.12-.8Z"></path><path class="cls-1" d="M152.71,160.32l-1.59.53c2.03-2.02,3.81-4.34,5.83-6.36,1.09-1.1,2.35-2.08,3.45-3.18,3.97-3.98,7.97-7.94,11.93-11.93l.8-.27c-6.85,7.02-13.5,14.23-20.41,21.2Z"></path><path class="cls-2" d="M24.16,96.98c-.05.05-.22.47-.27.53-1.04,1.17-2.2,2.23-3.18,3.45-.95.87-2.02,1.73-2.92,2.65-.98.23-.89.57-1.33-.53,1.99-2.28,4.29-4.19,6.36-6.36l1.33.27Z"></path><path class="cls-16" d="M190.34,122.16c-5.6,5.79-11.6,11.2-17.23,16.96l-.8.27c5.76-5.8,11.85-11.35,17.49-17.23h.53Z"></path><path class="cls-13" d="M40.33,66.5c.19-2.68,3.65-6.12,3.71-6.49.03-.18-1.47-.36.53-3.05,2.92-3.08,5.8-6.21,8.75-9.28l1.99-1.59c1.52.7-8.93,12.72-9.67,13.65-.95,1.19-.98,2.28-1.06,2.39-1.27,1.54-2.91,2.86-4.24,4.37Z"></path><path class="cls-7" d="M196.71,91.94c-6.76-6.92-14.07-13.34-20.41-20.67,6.74,6.93,14.08,13.33,20.41,20.67Z"></path><path class="cls-18" d="M93.6,11.63c-3.05,2.84-6.02,6.06-9.01,9.01l9.01-9.01Z"></path><path class="cls-13" d="M212.34,112.61c-1.36-.3-2.62-.16-3.31,1.33-1.43.22-.64-.28-.4-2.65.47-4.58-.12-5.43,0-5.7.34-.76,3.2-.13-.8-1.86,1.69-.1-.24-2.99.93-3.05,4.76,3.41,4.22,6.6,3.58,11.93Z"></path><g><path class="cls-25" d="M198.3,113.67c-.9,1.77-6.22,6.69-7.95,8.48h-.53c2.07-2.16,4.27-4.25,6.1-6.63,5.47-7.13,2.59-5.91-2.78-11.4-7.56-3.86-3.98-2.04-.93,2.39-28.52-29.48-56.04-59.95-86.01-87.99-18.24,17.72-35.8,36.23-53.41,54.6.66-2.59,10.11-8.58,5.17-9.28-2.41,2.03-10,10.82-11.4,11.66-.4.24,0-1.23-2.52.8,4.86-5.02,9.45-10.36,14.58-15.11,2.77-2.56,4.74-5.25,5.96-4.51,3.74-3.89,18.09-18.17,19.75-20.54.12-.17-1.34.59,1.59-3.58,1.45-2.05,16.19-17.58,17.63-18.29,1.41-.69,3.37-.63,4.77,0,1.75.78,24.13,23.31,27.43,26.64,16.29,16.4,31.77,33.63,47.71,50.36,2.34,2.45,15.59,14.88,15.9,16.43.35,1.7-.26,4.4-1.06,5.96Z"></path><path class="cls-25" d="M109.37,15.87c25.7,24.74,50.58,50.37,74.48,76.86-2.11-.65-3.93-1.85-5.83-2.92-.06-.03-1.12.14-1.33,0-1.89-1.29-26.88-28.64-31.41-33.26-12.28-12.53-24.81-24.85-37.37-37.11-.33-1.09,2.03-1.07,1.86-1.86-.02-.11-1.59-.41-.4-1.72Z"></path></g><path class="cls-22" d="M195.91,115.53c-1.82,2.38-4.03,4.47-6.1,6.63-5.65,5.88-11.73,11.43-17.49,17.23-3.96,3.99-7.96,7.94-11.93,11.93-1.64-.32,3.57-2.38,3.18-5.7-.73-1.13-11.86,9.16-12.19,8.48l.27-.93c14.37-14.42,28.49-29.12,42.94-43.47.48,1.01.98,4.45,1.33,5.83Z"></path><path class="cls-15" d="M52.79,73.12c-1.65,1.72-3.4,3.33-5.04,5.04-1.9-2.96-2.68-.89-6.1,2.65l-.8-1.06c1.08-1.12,2.1-2.33,3.18-3.45,2.51-2.02,2.12-.56,2.52-.8,1.4-.84,8.99-9.63,11.4-11.66,4.94.69-4.51,6.68-5.17,9.28Z"></path><path class="cls-25" d="M58.62,61.2l27.3-28.62c-2.93,4.17-1.47,3.4-1.59,3.58-1.66,2.37-16.01,16.65-19.75,20.54-1.22-.74-3.19,1.94-5.96,4.51Z"></path><path class="cls-15" d="M195.91,115.53c-.35-1.38-.85-4.82-1.33-5.83-.55-1.16-1.64-2.1-2.39-3.18-3.06-4.42-6.63-6.25.93-2.39,5.37,5.48,8.25,4.27,2.78,11.4Z"></path><path class="cls-23" d="M41.66,80.81c-2.07,2.15-6.69,8.36-6.89,5.57.83-.89,1.7-2.17,2.65-3.18,1.09-1.16,2.33-2.29,3.45-3.45l.8,1.06Z"></path><path class="cls-20" d="M19.13,108.37c.03,1.93.3,1.84,1.33,3.31,1.63,2.34,33.67,37.1,38.43,42.14,14.77,15.66,30.18,30.89,45.45,45.98,9.72-9.21,19.25-18.65,28.76-28.09-2.43,4.13,6.25-3.26,10.2-6.1,2.83-2.03,3.28-1.21,3.45-1.33,3.74-2.59,6.21-7.4,10.2-9.81-2.02,2.02-3.8,4.34-5.83,6.36-7.3,7.27-14.66,14.51-22,21.73-2.92,2.88-19.8,20.16-21.07,20.94-2.02,1.24-4.12,1.41-6.36.53-20.42-19.88-39.97-40.75-59.24-61.75-4.22-4.6-25.78-27.4-27.03-30.35-1.69-3.98-.19-5.69,2.39-8.35.9-.92,1.96-1.78,2.92-2.65-2.19,2.7-3.57,2.92-2.12,5.43.31.53.98.02,1.06.53.12.79-.54.69-.53,1.46Z"></path><path class="cls-22" d="M47.75,78.16c-4.92,5.14-9.67,10.48-14.58,15.64-3.42,1.49-7.28,10.38-9.28,3.71.05-.06.22-.48.27-.53,3.02-3.35,7.46-7.24,10.6-10.6.2,2.79,4.82-3.42,6.89-5.57,3.42-3.54,4.2-5.61,6.1-2.65Z"></path><path class="cls-6" d="M160.39,151.31c-1.1,1.1-2.35,2.08-3.45,3.18-4,2.41-6.46,7.22-10.2,9.81-.16.11-.62-.7-3.45,1.33-3.95,2.83-12.63,10.23-10.2,6.1,6.2-6.16,12.38-12.36,18.55-18.55l-.27.93c.34.68,11.47-9.62,12.19-8.48.39,3.32-4.82,5.37-3.18,5.7Z"></path><path class="cls-6" d="M33.17,93.8c-4.65,4.89-9.22,9.86-14.05,14.58-.01-.77.65-.67.53-1.46-.08-.51-.75,0-1.06-.53-1.45-2.52-.07-2.73,2.12-5.43.98-1.21,2.14-2.28,3.18-3.45,1.99,6.67,5.86-2.22,9.28-3.71Z"></path><g><path class="cls-8" d="M192.2,106.52c.75,1.08,1.84,2.02,2.39,3.18-14.45,14.35-28.56,29.05-42.94,43.47-6.17,6.19-12.35,12.39-18.55,18.55-9.51,9.44-19.03,18.88-28.76,28.09-15.27-15.1-30.68-30.33-45.45-45.98-4.76-5.05-36.8-39.8-38.43-42.14-1.03-1.48-1.3-1.38-1.33-3.31,4.83-4.71,9.4-9.69,14.05-14.58,4.91-5.16,9.66-10.5,14.58-15.64,1.63-1.71,3.39-3.32,5.04-5.04,17.61-18.37,35.16-36.88,53.41-54.6,29.97,28.05,57.49,58.52,86.01,87.99Z"></path><path class="cls-20" d="M104.07,166.95c7.19-1.2,5.56,10.51-1.06,7.16-3.11-1.57-2.21-6.61,1.06-7.16Z"></path><path class="cls-25" d="M106.19,44.76c5.13-.55,5.54,7.5,1.06,7.95-4.97.5-5.75-7.45-1.06-7.95Z"></path><g><path class="cls-21" d="M77.04,55.63c10.81.61,35.62-.81,43.73,0,26.26,2.63,34.79,36.14,15.37,50.09-10.72,7.7-23.37,4.58-35.65,5.43l-.4,49.96-23.19-.4q.07-52.54.13-105.09Z"></path><path class="cls-19" d="M100.89,73.39c7.4.63,18.62-2.42,23.46,4.9,2.91,4.41,1.69,10.94-3.05,13.65-4.44,2.53-14.87.82-20.41,1.33v-19.88Z"></path></g></g></g></g></svg>