<svg xmlns="http://www.w3.org/2000/svg" id="Layer_2" data-name="Layer 2" viewBox="0 0 166.29 163.99"><metadata></metadata><defs><style>      .cls-1 {        fill: #fbfbfc;      }      .cls-1, .cls-2, .cls-3, .cls-4, .cls-5, .cls-6, .cls-7, .cls-8, .cls-9, .cls-10, .cls-11, .cls-12, .cls-13, .cls-14, .cls-15, .cls-16, .cls-17, .cls-18, .cls-19, .cls-20, .cls-21, .cls-22 {        stroke-width: 0px;      }      .cls-2 {        fill: #4c7587;      }      .cls-3 {        fill: #058fb4;      }      .cls-4 {        fill: #55a9b3;      }      .cls-5 {        fill: #113645;      }      .cls-6 {        fill: #0a1515;      }      .cls-7 {        fill: #89c8d4;      }      .cls-8 {        fill: #97dbee;      }      .cls-9 {        fill: #25273d;      }      .cls-10 {        fill: #112734;      }      .cls-11 {        fill: #121820;      }      .cls-12 {        fill: #01667d;      }      .cls-13 {        fill: #e7e2e1;      }      .cls-14 {        fill: #d0c7dd;      }      .cls-15 {        fill: #f4de63;      }      .cls-16 {        fill: #b2c6d8;      }      .cls-17 {        fill: #b63953;      }      .cls-18 {        fill: #070605;      }      .cls-19 {        fill: #d6415f;      }      .cls-20 {        fill: #e36b80;      }      .cls-21 {        fill: #f4d4ae;      }      .cls-22 {        fill: #fce0e4;      }    </style></defs><g id="Layer_1-2" data-name="Layer 1"><g><g><path class="cls-21" d="M53.47,148.41c32.85-.18,65.7.6,98.55,0,5.49.53,7.78,6.44,2.65,9.27l-143.05.26c-6.8-1.28-5.26-8.43-.79-9.27,2.1-.39,36.74-.23,42.65-.26Z"></path><path class="cls-21" d="M131.09,160.07l1.99.13c2.05,5.83-6.34,4.26-1.99-.13Z"></path></g><g><path class="cls-2" d="M66.05,99.4c.29,3.31,1.23,4.47,2.65,7.15,6.75,12.78,22.09,11.12,28.08-.13.19-.36-.28-.38-.26-.4,1.56-3.19,2.23-4.01,2.38-7.95,15.99,12.8,32.72,24.68,48.48,37.75l-.93.4-127.68-.26q23.64-18.28,47.29-36.56Z"></path><g><path class="cls-18" d="M149.5,29.73c6.35,5.45,15.4,10.96,16.42,20,.46,4.04.53,77.29,0,81.33-.75,5.73-5.36,9.57-10.99,9.93H10.29c-5.46-.82-8.63-3.78-9.93-9.14.86-15.09-1.13-75.18,0-83.71.96-7.23,10.56-13.46,15.63-18.15.52-.48,2.72-1.67,2.91-2.25.16-.46-.16-1.78,0-2.25.67.15.93-.46,1.32-.79-.99,6.5-.36,13.07-.26,19.6-.95-.26-1.11.68-1.59,1.06-2.15,1.68-4.53,3.12-6.62,4.9,2.04,1.84,4.47,3.22,6.62,4.9.52.41,1.01.88,1.59,1.32,12.13,9.32,32.2,24.42,44.5,32.32.96.62,1.77,1.53,2.91,1.85-1.24,2.76-1.58,5.75-1.32,8.74q-23.64,18.28-47.29,36.56l127.68.26.93-.4c-15.76-13.07-32.49-24.95-48.48-37.75.02-.38-.21-4.79-.26-5.03,15.42-11.08,30.51-22.6,45.56-34.17.58-.44,1.05-.91,1.59-1.32.06-.05.04.2,1.32-.79,2.52-1.95,5.18-3.72,7.68-5.7.08-.5-6.76-5.72-7.68-6.49-.36-.3-.66-.89-1.32-.79,0-3.56.23-17.49,0-18.68-.08-.41-.88-1.03-1.06-1.46,2.41.79.69.17.26-1.32,2.56,1.62,1.61,4.68,1.85,5.43.13.38,2.14,1.55,2.65,1.99Z"></path><path class="cls-4" d="M5.52,53.57c16.89,11.22,32.68,24.05,49.14,35.89q-24.57,19.14-49.14,38.28V53.57Z"></path><path class="cls-4" d="M160.49,54.1v73.38q-23.51-18.74-47.02-37.48,23.51-17.95,47.02-35.89Z"></path></g><path class="cls-7" d="M147.11,56.75v-12.19c.92.77,7.77,5.99,7.68,6.49-2.5,1.97-5.16,3.74-7.68,5.7Z"></path><path class="cls-4" d="M18.37,55.16c-2.15-1.68-4.58-3.06-6.62-4.9,2.09-1.78,4.47-3.22,6.62-4.9v9.8Z"></path><path class="cls-10" d="M147.11,44.57v12.19c-1.28.99-1.26.75-1.32.79v-13.78c.67-.1.96.49,1.32.79Z"></path><g><path class="cls-18" d="M88.04,1.65c3.98,2.32,21.97,19.45,23.44,19.87.36.1,1.16-.06,1.72,0l-1.59,1.32c-2.3,0-4.59,0-6.89,0-3.3-3.51-18.7-17.03-22.38-17.22-4.77-.25-20.23,16.71-21.59,16.95-1.91-.98-6.69.58-7.15-1.06,1.58-.32,19.69-17.75,24.11-20.13,3.63-1.96,6.75-1.82,10.33.26Z"></path><path class="cls-3" d="M104.73,22.84c-.88,0-1.77,0-2.65,0-.01-.28.09-.54-.13-.79-.73-.82-12.76-11.04-14.04-11.92-1.86-1.28-4.23-3.34-6.62-2.91-1.65.29-16.26,14.15-17.48,14.83-1.77.99-2.67.14-2.52,1.06-.7,0-.5-.26-.53-.26v-.26c1.36-.25,16.82-17.2,21.59-16.95,3.68.19,19.08,13.71,22.38,17.22Z"></path><path class="cls-6" d="M102.08,22.84c-1.9,0-3.21.26-4.24.26.01-.65-.35-.94-.79-1.32-2.06-1.81-4.29-3.51-6.36-5.3-1.78-1.54-5.82-6.68-8.34-6.09-1.12.26-9.47,8.12-11.26,9.54-.69.55-1.71,1.43-2.38,1.85-1.14.73-1.3,1.07-2.91,1.32-1.5,0-3,0-4.5,0-.16-.92.74-.07,2.52-1.06,1.23-.68,15.84-14.54,17.48-14.83,2.39-.43,4.76,1.63,6.62,2.91,1.28.88,13.31,11.1,14.04,11.92.22.25.12.51.13.79Z"></path></g><g><path class="cls-14" d="M144.2,58.87c-15.06,11.57-30.14,23.09-45.56,34.17-.02-.08-.41-.48-.79-1.32,11.47-7.9,34.58-26.77,44.9-32.58.21-.12,1.4-.77,1.46-.26Z"></path><path class="cls-11" d="M53.6,21.52c.46,1.64,5.25.08,7.15,1.06v.26c-5.27,0-36.16-.4-38.01,0-.86.18-1.81,1.26-2.52,1.85-.39.33-.65.95-1.32.79.62-1.84,1.4-3.57,3.58-3.97,3.34-.62,28.1.61,31.13,0Z"></path><path class="cls-11" d="M145,22.31c.43,1.5,2.15,2.11-.26,1.32-.45-.15-1.51-.77-1.72-.79-2.58-.32-25.11-.01-31.39,0l1.59-1.32c6.13.64,25.6-.65,29.8,0,.36.06,1.59.54,1.99.79Z"></path><path class="cls-5" d="M19.96,44.3c.06,4.06-.04,8.12,0,12.19-.58-.44-1.06-.92-1.59-1.32v-9.8c.48-.38.64-1.32,1.59-1.06Z"></path><path class="cls-14" d="M70.29,86.42c-.73.69-2.45,3.2-2.91,4.24-1.14-.33-1.96-1.24-2.91-1.85l5.43-4.5c.5.93-.5,1.93.4,2.12Z"></path><g><path class="cls-1" d="M60.76,22.84s-.17.26.53.26c1.5,0,3,0,4.5,0,10.68,0,21.37,0,32.05,0,1.03,0,2.34-.26,4.24-.26.88,0,1.77,0,2.65,0,2.3,0,4.59,0,6.89,0,6.28-.01,28.81-.32,31.39,0,.21.03,1.27.65,1.72.79.18.43.98,1.05,1.06,1.46.23,1.18,0,15.12,0,18.68v13.78c-.53.41-1.01.88-1.59,1.32-.05-.51-1.25.15-1.46.26-10.33,5.81-33.43,24.68-44.9,32.58-4.97-11.1-18.79-13.64-27.55-5.3-.9-.19.11-1.18-.4-2.12l-5.43,4.5c-12.3-7.9-32.38-23-44.5-32.32-.04-4.06.06-8.13,0-12.19-.09-6.54-.73-13.1.26-19.6.7-.6,1.66-1.67,2.52-1.85,1.86-.4,32.75,0,38.01,0Z"></path><g><path class="cls-9" d="M46.05,54.63h73.11l.4,1.46q-36.62.2-73.25.4l-.26-1.85Z"></path><path class="cls-5" d="M55.59,38.21h51.13l.13,2.25-51.52.13.26-2.38Z"></path><g><path class="cls-22" d="M119.83,49.6H45.66c-.27-1.1-.36-2.32-.26-3.44,10.14-.61,70.43.8,74.04,0,.09-.02.41-.36.4-.53.29,1.2.3,2.76,0,3.97Z"></path><path class="cls-20" d="M119.83,45.63c.01.17-.31.51-.4.53-3.61.8-63.9-.61-74.04,0,.04-.44-.14-1.93.13-2.12h74.17c.31.22.04,1.21.13,1.59Z"></path><path class="cls-17" d="M119.83,49.6c-.09.38.17,1.37-.13,1.59H45.79c-.31-.22-.04-1.21-.13-1.59h74.17Z"></path></g><path class="cls-11" d="M58.5,31.06h47.95l.13,1.99q-24.17.07-48.35.13l.26-2.12Z"></path><path class="cls-18" d="M77.05,62.85c1.03-.24,20.16-.23,21.19,0,2.4.52,1.84,3.3.53,3.71-1.06.33-21.19.33-22.25,0-1.3-.41-1.88-3.16.53-3.71Z"></path><path class="cls-18" d="M77.05,72.91c.94-.24,18.39-.19,19.34,0,2.29.47,2.76,2.87.53,3.44-.99.25-19.42.31-20.4,0-1.71-.54-1.1-3.03.53-3.44Z"></path><g><path class="cls-11" d="M59.56,62.85c.64-.19,13.98-1.02,11.52,2.52.08,1.77-10.69,1.34-11.26,1.19-1.91-.49-1.73-3.27-.26-3.71Z"></path><path class="cls-18" d="M59.83,73.18c2.76.58,14.93-1.97,10.07,3.44-2.84-.51-14,1.86-10.07-3.44Z"></path></g></g></g><path class="cls-5" d="M81.68,22.05c4.5,0,9.01.02,13.51,0,1,0,1.9.14,1.85-.26.44.39.81.67.79,1.32-10.68,0-21.37,0-32.05,0,1.61-.25,1.77-.6,2.91-1.32,4.3.48,8.67.26,12.98.26Z"></path></g><g><path class="cls-4" d="M97.84,91.72c.38.85.78,1.25.79,1.32.06.24.28,4.65.26,5.03-.16,3.94-.82,4.76-2.38,7.95-1.64.78-4.33-.36-5.3-1.85,7.77-12.53-12.37-24.19-19.34-9.8-4.33,8.95,3.84,10.35-3.18,12.19-1.42-2.68-2.36-3.84-2.65-7.15-.26-2.99.08-5.98,1.32-8.74.47-1.04,2.19-3.55,2.91-4.24,8.76-8.34,22.58-5.8,27.55,5.3Z"></path><path class="cls-12" d="M91.22,104.17c.96,1.5,3.66,2.63,5.3,1.85-.01.02.46.04.26.4-5.99,11.25-21.33,12.91-28.08.13,7.02-1.83-1.16-3.23,3.18-12.19-4.23,11.79,12.57,20.71,19.34,9.8Z"></path><path class="cls-15" d="M91.22,104.17c-6.77,10.91-23.57,1.99-19.34-9.8,6.97-14.39,27.11-2.73,19.34,9.8Z"></path></g><path class="cls-7" d="M90.69,16.49l-.53.53c-9.01-7.49-7.17-3.15-12.45.79-.92.69-5.94,3.63-6.62,2.12,1.78-1.42,10.14-9.28,11.26-9.54,2.53-.59,6.56,4.55,8.34,6.09Z"></path><path class="cls-16" d="M81.68,22.05c-4.31,0-8.68.22-12.98-.26.67-.43,1.69-1.3,2.38-1.85.69,1.51,5.7-1.43,6.62-2.12-.04,2.83,1.4,3.75,3.97,4.24Z"></path><g><path class="cls-8" d="M97.05,21.78c.04.41-.86.26-1.85.26-.85-1.5-3.58-3.83-5.03-5.03l.53-.53c2.07,1.79,4.3,3.49,6.36,5.3Z"></path><path class="cls-13" d="M90.16,17.02c1.45,1.21,4.18,3.53,5.03,5.03-4.5.02-9.01,0-13.51,0-2.57-.49-4.01-1.41-3.97-4.24,5.28-3.94,3.44-8.28,12.45-.79Z"></path><path class="cls-19" d="M82.08,17.28c4.9-1.11,5.54,5.7.26,4.5-2.3-.52-2.61-3.97-.26-4.5Z"></path></g></g></g></g></svg>