<?xml version="1.0" encoding="UTF-8"?>
<svg xmlns="http://www.w3.org/2000/svg" id="Layer_2" data-name="Layer 2" viewBox="0 0 168.16 349.3">
  <metadata></metadata>
  <defs>
    <style>
      .cls-1 {
        fill: #b8bfb4;
      }

      .cls-1, .cls-2, .cls-3, .cls-4 {
        stroke-width: 0px;
      }

      .cls-2 {
        fill: #dbe5f1;
      }

      .cls-3 {
        fill: #b0d3d5;
      }

      .cls-4 {
        fill: #103a47;
      }
    </style>
  </defs>
  <g id="Layer_1-2" data-name="Layer 1">
    <g>
      <path class="cls-2" d="M79.15.11c87.98-4.33,126.47,117.73,41.69,160.52q.25,82.63.5,165.27c-2.08,10.36-10.12,21.66-21.22,23.22-1.65.23-26.53.24-28.46,0-11.56-1.43-21.78-13.47-23.22-24.72-2.24-17.52,1.7-132.89,0-162.77C-2.02,137.66-15.69,73.88,19.98,30.82,33.91,14.01,57.19,1.19,79.15.11Z"></path>
      <path class="cls-3" d="M96.37,207.82c-3.73,1.4-11.28-.4-14.48,1q-10.24-8.99-20.47-17.97c-.04-5.16.05-10.35,0-15.48,5.31,5.61,33.35,29.65,34.95,32.45Z"></path>
      <path class="cls-4" d="M81.9,208.82c-1.38.61-17.37,19.77-20.22,22.47-.54-13.48-.14-26.96-.25-40.44q10.24,8.99,20.47,17.97Z"></path>
      <path class="cls-4" d="M62.17,272.23c1.82,3.01,18.78,20.77,18.72,22.22-.05,1.29-16.73,15.41-18.72,17.73v-39.94Z"></path>
      <path class="cls-4" d="M62.17,243.27l12.73,12.23-12.73,10.24v-22.47Z"></path>
      <g>
        <path class="cls-4" d="M96.37,207.82c-1.6-2.8-29.64-26.84-34.95-32.45-.05-4.26.54-18.71-.5-21.22-1.62-3.92-14.56-5.96-25.71-16.23C2.88,108.15,7.04,52.95,42.2,27.07c50.27-36.99,121.94,4.3,112.59,71.15-2.2,15.71-14.21,35.02-27.21,44.19-13.57,9.57-17.14,3.9-19.22,17.23-2.79,17.83,1.41,158.12-.5,168.26-.25,1.3-2.16,4.31-3.25,5.24-5.44,4.06-32.93,3.33-37.45.5-6.77-4.24-2.13-4.84,7.24-14.73.17-.18-.29-1.18.25-1.75,4.33-4.5,22.44-18.73,22.72-20.22.31-1.69-21.46-25.24-21.47-26.96,0-2,16.01-10.31,13.98-14.98-1.24-3.04-17.47-16.72-17.48-17.97,0-1.89,24.94-26.57,24.96-28.46,0-.33-.97-.69-1-.75Z"></path>
        <g>
          <path class="cls-2" d="M80.65,31.57c25.72-3.36,36.28,30.41,14.48,41.94-21.42,11.33-42.92-13.73-29.21-32.7,2.81-3.89,10.01-8.62,14.73-9.24Z"></path>
          <path class="cls-1" d="M82.64,43.05c16.68-2.63,15.97,24.12-.5,21.47-11.12-1.79-11.12-19.64.5-21.47Z"></path>
        </g>
      </g>
    </g>
  </g>
</svg>
