<?xml version="1.0" encoding="UTF-8"?>
<svg xmlns="http://www.w3.org/2000/svg" id="Layer_2" data-name="Layer 2" viewBox="0 0 199.07 304.71">
  <metadata></metadata>
  <defs>
    <style>
      .cls-1 {
        fill: #b9bfb4;
      }

      .cls-1, .cls-2, .cls-3 {
        stroke-width: 0px;
      }

      .cls-2 {
        fill: #103b47;
      }

      .cls-3 {
        fill: #dbe5f1;
      }
    </style>
  </defs>
  <g id="Layer_1-2" data-name="Layer 1">
    <g>
      <path class="cls-3" d="M125.67,37.64c6.66.97,15.33,12.59,8.99,22.72-6.75,10.78-24.4,6.24-25.47-6.49-.64-7.64,4.27-6.76-2-15.73-1.11-1.59-2.51-2.77-3.99-3.99-2.76-2.28-9.98-6.9-13.48-6.49.11-1.27-6.8-2.34-8.74-2.5C45.24,22.17,12.47,52,14.32,88.32c1.97,38.57,36.34,48.65,36.95,51.93.23,1.26-8.49,22.92-9.49,23.72-2.02,1.6-21.39,6.4-22.97,1.25-.39-1.28,4.31-21.58,3.5-26.46-.74-4.4-34.61-32.98-17.48-79.39C13.83,34.99,40.26,13.83,66.25,11.18c40.26-4.11,47.73,27.45,50.68,28.46.42.15,4.73-2.58,8.74-2Z"></path>
      <path class="cls-3" d="M66.25,69.6c-15.94,43.31,16.02,82.91,60.67,82.89.84,4.49,3.88,23.26,3.25,25.47-1.08,3.74-15.06,11.11-19.22,12.48-2.36-5.47-5.05-20.36-7.74-24.22-2.68-3.83-9.08-5.42-12.98-7.74-3.68-2.19-7.73-4.02-11.23-6.49-28.88-20.4-39-57.9-23.72-89.88,3.24,1.92,9.26,4.56,10.99,7.49Z"></path>
      <path class="cls-2" d="M125.67,37.64c-4.01-.58-8.31,2.14-8.74,2-2.95-1.02-10.42-32.57-50.68-28.46,3.07-13.52,19.79-12.6,30.71-8.49,13.1,4.93,26.38,21.09,28.71,34.95Z"></path>
      <path class="cls-1" d="M103.2,34.14c-15.37,6.25-31.12,19.62-36.95,35.45-1.73-2.93-7.74-5.57-10.99-7.49,5.11-10.7,22.34-33.04,34.45-34.45,3.5-.41,10.72,4.21,13.48,6.49Z"></path>
      <g>
        <path class="cls-2" d="M130.16,177.95c.64-2.2-2.41-20.98-3.25-25.47-44.65.02-76.61-39.57-60.67-82.89,5.83-15.83,21.58-29.2,36.95-35.45,1.48,1.22,2.88,2.4,3.99,3.99-18.93,39.33,29.49,46.8,35.45,21.22,4.7-20.15-16.44-20.99-18.97-33.95,67.11-6.39,103,75.52,43.94,114.84l31.46,137.81c-1.6,4.05-9.67,25.54-12.23,26.21-3.46,3.5-14.55-15.08-14.73-16.23-1.62-10.17,9.39-14.25-12.73-8.74-1.59-.63-2.41-15.56-3.5-15.98-.6-.23-10.31,3.53-12.48,3-.94-.23-7.14-8.39-8.74-9.74,17.52-.18,7.84-5.34,10.49-13.48.86-2.65,19.05-5.44,19.72-6.24,6.29-7.51-23.32-24.46-27.21-29.71q9.49-9.24,18.97-18.47c-8.09-8.96-13.84-12.9-26.46-10.74Z"></path>
        <path class="cls-2" d="M163.87,243.86c4.45-.83,6.64,7.09,3,8.99-13.92.61-18.39-3.24-3-8.99Z"></path>
      </g>
      <g>
        <path class="cls-2" d="M89.72,27.65c-12.11,1.41-29.34,23.75-34.45,34.45-15.29,31.97-5.16,69.47,23.72,89.88,3.5,2.48,7.55,4.3,11.23,6.49q-17.73,62.54-35.45,125.08-11.36,10.11-22.72,20.22c-4.41,2.33-7.34-18.13-7.24-19.22.19-2.23,7.54-10.78,6.99-11.98-1.56-.97-13.15-3.87-13.48-4.49-.74-1.38,5.74-13.75,5.49-14.48-.36-1.09-13.52-4.43-13.98-5.49-.4-.94-.16-8.1-1-10.99,16.11,5.81,9.59-1.34,15.48-7.49,3.02-3.16,18.29,5.86,20.47,3.5.32-2.25,3.06-6.58,3-8.49-.06-1.69-12.3-26.14-13.48-30.96,3.12-2.21,23.2-6,24.22-6.74,3.29-2.41-1.93-13.11-5.49-16.48-3.25-3.07-7.72-3.98-11.23-6.49,1-.79,9.72-22.46,9.49-23.72-.61-3.28-34.98-13.36-36.95-51.93-1.86-36.32,30.92-66.15,66.66-63.16,1.93.16,8.84,1.22,8.74,2.5Z"></path>
        <path class="cls-2" d="M31.55,237.37c1.16-.26,11.43,2.35,11.73,3.25l-3.25,8.24c-3.51.37-16.42-9.67-8.49-11.48Z"></path>
      </g>
    </g>
  </g>
</svg>
