<svg xmlns="http://www.w3.org/2000/svg" id="Layer_2" data-name="Layer 2" viewBox="0 0 190.09 173.67"><metadata></metadata><defs><style>      .cls-1 {        fill: #0c0d14;      }      .cls-1, .cls-2, .cls-3, .cls-4, .cls-5, .cls-6, .cls-7, .cls-8, .cls-9, .cls-10, .cls-11, .cls-12, .cls-13 {        stroke-width: 0px;      }      .cls-2 {        fill: #d62f45;      }      .cls-3 {        fill: #7e282d;      }      .cls-4 {        fill: #19767c;      }      .cls-5 {        fill: #ece9ef;      }      .cls-6 {        fill: #3d9aa5;      }      .cls-7 {        fill: #53acb2;      }      .cls-8 {        fill: #6fbdbf;      }      .cls-9 {        fill: #bd233a;      }      .cls-10 {        fill: #27838a;      }      .cls-11 {        fill: #d7beae;      }      .cls-12 {        fill: #a84f34;      }      .cls-13 {        fill: #ecdcd0;      }    </style></defs><g id="Layer_1-2" data-name="Layer 1"><g><path class="cls-1" d="M188.5,27.65c2.26,5.63-.03,18.53,1.59,22.52l-.26,105.57c-.58,2.1-1.11,4.28-2.12,6.23-2.9,5.58-9.73,10.2-15.89,11.13-6.63,1-117.42.44-134.05.26-5.07-.05-14.96.33-18.28,0-3.17-.31-5-1.22-7.68-2.65,7.7,3.7,3.43-1.51,4.9-2.38h152.86c4.69-.79,9.43-3.07,12.05-7.29.35-2.37-2.55,1.78-8.87,2.52l-141.2-.26c-14.79.11-10.93-2.72-12.05-4.37-.07-.1-.73.02-2.12-.93l3.58.79h147.82c6.08-.73,10.8-7.17,11.79-12.85.41-2.35.18-4.67.26-7.02.73-20.16.17-57.76,0-79.74-.05-6.68.33-14.84,0-21.19.89,1.11,8.1,5.36,8.48,4.37-.17-2.91.24-6.14,0-9.01-.02-.3-.98-5.67-1.06-5.96-.03.32.22.24.26.26Z"></path><path class="cls-1" d="M31.68,3.81c-.91-.34.51,1.83.53,2.25.05.86-.27,6.91-.66,7.02-1.15-1.15-10.23-.72-10.46-.13.43,3.96-.47,15.12-.26,16.95.03.26,1.15,3.69,1.85,3.31,2.37,3.38,7.6,2.47,8.21-3.18,1.65-1.29-.87-10.06,1.59-9.54,13.32,12.96-1.29,26.96-11.92,18.81-2.98-2.28-4.98-7.66-4.24-11.26.37-1.8,3.65-5.11.93-8.08-13.08,4.56-7.63,26.01-8.34,38.15-.28.81-.52.87-.53.93-.83,4.2.64,73.67,0,85.57,1.63,7.77,2.9,9.2,9.01,13.38,1.39.95,2.05.83,2.12.93,1.13,1.66-2.73,4.48,12.05,4.37l141.2.26c6.32-.74,9.23-4.88,8.87-2.52-2.62,4.22-7.37,6.49-12.05,7.29H16.71c-1.47.88,2.79,6.08-4.9,2.38-1.65-.88-2.54-1.39-3.97-2.65-2.76-2.42-4.8-5.31-6.09-8.74-.72-1.92-1.22-3.68-1.59-5.7C.51,119.15-.32,84.64.15,50.17c.14-10.32-1.4-20.38,5.03-29.27,6.64-9.17,13.81-7.78,14.31-8.48.36-.51-1.19-8.71,3.58-11.26,3.27-1.75,6.96-.68,8.61,2.65Z"></path><path class="cls-5" d="M30.88,30.04c-.61,5.65-5.84,6.56-8.21,3.18-1.92-2.75-1.04-16.22-.66-20.4l8.87.13c-.33,4.85.44,13.03,0,17.09Z"></path><g><path class="cls-1" d="M65.85,3.28c1.71,3.27.73,9.21,1.19,9.54h58.28c.58-.41-.7-5.6,1.19-9.27,3.06-5.94,13.85-5.26,12.05,9.27h18.28c-.79-6.14,1.53-15.81,9.67-11.92,5.45,2.61,3.4,10.67,3.71,11.26.57,1.11,13.98.42,18.01,15.23.08.29,1.03,5.66,1.06,5.96.24,2.87-.17,6.09,0,9.01-.38.98-7.59-3.26-8.48-4.37-.37-7.18-1.89-14.03-8.87-17.48l-.4.53c-.92,2.75,2.47,4.65,2.91,8.61,1.08,9.67-9.53,15.61-17.48,9.93-6.84-4.88-5.31-13.35-.26-18.94-.26-.93-12.34-.19-13.78-.13-.66.03-3.82-.84-4.24.13,11.89,13.37-2.7,26.7-12.72,18.68-8.56-6.86-.42-18.75-1.46-19.34l-57.62.26c-1.28,3.07,1.11,3,2.12,4.64,6.08,9.92-4.43,21.32-14.57,14.97-7.22-4.53-5.92-13.22-1.85-19.47-4.49-.16-9.02-.24-13.51-.13-2.19.05-4.47-.26-6.62.26-2.46-.53.06,8.24-1.59,9.54.44-4.06-.33-12.24,0-17.09l-8.87-.13c-.38,4.18-1.26,17.65.66,20.4-.71.38-1.83-3.05-1.85-3.31-.2-1.83.69-12.99.26-16.95.24-.59,9.32-1.02,10.46.13.39-.11.71-6.16.66-7.02-.02-.42-1.44-2.6-.53-2.25,1.87,3.76.64,8.62,1.19,9.01.85.61,18.33-.46,20.93,0-1.51-15.11,9.37-14.68,12.05-9.54Z"></path><path class="cls-5" d="M158.44,12.82l9.67.4c-.53,4.59,1.24,17-1.32,20.13-12.1,8.33-8.47-14.3-8.34-20.53Z"></path><path class="cls-5" d="M55.12,12.82l9.4.4c-.5,4.45,1.11,16.88-1.06,19.87-2.81,3.87-8.06,1.47-8.74-1.85-.31-1.5-.06-15.43.4-18.41Z"></path><path class="cls-5" d="M127.44,12.82l9.4.4c-1.01,5.14,3.46,23.6-6.23,21.86-5.85-1.06-3.17-17.83-3.18-22.25Z"></path></g><g><path class="cls-11" d="M179.76,57.59c.14.31.78,1.22,1.06,1.59.17,21.98.73,59.58,0,79.74-1.14-.14-.19,3.34-.53,4.11-.08.17-.87.01-1.32.79-2.32,4.03-3.89,7.31-8.61,9.14-2.47.96-18.35,2.64-19.21-.53,3.27,1.86,6.03.89,9.27-.53,3.35-1.47,8.66-5.84,9.54-9.54,1.35-5.7-2.52-8.05-2.91-9.93-.8-3.86,2.15-8.61-3.71-9.14-.17-.02-.35.01-.53,0-.85-1.25-9.85-.1-10.46-.53l.4-3.71c5.57,3.67,17.77-4.31,17.75-10.33-.02-5.14-5.85-5.82-6.09-6.23-.12-.2-.28-4.26-.26-4.77,0-.14.51-.19.53-.93.01-.52.98-2.55-.93-3.71-.53-.32-5.2-.49-6.23-.53,2.78-6.9,14.58-19.03,14.84-20.27.28-1.37-2.84-3.52-3.44-4.37-.18-.26-.36-.52-.53-.79-1.74-2.88-1.43-4.62,2.52-7.68,2.64-2.05,5.65-3.03,8.87-1.85Z"></path><g><path class="cls-12" d="M20.55,39.31c-.02,2.97,7.98,8.25,10.46,8.48,4.02.37,12.73-3.82,13.64-9.93,1.02-6.84-.78-12.68-5.56-17.62,4.49-.11,9.02-.03,13.51.13-4.07,6.25-5.37,14.95,1.85,19.47-.18,2.76,7.81,7.59,10.46,7.68,1.14.04,5.25-1.26,6.36-1.85,10.66-5.75,4.86-21.51-4.37-25.43l57.62-.26c1.03.59-7.1,12.48,1.46,19.34-.22,2.76,8.2,8.2,10.2,8.48,2.02.28,6.84-1.7,8.48-2.91,7.71-5.72,4.26-18.51-1.72-24.37,1.44-.06,13.52-.8,13.78.13-5.05,5.6-6.58,14.06.26,18.94-.44,2.62,7.47,7.4,9.67,7.68,3.42.43,9.25-2.02,11.26-4.9,4.62-6.62-1.18-16.59-6.36-21.33l.4-.53c6.98,3.46,8.5,10.3,8.87,17.48.33,6.36-.05,14.51,0,21.19-.28-.37-.92-1.28-1.06-1.59-1.9-4.22-3.31-7.06-8.34-8.21H18.56c-3.74.31-8.54,5.43-9.67,8.74.71-12.14-4.73-33.59,8.34-38.15,2.73,2.97-.56,6.28-.93,8.08-.74,3.6,1.26,8.98,4.24,11.26Z"></path><path class="cls-3" d="M39.09,20.23c4.78,4.94,6.58,10.78,5.56,17.62-.91,6.11-9.62,10.31-13.64,9.93-2.49-.23-10.48-5.5-10.46-8.48,10.63,8.15,25.24-5.85,11.92-18.81,2.16-.52,4.43-.21,6.62-.26Z"></path><path class="cls-3" d="M142.94,20.5c5.98,5.86,9.43,18.65,1.72,24.37-1.63,1.21-6.46,3.19-8.48,2.91-2-.27-10.42-5.71-10.2-8.48,10.02,8.02,24.61-5.31,12.72-18.68.41-.97,3.58-.11,4.24-.13Z"></path><path class="cls-3" d="M54.46,39.84c10.14,6.35,20.65-5.05,14.57-14.97-1.01-1.64-3.4-1.56-2.12-4.64,9.23,3.92,15.03,19.68,4.37,25.43-1.11.6-5.22,1.89-6.36,1.85-2.65-.09-10.64-4.92-10.46-7.68Z"></path><path class="cls-3" d="M156.98,39.57c7.95,5.68,18.56-.27,17.48-9.93-.44-3.96-3.84-5.86-2.91-8.61,5.18,4.74,10.97,14.7,6.36,21.33-2.01,2.88-7.84,5.34-11.26,4.9-2.2-.28-10.11-5.06-9.67-7.68Z"></path></g><path class="cls-1" d="M154.07,92.56c.48-.01,3.07-.02,3.44,0,1.03.04,5.69.21,6.23.53,1.91,1.16.94,3.19.93,3.71-3.71,2.48-12.94-1.46-15.63,2.78-2.93,4.63,1.62,16.4-4.11,15.23-3.23-.38-2.02-15.06-1.46-16.82,1.69-5.29,6.05-5.3,10.6-5.43Z"></path><path class="cls-1" d="M162.81,123.29c.18.01.36-.02.53,0,6.83,8.42-10.88,2.04-14.04,6.49-3.37,4.74,1.42,15.95-4.37,14.97-2.81.44-2.21-12.54-1.99-14.17.37-2.69,2.86-6.75,5.7-7.29.7-.13,12.43-.11,14.17,0Z"></path><g><path class="cls-8" d="M168.37,105.54c-.88,1.49-10.48,9.56-9.54,10.73,5.21.89,9.29-5.3,10.07-9.93.57.79,1.07,1.57,1.59,2.38.02,6.02-12.18,14-17.75,10.33-3.26-4.04,7.19-22.63,15.63-13.51Z"></path><path class="cls-4" d="M168.9,106.33c-.78,4.63-4.86,10.83-10.07,9.93-.94-1.17,8.66-9.24,9.54-10.73.29.31.33.52.53.79Z"></path></g><g><path class="cls-8" d="M167.05,135.74c.33.7.54,1.1.79,1.85l-9.8,10.73c1.24,2.69,5.26-.77,6.62-2.25.37,4.39-2.84,3.54-4.24,5.83-3.24,1.42-6,2.39-9.27.53-4.7-3.27,8.07-21.17,15.89-16.69Z"></path><path class="cls-7" d="M169.96,142.36c-.88,3.69-6.18,8.07-9.54,9.54,1.4-2.29,4.61-1.43,4.24-5.83,2.07-2.25,4.16-5.58,3.18-8.48-.26-.75-.47-1.16-.79-1.85,1.82,1.04,3.3,4.58,2.91,6.62Z"></path><path class="cls-4" d="M164.66,146.07c-1.36,1.48-5.38,4.94-6.62,2.25l9.8-10.73c.99,2.9-1.11,6.23-3.18,8.48Z"></path></g><g><path class="cls-13" d="M179.76,57.59c-3.22-1.17-6.24-.19-8.87,1.85-3.94,3.06-4.26,4.8-2.52,7.68-1.71-.79-2.96-2.26-4.77-.93-1.17.87-11.41,16.28-11.92,20-.71,5.14,2.16,2.55,2.38,6.36-4.55.13-8.91.14-10.6,5.43-.56,1.76-1.77,16.44,1.46,16.82,5.72,1.17,1.17-10.61,4.11-15.23,2.69-4.24,11.92-.3,15.63-2.78-.02.74-.53.78-.53.93-.01.51.14,4.56.26,4.77.24.4,6.07,1.09,6.09,6.23-.52-.81-1.02-1.6-1.59-2.38-.2-.27-.24-.48-.53-.79-8.44-9.12-18.89,9.47-15.63,13.51l-.4,3.71c.61.43,9.61-.72,10.46.53-1.74-.11-13.48-.13-14.17,0-2.84.54-5.33,4.6-5.7,7.29-.22,1.64-.82,14.61,1.99,14.17,5.8.99,1-10.23,4.37-14.97,3.16-4.45,20.87,1.93,14.04-6.49,5.86.53,2.9,5.28,3.71,9.14.39,1.89,4.26,4.24,2.91,9.93.39-2.05-1.09-5.58-2.91-6.62-7.83-4.48-20.6,13.42-15.89,16.69.85,3.17,16.73,1.49,19.21.53,4.72-1.83,6.29-5.11,8.61-9.14.45-.78,1.25-.62,1.32-.79.34-.76-.61-4.25.53-4.11-.08,2.35.14,4.67-.26,7.02-.98,5.68-5.71,12.12-11.79,12.85H20.95l-3.58-.79c-6.11-4.18-7.38-5.61-9.01-13.38.64-11.89-.83-81.37,0-85.57.01-.05.25-.11.53-.93,1.13-3.31,5.93-8.43,9.67-8.74h152.86c5.03,1.15,6.45,4,8.34,8.21Z"></path><g><path class="cls-1" d="M56.45,60.77c.86-.16,15.38-.68,15.5,1.46,1.96,8.11-12.12.92-15.63,6.09-3.07,4.51,2.14,20.87-6.09,14.84-1.1-5.82-1.9-20.89,6.23-22.39Z"></path><path class="cls-1" d="M118.96,60.77c1.31-.23,14.41-.69,14.7,1.72,1.72,7.7-11.53.72-15.1,5.83-3.64,5.21,1.85,17.36-4.64,16.29-2.68-.29-1.81-14.82-1.46-16.56.59-2.87,3.43-6.75,6.49-7.29Z"></path><path class="cls-1" d="M87.44,60.77c1.25-.22,14.5-.71,14.7,1.72,1.4,7.07-10.69,1.73-14.44,4.9-4.04,3.41-.25,14.37-3.18,15.89-5.97,3.55-6.48-20.86,2.91-22.52Z"></path><path class="cls-1" d="M26.78,60.77c1.35-.23,12.67-.58,13.11,1.46,2.52,7.3-9.81,1.94-13.25,5.3-4.05,3.96,1.47,17.72-4.64,16.82-3.55-.18-2.3-15.01-1.72-17.09.73-2.65,3.7-6.03,6.49-6.49Z"></path><path class="cls-1" d="M121.22,92.56c11.04-.58,11.81-.41,12.19,3.71-.99,2.7-10.21.63-13.38,1.32-6.5,1.43.51,18.41-6.36,16.95-3.38-.67-1.99-14.92-1.19-17.09,1.92-5.19,5.92-4.75,8.74-4.9Z"></path><path class="cls-1" d="M88.63,92.56c1.38-.09,10.97-.15,11.52,0,.37.1,1.63,1.01,1.72,2.38.35,5.24-11.17,1.05-14.7,3.18-4.33,2.61,1.09,17.99-5.03,16.42-3.02-.13-2.11-13.95-1.72-15.76.34-1.59,2.15-4.62,3.58-5.43,1.95-1.12,2.72-.67,4.64-.79Z"></path><path class="cls-1" d="M150.49,60.77c1.35-.23,11.83-.56,12.32,1.46,2.12,7.7-8.63,1.55-12.19,5.56-4.16,4.7,1.88,16.59-4.64,15.76-3.37-.89-4.34-21.25,4.5-22.78Z"></path><path class="cls-1" d="M100.02,123.29c.31.08.44-.15,1.32.53,4.02,8.01-11.74.82-15.1,5.96-3.09,4.73,1.93,16.47-4.37,14.97-2.66-.43-2.23-9.84-1.99-12.32,1.29-12.98,10.55-8.37,20.13-9.14Z"></path><path class="cls-1" d="M133.4,126.2c.09.46-.33.56-.26,1.06-3.29,1.66-11.25-.7-14.17,1.32-4.78,3.32,1.36,17.62-5.3,16.16-3.28-.72-2.39-14.83-.4-18.15,2.6-4.34,6.76-3.28,11.13-3.31,7.37-.05,8.25-.9,9.01,2.91Z"></path><path class="cls-1" d="M38.03,92.56c.62.21,2.2.17,2.38,2.38.17.65-.29,2.08-.79,2.38-1.61.95-10.91-.56-13.11.79-4.21,2.59,1.36,17.09-5.03,15.63-2.98-.99-2.01-15.6-.4-18.15,3.27-5.16,11.73-2.33,16.95-3.05Z"></path><path class="cls-1" d="M59.23,92.56c1.41-.07,8.69-.11,9.14,0,2.75.69,1.44,3.73,1.46,3.97-3.16,2.99-12.6-2.14-14.84,3.58-1.96,5.01,2.05,15.8-3.84,14.17-2.82-.78-1.88-14.63-.93-17.09,2.03-5.25,6.45-4.52,9.01-4.64Z"></path><path class="cls-1" d="M68.23,123.29c2.23.91,1.6,1.1,1.85,3.18-1.87,3.49-11.42-1.31-14.57,3.84-3.01,4.93,1.84,15.16-4.37,14.17-2.72-.69-2.46-14.78.13-18.41,3.28-4.59,12.01-2.87,16.95-2.78Z"></path><path class="cls-1" d="M38.03,123.29c1.73.81,1.62,1.23,1.85,2.91-.21,3.57-8.78.04-12.32,2.38-5,3.32.78,13.98-5.03,14.84-3.95-.14-3.13-13.97-.66-17.35,3.36-4.6,11.12-2.89,16.16-2.78Z"></path><path class="cls-11" d="M102.94,133.62c-.45-.09-.7-.27-1.06-.26-.23-3.2,2.56-7.16-.53-9.54-.89-.68-1.02-.45-1.32-.53-.03,0,.09-.49-.13-.53-6.37-1.08-12.19,3.13-9.4-5.03,1.86,4.79,11.05.48,12.98-2.65,1.45-1,3.43-3.54,3.71-5.3,1.98,1.07,2.62,4.2,2.38,6.23-.11.89-5.46,16.14-5.83,16.95-.2.44-.83.33-.79.66Z"></path><path class="cls-11" d="M71.68,133.09c-.42-.07-1.39-.05-1.85,0,.29-2.25.54-4.34.26-6.62-.25-2.08.37-2.27-1.85-3.18-.03-.01.1-.47-.13-.53-1.23-.31-7.16.23-9.54,0-.08-3.24.89-5.28.93-5.56,2.64,3.64,6.37,2.67,9.8.79,2.34-1.28,6.48-5.38,7.42-7.95.08.07,1.24-.12,1.59,1.19,1.04,3.93-5.44,17.09-6.62,21.86Z"></path><path class="cls-11" d="M39.89,126.2c-.23-1.69-.12-2.11-1.85-2.91-.03-.01.1-.47-.13-.53-1.05-.28-6.37.21-8.48,0,.61-1.02-.19-2.96.66-3.18,3.92,1.86,9.63-2.34,12.19-5.03.88-.92,2.89-2.69,3.18-3.97.83-1.66,2.33,2.35,2.38,3.05.21,2.48-6.29,15.13-6.89,19.07-2.43,1.11-.68-3.73-1.06-6.49Z"></path><g><path class="cls-11" d="M71.41,102.36c-.4-.06-1.15-.04-1.59,0,.61-1.95.12-3.88,0-5.83-.02-.25,1.29-3.28-1.46-3.97-.45-.11-7.73-.07-9.14,0-1.18-1.3-1.41-4.6.26-5.83.04.15,1.6,2.18,1.99,2.38,2.26,1.19,4.4.19,6.49-.79,1.96-.92,8.11-6.03,8.48-7.95,5.87,3.54-3.3,16.13-5.03,21.99Z"></path><g><path class="cls-8" d="M74.59,75.87c-3.86.01-13.62,13.75-5.3,9.27.44,2.25-.94,1.69-1.32,3.18-2.09.98-4.23,1.99-6.49.79-.39-.2-1.95-2.23-1.99-2.38-1.46-6.18,8.7-19.12,15.63-13.91.28,1.09-.38,2.05-.53,3.05Z"></path><path class="cls-4" d="M74.59,76.13c-.53,3.1-2.24,7.36-5.3,9.01-8.32,4.48,1.44-9.26,5.3-9.27-.01.09.01.18,0,.26Z"></path><path class="cls-7" d="M76.45,80.37c-.37,1.92-6.52,7.02-8.48,7.95.39-1.48,1.76-.93,1.32-3.18,3.06-1.65,4.77-5.91,5.3-9.01,1.31.81,2.12,2.83,1.85,4.24Z"></path></g></g><g><g><path class="cls-8" d="M44.13,74.81c-17.67,13.47-2.3,14.5.26.79.09.17,1.2.55,1.06,3.44-.27,5.57-13.7,15.19-15.63,7.15-1.92-7.99,8.84-18.31,14.31-11.39Z"></path><path class="cls-4" d="M44.39,75.6c-2.56,13.71-17.93,12.67-.26-.79.26.32.22.7.26.79Z"></path></g><g><path class="cls-11" d="M44.13,95.47c-1.34-.19-2.62.27-3.71-.53-.18-2.21-1.77-2.17-2.38-2.38-.03,0,.09-.48-.13-.53-1.4-.31-6.65.23-9.01,0-.25-.18-.57-5.69.93-5.83,1.93,8.04,15.36-1.58,15.63-7.15,5.74,1.65,1.2,9.98-1.32,16.42Z"></path><path class="cls-13" d="M44.13,95.47c-.89,2.28-1.51,4.65-2.52,6.89-2.6.46-.53-3.12-1.99-5.03.51-.3.96-1.73.79-2.38,1.09.8,2.36.34,3.71.53Z"></path></g></g><g><path class="cls-11" d="M136.05,126.73l-2.65-.53c-.76-3.81-1.63-2.97-9.01-2.91.2-.94-1.05-.28-1.32-.66-.17-.25.17-2.45,0-3.05,4.63,1.76,14.16-4.63,15.36-8.74l.66-.79c4.3,3.66-.73,11.69-2.52,16.56-.09.24-.52.1-.53.13Z"></path><path class="cls-13" d="M136.05,126.73c-.22.6.28.88.26.93-1.25,3.51-1.22,5.43-2.91,4.5.83-2.55-.16-4.02-.26-4.9-.06-.5.36-.6.26-1.06l2.65.53Z"></path></g><g><path class="cls-11" d="M120.42,149.78c5.85,6.79,14.46-3.67,18.28-8.21.94-1.12.2-1.87,2.38-.4-2.19,7.32-9.17,15.5-17.62,12.58-2.29-.79-2.8-1.78-3.05-3.97Z"></path><g><path class="cls-8" d="M138.7,141.57c-3.82,4.55-12.43,15-18.28,8.21-.85-7.63,7.47-18.22,14.17-16.95,3.15.6,5.24,5.85,4.11,8.74Z"></path><path class="cls-4" d="M134.2,143.95c-6.15,7.07-9.9,2.3-.26-5.3,2.4,1.56-3.61,7.52.26,5.3Z"></path><path class="cls-4" d="M134.2,143.95c-3.87,2.22,2.13-3.74-.26-5.3,2.9-2.28,4.44-3.3,2.65,1.72-.24.68-1.82,2.93-2.38,3.58Z"></path></g></g><g><path class="cls-11" d="M134.73,102.62c-.1-.03-1.51-.26-1.59-.26.29-1.97.44-4.11.26-6.09-.37-4.12-1.14-4.29-12.19-3.71,0-1.45.81-3.49,1.85-4.5,6.1,4.61,14.24-3.21,17.22-8.74,4.43,4.16-4.42,18.18-5.56,23.31Z"></path><g><path class="cls-8" d="M140.29,79.31c-2.97,5.54-11.12,13.35-17.22,8.74-2.58-6.33,6.75-19.23,13.64-15.36,3.28,1.84,1.88,5.64,1.99,5.96.18.56,1.17.27,1.59.66Z"></path><path class="cls-4" d="M131.02,85.67c-.54-1.88,2.58-4.26,1.32-5.56,9.56-10.72,4.77,3.56-1.32,5.56Z"></path><path class="cls-10" d="M131.02,85.67c-4.91,1.61.09-4.17,1.32-5.56,1.25,1.3-1.87,3.68-1.32,5.56Z"></path></g></g><g><path class="cls-11" d="M30.88,152.96c2.08.01,8.03-4.04,9.27-5.83,1.87-.97,5.2-4.93,5.3-6.89,6.57,2.93-8.86,20.67-14.57,12.72Z"></path><g><path class="cls-8" d="M42.8,134.68c-.72.15,1,.99.79,1.46-.07.16-.34-.12-1.06.66-.04.05-.23.49-.26.53-1.4,1.41-2.63,2.41-3.97,3.97-8.56,10.01-1.04,6.56,2.12,3.18,1.58.4.34,1.77-.26,2.65-1.24,1.79-7.19,5.84-9.27,5.83-8.89-2.65,3.03-25.55,11.92-18.28Z"></path><path class="cls-7" d="M45.45,140.24c-.09,1.96-3.43,5.92-5.3,6.89.61-.88,1.85-2.25.26-2.65,2.54-2.72,4.65-7.95,2.12-7.68.72-.78.99-.5,1.06-.66.21-.46-1.51-1.31-.79-1.46,1.53,1.25,2.74,3.6,2.65,5.56Z"></path><g><path class="cls-4" d="M40.42,144.48c-3.16,3.38-10.68,6.83-2.12-3.18,1.3.82,5.16-2.73,3.97-3.97.04-.04.22-.48.26-.53,2.54-.26.42,4.96-2.12,7.68Z"></path><path class="cls-4" d="M42.27,137.33c1.19,1.24-2.67,4.8-3.97,3.97,1.34-1.57,2.58-2.56,3.97-3.97Z"></path></g></g></g><g><path class="cls-11" d="M58.7,149.51c5.33,4.16,10.6-.67,14.31-4.5,2-2.07,2.5-3.22,3.18-3.97,3.19-3.54,1.92,4.7-1.85,9.14-5.48,6.45-13.63,4.09-15.36,1.32-.84-1.34-.25-1.89-.26-1.99Z"></path><g><path class="cls-8" d="M71.68,133.09c.44.07,1.17.54,1.59.79.6,1.79,1.36,1.19.53,2.38-.14.2-2.72,2.67-3.44,3.44-1.77,1.9-9.89,9.54-1.85,6.36.43-.17,2.83-1.99,3.18-2.38-.02.84.51,1.79,1.32,1.32-3.7,3.83-8.97,8.67-14.31,4.5-.59-4.06.28-7.08,2.65-10.46,1.66-2.36,5.54-5.66,8.48-5.96.46-.05,1.43-.07,1.85,0Z"></path><path class="cls-7" d="M76.18,141.04c-.68.75-1.18,1.9-3.18,3.97-.82.47-1.34-.48-1.32-1.32,1.4-1.58,3.71-5.76,2.12-7.42.83-1.19.07-.6-.53-2.38,2.4,1.47,2.72,5.08,2.91,7.15Z"></path><g><path class="cls-4" d="M71.68,143.68c-.34.39-2.75,2.21-3.18,2.38-1.32,1.06.16-3.13.26-3.31.09-.17,2.24-.4,1.59-3.05.72-.78,3.31-3.24,3.44-3.44,1.59,1.66-.72,5.84-2.12,7.42Z"></path><path class="cls-10" d="M68.5,146.07c-8.04,3.19.09-4.46,1.85-6.36.65,2.65-1.5,2.88-1.59,3.05-.1.18-1.58,4.37-.26,3.31Z"></path></g></g></g><g><path class="cls-8" d="M102.67,102.36c.2,0,1.14.21,1.32.26,2.61.83,2.45,2.75,2.65,3.44-.83,1.14.75,1.46-1.06,1.85.03-.46.15-1.66-.4-1.85-6,3.95-14.91,14.64-3.58,8.48-1.88,2.85.29,1.61,1.85.53-1.93,3.12-11.12,7.44-12.98,2.65-2.02-5.21,5.35-15.7,12.19-15.36Z"></path><path class="cls-7" d="M107.18,109.78c-.28,1.76-2.26,4.3-3.71,5.3-1.57,1.08-3.73,2.32-1.85-.53,1.16-1.76,3.79-4.12,3.97-6.62,1.81-.39.23-.71,1.06-1.85.31,1.07.71,2.62.53,3.71Z"></path><path class="cls-4" d="M105.59,107.92c-.18,2.5-2.82,4.86-3.97,6.62-11.33,6.16-2.42-4.53,3.58-8.48.54.19.43,1.4.4,1.85Z"></path></g><g><path class="cls-8" d="M43.07,105.01c-1.91,4.31-9.21,7.55-8.48,11.39,2.9.33,5.62-2.22,7.15-4.5l.53,2.65c-2.55,2.69-8.26,6.89-12.19,5.03-5.78-2.73,4.76-20.15,11.52-16.69,1.27.65,1.39,2.01,1.46,2.12Z"></path><path class="cls-6" d="M45.45,110.57c-.29,1.28-2.3,3.05-3.18,3.97l-.53-2.65c.82-1.22,1.52-2.53,1.85-3.97.07-.3-.1-.61.26-1.06.62,1.31,1.78,2.84,1.59,3.71Z"></path><g><path class="cls-4" d="M43.86,106.86c-.36.45-.2.76-.26,1.06-1.93.22-1.11,1.02-1.46,1.32-1.01.88-2.99,1.9-3.97,2.91-.87.9-2.33,3.73-3.58,4.24-.73-3.84,6.56-7.08,8.48-11.39.86,1.33.74,1.74.79,1.85Z"></path><path class="cls-4" d="M43.6,107.92c-.33,1.44-1.04,2.76-1.85,3.97-1.53,2.28-4.25,4.84-7.15,4.5,1.25-.51,2.71-3.34,3.58-4.24.98-1.01,2.97-2.04,3.97-2.91.35-.3-.47-1.11,1.46-1.32Z"></path></g></g><g><path class="cls-8" d="M71.41,102.36c2.27.34,3.36,2.57,3.97,4.5-.96.07-.16-1.18-1.06-.53,0-.19-.37-.54-.4-.53-.59.24-8.43,8.62-8.61,9.4-.8,2.52,3.69.6,4.77-.13.89,2.2-.53,1.56-.79,2.91-3.43,1.87-7.16,2.85-9.8-.79.14-1.08-.17-2.79,0-3.58.97-4.42,5.38-10.84,10.33-11.26.44-.04,1.19-.06,1.59,0Z"></path><path class="cls-7" d="M75.39,106.86c.59,1.88-1.01,1.11,1.32,3.18-.94,2.57-5.08,6.67-7.42,7.95.27-1.35,1.69-.71.79-2.91,2.11-1.43,4.74-6.02,4.24-8.74.9-.65.1.6,1.06.53Z"></path><path class="cls-4" d="M74.33,106.33c.5,2.73-2.13,7.32-4.24,8.74-1.08.73-5.56,2.65-4.77.13.18-.79,8.02-9.17,8.61-9.4.03-.01.4.34.4.53Z"></path></g><g><path class="cls-11" d="M90.22,148.98c4.25,6.61,16.64-3.79,17.22-8.48,3.34,1.54,2.34,7.69.53,10.2-4.11,5.7-16.78,4.12-18.01-.26-.29-1.01.27-1.38.26-1.46Z"></path><g><path class="cls-8" d="M101.88,133.35c.36,0,.61.17,1.06.26.82.17,1.18.34,1.85.79-.11.68,1.06,1.26,1.06,1.46,0,.15-.79.59-1.32,1.19-.74.84-1.59,1.59-2.38,2.38-.64.63-2.43,1.7-3.71,3.31-2.14,2.7-4.38,6.83,1.32,3.84.8-.42,2.01-1.46,2.65-2.12.62,3.74-6.31,6.64-9.14,6.09-.41-.08-.93-1.6-3.05-2.12-.03-1.23-.28-2.31,0-3.58.98-4.51,6.69-11.52,11.66-11.52Z"></path><path class="cls-7" d="M107.44,140.51c-.58,4.68-12.96,15.09-17.22,8.48-.01-.17,0-.35,0-.53,2.12.52,2.64,2.04,3.05,2.12,2.83.55,9.76-2.35,9.14-6.09,3.25-3.31,5.18-9.48,2.12-7.42.54-.6,1.32-1.04,1.32-1.19,0-.2-1.17-.77-1.06-1.46,2.1,1.42,2.95,3.62,2.65,6.09Z"></path><path class="cls-4" d="M102.41,144.48c-.64.65-1.85,1.7-2.65,2.12-.23-2.01,3.88-5.85,2.38-7.15.8-.79,1.64-1.55,2.38-2.38,3.06-2.07,1.13,4.11-2.12,7.42Z"></path><path class="cls-10" d="M99.76,146.6c-5.71,2.99-3.47-1.14-1.32-3.84,1.28-1.61,3.07-2.68,3.71-3.31,1.5,1.3-2.62,5.15-2.38,7.15Z"></path></g></g><g><path class="cls-8" d="M134.73,102.62c1.66.45,3.34,2.64,3.71,4.24-.53,2.18.13,3.79-2.38,1.59.51-3.29-.54-2.1-2.91-.53-2.89,1.91-5.06,4.76-6.09,8.08.36,1.01,3.8.27,5.03-1.46h.26c-.49.75.05,1.8-.66,2.65-.4.48-7.63,4.25-9.93.26-1.57-5.78,5.33-15.12,11.39-15.1.08,0,1.48.24,1.59.26Z"></path><path class="cls-7" d="M138.44,110.84c-1.2,4.11-10.73,10.5-15.36,8.74-.16-.56-.89-.51-1.32-2.12,2.31,3.98,9.53.22,9.93-.26.71-.85.17-1.9.66-2.65.69-1.05,3.19-2.74,3.71-6.09,2.51,2.2,1.85.59,2.38-1.59.3,1.27.37,2.72,0,3.97Z"></path><path class="cls-10" d="M132.08,114.54c-1.24,1.73-4.67,2.46-5.03,1.46,1.04-3.32,3.21-6.17,6.09-8.08.6,1.38-1.06,1.91-1.06,2.52,0,.23,1.95,1.37,0,4.11Z"></path><path class="cls-4" d="M136.05,108.45c-.52,3.36-3.02,5.04-3.71,6.09h-.26c1.95-2.73,0-3.87,0-4.11,0-.6,1.66-1.14,1.06-2.52,2.37-1.57,3.43-2.76,2.91.53Z"></path></g><g><path class="cls-11" d="M104,102.62c-.18-.06-1.12-.26-1.32-.26-.97-3.19.81-8.01-.79-7.42-.09-1.37-1.35-2.29-1.72-2.38-.56-.15-10.15-.09-11.52,0-.95-.93,1.14-4.8,2.12-6.09,1.01,4.73,6.59,2.79,9.54,1.06,2.35-1.39,6.72-5.36,6.89-8.21,7.16,5.08-2.01,16.25-3.18,23.31Z"></path><g><path class="cls-8" d="M104.26,72.95c-.75,1.48-2.08,5.22-2.65,6.09-.44.68-1.08,1.22-1.59,1.85-.21.26-3.21,1.72-3.71,5.17,1.18,1.08,3.11-.22,4.24-.93.06-.04.2.04.26,0,1.27,1.78-.42.81-.53,2.38-2.95,1.73-8.53,3.67-9.54-1.06-1.28-6,6.77-16.67,13.51-13.51Z"></path><path class="cls-7" d="M107.18,79.31c-.17,2.85-4.53,6.83-6.89,8.21.11-1.58,1.8-.6.53-2.38,1.99-1.36,6.06-6.96,4.37-9.54l-3.58,3.44c.56-.88,1.9-4.61,2.65-6.09,1.91.89,3.03,4.44,2.91,6.36Z"></path><g><path class="cls-4" d="M100.82,85.14c-.06.04-.2-.04-.26,0l-.53-4.24c.51-.64,1.15-1.17,1.59-1.85l3.58-3.44c1.69,2.58-2.38,8.18-4.37,9.54Z"></path><path class="cls-10" d="M100.02,80.9l.53,4.24c-1.13.71-3.05,2.01-4.24.93.5-3.45,3.5-4.91,3.71-5.17Z"></path></g></g></g></g></g><g><path class="cls-2" d="M168.37,67.12c.17.27.35.54.53.79-5.39,6.62-10.45,14.18-14.57,21.86-3.16.13-1.97-1.46-2.65-3.58.51-3.72,10.75-19.14,11.92-20,1.81-1.33,3.06.13,4.77.93Z"></path><g><path class="cls-9" d="M168.9,67.92c.6.85,3.73,3,3.44,4.37-.25,1.23-12.06,13.36-14.84,20.27-.38-.02-2.96-.01-3.44,0-.23-3.81-3.1-1.21-2.38-6.36.68,2.12-.51,3.71,2.65,3.58,4.12-7.67,9.18-15.23,14.57-21.86Z"></path><path class="cls-2" d="M170.09,69.51c3.7,2.99-.37,4.3-4.9,10.46-3.34,4.55-7.31,12.7-8.21,8.74q6.56-9.6,13.11-19.21Z"></path></g></g></g></g></g></svg>