<svg xmlns="http://www.w3.org/2000/svg" xmlns:xlink="http://www.w3.org/1999/xlink" id="Layer_2" data-name="Layer 2" viewBox="0 0 195.55 233.92"><metadata></metadata><defs><style>      .cls-1 {        fill: #bb8f5f;      }      .cls-1, .cls-2, .cls-3, .cls-4, .cls-5, .cls-6, .cls-7, .cls-8, .cls-9, .cls-10, .cls-11, .cls-12, .cls-13, .cls-14, .cls-15, .cls-16, .cls-17, .cls-18, .cls-19, .cls-20, .cls-21, .cls-22, .cls-23, .cls-24, .cls-25, .cls-26, .cls-27, .cls-28, .cls-29, .cls-30, .cls-31, .cls-32, .cls-33, .cls-34, .cls-35, .cls-36, .cls-37, .cls-38, .cls-39, .cls-40, .cls-41, .cls-42, .cls-43, .cls-44, .cls-45, .cls-46, .cls-47, .cls-48, .cls-49, .cls-50, .cls-51, .cls-52, .cls-53, .cls-54, .cls-55, .cls-56, .cls-57, .cls-58, .cls-59, .cls-60, .cls-61, .cls-62, .cls-63, .cls-64, .cls-65, .cls-66, .cls-67, .cls-68 {        stroke-width: 0px;      }      .cls-2 {        fill: #c99f6d;      }      .cls-3 {        fill: #7c7165;      }      .cls-4 {        fill: #b8a879;      }      .cls-5 {        fill: #748764;      }      .cls-6 {        fill: #a87e54;      }      .cls-7 {        fill: #3f3331;      }      .cls-8 {        fill: #9fa579;      }      .cls-9 {        fill: #43301b;      }      .cls-10 {        fill: url(#linear-gradient);      }      .cls-11 {        fill: #93523a;      }      .cls-12 {        fill: #6f5951;      }      .cls-13 {        fill: #472419;      }      .cls-14 {        fill: #2c2d0a;      }      .cls-15 {        fill: #fafafa;      }      .cls-16 {        fill: #3c210e;      }      .cls-17 {        fill: #aa988d;      }      .cls-18 {        fill: #686359;      }      .cls-19 {        fill: #8a7c77;      }      .cls-20 {        fill: #4e2f16;      }      .cls-21 {        fill: #342e1a;      }      .cls-22 {        fill: #55542f;      }      .cls-23 {        fill: #23332f;      }      .cls-24 {        fill: #123f10;      }      .cls-25 {        fill: #181612;      }      .cls-26 {        fill: #2c2524;      }      .cls-27 {        fill: #634637;      }      .cls-28 {        fill: #4d362e;      }      .cls-29 {        fill: #a7a9ac;      }      .cls-30 {        fill: #c3c0bb;      }      .cls-31 {        fill: #876130;      }      .cls-32 {        fill: #78482a;      }      .cls-33 {        fill: #d9c39d;      }      .cls-34 {        fill: #9a6a44;      }      .cls-35 {        fill: #5f2a0f;      }      .cls-36 {        fill: #353f12;      }      .cls-37 {        fill: #9a908d;      }      .cls-38 {        fill: #d8cfc6;      }      .cls-39 {        fill: #947c64;      }      .cls-40 {        fill: #786865;      }      .cls-41 {        fill: #6e6443;      }      .cls-42 {        fill: #1d2d0b;      }      .cls-43 {        fill: #34160a;      }      .cls-44 {        fill: url(#linear-gradient-4);      }      .cls-45 {        fill: url(#linear-gradient-2);      }      .cls-46 {        fill: url(#linear-gradient-3);      }      .cls-47 {        fill: url(#linear-gradient-8);      }      .cls-48 {        fill: url(#linear-gradient-7);      }      .cls-49 {        fill: url(#linear-gradient-5);      }      .cls-50 {        fill: url(#linear-gradient-6);      }      .cls-51 {        fill: #875933;      }      .cls-52 {        fill: #3e602e;      }      .cls-53 {        fill: #1d110a;      }      .cls-54 {        fill: #6f4a4b;      }      .cls-55 {        fill: #19201b;      }      .cls-56 {        fill: #e2e1e0;      }      .cls-57 {        fill: #505a26;      }      .cls-58 {        fill: #b1aaa6;      }      .cls-59 {        fill: #f0c292;      }      .cls-60 {        fill: #47463f;      }      .cls-61 {        fill: #cdbbad;      }      .cls-62 {        fill: #354b10;      }      .cls-63 {        fill: #626829;      }      .cls-64 {        fill: #837853;      }      .cls-65 {        fill: #928e8b;      }      .cls-66 {        fill: #76864c;      }      .cls-67 {        fill: #55473b;      }      .cls-68 {        fill: #2e2e2b;      }    </style><linearGradient id="linear-gradient" x1="51.5" y1="16.94" x2="64.32" y2="75.46" gradientUnits="userSpaceOnUse"><stop offset="0" stop-color="#b6afa8"></stop><stop offset=".78" stop-color="#efe5da"></stop></linearGradient><linearGradient id="linear-gradient-2" x1="100.24" y1="17.69" x2="98.15" y2="68.5" gradientUnits="userSpaceOnUse"><stop offset="0" stop-color="#bcb2a8"></stop><stop offset="1" stop-color="#dfd5cb"></stop></linearGradient><linearGradient id="linear-gradient-3" x1="41.3" y1="113.6" x2="66.52" y2="137.12" gradientUnits="userSpaceOnUse"><stop offset="0" stop-color="#c5bcb6"></stop><stop offset="1" stop-color="#a3a09b"></stop></linearGradient><linearGradient id="linear-gradient-4" x1="132.12" y1="13.16" x2="125.54" y2="108.43" gradientUnits="userSpaceOnUse"><stop offset=".02" stop-color="#9a948e"></stop><stop offset=".11" stop-color="#ccc1b9"></stop><stop offset=".47" stop-color="#e3d9d0"></stop><stop offset=".56" stop-color="#e3d9d1"></stop><stop offset=".86" stop-color="#826d62"></stop><stop offset="1" stop-color="#ae9c90"></stop></linearGradient><linearGradient id="linear-gradient-5" x1="138.13" y1="25.45" x2="147.48" y2="64.73" gradientUnits="userSpaceOnUse"><stop offset="0" stop-color="#9f9089"></stop><stop offset="1" stop-color="#c7b4a7"></stop></linearGradient><linearGradient id="linear-gradient-6" x1="36.64" y1="56.39" x2="16.21" y2="56.67" gradientUnits="userSpaceOnUse"><stop offset="0" stop-color="#dfd1c4"></stop><stop offset="1" stop-color="#958b86"></stop></linearGradient><linearGradient id="linear-gradient-7" x1="58.33" y1="27.12" x2="60.58" y2="69.98" gradientUnits="userSpaceOnUse"><stop offset="0" stop-color="#c9b5a8"></stop><stop offset="1" stop-color="#e5d5c6"></stop></linearGradient><linearGradient id="linear-gradient-8" x1="36.61" y1="34.79" x2="28.95" y2="35.49" gradientUnits="userSpaceOnUse"><stop offset="0" stop-color="#d6c9bc"></stop><stop offset="1" stop-color="#b3a19a"></stop></linearGradient></defs><g id="Layer_1-2" data-name="Layer 1"><path class="cls-65" d="M189.84,233.32c-.17.12-.19,1.03-1.03.34.18-.26-.27-1.19,1.03-.34Z"></path><g><path class="cls-28" d="M44.24,211.71c1.02,2.7,6.92,2.32,8.21,3.83-4.83.28-7.14.99-11.66,1.91-.34-4.22-1.67-6.47,3.44-5.74Z"></path><path class="cls-38" d="M102.8,134.03c2.4,2.51-.81,7.73-1.19,7.93-.34.18-6.56-.02-7.55,0-.18-.34-.23-.41-.26-.82-.44-5.37-.35-8.74,2.65-6.7-1.3,7.6,2.05,8.26,1.32,0,4.32-2.78-.7,9.17,3.31,7.25l.4-7.52c.19-.28.98-.08,1.32-.14Z"></path><path class="cls-35" d="M68.62,124.18v.27l-2.12-.14v5.33c-.7,0-2.79.15-3.18-.14-.37-.27.59-6.59-.26-7.52,3.27-3.29,2.99,1.69,3.31,1.91.09.07.99-.05,2.25.27Z"></path><path class="cls-27" d="M52.98,123.36c.9,7.93-.88,6.07-2.65,6.29.28-1.89-.26-3.89-.26-5.74,0-.1.44-.09.26-1.91,2.38.04,2.32-1.51,2.65,1.37Z"></path><path class="cls-27" d="M56.43,122.26c-.91.58-.63,5.26-.26,7.39-.51-.04-2.73.15-2.91-.14.9-1.99-.02-4.5.53-6.15,1.05-3.17,2.48-1.18,2.65-1.09Z"></path><path class="cls-34" d="M58.02,123.09c.15,2.27.87,4.31.53,6.56-.99.07-1.41.07-2.38,0-.36-2.13-.64-6.81.26-7.39.5.24,1.06.57,1.59.82Z"></path><g><path class="cls-35" d="M62.52,122.26c.06.87-.43,5.49-.53,7.25-.33.31-2.75.09-3.44.14.34-2.26-.38-4.29-.53-6.56.13.06,1.18.5,1.32.55.05.02.12.7.93.55,1.68-.32,1.47-2.32,1.72-3.56.35.59.48.94.53,1.64Z"></path><path class="cls-11" d="M61.99,120.62c-.26,1.23-.05,3.23-1.72,3.56-.81.16-.88-.53-.93-.55-.08-2.01.79-5.37,2.65-3.01Z"></path></g><path class="cls-61" d="M45.83,114.33c.09-1.2.5-1.92,0-1.91.19-.01,1.02-1.39,3.44-.14-.73,1.34-1.96,2.33-3.44,2.05Z"></path><path class="cls-28" d="M49.27,121.72c1.22-.14,1.01.27,1.06.27.17,1.82-.27,1.82-.26,1.91-.5.25-1.12.16-1.59.27.1-3.16.79-2.32.79-2.46Z"></path><g><path class="cls-24" d="M173.82,115.97c-.02.06.56.45.26,1.23-.08.22-3.1,1.78-.13,2.6.12-2.38.95-1.23,1.06-1.37.49-.61-.84-1.06,1.06-1.64,1.43.31-.08,2.61,1.19,4.38.07.09-.23.67.53.55-.68,2.69,1.1,2.34.13,3.83-.32-1.05-1.59-.49-1.85-.55-.18-.04-.44-1.68-3.18-.27,2.69.55,6.82,1.82,9.14.55.94-.52,1.33-1,2.12-1.64,0,.03.52.2.53.41.05.84-1.14,2.03.53,4.38-.52.7-.63-.01-1.85.41-1.73.6-1.75,1.06-1.85,1.09-1.15.44-2.78.16-3.05.27-.78.32-.12,1.45-.13,1.91-1.02.19-.22-1.41-.66-1.91-.23-.26-2.48.18-3.05-1.09.08-.88-.81-1.91-.93-1.91-.24-.01-1.15,4.98-2.78,1.64,1.29.43,1.05-2.74,0-1.91-1.47.21-.52,6.63-.79,7.93-1.42,0-3.04.57-4.5.27-.24-.05-.55.13-.53-.27h4.11c.47-1.43.12-1.3.13-1.37.69-3.27-1.05-4.03.26-8.07-.56-.99-.78,1.17-2.38.41-.28-1.8-.72-1.03-3.97-2.46,0-.08-.24-1.56-.26-1.64.92-.64,1.63-1.14,2.65-1.64.18-.09.5-.26.53-.27.38-.15.34,1.34,1.72-1.37,1.33-.29,2.43,3.8,1.46-.27l.66-1.37c.32.04-.31,1.39.93,1.09,1.56,5.41.8-2.7,2.91-1.91Z"></path><path class="cls-57" d="M165.87,109.14c1.83.13,1.55,5.14,1.85,1.5.8-1.45,1.01,4.77,1.06,5.06-1.15-.96-2.58,2.56-2.65,4.1-.03.01-.35.19-.53.27.18-2.29,2.36-6.21,1.06-7.11-.12-1.28-.48-.75-1.06-1.09-.04-.02.11-.43-.13-.55-1.11-.52-6.05-.98-7.82-1.64,2.42.03,4.78-.73,7.29-.55.24.02,1.05,1.06.93,0Z"></path><path class="cls-36" d="M173.02,109.41c-5.65,2.04-2.93,1.93-2.91,2.19,0,.05-.11.1,0,1.09.22,1.91.16,2.98.79,5.2-1.24.3-.61-1.06-.93-1.09l-.66,1.37c-.21-.89-.38-1.53-.53-2.46-.05-.29-.26-6.51-1.06-5.06-.31,3.63-.03-1.38-1.85-1.5.37-3.82,2.03.75,2.25.82.28.09,4.88-2.85,4.9-.55Z"></path><path class="cls-41" d="M175.14,114.33c.1.82-.5,1.07-.13,1.37,3.32-3.55,1.93-.3,2.25,5.47-1.27-1.76.24-4.06-1.19-4.38-1.9.59-.57,1.03-1.06,1.64-.11.14-.94-1.01-1.06,1.37-2.97-.81.05-2.38.13-2.6.3-.78-.28-1.17-.26-1.23.04-.14-.04-.39,0-.55.05-.23,1.11.79.79-4.38.08-.02.18.01.26,0-.17,1.14.13,2.19.26,3.28Z"></path><path class="cls-14" d="M177.26,111.32l.79.14c.09,1.68-.5,9.33,0,9.98.03.34-.26.25-.26.27-.76.13-.46-.46-.53-.55-.32-5.77,1.07-9.02-2.25-5.47-.36-.3.23-.55.13-1.37,1.28.46.94-3.2,0-3.28.76-.05,1.4.03,2.12.27Z"></path><path class="cls-36" d="M173.82,115.43c-2.03.05-1.07-2.11-1.19-2.19-.22-.14-2.2,1-2.52-.55-.11-.99,0-1.04,0-1.09,3.94,1.27,3.2.07,3.44,0,.33-.1.73-.46,1.06-.55.31,5.17-.74,4.14-.79,4.38Z"></path><path class="cls-39" d="M173.02,109.41c1.11.16.51,1.54.53,2.19-.24.07.49,1.27-3.44,0-.01-.26-2.74-.15,2.91-2.19Z"></path><path class="cls-36" d="M175.14,114.33c-.13-1.1-.44-2.14-.26-3.28.08-.01.18,0,.26,0,.94.08,1.28,3.74,0,3.28Z"></path><path class="cls-33" d="M170.9,126.91c-.43.7-.36,1.18,0,1.91,1.63,3.34,2.54-1.65,2.78-1.64.12,0,1,1.03.93,1.91,0,.04-.55-.36-.53.68.03,1.53.54,3.23.53,4.79-1.34-.07-3.07.28-4.5.27.27-1.3-.68-7.72.79-7.93Z"></path><path class="cls-33" d="M167.19,125.82c.13.85.01,3.14,0,4.38-.99.02-1.95-.39-2.91-.55-.26-.04-.28-.25-.53-.27.09-.39-.65-4.05-1.06-4.92.18-.19.52-1.03.53-1.09,3.25,1.43,3.7.66,3.97,2.46Z"></path><path class="cls-14" d="M174.61,129.1c.57,1.27,2.82.83,3.05,1.09.45.51-.36,2.1.66,1.91-.02.97-.16,2.16.26,3.01-.68-.17-2.65.09-3.84,0-.22-.02-.11-.55-.13-.55.01-1.56-.5-3.25-.53-4.79-.02-1.04.53-.64.53-.68Z"></path><path class="cls-24" d="M180.44,122.26c1.76,1.23,1.07,1.97,1.59,3.01-2.32,1.28-6.45,0-9.14-.55,2.74-1.41,3,.24,3.18.27.27.05,1.54-.5,1.85.55.97-1.48-.81-1.14-.13-3.83,0-.02.29.07.26-.27.3.4,1.8.42,2.38.82Z"></path><path class="cls-52" d="M169.31,133.48c-.76-.29-1.64-.23-2.38-.55.44-.81.26-1.83.26-2.74.01-1.24.13-3.52,0-4.38,1.61.76,1.82-1.4,2.38-.41-1.31,4.04.42,4.8-.26,8.07Z"></path><path class="cls-64" d="M173.82,115.43c-.04.16.04.41,0,.55-2.12-.79-1.36,7.32-2.91,1.91-.64-2.21-.58-3.28-.79-5.2.31,1.55,2.29.41,2.52.55.13.08-.84,2.24,1.19,2.19Z"></path><path class="cls-39" d="M168.78,115.7c.15.93.32,1.57.53,2.46.97,4.07-.13-.02-1.46.27-1.38,2.71-1.34,1.22-1.72,1.37.07-1.54,1.5-5.07,2.65-4.1Z"></path><path class="cls-63" d="M170.9,128.83c-.36-.73-.43-1.21,0-1.91,1.05-.82,1.29,2.35,0,1.91Z"></path><path class="cls-62" d="M165.6,111.87c.58.34.94-.18,1.06,1.09-1.23,1.16-2.76,2.15-4.5,1.91v-1.64c.75-.49,2.51-1.18,3.44-1.37Z"></path><path class="cls-66" d="M162.16,114.88c-2.2-.29-1.05-.95,0-1.64v1.64Z"></path><path class="cls-4" d="M167.19,130.2c0,.91.18,1.93-.26,2.74-.78-.32-1.41-.93-2.12-1.37-.05-.36-.74-.97-.53-1.91.96.16,1.92.56,2.91.55Z"></path></g><g><path class="cls-41" d="M162.95,121.72c.02.08.27,1.56.26,1.64,0,.06-.35.9-.53,1.09-.29.3-.76.25-.79.27-2.93-.78-2.13,2.71-2.38,4.65-.09,0-.18,0-.26,0-1.43-1.69-.07-1.22,0-2.32.24-3.78-1.3-2.96-1.32-3.56-.02-.63.69-.18,1.06-1.23.57-1.61.02-3.49,2.52-2.74.4.2,1.42,2.06,1.46,2.19Z"></path><path class="cls-42" d="M163.75,129.38c-.98-.11-2.15.05-3.18,0,.22-1.71-.31-3.51-.26-3.69.1-.38,1.26-.67,1.59-.96.03-.03.5.03.79-.27.41.88,1.15,4.53,1.06,4.92Z"></path><path class="cls-8" d="M161.89,124.73c-.33.29-1.48.58-1.59.96-.05.18.49,1.98.26,3.69-.24-.01-.7,0-1.06,0,.26-1.94-.54-5.43,2.38-4.65Z"></path></g><g><path class="cls-53" d="M71.53,133.21c3.8,0,7.6-.01,11.39,0,.88,0,1.77,0,2.65,0-.07.03-1.02,1.03-1.06,1.09-2.09,3.17.2,8.19-4.5,6.7,1.5-1.99.28-3.79,1.19-6.15q-3.11.07-6.23.14c0,4.32,5.71-2.69,4.5,5.2-4.25,2.62-1.21-3.08-4.5-2.87-.22.01-.73.96-4.11.27-.72-2.59.95-3.59-.13-3.83.23-.34.28-.66.79-.55Z"></path><path class="cls-55" d="M74.98,137.31l-.26,4.1c-1.4-.21-3.13.36-4.5-.27.11-.57-.05-1.49,0-2.19.07-.87-.04-3.9,0-4.1.03-.18.39-.89.53-1.09,1.08.24-.59,1.24.13,3.83,3.38.69,3.89-.26,4.11-.27Z"></path><g><path class="cls-58" d="M93.79,141.14c.03.41.08.48.26.82-5.44.11-14.1-.36-18.28,0-.73.08-.23-.42-1.06-.55l.26-4.1c3.3-.21.25,5.49,4.5,2.87,1.2-7.89-4.5-.88-4.5-5.2q3.11-.07,6.23-.14c-.91,2.37.31,4.17-1.19,6.15,4.71,1.49,2.42-3.53,4.5-6.7,1.29-.31.07,3.92.66,7.11,6.62.32,4.07.17,4.77-7.39,4.96-1.53-.13,8.71,3.84,7.11Z"></path><path class="cls-30" d="M91.01,136.76l.66.41c.29,3.31-1.36,2.5-.66-.41Z"></path></g></g><g><path class="cls-38" d="M100.95,123.09c.02-.25-.28-.29-.26-.55.12-2.57,1.34-6.74-1.85-7.66.03-.42.09-.48.26-.82,5.19,1.1,4.08,3.9,1.85,9.03Z"></path><path class="cls-67" d="M96.97,112.69s.09.5-.13.55c-.12.02-.92-1.23-1.99.27-.97,1.37-1.66,6.05-1.32,7.66h-.26c-.06-2.65-.16-5.11,1.06-7.52l-3.97-.14c1.46-.67,5.25-1.68,6.62-.82Z"></path><path class="cls-18" d="M99.09,114.06c-.17.34-.24.4-.26.82-.17,2.58.14,5.1.26,7.66.03.53-.33.62-.26,1.09-1.24-.1-1.33-9.44.26-9.57Z"></path><path class="cls-67" d="M102.27,113.51c.03.09,1.3,1.29.4,1.37-2.75-3.01-3.25-1.58-3.44-1.64-.23-.07-.11-.54-.13-.55.37-.55,2.41.22,3.18.82Z"></path><path class="cls-38" d="M93.26,121.17c.05,2.21-5.95-2.7-4.5-6.56.32-.61,1.03-.84,1.59-1.09l3.97.14c-1.22,2.42-1.12,4.88-1.06,7.52Z"></path><path class="cls-3" d="M93.26,121.17h.26c.47,2.25,1.2.36,2.38,1.64.17,1.15-.58,1.12-.53,2.46-1.19-.47-.02.56-1.59.55.11-4.82-7.57-5.42-5.03-11.21-1.45,3.87,4.56,8.77,4.5,6.56Z"></path><path class="cls-38" d="M100.68,122.54h-1.59c-.12-2.56-.43-5.08-.26-7.66,3.19.92,1.97,5.09,1.85,7.66Z"></path></g><g><path class="cls-25" d="M115.52,133.48c.26.42.35,3.97,0,4.65-.1-1,.31-1.8-.53-1.64-2.33-1.04-2.04.48-2.38,2.19-.11.54.2,2.49-.13,2.74-8.32,1.35-3.61-4.2-4.9-7.25-3.5-1.12-.99,5.13-2.12,7.52-1.14-.73-.25-5.72-.53-7.52-.14-.21-1.77-.19-2.12-.14-.35.05-1.13-.15-1.32.14l-.4,7.52c-4.01,1.93,1.01-10.03-3.31-7.25.73,8.26-2.63,7.6-1.32,0-3-2.04-3.09,1.33-2.65,6.7-3.98,1.6,1.12-8.64-3.84-7.11-.7,7.55,1.85,7.71-4.77,7.39-.59-3.2.62-7.42-.66-7.11.04-.06.99-1.06,1.06-1.09,7.29.06,14.59-.08,21.86,0,3.03.03,5.18.85,8.08.27Z"></path><path class="cls-55" d="M100.68,122.54c-.01.26.28.3.26.55-.1,1.34.41.31-.79,3.28-.33.82-1.77,1.96-.53,2.74-.54.2-1.9-.66-1.19,1.64h6.36l.4-6.29c2.79-.35,2.72.31,4.77,1.37-.05,5.61,1.5,3.47,3.44,4.79-.61.84-.89.61-1.32.68-1.33.22-17.28-.01-21.46,0-2.56,0-5.12-.02-7.68,0-.02-.45,0-.91,0-1.37-.02-.75-.11-5.3.13-5.47,2.53.26,5.71-.33,6.09-.27.21.03,1.12.81,1.19.82-.82-.29-.69,3.03-.26,4.65-2.47,1.61,2.04.96,6.23,1.09.94-1.51-.07-1.26-.13-1.64-.1-.61-.19-1.3-.26-1.91-.24-1.97-.53-1.82-.53-1.91-.05-1.34.7-1.31.53-2.46.78.84.62,2.74.79,3.83.18,1.1.05,2.92.79,2.32.77-1.24,5.06-8.17,1.32-5.33-.07-.48.29-.56.26-1.09h1.59Z"></path><path class="cls-68" d="M105.19,124.45l-.4,6.29h-6.36c-.71-2.3.65-1.44,1.19-1.64,2.25-.83,3.68-.44,3.44-3.83.85-.37,1.05-.69,2.12-.82Z"></path><path class="cls-28" d="M115.26,129.38c.18.91-.7.37-1.06.55-.19.09-.39-.47-.53-.14-.07.17.47,3.16-1.59,1.5.43-.07.71.16,1.32-.68-1.94-1.32-3.49.82-3.44-4.79,2.17,1.12,5.01,3.42,5.3,3.56Z"></path><path class="cls-60" d="M103.07,125.27c.24,3.39-1.19,3-3.44,3.83-1.24-.77.2-1.92.53-2.74,1.02-.16,1.98-.68,2.91-1.09Z"></path><path class="cls-60" d="M90.35,125c1.27.27,1.92.81,3.44.82,1.57.01.4-1.02,1.59-.55,0,.1.29-.05.53,1.91-1.92.57-2.26,1.3-4.37.27-.19-.09-1.25-3.07-.66,1.91-.36.03-.51.09-.79.27-.42-1.62-.55-4.94.26-4.65Z"></path><path class="cls-60" d="M95.91,127.19c.07.61.17,1.31.26,1.91-4.08,1.4-5.03.25-5.3.27-.59-4.98.48-2,.66-1.91,2.12,1.02,2.45.29,4.37-.27Z"></path><path class="cls-68" d="M96.18,129.1c.06.38,1.07.14.13,1.64-4.18-.14-8.69.52-6.23-1.09.29-.19.44-.25.79-.27.27-.02,1.22,1.12,5.3-.27Z"></path></g><g><path class="cls-21" d="M158.98,122.26c-.37,1.05-1.08.6-1.06,1.23.02.59,1.56-.23,1.32,3.56-.07,1.1-1.43.63,0,2.32-.53,0-1.06,0-1.59,0-.24-4.98.91-5.26-1.32-6.56-.06-.04-.07-.75-1.32-.55.97-2.14,2.45-.12,3.97,0Z"></path><path class="cls-38" d="M156.33,122.81c-.84,2.07.46,6.39-.79,6.56-.09,0-.18,0-.26,0-.26,0-.53,0-.79,0,.16-2.58-.45-4.94.53-7.11,1.26-.2,1.26.51,1.32.55Z"></path><path class="cls-1" d="M157.65,129.38c-.7,0-1.42,0-2.12,0,1.26-.18-.05-4.49.79-6.56,2.24,1.3,1.08,1.59,1.32,6.56Z"></path></g><g><path class="cls-17" d="M71.53,129.65c-1.18.1-2.57.12-2.12,1.64-.77-1.14-.41-1.33-1.85-1.64,1.78-.81,1.76-1.55,1.06-5.2v-.27s0-.5.66-.27c2.11.71,1.72,3.81,2.25,5.74Z"></path><path class="cls-17" d="M68.62,124.45c.7,3.65.72,4.39-1.06,5.2-1.11.5-1.01,0-1.06,0v-5.33l2.12.14Z"></path></g><g><path class="cls-58" d="M112.61,138.68c2.24.07,2.56.3,2.38-2.19.84-.16.43.64.53,1.64.53,5.57.81,5.15,1.19-.55,4.54-.92,0,4.61,4.37,2.05-.13-3.59,1.85-3.7,2.12,1.78,0,.18,0,.37,0,.55-2.62-.11-16.79.35-17.75-.27,1.13-2.4-1.38-8.64,2.12-7.52,1.29,3.05-3.41,8.59,4.9,7.25.33-.24.02-2.2.13-2.74Z"></path><path class="cls-56" d="M114.99,136.49c.18,2.48-.15,2.26-2.38,2.19.34-1.71.05-3.23,2.38-2.19Z"></path><g><path class="cls-26" d="M117.64,132.11c1.86.44,4.18.56,5.83,1.09.85.27,2.41.84,2.91,1.64.15.24.68,2.39.79,3.01.93,4.81.58,3.35-3.97,3.56-.27-5.48-2.25-5.37-2.12-1.78-4.36,2.56.17-2.97-4.37-2.05-.38,5.69-.66,6.11-1.19.55.35-.68.26-4.23,0-4.65-.59-.94-3.91.75-3.31-1.37h5.43Z"></path><path class="cls-37" d="M116.71,135.12c2.57-.33,2.77.91.26.82l-.26-.82Z"></path></g></g><g><path class="cls-56" d="M184.42,99.02c-1.48,1.19-1.07-1.6-3.18,0,.26-1.26-.73-.7-2.38-.82.4-1.17.25-2.36.26-3.56.16-12.58-.08-25.17,0-37.75,0-.36,0-.73,0-1.09.03-4.19-.06-8.39,0-12.58.06-4.1-.26-9.34,0-13.13.04-.63-.07-1.29,0-1.91.06-.52.38-2.01.53-2.74.06-.3,1.72-5.46,1.85-5.74.57-1.22,1.89-2.25,2.65-3.28.43,27.53.34,55.07.26,82.6Z"></path><path class="cls-30" d="M193.43,144.97c.6.83-1.24,2.09-2.91,4.38-.65.88-1.47,1.58-2.12,2.46q-14.04.41-28.09.82c-.03-.99.07-2.02,0-3.01-.03-.44.04-2.22,0-2.32-.52-1.56-1.95-.84-1.59-2.32,5.24-.02,33.01.33,34.71,0Z"></path><path class="cls-51" d="M136.45,141.68s-.15.44.4.82q26.1-.14,52.2-.27c1.5.45,2.81,1.23,4.37.55.1.05,1.2.21,2.12.68-1.07.76-.7,1.23-2.12,1.5-1.71.33-29.47-.02-34.71,0-2.65,0-5.3-.02-7.95,0-8.39.06-16.78-.05-25.17,0q2.78-.75,5.56-1.5c0-.22-3.83-.17-1.46-.96-1.88.16-1.64-.26-1.72-.27-.09-2.22,6.23.42,5.17-2.46,1.3-.31,1.41.82,3.31,1.91Z"></path><path class="cls-56" d="M191.57,174.78c-.02,9.01.5,18.4-.26,27.35-1.91.21-2.77-.27-2.91-.27v-50.05c.65-.88,1.47-1.58,2.12-2.46l.93-.27c.57,8.42.16,17.17.13,25.71Z"></path><path class="cls-6" d="M178.06,140.04c3.39.43,9.67,1.61,10.33.55,1.64.78,3.37,1.45,5.03,2.19-1.56.69-2.87-.09-4.37-.55q-26.1.14-52.2.27c-.55-.38-.36-.8-.4-.82,1.98-.05,3.98.07,5.96,0,.19,0,.07.56.26.55.19,0,1.92-1.02,3.44-1.09,5.9-.3,11.88.06,17.75-.82,1.64-.97-6.33.1-5.17-1.37,1.74.04,9.45-.08,9.94,0,1.15.2,8.17,4.12,9.41,1.09Z"></path><path class="cls-51" d="M178.59,135.12c.17.04,2.63,1.37,3.18,1.64.46.23,1.09.85,1.59,1.09,1.68.84,3.3,1.91,5.03,2.74-.66,1.06-6.94-.12-10.33-.55-4.29-.54-9.89.26-12.45-4.92,1.47.3,3.09-.28,4.5-.27,1.43,0,3.17-.34,4.5-.27.03,0-.09.53.13.55,1.2.09,3.16-.17,3.84,0Z"></path><path class="cls-56" d="M184.42,99.02c-.02,8.17-.68,16.45-.26,24.62-.79.65-1.18,1.12-2.12,1.64-.52-1.03.17-1.78-1.59-3.01.31-.21.76-.3.79-.41.36-1.11-.27-19.03,0-22.84,2.11-1.6,1.7,1.19,3.18,0Z"></path><path class="cls-9" d="M183.36,128.83v9.03c-.5-.25-1.13-.86-1.59-1.09l-.26-6.84c.1-.04.12-.49,1.85-1.09Z"></path><path class="cls-15" d="M3.96,3.28c.03,1.14,1.56,2.83,2.38,3.83,2.33,2.82,5.02,5.64,8.21,7.39.07,28.08-.09,56.16,0,84.24.02,6.56-.06,13.13,0,19.69,0,.91.26,1.91.26,2.74.07,5.56-.05,11.12,0,16.68-.56.17-8.21,3.66-10.86,4.65-.2.07-.6-.07-.79,0-.53-23.06-.2-46.13-.26-69.2-.05-17.14-1.13-56.38-.26-70.02h1.32Z"></path><path class="cls-10" d="M86.9,14.5q.13,27.9.26,55.8c-1.59.07-15.63,15.58-18.42,17.51-.74-8.72-.38-17.52-.4-26.26-.03-11.99-.16-23.98.26-35.97l-18.28-.41c-.1-1.6.4-2.12-.53-2.46-1.95-.72-1.71,1.77-2.52-3.83-2.45-.76-1.61.01-1.72,0-4.24-.5-8.72-.36-12.98-.27-2.5-2.14-5.76-.99-8.74-1.37-.88-.11-2.11-.13-2.91-.27-.88-.16-4.81-1.68-5.83-2.19,3.78-.68,7.61-.11,11.39,0,12.13.35,24.3.42,36.44.27,5.19-.06,10.46-.77,15.63-.82,2.79-.03,5.57.3,8.35.27Z"></path><path class="cls-45" d="M110.49,13.95c.35.48.25.83.26,1.37.27,8.29-.57,51.38,0,54.02.02.11.54.82.79,1.23-.08.19-1.13.55-1.19.55-7.59-.02-15.2-.46-22.79-.27-.19,0-.36-.55-.4-.55q-.13-27.9-.26-55.8c.41,0,.19-.54.4-.55,7.73-.09,15.46,0,23.19,0Z"></path><path class="cls-56" d="M26.48,14.77c-3.78-.11-7.61-.68-11.39,0-.18-.09-.36-.18-.53-.27-3.19-1.74-5.89-4.56-8.21-7.39,5.32-.92,17.52.17,21.33-.27.21-.02.05-.51.26-.55.18-.03.43,1.36,2.78-1.23-2.96-1.48-2.36-1.73-2.52-1.78-1.15-.39-20.98.33-24.25,0h-1.32C2.72,1.91,2.33.51,3.03,0c11.79.26,23.69-.65,35.38,1.23-4.6.93-11.27-.04-9.14,2.32,3.01,0,10.38-.51,12.45-.27.17.02-.77,1.09,2.91.82.11,0,.22-.76.53-.82.32-.06.74.82.79.82,3.37-.04,4.53-.6,4.77-.55.31.07-.97,1.05,5.83,1.37l.4.41c-6.98.7-14.33,1.38-21.6,2.05-.65.06-2.25-.51-5.83.27-.79,4.38,2.48,6.41,2.25,6.7l-5.3.41Z"></path><path class="cls-13" d="M43.71,205.96c12.98-.13,25.97.04,38.95,0,.35,0,.71,0,1.06,0,24.21-.06,48.4.06,72.61.27,1.26.01,2.45.26,3.71.27,1.59,3.22.52,3.75.53,3.97.19,5.46,1.38,8.64-2.65,7.52.72-8.02-6.27-6.18-11.92-6.29-16.94-.35-33.93.3-50.88,0h-50.88c-5.12-.72-3.79,1.52-3.44,5.74-.66.13-1.52.45-2.12.55-.66.11-1.41.15-1.99.55-1.17-.04-.47-2.27-.66-4.38,0-.04.56,0,.13-.82-9.1,1.49-17.94.78-26.63-2.74.23-1.7,1.48-2.21.93-2.46-.8.4-1.2,1.2-1.99,1.91-.7.64-1.07,1.22-2.12,1.37-.69-1.93,1.05-5.43-1.46-4.65.56,1.67-.13,1.01-.13,1.09-.26-.55-.78-.82-1.06-1.37h.26c11.61-.1,23.23.14,34.85,0,.19,0,.36-.55.4-.55,1.5-.02,3,.01,4.5,0Z"></path><path class="cls-43" d="M164.28,206.51c-2.13-.25-1.38,8.04-.93,8.21,5.71-1.09,11.48-.45,17.22-.27l1.85-.82c7.16.54,4.05-1.93,8.21-6.29,1.41,5.08-1.2,12.35,1.99,10.12v.55c-1.03.15-2.1.65-3.18.55-.59-1.74.01-4.58-.4-4.92-8.53,1.35-17.05,2.65-25.57,4.1-.53.09-1.06.18-1.59.27-2.18.38-4.06,1.47-3.97,0,4.03,1.12,2.84-2.06,2.65-7.52,0-.22,1.06-.75-.53-3.97,1.41.01,2.83-.01,4.24,0Z"></path><path class="cls-13" d="M9.52,210.61c8.69,3.52,17.54,4.22,26.63,2.74.43.82-.14.78-.13.82-8.47-.76-23.28,3.35-28.88,3.83-.35.03-.71-.02-1.06,0,.21-.47.98-1.09,1.06-1.5.16-.78-.54-1.82-.53-1.91.03-.17,1.63-1.44,1.06-2.46-.31-.55-.84.67-1.32-.68,1.05-.15,1.42-.73,2.12-1.37l-.13,7.39c2.09-.49.77-3.69,1.19-6.84Z"></path><path class="cls-51" d="M105.45,141.68c.96.62,15.14.17,17.75.27,1.11.04,3.84.17,4.77.27.09,0-.16.43,1.72.27-2.37.79,1.45.74,1.46.96q-2.78.75-5.56,1.5c-6.06.04-4.13.82-4.37.82-7.27.03-14.58-.3-21.86-.27-.79,0-1.59,0-2.38,0-31.27.1-62.53-.92-93.81-.55-.61.04-1.24-.05-1.85,0-2.51-1.7-1.14-1.35,1.85-2.46.2-.07.6.07.79,0,.5,1.58,1.81.85,2.65.82,6.08,1.07,11.71-.58,17.62,0,.64-1.04.84,0,1.06,0,8.94-.12,17.96-.45,26.9-.27,4.17.08,5.56.53,5.96.55.2,0-.18-.58.79-.55.2,0,.06.54.26.55,1.69.07,10.69.57,11.26.14.14-.1.24-1.15.4-1.23.22-.12,4.24-.49,4.9-.55,4.18-.36,12.84.11,18.28,0,.99-.02,7.22.18,7.55,0,.38-.2,3.59-5.43,1.19-7.93.35-.05,1.98-.07,2.12.14.28,1.8-.61,6.79.53,7.52Z"></path><path class="cls-46" d="M96.97,145.51l-2.12,4.51c.21.28,3.57.12,4.24.14,18.15.5,36.77-.74,54.85,0,.65.03,2.95-.5,2.12.55l-.53-.27H39.6c-.42.31-.36.54-.4.55-.14.01.19-.56-2.52-.27-.1.01-.24.79-.53.82-6.57.77-19.83-.12-27.43.27-.23-3.18-2.7-2-4.77-2.74-.03,0,.09-.38-.53-.27,0-1.18-.55-2.58-.26-3.83,31.27-.38,62.54.64,93.81.55Z"></path><path class="cls-30" d="M8.73,151.8c-1.1,8.99.57,45.42-.26,50.05-.41,2.29-1.95.51-3.05,1.09-.14.08-.92,2.52-1.19,3.01-.04.07-.82-.24-.26.55h-.26c-.8-1.57-.42-1.54-.53-3.28.19-.02.75.1.79-.14.51-2.65-1.13-46.25,0-54.02,2.07.74,4.54-.44,4.77,2.74Z"></path><path class="cls-37" d="M3.96,149.07c-1.13,7.77.51,51.37,0,54.02-.04.23-.6.12-.79.14-.74-11.61.26-40.33.26-54.43.62-.1.5.26.53.27Z"></path><path class="cls-13" d="M6.34,211.43c.48,1.35,1.02.13,1.32.68.57,1.02-1.03,2.29-1.06,2.46-.01.1.69,1.14.53,1.91-.08.41-.85,1.03-1.06,1.5-.08.18-.17.38-.26.55-.23-.03-.68.11-.79-.14-.21-.48-.32-9.45-.26-10.53,0-.08.69.58.13-1.09,2.51-.78.77,2.72,1.46,4.65Z"></path><path class="cls-13" d="M178.32,206.51c3.77-.02,12.17.28,14.31,0v10.94c-3.18,2.23-.58-5.04-1.99-10.12-4.16,4.36-1.06,6.83-8.21,6.29l-1.85.82c-5.74-.18-11.52-.81-17.22.27-.45-.17-1.2-8.45.93-8.21,4.68.04,9.37.03,14.04,0Z"></path><path class="cls-38" d="M87.17,70.3s.21.55.4.55c7.58-.19,15.2.26,22.79.27.07,0,1.11-.36,1.19-.55.58.92,14.25,14.68,15.1,15.32.02.01-.05.06.26.27.74,1.68,3.48,3.47,3.97,4.92h-59.49c-.25.18-.13,1.54-.13,1.91-.45.16-.42,1.5-.66,1.64-.89.51-17.12-.46-20.27,0v-22.43l17.36.27.66-10.94c.02,8.74-.35,17.54.4,26.26,2.79-1.93,16.83-17.44,18.42-17.51Z"></path><path class="cls-61" d="M181.5,19.69c-.13.28-1.8,5.45-1.85,5.74l-15.63.14v2.19c.28.73,13.2-.46,15.1.41-.07.62.04,1.29,0,1.91h-14.71c-.68.24-.59,13.11,0,13.4l14.71-.27c-.06,4.19.03,8.39,0,12.58-17.88-.29-17.36,1.65,0,1.09-.08,12.58.16,25.17,0,37.75h-20.93c-.95-24.47.56-50.22-.53-74.81,4.44.25,10.61-.76,13.65.41,2.51-1.18,7.03-.27,10.2-.55Z"></path><path class="cls-54" d="M126.65,20.24c-.43,19.51-.45,39.03,0,58.53.01.46,0,.91,0,1.37.02,1.64-.02,3.28,0,4.92v.82c-.86-.64-14.53-14.4-15.1-15.32-.26-.41-.77-1.12-.79-1.23-.57-2.64.27-45.73,0-54.02,1.48-.3-.19,1.04.93,2.19,6.36,3.18,14.97-.5,14.97,2.74Z"></path><path class="cls-58" d="M130.89,91.08c.29.86.45,1.59.13,2.46-3.84.03-7.69-.04-11.53,0-15.99.17-31.98-.35-47.96.27,0-.21-.26-.24-.26-.82,0-.37-.11-1.73.13-1.91h59.49Z"></path><path class="cls-30" d="M126.91,20.51c.17,1.42.18,2.99,1.85,3.28.61,15.55.28,39.85.26,56.35-.17-.01-.36.03-.53,0,.54-1.91-.28-1.31-1.85-1.37-.45-19.51-.43-39.03,0-58.53.23-.03.24.07.26.27Z"></path><path class="cls-51" d="M178.85,98.19c1.66.12,2.64-.44,2.38.82-.27,3.8.36,21.73,0,22.84-.03.11-.48.2-.79.41-.58-.41-2.08-.42-2.38-.82-.5-.66.09-8.3,0-9.98l-.79-.14v-13.13c.53.02,1.07-.04,1.59,0Z"></path><path class="cls-30" d="M179.12,94.64c-.02,1.2.14,2.39-.26,3.56-.52-.04-1.06.02-1.59,0-2.48-.07-18.17.57-18.95,0-.27-.2-.11-2.98-.13-3.56h20.93Z"></path><path class="cls-28" d="M119.5,93.54c0,.19.07.47-.13.55-1.38.49-25.1-.38-29.15,0,1.32,1.56-1.75,1.6-3.44,1.64-.19,0-.07-.55-.26-.55-4.5.18-9,.81-13.51,0l.13,3.28c-.25-.04-.54,0-.79,0-1.05-.03-.75-.27-.79-.27,0-1.46,0-2.92,0-4.38,15.98-.62,31.98-.1,47.96-.27Z"></path><path class="cls-56" d="M73.12,98.47c3.66.65,1.02,1.77,1.85,3.42.19.38,5.59,1.94.26,6.43-3.74.07-2.51-.04-2.65-6.56,0-.45.03-.92,0-1.37-.04-.68-.19-1.25-.26-1.91.26,0,.55-.04.79,0Z"></path><path class="cls-19" d="M128.5,80.14c.17.03.36-.01.53,0,0,1.41.95,6.18-.26,6.56l-2.12-1.64c-.02-1.64.02-3.28,0-4.92.97-.41,1.09-.15,1.85,0Z"></path><path class="cls-37" d="M128.77,23.8c-1.68-.3-1.68-1.87-1.85-3.28,2.65-.73,1.73.17,1.85,3.28Z"></path><g><path class="cls-44" d="M116.05,13.95c5.49,0,11.07.52,16.56.55,17.6.09,35.38-.33,52.87.14-1.42,1.21-1.26,1.69-1.32,1.78-.76,1.04-2.08,2.06-2.65,3.28-3.17.27-7.7-.63-10.2.55-3.04-1.17-9.21-.16-13.65-.41,1.09,24.59-.42,50.34.53,74.81.02.58-.14,3.36.13,3.56.77.57,16.47-.07,18.95,0v13.13c-.72-.25-1.36-.32-2.12-.27-.09,0-.18-.01-.26,0-.09.01-.18-.02-.26,0-.33.08-.73.45-1.06.55-.02-.65.58-2.03-.53-2.19-.02-2.3-4.62.64-4.9.55-.22-.07-1.89-4.64-2.25-.82.12,1.06-.69.02-.93,0-2.51-.18-4.86.58-7.29.55-5-.07-9.67-1.33-10.73-1.37-.44-.02-1.51.55-1.59.55-4.22-.08-6.91.29-8.61.27-20.49-.23-40.98-.74-61.48-.82,5.32-4.49-.07-6.05-.26-6.43-.84-1.65,1.81-2.77-1.85-3.42l-.13-3.28c4.52.81,9.01.18,13.51,0,.19,0,.07.55.26.55,1.7-.04,4.76-.08,3.44-1.64,4.05-.38,27.77.49,29.15,0,.2-.07.13-.36.13-.55,3.84-.04,7.69.03,11.53,0,.31-.88.16-1.6-.13-2.46-.5-1.45-3.24-3.24-3.97-4.92.81.54,1.74,1.44,1.85.55,1.21-.39.26-5.16.26-6.56.01-16.49.34-40.8-.26-56.35-.12-3.11.79-4.01-1.85-3.28-.02-.2-.04-.3-.26-.27,0-3.23-8.61.45-14.97-2.74-1.12-1.15.55-2.49-.93-2.19-.02-.53.08-.89-.26-1.37,1.85,0,3.71,0,5.56,0Z"></path><path class="cls-49" d="M134.73,23.8l16.3.14q-.2,22.09-.4,44.17c-1.55-1.08-15.18-.14-15.77-.68l-.13-43.63Z"></path><path class="cls-53" d="M122.81,95.19c1.88-.21,1.03,1.18,1.19,3.15-3.22,1.46-3.84-2.85-1.19-3.15Z"></path><path class="cls-40" d="M128.77,86.71c-.11.89-1.05,0-1.85-.55-.32-.21-.25-.26-.26-.27v-.82l2.12,1.64Z"></path></g><path class="cls-61" d="M179.12,30.09c-.26,3.79.06,9.03,0,13.13l-14.71.27c-.59-.29-.68-13.16,0-13.4h14.71Z"></path><path class="cls-17" d="M179.65,25.44c-.15.72-.47,2.21-.53,2.74-1.9-.87-14.82.32-15.1-.41v-2.19l15.63-.14Z"></path><path class="cls-30" d="M179.12,55.8c0,.36,0,.73,0,1.09-17.36.56-17.88-1.38,0-1.09Z"></path><path class="cls-30" d="M157.92,151.8c-.78,5.96.48,40.58.26,50.74,1.39.47,2.27-.13,2.38-.14,9.23-.36,18.59-.54,27.82-.55.15,0,1,.48,2.91.27-.05.63.16,3.61-.13,3.83-.52.38-11.04-.41-12.72,0-.2.05-.13.36-.13.55-4.68.03-9.37.04-14.04,0-1.41-.01-2.83.01-4.24,0-1.26-.01-2.45-.26-3.71-.27-1.14-17.94.61-37.2-.26-54.98l1.85.55Z"></path><path class="cls-30" d="M188.39,151.8v50.05c-9.24.01-18.59.19-27.82.55-.47-16.57.21-33.22-.26-49.78q14.04-.41,28.09-.82Z"></path><path class="cls-37" d="M160.3,152.63c.47,16.56-.2,33.21.26,49.78-.12,0-.99.61-2.38.14.22-10.16-1.04-44.78-.26-50.74.36-2.76,1-.44,2.38-2.19.07.99-.03,2.01,0,3.01Z"></path><path class="cls-58" d="M158.71,144.97c-.36,1.48,1.07.77,1.59,2.32.04.11-.03,1.88,0,2.32-1.39,1.74-2.03-.57-2.38,2.19l-1.85-.55c0-.18,0-.37,0-.55.83-1.05-1.47-.52-2.12-.55.2-4.9-3.31-3.68-3.18-5.2,2.65-.02,5.3,0,7.95,0Z"></path><path class="cls-37" d="M125.59,144.97c8.39-.05,16.78.06,25.17,0-.13,1.51,3.38.3,3.18,5.2-18.08-.74-36.7.5-54.85,0l.26-4.65c7.28-.03,14.59.3,21.86.27.25,0-1.69-.78,4.37-.82Z"></path><path class="cls-1" d="M134.86,138.95c-.62,3.37,12.02,3.75,10.33,0,4.5.08,9.01-.11,13.51,0-1.16,1.47,6.8.39,5.17,1.37-5.87.88-11.85.52-17.75.82-1.53.08-3.25,1.09-3.44,1.09-.19,0-.07-.55-.26-.55-1.98.07-3.98-.05-5.96,0-1.9-1.09-2.01-2.23-3.31-1.91,1.06,2.89-5.25.24-5.17,2.46-.93-.11-3.66-.23-4.77-.27,0-.18,0-.37,0-.55,4.56-.2,4.9,1.26,3.97-3.56,2.55.31,5.12.93,7.68,1.09Z"></path><path class="cls-6" d="M164.81,134.57c.03.08-.05.3.26.27-.02.4.29.23.53.27,2.56,5.19,8.16,4.38,12.45,4.92-1.23,3.02-8.25-.9-9.41-1.09-.49-.08-8.2.04-9.94,0-4.5-.11-9.01.08-13.51,0-3.41-.06-6.94.22-10.33,0-2.56-.16-5.14-.79-7.68-1.09-.12-.62-.64-2.76-.79-3.01q19.21-.14,38.42-.27Z"></path><path class="cls-31" d="M181.5,129.92l.26,6.84c-.55-.28-3.01-1.6-3.18-1.64-.43-.85-.28-2.04-.26-3.01,0-.47-.65-1.59.13-1.91.27-.11,1.9.17,3.05-.27Z"></path><path class="cls-20" d="M166.93,132.93c.75.31,1.62.26,2.38.55-.01.07.34-.06-.13,1.37h-4.11c-.32.03-.23-.19-.26-.27-.31-.76.02-2.86,0-3.01.71.43,1.34,1.04,2.12,1.37Z"></path><path class="cls-50" d="M15.09,14.77c1.02.51,4.95,2.03,5.83,2.19-.31.45-.39.54-.53,1.09-.44,1.68-.08,3.25-.13,4.92,2.32.49,5.16-.53,5.43-.55.54-.03,1.82.63,3.97,0,1.57.26,11.31-.68,11.66.41-2.35,3.59-1.64,4.17-1.85,6.15-4.13.91-12.87-.66-13.78.68-.5,4.23,1.47,6.88,1.46,11.08.57.73,10.26.03,12.06.27-.28,17.73.01,35.8-.4,53.34-2.33.29-4.69.35-7.02.55-.96.08-1.67.09-2.65.27-.47.09-.85-.58-1.32-.14-1.33,1.24,2.02,2.56-2.91,3.42-.38.07-1.51.27-1.59.27-1.5.1-4.81.03-6.62,0-.95-.01-1.83-.63-2.12,0-.09-28.08.07-56.16,0-84.24.17.09.35.18.53.27Z"></path><path class="cls-28" d="M19.59,137.03c-1.2.23-3.86.55-4.77.82-.05-5.56.07-11.12,0-16.68.37.1.94-.42,1.06-.68,1.47-3.28,3.47-13.33,2.91-17.1.12,0-.35-1.37,1.59.68-.76,2.55-.2,7.44-.53,12.03-.74,10.18-2.79,10.63-2.91,11.21-.92,4.45,2.33.75,2.65,1.37v8.34Z"></path><path class="cls-56" d="M6.34,7.11c-.83-1-2.36-2.69-2.38-3.83,3.27.33,23.09-.39,24.25,0,.16.05-.45.3,2.52,1.78-2.36,2.59-2.61,1.2-2.78,1.23-.21.03-.06.52-.26.55-3.81.45-16.01-.65-21.33.27Z"></path><path class="cls-33" d="M28.07,135.94v1.09c-1.15.08-2.29.38-3.31-.27-1.26,1.44,1.68.66-.13,1.91-1.04.72-6.62,1.93-2.12,2.46-.44.71-1.27.95-1.99,1.09-.94.19-12.04,1.04-13.91,1.09-.84.03-2.15.76-2.65-.82,2.66-.99,10.3-4.48,10.86-4.65.91-.28,3.57-.59,4.77-.82,3.15-.6,5.32-.83,8.48-1.09Z"></path><path class="cls-19" d="M18,103.39c.21-.05.54,0,.79,0,.56,3.77-1.44,13.82-2.91,17.1-.12.27-.69.78-1.06.68,0-.82-.26-1.82-.26-2.74,1.01.24.31-1.76.53-3.69.03-.22.49.02.53-.41,3.24-2.05,1.63-6.61,2.38-9.98-1.66-.89-.7,2.12-2.38,2.6.37-4.43.58-3.14,2.38-3.56Z"></path><path class="cls-40" d="M16.68,98.74c.22,3.02-.85,4.06,1.32,4.65-1.81.42-2.02-.88-2.38,3.56-.2,2.4.2,4.99,0,7.39-.04.43-.5.19-.53.41-.22,1.93.48,3.93-.53,3.69-.06-6.56.02-13.13,0-19.69.29-.63,1.17-.01,2.12,0Z"></path><path class="cls-48" d="M68.35,61.54l-.66,10.94-17.36-.27c-.57-13.75.75-34.56,0-47.05l18.28.41c-.42,11.98-.3,23.98-.26,35.97Z"></path><path class="cls-56" d="M32.58,18.6c4.27-.08,8.74-.22,12.98.27v79.59c-2.07,0-4.24.28-6.36.27-1.41,0-2.83,0-4.24,0-1.5,0-3,.01-4.5,0,1.96-1.12,1.24-1.13,1.32-3.83,2.33-.2,4.69-.25,7.02-.55.41-17.54.12-35.61.4-53.34.06-4.04-.16-7.99.26-12.03.21-1.98-.5-2.57,1.85-6.15-.35-1.09-10.09-.15-11.66-.41,2.64-.77,1.37-.46,1.06-3.83.62-.02,1.24.01,1.85,0Z"></path><path class="cls-58" d="M49.8,22.7v71.53l-1.85.96c.13-1.93-.79-2.98,0-3.42-.3-22.69.64-45.45-.53-68.11-1.5-1.38-.92,1.8-1.85,1.78v-6.56c.11.01-.73-.76,1.72,0,.81,5.6.57,3.11,2.52,3.83Z"></path><path class="cls-37" d="M50.33,25.16c.75,12.49-.57,33.29,0,47.05v22.43c-.12.02-1.69.85-2.38.82,0-.09,0-.18,0-.27l1.85-.96V22.7c.93.34.43.86.53,2.46Z"></path><path class="cls-19" d="M32.58,18.6c-.62.01-1.24-.02-1.85,0-4.38.16-4.57-.94-5.03,1.91-1.45-4.92-2.07,1.4,0,1.09.01.32.43.24,0,.82-.28.02-3.11,1.04-5.43.55.05-1.68-.3-3.25.13-4.92,2.19.21,3.83,1.54,3.44-.82,2.98.38,6.25-.77,8.74,1.37Z"></path><path class="cls-40" d="M23.83,17.23c.38,2.36-1.25,1.03-3.44.82.14-.55.22-.64.53-1.09.81.15,2.04.16,2.91.27Z"></path><path class="cls-55" d="M155.53,150.44l.13,2.46-22.92.27c-2.91-.01-5.87.28-8.74.27-1.6,0-3.17,0-4.77,0-11.55.03-23.17-.93-34.71.14-.47,16.07.85,32.21.26,48.28-.09,2.42.32,3.95-1.06,4.1-.35,0-.71,0-1.06,0v-49.92c-1.19-.81.1-1.74-.4-2.6-.32-.56-3.15,0-3.31,0-10.19-.58-20.55-.48-30.74.14q.26,24.28.53,48.55c-1.2.23-3.95,2.83-5.03,3.83-1.5.01-3-.02-4.5,0v-54.98s-.02-.23.4-.55h115.94Z"></path><path class="cls-55" d="M156.06,150.71c0,.18,0,.37,0,.55.87,17.78-.87,37.04.26,54.98-24.21-.21-48.4-.34-72.61-.27,1.38-.16.97-1.68,1.06-4.1l34.45-.14v-48.28c1.6,0,3.17,0,4.77,0q.26,24.14.53,48.28c10.26.69,20.92.5,31,0-.03-16.05.3-32.09.26-48.14-7.65-.77-15.39-.38-23.05-.41l22.92-.27-.13-2.46.53.27Z"></path><path class="cls-55" d="M82.66,205.96c-12.98.04-25.97-.13-38.95,0,1.09-1,3.83-3.59,5.03-3.83,3.28-.64,23.76.58,30.21-.14v-48.55c.17,0,2.99-.56,3.31,0,.49.86-.79,1.79.4,2.6v49.92Z"></path><path class="cls-29" d="M95.12,211.71l-.4,3.01c4.77.46,33.83-.6,35.51,0,.2.07.13.36.13.55-7.47.19-32.57.85-37.23.55-4.61-.3-.99-2.19-3.71-2.19l-.13,1.78c-12.08,1.32-24.63-.56-36.83.14-1.3-1.5-7.19-1.13-8.21-3.83h50.88Z"></path><path class="cls-29" d="M145.99,211.71c-.41,1.32,2.6.45,2.91,3.01-5.6,0-11.4-.43-16.96-.27-.52.02-.05.78-1.59.82,0-.19.07-.47-.13-.55-1.68-.6-30.74.46-35.51,0l.4-3.01c16.95.3,33.94-.35,50.88,0Z"></path><path class="cls-56" d="M39.2,152.08v53.88s-.2.54-.4.55c-11.61.14-23.23-.1-34.85,0-.56-.79.23-.48.26-.55,3.37-.58,3.13,0,3.31,0,10.33.16,20.67-.12,31,0,.2-3.64.91-3.78-1.99-4.1v-49.37l2.65-.41Z"></path><path class="cls-58" d="M9.52,210.61c-.43,3.15.89,6.35-1.19,6.84l.13-7.39c.78-.72,1.19-1.51,1.99-1.91.56.26-.7.77-.93,2.46Z"></path><path class="cls-37" d="M148.91,214.71c1.43,0,4.88-1.04,4.11.82-2.89-.32-19.97.42-20.93,0-.26-.11-.09-.82-.13-1.09,5.56-.16,11.36.27,16.96.27Z"></path><path class="cls-2" d="M57.49,142.23c-2.41.07-5.28-.06-5.3.82-8.94-.18-17.96.16-26.9.27-.22,0-.42-1.04-1.06,0-5.91-.58-11.54,1.07-17.62,0,1.87-.06,12.97-.91,13.91-1.09.72-.14,1.54-.39,1.99-1.09.68.08,12.97.06,13.65,0,1.6-.13,2.76-.72,4.11-1.09-.4,1.8.14.8.79,1.09,1.74.77.89-.04,2.25-.27.94-.16,4.12-.69,4.5-.82.25-.09.08-.8.13-.82.02,0-.11-.13.26-.27-.03,1.66,7.11-1.52,2.65,1.23,1.42,2.5,3.82,1.5,6.62,2.05Z"></path><path class="cls-6" d="M74.71,141.41c.83.12.33.63,1.06.55-.66.06-4.68.43-4.9.55-.15.08-.26,1.13-.4,1.23-.57.43-9.58-.07-11.26-.14-.2,0-.06-.54-.26-.55-.97-.04-.59.55-.79.55-.41-.01-1.8-.47-5.96-.55.02-.88,2.89-.75,5.3-.82,1.73-.05,12.05.33,12.59,0,.27-.16.08-.79.13-1.09,1.37.63,3.1.07,4.5.27Z"></path><path class="cls-19" d="M99.36,145.51l-.26,4.65c-.67-.02-4.03.14-4.24-.14l2.12-4.51c.79,0,1.59,0,2.38,0Z"></path><path class="cls-56" d="M39.2,150.98v1.09l-2.65.41v49.37c-4.28-.48-21.38,1.03-28.09,0,.84-4.63-.84-41.06.26-50.05,7.6-.4,20.86.5,27.43-.27.29-.03.43-.81.53-.82,2.7-.28,2.38.29,2.52.27Z"></path><path class="cls-30" d="M36.55,201.86c2.9.33,2.18.46,1.99,4.1-10.33-.12-20.67.16-31,0-.18,0,.06-.58-3.31,0,.27-.49,1.05-2.93,1.19-3.01,1.1-.59,2.63,1.19,3.05-1.09,6.71,1.03,23.81-.48,28.09,0Z"></path><path class="cls-56" d="M71.53,93.82c0,1.46,0,2.92,0,4.38-.4,0-.19.54-.4.55-7.99.09-15.99,0-23.98,0,.23-2.76.78-3.11.79-3.28.69.03,2.26-.8,2.38-.82,3.15-.46,19.39.51,20.27,0,.24-.14.21-1.48.66-1.64,0,.58.26.61.26.82Z"></path><path class="cls-34" d="M153.68,129.65l-.53,1.64c-4.79.59-10-.82-14.57,1.09-5.08.07-10.16.12-15.24.27l.13.55c-1.65-.53-3.97-.65-5.83-1.09-1.81-.43-3.31.27-3.44-2.19.36-.18,1.24.36,1.06-.55.29.14.46.31.66.55,12.58-.51,25.18-.26,37.76-.27Z"></path><path class="cls-51" d="M155.27,129.38c.09,2.48-.57,1.72-2.12,1.91l.53-1.64c.56,0,.59-.27.79-.27.26,0,.53,0,.79,0Z"></path><path class="cls-51" d="M66.5,129.65c.05,0-.05.5,1.06,0,1.45.31,1.08.5,1.85,1.64.06.09.51-.49.79,1.64-4.08.05-7.72.33-11.79.55-.2.01-.06.54-.26.55-3.6.19-7.28-.24-10.86,0-.15.01-.62.54-.66.55-.09,0-.18,0-.26,0,.18-1.04-1.34-.31-2.25-.55-.21-.06-.53-1.21-4.11-.82.07-.75.26-.52.26-.55,3.2.17.84-1.16.53-2.74h3.18c2.16.09,4.21,0,6.36-.27,1.77-.22,3.55,1.64,2.65-6.29h.79c-.55,1.66.37,4.17-.53,6.15.18.28,2.4.1,2.91.14.97.07,1.39.07,2.38,0,.7-.05,3.11.17,3.44-.14.1-1.76.59-6.38.53-7.25.14-.04.51-.25.53-.27.86.93-.1,7.26.26,7.52.39.28,2.48.13,3.18.14Z"></path><path class="cls-17" d="M72.33,98.47c.08.66.22,1.24.26,1.91-10.01-.14-17.62.68-27.43,1.91-.26.03-1.06-1.46-4.24,1.09-2.43,1.95-4,5.9-1.99,8.48-.04.07.02.34,0,.55-.18.04-.46-.04-.53,0-.29.19-.24.28-.53.55-2.02-.81-2.32,1.84-2.12-2.46.19-4.17,1.39-8.17,3.44-11.76,2.12,0,4.29-.28,6.36-.27.08,0,.27.27,1.59.27,7.99,0,15.99.09,23.98,0,.21,0,0-.54.4-.55.04,0-.25.25.79.27Z"></path><path class="cls-61" d="M72.59,100.38c.03.45,0,.91,0,1.37-6.3.55-12.75.43-18.95,1.91-.69.17-7.08,2.27-7.42,2.46-1.11.62-.85.99-1.19,1.37-1.52.1.17-2.3-.93-2.46-.8.43-.78,1.88-.66,2.74-3.96-1.68-3.04,1.37-4.5,4.1-2.01-2.58-.44-6.53,1.99-8.48,3.18-2.55,3.98-1.06,4.24-1.09,9.8-1.24,17.42-2.06,27.43-1.91Z"></path><path class="cls-37" d="M45.56,118.16c.9.25,3.76-.36,3.71,3.56,0,.14-.69-.7-.79,2.46-2.16.53-3.98,2.02-3.44-1.78-1.09-.45-.03,4-1.06,7.52h-3.97s-.29.07-.26-.27c.5-.65.08-1.34.26-1.91.26-.81.77-.74.79-.96.12-1.1-.93-7.57.79-10.8.43.35,2.86,2.42,3.05,2.46.35.08.46-.4.93-.27Z"></path><path class="cls-6" d="M82.93,129.92c0,.45-.02.91,0,1.37,0,.2.56.49,0,1.91-3.8-.01-7.6,0-11.39,0-.07,0,.29-.29-1.32-.27-.29-2.13-.74-1.56-.79-1.64-.45-1.52.94-1.54,2.12-1.64,1.9-.16,8.41.68,11.39.27Z"></path><path class="cls-39" d="M45.83,112.42c.5,0,.09.72,0,1.91-.09,1.27-.15,2.56-.26,3.83-.46-.13-.58.36-.93.27-.19-.05-2.62-2.11-3.05-2.46-.89-.73-3.18-2.82-3.18-3.56.07-.04.35.04.53,0,1.25-.27,4.91.11,6.89,0Z"></path><path class="cls-17" d="M45.03,107.49c-1.4,1.53-1.18,3.2-1.59.27-.12-.85-.14-2.3.66-2.74,1.09.16-.59,2.57.93,2.46Z"></path><path class="cls-37" d="M128.5,80.14c-.77-.15-.88-.41-1.85,0,0-.46.01-.91,0-1.37,1.57.06,2.39-.54,1.85,1.37Z"></path><path class="cls-9" d="M145.2,138.95c1.68,3.75-10.96,3.37-10.33,0,3.39.22,6.92-.06,10.33,0Z"></path><path class="cls-32" d="M164.28,129.65c-.21.95.48,1.55.53,1.91.02.15-.31,2.25,0,3.01q-19.21.14-38.42.27c-.5-.8-2.06-1.37-2.91-1.64l-.13-.55c5.08-.15,10.16-.2,15.24-.27,2.88-.04,22.09.19,23.19-.82.71-.65.28-1.37.4-1.5.44-.49,1.32.44,1.59-.68.25.03.27.23.53.27Z"></path><path class="cls-51" d="M157.65,129.38c.53,0,1.06,0,1.59,0,.09,0,.18,0,.26,0,.36,0,.82-.01,1.06,0,1.03.05,2.2-.11,3.18,0-.27,1.13-1.15.19-1.59.68-.12.14.31.85-.4,1.5-1.1,1.01-20.31.78-23.19.82,4.58-1.92,9.78-.51,14.57-1.09,1.55-.19,2.21.57,2.12-1.91.09,0,.18,0,.26,0,.7,0,1.42,0,2.12,0Z"></path><path class="cls-13" d="M23.3,98.74c.05,5.74-.07,11.49,0,17.23.08,6.6.71,13.22,0,19.83.8.45,1.56-.1,2.12-.14,1.52-.1,3-.1,4.5-.27-.01.18,0,.37,0,.55-.61.05-1.24-.05-1.85,0-3.16.26-5.33.5-8.48,1.09v-8.34c-.32-.62-3.57,3.08-2.65-1.37.12-.58,2.18-1.03,2.91-11.21.33-4.6-.23-9.48.53-12.03-1.94-2.06-1.47-.68-1.59-.68-.25,0-.59-.05-.79,0-2.17-.59-1.1-1.63-1.32-4.65,1.81.03,5.13.1,6.62,0Z"></path><path class="cls-47" d="M39.47,28.99c-.43,4.05-.2,7.99-.26,12.03-1.8-.25-11.48.46-12.06-.27.01-4.2-1.96-6.85-1.46-11.08.91-1.34,9.65.23,13.78-.68Z"></path><path class="cls-28" d="M24.89,98.47c1.22.2,2.48.25,3.71.27-1.26,5.07-.04,9.23,0,11.49,0,.03-.52.2-.53.41,0,.09.6,1.5.53,1.64-.25.52-1.07-.8-1.59.96-2.12-1.15-1.32.79,0,2.05-.12.24-2.84-1.47-2.65.68-.05-.02.09.47-1.06,0-.07-5.74.05-11.49,0-17.23.08,0,1.21-.21,1.59-.27Z"></path><path class="cls-30" d="M30.72,18.6c.31,3.37,1.58,3.05-1.06,3.83-2.16.63-3.44-.03-3.97,0,.43-.58.01-.5,0-.82-.01-.33-.05-.79,0-1.09.46-2.86.66-1.76,5.03-1.91Z"></path><path class="cls-30" d="M31.78,94.91c-.09,2.7.63,2.7-1.32,3.83-.53,0-1.06,0-1.59,0l.26-3.56c.98-.18,1.69-.19,2.65-.27Z"></path><path class="cls-58" d="M29.13,95.19l-.26,3.56c-.09,0-.18,0-.26,0-1.23-.02-2.49-.08-3.71-.27,4.94-.86,1.59-2.18,2.91-3.42.48-.44.86.22,1.32.14Z"></path><path class="cls-33" d="M42.65,139.22c-.36.15-1.99.71-2.38.82-1.35.37-2.51.96-4.11,1.09-.68.06-12.97.08-13.65,0-4.5-.53,1.08-1.75,2.12-2.46,3.72.32,8.3,1.51,11.79,1.09.22-.03.82-.69,4.11-1.09.62-.08,1.38-.45,2.52-.27l-.4.82Z"></path><path class="cls-1" d="M28.07,137.03c1.56-.1,6.7-.64,7.82-.27.19.06-1.33.7,3.05,1.37.9.14,1.75-.36,1.59.55-3.29.41-3.89,1.07-4.11,1.09-3.49.41-8.07-.77-11.79-1.09,1.82-1.25-1.13-.47.13-1.91,1.02.65,2.16.35,3.31.27Z"></path><path class="cls-59" d="M46.62,134.85c.35-.01.71.01,1.06,0l1.59.68c-1.93.24-1.62-.15-2.91.96-2.04-.21-4.91,1.24-5.7,1.37-.62.1-1.78-.91-1.72.27-4.38-.66-2.86-1.31-3.05-1.37-1.12-.37-6.26.17-7.82.27v-1.09c.61-.05,1.24.05,1.85,0,5.01-.41,11.73-.89,16.69-1.09Z"></path><path class="cls-37" d="M15.62,114.33c.2-2.4-.2-4.99,0-7.39,1.69-.48.73-3.49,2.38-2.6-.76,3.37.85,7.93-2.38,9.98Z"></path><path class="cls-30" d="M47.95,95.19c0,.09,0,.18,0,.27-.02.17-.57.53-.79,3.28-1.32,0-1.51-.27-1.59-.27V25.44c.93.03.35-3.16,1.85-1.78,1.17,22.65.23,45.41.53,68.11-.79.44.13,1.49,0,3.42Z"></path><path class="cls-12" d="M30.46,98.74c1.5.01,3,0,4.5,0-1.32.29-1.12,1.2-1.32,2.6-.43,2.88-.45,6.28.26,8.89-4.36.22-1.31,4.6-4.9-.27l-.4.27c-.04-2.26-1.26-6.41,0-11.49.09,0,.18,0,.26,0,.53,0,1.06,0,1.59,0Z"></path><path class="cls-19" d="M39.2,98.74c-2.06,3.59-3.25,7.59-3.44,11.76l-1.72,1.37c-.32-.25-.02-1.24-.13-1.64-.71-2.61-.69-6.01-.26-8.89.21-1.4,0-2.31,1.32-2.6,1.41,0,2.83,0,4.24,0Z"></path><path class="cls-37" d="M25.69,20.51c-.05.3-.01.76,0,1.09-2.07.31-1.45-6.01,0-1.09Z"></path><path class="cls-23" d="M119.23,153.45v48.28l-34.45.14c.58-16.06-.73-32.21-.26-48.28,11.55-1.07,23.17-.11,34.71-.14Z"></path><path class="cls-23" d="M132.74,153.17c7.67.03,15.41-.36,23.05.41.03,16.05-.29,32.09-.26,48.14-10.09.5-20.75.69-31,0q-.26-24.14-.53-48.28c2.88,0,5.83-.28,8.74-.27Z"></path><path class="cls-23" d="M78.95,153.45v48.55c-6.45.72-26.93-.5-30.21.14q-.26-24.28-.53-48.55c10.19-.61,20.55-.72,30.74-.14Z"></path><path class="cls-32" d="M114.2,129.92c.13,2.46,1.63,1.76,3.44,2.19h-5.43c-.59,2.12,2.72.43,3.31,1.37-2.91.57-5.05-.24-8.08-.27-7.27-.08-14.57.06-21.86,0,2.47-1.28,6.81.56,5.03-1.91,4.18-.01,20.14.22,21.46,0,2.06,1.65,1.52-1.34,1.59-1.5.14-.34.34.23.53.14Z"></path><path class="cls-1" d="M60.14,139.22c-1.06-.03-1.01.28-1.06.27-.41-.02-.19-.54-.4-.55-1.45-.06-2.34.31-3.44.27-2.27-.08-3.59-1.55-7.02-.27-.37.14-.25.27-.26.27q-3.44.96-6.89,1.91c-.66-.29-1.2.7-.79-1.09.4-.11,2.03-.67,2.38-.82.8-.34,1.59-.29,2.38-.82,1.21-.44,4.18-1.42,4.9-1.91.08-.05-.41-1.73.53,0,1-1.14,10.18-.47,10.47.96.14,1.44-1.65.53-.79,1.78Z"></path><path class="cls-59" d="M59.08,139.5c-.95,3.57,3.43,1.78,8.61,2.19.34-.25-.01-1.5.13-1.91.69-1.94,1.95.12,2.38-.82-.05.7.11,1.62,0,2.19-.06.3.14.93-.13,1.09-.54.33-10.86-.05-12.59,0-2.8-.55-5.21.45-6.62-2.05,4.46-2.75-2.68.43-2.65-1.23,3.43-1.28,4.75.19,7.02.27,1.11.04,2-.33,3.44-.27.21,0-.01.53.4.55Z"></path><path class="cls-59" d="M47.95,139.22s.12.73-.13.82c-.39.13-3.57.66-4.5.82-1.37.23-.51,1.04-2.25.27q3.44-.96,6.89-1.91Z"></path><path class="cls-51" d="M90.61,131.29c1.78,2.47-2.57.63-5.03,1.91-.88,0-1.77,0-2.65,0,.56-1.42,0-1.71,0-1.91,2.56-.02,5.12,0,7.68,0Z"></path><path class="cls-38" d="M48.48,124.18c.47-.11,1.09-.03,1.59-.27,0,1.85.54,3.85.26,5.74-2.15.27-4.2.37-6.36.27,1.03-3.52-.03-7.97,1.06-7.52-.53,3.8,1.28,2.3,3.44,1.78Z"></path><path class="cls-51" d="M70.21,132.93c1.62-.02,1.26.27,1.32.27-.52-.12-.57.2-.79.55-.14.21-.5.91-.53,1.09-7.48-.51-15.04-.3-22.52,0-.35.01-.71-.01-1.06,0v-.27s.51-.54.66-.55c3.59-.24,7.27.19,10.86,0,.2-.01.06-.54.26-.55,4.07-.22,7.71-.5,11.79-.55Z"></path><path class="cls-16" d="M40,129.92c.04.17.27,2.6.26,2.74,0,.03-.2-.2-.26.55-.05.58-.07,1.09-.26,1.64-.62.03-1.24-.03-1.85,0-.53-6.45,1.17-4.31,1.85-5.2-.03.34.26.25.26.27Z"></path><path class="cls-20" d="M46.36,134.57c-2.2.14-4.42.16-6.62.27.19-.55.21-1.06.26-1.64,3.58-.39,3.89.76,4.11.82.91.24,2.44-.49,2.25.55Z"></path><path class="cls-51" d="M40.79,129.92c.31,1.58,2.67,2.9-.53,2.74,0-.14-.23-2.57-.26-2.74h.79Z"></path><path class="cls-39" d="M41.59,115.97c-1.72,3.23-.67,9.71-.79,10.8-.03.22-.53.15-.79.96-4.09.18.22-2.65-3.44-1.91.79-1.21,1.15-.5,1.19-.55.86-1.06-.91-3.16-1.72-4.92-.08-.18,1.4-1.14-1.85-2.87,3.14-.09,3.14-1.87,3.31-.14,1.57.2,1.23-2.66-2.25-1.78,3.21-1.79,2.51-2.47,2.65-2.6.29-.26.24-.36.53-.55,0,.74,2.29,2.83,3.18,3.56Z"></path><path class="cls-28" d="M24.36,115.97c1.4.6-.15,3.98,4.24,1.91l.26.27c-1.1,1.51-3.24,4.2-.13,3.83,1.11-2.29-.03,1.86.93,2.6-1.32.43-2.12,1.25-2.91,2.32l-.79.27c-2.21,4.9,2.38,1.48,1.32,3.28-2.38-.1-2.18,1.81-1.85,5.2-.56.04-1.32.59-2.12.14.71-6.61.08-13.23,0-19.83,1.15.47,1.01-.02,1.06,0Z"></path><path class="cls-7" d="M29.93,135.39c-1.5.17-2.99.17-4.5.27-.32-3.39-.52-5.3,1.85-5.2.2,0,3.1,1.37,3.71,1.5.1.15-.92,1.68-1.06,3.42Z"></path><path class="cls-59" d="M46.36,136.49c-.09.07.1.96-1.32,1.91-.8.53-1.59.48-2.38.82l.4-.82c-1.14-.18-1.9.2-2.52.27.16-.9-.69-.41-1.59-.55-.05-1.18,1.1-.17,1.72-.27.78-.13,3.65-1.58,5.7-1.37Z"></path><path class="cls-1" d="M70.21,134.85c-.04.2.07,3.23,0,4.1-.43.94-1.69-1.12-2.38.82,0-.96-4.62-.47-7.68-.55-.85-1.25.93-.34.79-1.78-.29-1.43-9.47-2.09-10.47-.96-.94-1.73-.45-.05-.53,0-.73.5-3.69,1.47-4.9,1.91,1.43-.95,1.24-1.84,1.32-1.91,1.29-1.1.98-.72,2.91-.96l-1.59-.68c7.48-.3,15.05-.51,22.52,0Z"></path><path class="cls-67" d="M60.14,139.22c3.07.08,7.68-.41,7.68.55-.15.41.21,1.66-.13,1.91-5.18-.41-9.57,1.38-8.61-2.19.05,0,0-.3,1.06-.27Z"></path></g><g><path class="cls-24" d="M40,127.73c-.19.57.23,1.27-.26,1.91-.69.89-2.39-1.25-1.85,5.2-.06,0-.23.52-1.06.55-.27-.54-.52-1.1-.79-1.64-.59-1.17-1.54-1.41-1.59-1.5-.07-.15-.05-3.13,0-3.28.05-.15.98-.93,1.85-2.32.02-.04-.03-.37.26-.82,3.67-.74-.64,2.1,3.44,1.91Z"></path><path class="cls-14" d="M27.01,113.24c.59.32,1.47,1.87,2.65,2.19,0,.03.66-.17.53.41-.03.13-.94.67-1.59,2.05-4.39,2.07-2.84-1.31-4.24-1.91-.19-2.16,2.53-.44,2.65-.68-1.32-1.26-2.12-3.2,0-2.05Z"></path><path class="cls-3" d="M36.02,120.35c.81,1.76,2.58,3.86,1.72,4.92-.04.05-.41-.66-1.19.55-.29.45-.24.78-.26.82-1.13-1.02.06-2.17-2.52-1.09-2.62-1.92,1.35-3.67-1.46-3.69.89-4.43,1.69-.77,3.71-1.5Z"></path><g><path class="cls-36" d="M33.9,110.23c.11.4-.19,1.39.13,1.64l1.72-1.37c-.2,4.3.1,1.66,2.12,2.46-.14.13.56.81-2.65,2.6,3.48-.89,3.82,1.97,2.25,1.78-.17-1.73-.17.05-3.31.14,3.25,1.74,1.77,2.69,1.85,2.87-2.02.74-2.82-2.93-3.71,1.5,2.81.02-1.16,1.77,1.46,3.69,2.58-1.07,1.39.08,2.52,1.09-.88,1.4-1.81,2.17-1.85,2.32-.05.16-.07,3.14,0,3.28.05.1,1,.34,1.59,1.5-1.92-1.24-4.34-2.1-5.03.68,2.08.14,1.24,1.12,5.83.96.83-.03,1-.54,1.06-.55.62-.03,1.24.03,1.85,0,2.2-.12,4.42-.14,6.62-.27.09,0,.18,0,.26,0v.27c-4.96.21-11.68.69-16.69,1.09,0-.18-.01-.37,0-.55.14-1.74,1.16-3.27,1.06-3.42-.61-.13-3.51-1.5-3.71-1.5,1.06-1.8-3.54,1.62-1.32-3.28.95.85,3.56.64.79-.27.79-1.07,1.6-1.89,2.91-2.32-.95-.74.19-4.89-.93-2.6-3.11.37-.97-2.32.13-3.83.56-.77,2.89-1.07,1.99-4.1-.24,1.76-.97-.86-1.19,1.37-1.18-.32-2.06-1.87-2.65-2.19.52-1.75,1.34-.44,1.59-.96.07-.14-.53-1.55-.53-1.64.01-.21.53-.38.53-.41l.4-.27c3.6,4.87.54.5,4.9.27Z"></path><g><path class="cls-35" d="M36.02,133.75c.27.54.53,1.1.79,1.64-4.59.16-3.75-.82-5.83-.96.69-2.79,3.11-1.93,5.03-.68Z"></path><path class="cls-41" d="M31.12,117.89l.93.96c-.96,1.81-1.24-.63-1.46,3.15-1.75-.17.02-4.04.53-4.1Z"></path><path class="cls-22" d="M28.87,118.16l-.26-.27c.65-1.38,1.56-1.92,1.59-2.05.13-.58-.53-.38-.53-.41.22-2.23.96.39,1.19-1.37.9,3.03-1.43,3.33-1.99,4.1Z"></path><path class="cls-52" d="M26.75,126.91c2.76.92.15,1.12-.79.27l.79-.27Z"></path><path class="cls-5" d="M31.12,122.54l.13.14c.18,1.7-1.18.91-.13-.14Z"></path><path class="cls-22" d="M32.71,112.42l.13.14c.82.25-.68,1.92-.13-.14Z"></path><path class="cls-52" d="M29,125.55h.26l.13.14-.13.14-.13.14-.13.14-.13-.14v-.27l.13-.14Z"></path></g></g></g></g></g></svg>