<svg xmlns="http://www.w3.org/2000/svg" xmlns:xlink="http://www.w3.org/1999/xlink" id="Layer_2" data-name="Layer 2" viewBox="0 0 142.94 131.4"><metadata></metadata><defs><style>      .cls-1 {        fill: #928b8b;      }      .cls-1, .cls-2, .cls-3, .cls-4, .cls-5, .cls-6, .cls-7, .cls-8, .cls-9, .cls-10, .cls-11, .cls-12, .cls-13, .cls-14, .cls-15, .cls-16, .cls-17, .cls-18, .cls-19, .cls-20, .cls-21, .cls-22, .cls-23, .cls-24, .cls-25, .cls-26, .cls-27, .cls-28, .cls-29, .cls-30, .cls-31, .cls-32, .cls-33, .cls-34, .cls-35, .cls-36, .cls-37, .cls-38, .cls-39, .cls-40, .cls-41, .cls-42, .cls-43, .cls-44, .cls-45, .cls-46, .cls-47, .cls-48, .cls-49, .cls-50, .cls-51, .cls-52, .cls-53, .cls-54, .cls-55, .cls-56, .cls-57, .cls-58, .cls-59, .cls-60, .cls-61, .cls-62, .cls-63, .cls-64, .cls-65 {        stroke-width: 0px;      }      .cls-2 {        fill: #77604f;      }      .cls-3 {        fill: #c1bebd;      }      .cls-4 {        fill: #615355;      }      .cls-5 {        fill: #4d4248;      }      .cls-6 {        fill: #363e44;      }      .cls-7 {        fill: #77893e;      }      .cls-8 {        fill: #938472;      }      .cls-9 {        fill: #516f25;      }      .cls-10 {        fill: #4f2b1d;      }      .cls-11 {        fill: #51322f;      }      .cls-12 {        fill: #87544a;      }      .cls-13 {        fill: #aa703e;      }      .cls-14 {        fill: url(#linear-gradient);      }      .cls-15 {        fill: #d8d8d8;      }      .cls-16 {        fill: #44555c;      }      .cls-17 {        fill: #848672;      }      .cls-18 {        fill: #956235;      }      .cls-19 {        fill: #6d5507;      }      .cls-20 {        fill: #9a9c8b;      }      .cls-21 {        fill: #87252b;      }      .cls-22 {        fill: #5f4e31;      }      .cls-23 {        fill: #3a241d;      }      .cls-24 {        fill: #8c674c;      }      .cls-25 {        fill: #675a36;      }      .cls-26 {        fill: #cbb1b0;      }      .cls-27 {        fill: #b3b294;      }      .cls-28 {        fill: #151f01;      }      .cls-29 {        fill: #7a2b3e;      }      .cls-30 {        fill: #361814;      }      .cls-31 {        fill: #4c321a;      }      .cls-32 {        fill: #c9b9a3;      }      .cls-33 {        fill: #657b33;      }      .cls-34 {        fill: #869470;      }      .cls-35 {        fill: #312c14;      }      .cls-36 {        fill: #897d75;      }      .cls-37 {        fill: #6c504a;      }      .cls-38 {        fill: #423d38;      }      .cls-39 {        fill: #b49a9c;      }      .cls-40 {        fill: #673424;      }      .cls-41 {        fill: #56413c;      }      .cls-42 {        fill: #776460;      }      .cls-43 {        fill: #cf9b60;      }      .cls-44 {        fill: #283812;      }      .cls-45 {        fill: #a4937c;      }      .cls-46 {        fill: #817968;      }      .cls-47 {        fill: #d2bbb2;      }      .cls-48 {        fill: #322e2e;      }      .cls-49 {        fill: #f6f6f6;      }      .cls-50 {        fill: #aba5a5;      }      .cls-51 {        fill: #695f58;      }      .cls-52 {        fill: #a86f51;      }      .cls-53 {        fill: #7d8b96;      }      .cls-54 {        fill: #efe58d;      }      .cls-55 {        fill: #515e12;      }      .cls-56 {        fill: #7d7575;      }      .cls-57 {        fill: #373804;      }      .cls-58 {        fill: #90786b;      }      .cls-59 {        fill: #857453;      }      .cls-60 {        fill: #4e3d09;      }      .cls-61 {        fill: #314504;      }      .cls-62 {        fill: #724222;      }      .cls-63 {        fill: #c28547;      }      .cls-64 {        fill: #d99b0e;      }      .cls-65 {        fill: #595958;      }    </style><linearGradient id="linear-gradient" x1="71.94" y1="118.92" x2="74.96" y2="137.25" gradientUnits="userSpaceOnUse"><stop offset="0" stop-color="#a98c96"></stop><stop offset="1" stop-color="#8d6c75"></stop></linearGradient></defs><g id="Layer_1-2" data-name="Layer 1"><g><path class="cls-2" d="M48.61,23.98c-1.45.09-3.15-.05-4.59-.2-1.15-.12-1.16-.61-1.22-.61-.22-.02-1.96.53-4.39,0l-.1-1.22c4.46.09,6.69-.74,10.31,2.04Z"></path><path class="cls-45" d="M37.79,23.16c-.02.41.02.82,0,1.22-1.1-.01-2.31.23-3.47.2-.69-.72-.59-1.04-.1-2.04,3.67.42-.38-3.49,3.78-1.74.05.8-.16,1.55-.2,2.35Z"></path><path class="cls-32" d="M29.01,22.14c-2.97,0,.82,2.04-3.06,2.45-2.04-2.5.33-2.72,2.76-2.86l.31.41Z"></path><g><path class="cls-4" d="M24.11,57.26c0,3.13,0,6.26,0,9.39,0,1.29.07,2.58,0,3.88-.12,0-.35.32-1.02.2.27-1.89-.56-9.78-.2-13.37-.35-.51-1.01-.25-1.63-.31,1.26-2,1.46-.1,2.86.2Z"></path><g><path class="cls-50" d="M35.95,54.81c-.86.87-1.06.75.2,2.14-.84.05-1.03.48-1.22.51-.54.07-10.29-.09-10.82-.2-1.4-.31-1.6-2.21-2.86-.2-5.44-.47-3.2,1.42-4.8,1.84-1.71.45-2.11-1-2.25-1.02-.1-.02-.93,1.08-1.74,0,1.54.03,3.13-2.27,2.45-3.47,2.17-.15,19.52-.45,20.52-.2.07.02.48.45.51.61Z"></path><path class="cls-5" d="M14.92,54.4c.68,1.2-.91,3.51-2.45,3.47-1.25-1.16.24-2.48.41-2.86.66-.58,1.24-.56,2.04-.61Z"></path></g><path class="cls-59" d="M28.4,71.34c-1.84,0-3.66-.2-5.51-.2,0-.18.18-.2.2-.41.67.12.9-.21,1.02-.2.04,0-.12.32.82.2.37-.04,1,.07,1.12,0,.46-.25.24-.67.31-1.02,1.43.19,1.72.17,2.04,1.63Z"></path><path class="cls-36" d="M24.93,70.73c-.94.11-.77-.2-.82-.2.07-1.3,0-2.59,0-3.88.45-.08,1.06-.53,1.43-.82-.14,2.21.39,2.77-.61,4.9Z"></path><path class="cls-42" d="M26.36,69.71c-.06.35.15.77-.31,1.02-.13.07-.75-.04-1.12,0,1.01-2.13.47-2.69.61-4.9,1.35-1.05,1.99-2.79.82,3.88Z"></path></g><g><g><path class="cls-1" d="M5.94,42.15c1.66,1.31,2.01,3.38,3.37,5.1.77-.06-.19-7.51,1.02-1.63q13.27-.1,26.54-.2l-.61.41c5.67-.37,7.12,1.42,7.04-2.45.03,1.02.05,2.04,0,3.06-11.03-.69-22.12-.31-33.18-.41-1.52,5.05,3.48,3.23,11.54,3.47,1.94.06,3.88-.04,5.82,0,1.04.02,1.16.61,1.22.61,6.27.11,12.6-.58,18.89-.2.66.72-1.41.31-3.57.41-.93,4.14-.27.33-.82,0q-15.92.2-31.85.41c-1.06-1.08-2.92-.27-3.78-.41-3.8-.59-.93-1.32,2.04-1.53l-5.31-6.23s.58-.29.61-.41c.34.01.68,0,1.02,0Z"></path><path class="cls-1" d="M48.61,42.35h3.47c-3.44,1.7-3.83,2.07-3.88,3.67h-4.08l-.2-3.67c.3.05,3.17-.07,4.7,0Z"></path><path class="cls-56" d="M44.12,48.68s-.07.37.1.41c1.01.22,4.85-.54,3.37.82-6.28-.37-12.61.31-18.89.2-.07,0-.19-.59-1.22-.61-1.94-.04-3.88.06-5.82,0,0-.14-.05-.35.1-.41,1.01-.35,18.37.37,21.44,0l.1-.61c.39.3.74.17.82.2Z"></path><path class="cls-51" d="M43.92,42.35l.2,3.67v2.65c-.08-.04-.42.1-.82-.2.02-.68-.03-1.36,0-2.04.05-1.02.03-2.04,0-3.06-.01-.56.11-1.05-.2-1.02v-.2s.71.19.82.2Z"></path><path class="cls-50" d="M14.92,42.15c9.39.14,18.78.33,28.17.2.31-.02.19.46.2,1.02.08,3.87-1.38,2.08-7.04,2.45l.61-.41q-13.27.1-26.54.2c-1.21-5.88-.26,1.57-1.02,1.63-1.36-1.72-1.71-3.8-3.37-5.1,2.99.07,5.99-.04,8.98,0Z"></path><path class="cls-3" d="M43.3,46.44c-.03.68.02,1.36,0,2.04l-.1.61c-3.07.37-20.42-.35-21.44,0-.16.05-.1.27-.1.41-8.05-.24-13.05,1.58-11.54-3.47,11.06.1,22.15-.28,33.18.41Z"></path></g><g><g><path class="cls-3" d="M30.44,40.92c-1.29.06-2.59-.02-3.88,0l.2-8.57c.66.26,3.72,1.46,3.88,1.94.15.45.03,5.52-.2,6.64Z"></path><path class="cls-1" d="M26.77,32.35l-.2,8.57c-.89.02-1.82-.2-2.65-.2.08-2.1-.11-4.23,0-6.33.1-1.93-.63-3.34,1.74-2.86.07.01.92.74,1.12.82Z"></path></g><g><path class="cls-42" d="M36.77,36.02c.02.94-.24,1.68-.2,2.65l-.2,2.14c-.18.35-.72-.73-1.84.1-.68-.12-1.58.22-1.63-.2.32-.05,1.36,0,1.43-.1.18-.3.53-5.5.41-6.43.65-.02,1.29.01,1.94,0,.2.14.09,1.51.1,1.84Z"></path><path class="cls-56" d="M34.73,34.19c.13.93-.23,6.13-.41,6.43-.06.11-1.11.05-1.43.1.29-6.31-1.11-6.46,1.84-6.53Z"></path></g></g><path class="cls-58" d="M59.84,37.86v.2c-.07-.04-.88.04-1.33-.41-.38-.38.56-.81-.61-1.02-.43.17-.37,1.66-.31,2.04-1.7-.91-.69,1.84-1.12,2.25-.07.06-1.15.16-1.74.41.04-.26-.06-.69,0-.82.04-.08.59.42.41-1.43,1.1-.74,2.19-1.1,2.25-1.33-.14-.54-.08-2.08,0-2.65.02-.17.4-.28.41-.31l2.04,3.06Z"></path><g><path class="cls-43" d="M29.01,22.14c-.35,3.33.27,2.35,5.31,2.45,1.16.02,2.37-.22,3.47-.2,3.74.04,7.48.17,11.23.2,1.9.02,3.82-.06,5.72,0-3.55.65-1.4,1.27,2.45,1.02.03.2-.01.41,0,.61-.58.31-1.39.23-2.04.2-.6-.03-1.08.01-1.63,0-16.15-.36-32.33.33-48.49,0l-.1.82c-1.1-1.11-.65-.98-.71-1.02-.31-.19-.32.43-.41.41-.35-.11.43-.23-.92-.2-.88.01-1.77-.01-2.65,0-.27.02-.19-.18-.2-.41,3.73.26,3.58-.39,3.78-.41,5.71-.43,11.63.18,17.35.2.77-1.68-.36-.64-1.33-1.22,1.85-.03,4.64.16,6.12,0,3.88-.41.09-2.46,3.06-2.45Z"></path><path class="cls-1" d="M4.92,27.24c.44.45,1.23,1.7,1.74,1.84,2.26.61,41.98-.69,46.86,0,.04,0,.58.29.61.41-2.41.84-41.25-.17-47.47,0l.1.61c-.15.02-.23.03-.2.2-.25-.67-3.1-2.92-3.67-3.88,1.35-.02.56.09.92.2.08.03.1-.59.41-.41.06.04-.39-.09.71,1.02Z"></path><path class="cls-15" d="M56.98,30.51c-.91-.62-.61-1.46-3.27-.1.86,6.16-.2,3.31-4.49,4.39-.07-.34-1.67-1.49-2.04-1.63-1.69-.65-2.62-.34-2.76-.41-.38-.2,1.18-2.47-1.63-2.04-1.02.85-.95,1.01-.92,2.25-.02.47-.73-.38-1.43-.41-1.94-.07-.97,1.67-1.22,2.14-.06.11-1.74-.74-1.63,1.12.03.57.61,1.71.41,2.65-1.1-.03.73-2.16-1.22-2.45,0-.33.1-1.7-.1-1.84-.65.01-1.29-.02-1.94,0-2.95.08-1.54.22-1.84,6.53-.89.15-1.57.17-2.45.2.23-1.12.35-6.19.2-6.64-.16-.48-3.22-1.68-3.88-1.94-.2-.08-1.05-.8-1.12-.82-2.36-.48-1.63.93-1.74,2.86l-4.7.2c-.28-1.28-1.16-1.67-2.25-2.04-.23-.08-.33-.14-.61-.2-.41-.89-1.32.25-.92-2.25l-7.55.41c-.37-.52-.58-.36-.92-.41-.06,0-.14,0-.2,0l-.1-.61c6.22-.17,45.05.84,47.47,0,1.56-.54.9-1.31,1.02-3.06.65.03,1.47.11,2.04-.2.08,1.24.1,3.09-.2,4.29Z"></path><path class="cls-50" d="M56.98,30.51c.99.68.78.86,1.02,1.02-.46.99-.07,2.24-.2,3.27,0,.03-.39.14-.41.31-.08.58-.14,2.11,0,2.65-.05.22-1.14.59-2.25,1.33-.02.01-.07-.39-.31-.2-.13.1.23.63-1.33,1.63-1.62,0-4.66-.22-4.9-.2-.13-2.82.69-3.05-1.43-3.67.94-.19,2.3-.63,2.04-1.84,4.3-1.08,5.35,1.77,4.49-4.39,2.65-1.36,2.36-.52,3.27.1Z"></path><path class="cls-43" d="M19.82,24.59c.97.59,2.1-.45,1.33,1.22-5.72-.03-11.65-.63-17.35-.2-.2.02-.05.67-3.78.41-.01-.29-.07-1.3.1-1.43.8-.57,17.21.03,19.7,0Z"></path><path class="cls-15" d="M38.4,23.16c2.43.53,4.17-.02,4.39,0,.07,0,.08.49,1.22.61,1.44.15,3.14.29,4.59.2.23.17.3.37.41.61-3.75-.03-7.49-.16-11.23-.2.02-.41-.02-.82,0-1.22.2.02.43-.04.61,0Z"></path><path class="cls-43" d="M57.19,25.61c-3.85.25-6-.37-2.45-1.02,2.12.07,2.04-.24,2.14-.2.45.15.26.89.31,1.22Z"></path><path class="cls-3" d="M53.51,26.43v2.65c-4.88-.69-44.59.61-46.86,0-.5-.14-1.29-1.39-1.74-1.84l.1-.82c16.15.33,32.34-.36,48.49,0Z"></path><path class="cls-41" d="M55.15,26.43c-.12,1.75.54,2.52-1.02,3.06-.03-.12-.58-.4-.61-.41v-2.65c.55.01,1.03-.03,1.63,0Z"></path><path class="cls-49" d="M9,35.62c-.3.57.23,5.09,0,5.51-2.63-.27-1.11-1.95-1.22-6.33l1.22.82Z"></path><path class="cls-3" d="M23.91,34.39c-.11,2.1.08,4.23,0,6.33-2.08,0-4.24.59-6.33,0,.41-.71.79-3.57,1.02-4.49.02-.1,1,.14.61-1.63l4.7-.2Z"></path><path class="cls-15" d="M55.15,39.09c.18,1.85-.37,1.35-.41,1.43h-1.22c1.55-1,1.2-1.54,1.33-1.63.24-.18.29.21.31.2Z"></path></g></g><g><g><path class="cls-13" d="M111.9,65.63l.41,2.25c-.18-.05-.43.04-.61,0-1.9-.45-3.82-2-4.49.51,1.12.79,2.43,2,3.47,2.76-1.36-.15-4.11.2-5,0-.26-.06-4.47-2.31-4.7-2.45-.45-.28-1.55-3.89-9.29-3.67.27-3.09,1.99-5.97,4.7-7.55.74-.12,9.15-3.87,13.47,2.96,1.83,2.89.56,4.04,2.04,5.21Z"></path><path class="cls-40" d="M115.78,68.69c-1.21-.01-2.32-.53-3.47-.82l-.41-2.25c.22.18,3.85,1.66,3.98,1.84.13.17-.41.03-.1,1.22Z"></path><path class="cls-63" d="M104.96,71.55c-3.62,0-7.2-.11-10.82-.2-2.24-1.72-2.56-3.22-2.45-5.92,5.94-.49,5.81,3.53,10.11,4.9.48.15.77-.42.82-.41.16.05,2.81,1.49,2.35,1.63Z"></path><path class="cls-18" d="M110.68,71.14c.07.05.43-.12.41.2-2.03.02-4.07.21-6.12.2.46-.14-2.19-1.59-2.35-1.63-.05-.01-.34.56-.82.41-4.3-1.37-4.16-5.39-10.11-4.9,0-.14-.01-.27,0-.41,7.74-.21,8.84,3.39,9.29,3.67.22.14,4.44,2.39,4.7,2.45.89.2,3.64-.15,5,0Z"></path></g><g><path class="cls-13" d="M122.11,59.71c-.07.53-.45,3.59-.41,3.78.12.49.47-.04.82.31-.51,3.85,1.21,5.74-.82,5.72-.38,0-3.11-.32-3.27-.51-.26-3.62-1.35-9.09,3.67-9.29Z"></path><path class="cls-63" d="M124.76,59.71c-.03.3.37.14.41.31.1.47-.59,8.42-1.22,9.29-1.06-2.36.08-4-1.43-5.51-.35-.35-.7.18-.82-.31-.04-.18.34-3.25.41-3.78.38-2.98.18-4.11,1.53-3.67.42,2.79-.63,2.85,1.12,3.67Z"></path><path class="cls-13" d="M126.81,60.93c.1.23,0,4.27,0,4.9-1.39-.23-1.66,6.36,0,5.31v.41c-1.83-.02-3.68-.17-5.51,0,.16-1.25,3.24-1.37,3.06-2.14-.04-.18-.4-.08-.41-.1.63-.87,1.33-8.82,1.22-9.29-.04-.17-.44,0-.41-.31.38.18,1.47-.11,2.04,1.22Z"></path><path class="cls-62" d="M123.95,69.3s.37-.07.41.1c.17.77-2.9.9-3.06,2.14-.1.73.2,1.5,0,2.25-.07,0-.14,0-.2,0-2.68.01-.89-1.04-1.63-2.45-.22-.42-1.61-.57-1.12-1.43l3.37-.41c2.02.02.31-1.87.82-5.72,1.51,1.51.37,3.15,1.43,5.51Z"></path><path class="cls-18" d="M126.81,65.83c0,1.77,0,3.54,0,5.31-1.66,1.06-1.39-5.54,0-5.31Z"></path></g></g><path class="cls-15" d="M116.39,32.35v7.96c-1.63,0-3.26,0-4.9,0,.18-1.94-.24-5.47,0-6.94.26-1.6.82.11,1.02-.71.13-.53-.61-.61.51-1.53.71,2.28.51.02.61,0,.15-.02.23.47,2.76,1.22Z"></path><g><path class="cls-61" d="M102.1,20.92c.71.57,1.03,1.3,1.43,2.04h-.2c-.88-.18-1.29.62-1.63,1.22-1-.07-.39.88-1.12-.2-.51,2.32-.85.37-1.33-1.43-.13-.48-.83-2.8-.51-3.06.3-.24,2.86,1.02,3.37,1.43Z"></path><path class="cls-55" d="M88.42,24.18c-3.03.64-3.81.51-5.31,3.67-1.85.21-1.28.86-2.45,1.84.01-1.43,0-2.86,0-4.29,2.18-1.54,1.34-1.84,1.43-1.94.74-.84,2.03-.5,2.35-.71.46-.31.26-1.19.61-1.43.06-.04,1.36.23,1.43.2.09-.03.5-.61,1.12-.82.36-.12,1.15-.4,1.22-.41,1.66,2.49-2.23,3.24-.41,3.88Z"></path><path class="cls-55" d="M94.96,20.3c.1.02,1.85.56,1.94.61.09.06.25.79.31,1.02-.08.35.16.81-.2.82-1.01-.44-1.14-.7-2.04.2-.17-.07-.21.3-.41.1-.26-.26.2-2.02-.82-1.02-.07.23.36,1.42.41,1.94.06.7-.16,1.5.61,2.14-.69.52-1.2-.04-2.04-.31-3.08-.98-1.25-.55-.51.2.39.4.99,2.18,1.74,1.43.75,2.1-1.62.11-1.63,1.63-.57-.45-1.23-.65-1.84-1.02-.26-.16.04-1.55-1.02.82-.01-.28.1-1.31-.1-1.43-.98,1.57-.45.18-1.94-.2-1.44-.37-1.1.73-1.33.82-.51.19-.78-.22-.82-.2-.31.13-1.09.81-1.22.82-.76.03.11-.93-.92-.82,1.5-3.17,2.28-3.03,5.31-3.67.03,0-.03.35.51.2.6-.16,1.67-2.1,1.74-2.86,1.64-1.18,2.03.04,2.14,0,.21-.07-.08-1.59,1.22,0,.24-1.28-.79-1.61.92-1.22Z"></path><path class="cls-61" d="M102.92,29.9c-.67,1.68,3.13,1.52,3.27,1.94.01.04-.32.12-.41.71,0,.02-.42.04-.1.41,2.21-.21,3.2.57,3.37.61.5.12,1.12-.08,1.63.2-.29,1.34-.96,1.71-1.02,2.04-2.16-1.38-.63.41-2.35,0-.06-.02-.85-.86-1.02-.82-.38.11-.24,2.1-2.04.2-.2.22-.07.64-.1,1.02l-1.84.2c0-.21-.39-.37-.51-.82-.98,1.95-2.1-.01-2.25,0-.1,0-.53.83-.82.82-.1,0,.01-.34-.92-.41-.25-.02-.37.48-.71.41-.32-.07-.75-1.01-.82-1.02-.49-.08.55,1.22-2.55-.2-.03-.01.09-.29-.1-.41-.08-.05-.28.87-1.33-.31-.09-.1.14-.7-.1-.92-.12-.11-.08,1.34-1.74-2.04.01-.4-.06-.66.2-1.02,1.51,1.21,1.56.26,1.63.2,1.27.66,2.1.99,3.16,1.84,2.22-1.71,4.9-1.94,7.45-2.65Z"></path><path class="cls-61" d="M93.12,30.1c-.05-.04-.05-.41-.82-1.02.01-1.53,2.39.46,1.63-1.63,0-.02-.17-.34-.2-.41.45-1.28,4.51,2.99,4.49,3.57-.37.19-2.81,1.38-2.96,1.33-.13-.04-1.16-1.07-2.14-1.84Z"></path><path class="cls-61" d="M106.59,28.88c1.51.42,2.88,2.16-.51,1.22-1.4.48,3.04.93,3.57,1.22.87.48.38.72.2,1.22-.22-1.88-2.91-1.17-4.08,0,.09-.59.42-.68.41-.71-.13-.42-3.94-.26-3.27-1.94.28-.08,1.52-1.62,3.67-1.02Z"></path><path class="cls-4" d="M92.3,29.08c.77.61.77.98.82,1.02-.77-.17-.59.44-.82.61-.08.06-.13,1.01-1.63-.2-1-.8-.61-.83-.2-2.45.61.37,1.26.57,1.84,1.02Z"></path><g><path class="cls-55" d="M111.9,21.73c-.69.05-2.96.6-2.55,1.43,2.25-1.66,1.15-.68.51.82-1.31.72.36-.31-1.02-.1-.57,2.43-3.01,4.24-.71,2.96.93.53-1.94,1.17.71,1.94l-2.25.1c-2.15-.6-3.4.94-3.67,1.02-2.55.72-5.24.95-7.45,2.65-1.06-.85-1.9-1.17-3.16-1.84.22-.18.05-.79.82-.61.98.77,2.01,1.79,2.14,1.84.15.05,2.59-1.14,2.96-1.33.02-.59-4.04-4.86-4.49-3.57-.04-.07-.88-.69-1.02-1.22.84.27,1.35.83,2.04.31-.77-.64-.55-1.45-.61-2.14.88,1.87,1.08,3,2.76,4.29v-1.84c1.47,1.12,2.88-.96,2.14,1.94l-1.53-.71c.55,2.36.98,3.17,2.96,2.14-1.52-.57-.08-1.86-.41-3.67l-1.63-3.67.41-.1c.15.23.4.59.41.2.48,1.8.82,3.75,1.33,1.43.73,1.08.12.13,1.12.2-.66,1.15-.19,1.16-.2,1.22-.15.71-.93,3.36.41,2.35-.11-.88.94-2.24,1.02-2.45.1-.25-.31-.37-.2-.61.08-.18.4-.08.41-.1.22-.6.51-.97.2-1.63h.2c.14.25.41.6.61.82-1.52,5.14-2.04,6.18,1.43,3.57-1.7-1.99-.22-3.86-1.43-3.78.07-.25-.07-.7,0-.92.52-1.59,5.38-2.95,5.51-2.25-1.56,1.69-.18,1.38,2.55.51.33.51-.3.2-.31.82Z"></path><path class="cls-57" d="M104.14,23.77c.02-.06-.02-.14,0-.2,1.21-.08-.27,1.79,1.43,3.78-3.47,2.61-2.95,1.56-1.43-3.57Z"></path><path class="cls-15" d="M108.74,22.34l.51.1c-1.95,2.89-4.32,5.05-2.86,2.25-2.21.59-.25-.95,2.35-2.35Z"></path><path class="cls-57" d="M103.12,24.59s-.33-.08-.41.1c-.1.24.3.36.2.61-.08.21-1.13,1.57-1.02,2.45-1.34,1.01-.56-1.63-.41-2.35.38-1.51,1.75-2.01,1.63-.82Z"></path><path class="cls-47" d="M111.9,21.73c0,.47-.26.32.2,1.22-.84.22-1.5.61-2.25,1.02.64-1.5,1.73-2.48-.51-.82-.41-.83,1.86-1.38,2.55-1.43Z"></path></g><path class="cls-27" d="M103.33,22.96c.31.66.01,1.04-.2,1.63.12-1.19-1.25-.69-1.63.82.01-.06-.46-.07.2-1.22.35-.6.76-1.4,1.63-1.22Z"></path><path class="cls-7" d="M92.71,25.82c.14.53.98,1.16,1.02,1.22.04.06.2.39.2.41-.74.75-1.34-1.03-1.74-1.43-.74-.76-2.57-1.19.51-.2Z"></path><path class="cls-61" d="M90.67,21.53c-.06.75-1.14,2.7-1.74,2.86-.54.14-.48-.21-.51-.2-1.82-.64,2.07-1.39.41-3.88,1.17-.15.35.33.71.41.77.17,1.29-1.26,1.12.82Z"></path><g><path class="cls-57" d="M98.84,22.34l-.41.1,1.63,3.67c.33,1.81-1.11,3.11.41,3.67-1.98,1.02-2.41.21-2.96-2.14l1.53.71c.74-2.9-.67-.82-2.14-1.94v1.84c-1.68-1.29-1.88-2.42-2.76-4.29-.05-.52-.47-1.71-.41-1.94,1.02-1,.56.76.82,1.02.2.2.24-.18.41-.1.8.35,3.12,1.22,2.04-.2.37,0,.13-.47.2-.82.36-1.64,1.15-.34,1.63.41Z"></path><path class="cls-34" d="M97,22.75c1.08,1.43-1.24.56-2.04.2.9-.91,1.03-.65,2.04-.2Z"></path><path class="cls-20" d="M97.92,24.79l.92.71c-1.71.97-2.38.72-.92-.71Z"></path></g><path class="cls-49" d="M102.31,36.43c0,.21-.52,1.14-.61,4.08-1.16,0-2.35-.19-3.47-.2l-.41-4.29c.93.07.82.4.92.41.29.01.71-.81.82-.82.15-.01,1.26,1.95,2.25,0,.12.44.5.61.51.82Z"></path><g><path class="cls-49" d="M109.66,35.82c-.04.23.45,3.76.2,4.7-1.91,0-3.83-.19-5.72-.2.07-1.35-.1-2.74,0-4.08.03-.38-.09-.8.1-1.02,1.81,1.89,1.66-.1,2.04-.2.17-.05.96.8,1.02.82,1.72.41.19-1.38,2.35,0Z"></path><path class="cls-22" d="M111.49,33.37c-.24,1.47.18,5,0,6.94-1.35,0-.86-.2-.92-.2-.08,0-.18.41-.71.41.24-.93-.25-4.46-.2-4.7.06-.33.73-.71,1.02-2.04.04-.19-.04-.42,0-.61l.82.2Z"></path></g><path class="cls-8" d="M104.14,40.31c-.12,0-.79.22-2.45.2.09-2.94.62-3.87.61-4.08l1.84-.2c-.1,1.35.07,2.73,0,4.08Z"></path><path class="cls-25" d="M109.86,32.55c-.03.08.76.13-.82,1.02-.17-.04-1.16-.82-3.37-.61-.32-.37.1-.39.1-.41,1.17-1.17,3.86-1.88,4.08,0Z"></path><path class="cls-57" d="M118.23,27.45c-1.59-.08-2.08.8-3.06,1.02-1.57.35-2.71.29-3.67-1.02,1.63-2.39,5.72-3.26,6.74,0Z"></path><path class="cls-20" d="M118.23,27.45c.19.6.29,1.01.2,1.63-.61-.22-.46.05-.61,0-.88-.26-1.71-.7-2.65-.61.98-.22,1.47-1.1,3.06-1.02Z"></path><g><path class="cls-61" d="M114.76,24.39c-.7.37-3.59,2.25-3.27,3.06.97,1.31,2.11,1.37,3.67,1.02.95-.09,1.78.35,2.65.61.27,1.38,1.37,3.06.41,3.67-.61-.15-1.23-.23-1.84-.41-2.53-.76-2.61-1.25-2.76-1.22-.11.02.1,2.28-.61,0-1.12.92-.38,1-.51,1.53-.21.83-.76-.88-1.02.71l-.82-.2c.54-2.69,1.15-2.74-.51-3.67-.81.68.92,1.71-.51,1.84-.54-.29-4.97-.74-3.57-1.22,3.39.94,2.02-.81.51-1.22l2.25-.1c-2.65-.77.21-1.41-.71-1.94-2.29,1.28.14-.53.71-2.96,1.39-.21-.29.82,1.02.1.75-.41,1.41-.8,2.25-1.02.03.06.45-.34.51,1.02,2.65-.8.48,1.02,2.14.41Z"></path><path class="cls-17" d="M110.68,33.17c-.04.19.04.43,0,.61-.51-.28-1.13-.09-1.63-.2,1.58-.89.79-.94.82-1.02.17-.51.67-.75-.2-1.22,1.43-.13-.3-1.16.51-1.84,1.66.94,1.05.99.51,3.67Z"></path><path class="cls-33" d="M114.45,29.29l1.74.31c-1.46.3.63,2.49-2.04.41l.31-.71Z"></path></g></g><g><g><path class="cls-4" d="M43.3,59.3s.31.16.41.2c.99.42,2.69-.05,3.06-.41.24.18.39.15.61.2-1.34.93-.88,3.82-1.63,5.51-.89.08-1.5.45-2.65.41-.59-.02-1.4.08-1.84,0-.07-.91.86.12,1.84-.31-1.04-3.07-.4-4.65-.41-4.9,0-.15-.45-.02-.41-.31.42-.07.51-.84,1.02-.41Z"></path><path class="cls-3" d="M42.28,59.71c-.04.29.4.15.41.31.01.25-.64,1.83.41,4.9-.98.43-1.91-.61-1.84.31-2.96-.53-2.07-3.73-1.63-5.92.92.3,1.61.58,2.65.41Z"></path></g><g><path class="cls-55" d="M39.02,55.83c.48.35.42-.31.82.61.21.74,1.06.23,2.45.2.59.81.55,2.12,1.02,2.65-.51-.44-.6.34-1.02.41-1.04.17-1.73-.11-2.65-.41-.02,0-.21-.45-.31-.41-.41.18-.11,3.24-2.55,1.33,1.58-4.42-3.19,1.68-1.84-2.76.2-.03.38-.46,1.22-.51-1.27-1.39-1.06-1.27-.2-2.14.04-.04.43.12.41-.2.66,1.24,1.37,1.99,2.65,1.22Z"></path><path class="cls-61" d="M44.12,53.17c.26,2.43-1.16,4.36.61,1.63,2.39-3.69,2.68.2,1.84,1.02-.63.42-1.33.47-2.04.61-.82.17-1.41.19-2.25.2-1.39.03-2.24.53-2.45-.2,1.59-.13,2.37-.51,1.84-2.25.32.66,1.07-3.07,2.45-1.02Z"></path><path class="cls-61" d="M41.67,54.19c.53,1.73-.24,2.12-1.84,2.25-.4-.92-.34-.26-.82-.61-.03-.02-.38-.59-.41-.61-.95-2.52,2.17-3.94,3.06-1.02Z"></path><path class="cls-28" d="M47.39,56.24c.43.82-.5,2.75-.61,2.86-.38.35-2.07.82-3.06.41,1.77-.2.85-1.68.82-3.06.71-.14,1.41-.19,2.04-.61.16.54.51.35.82.41Z"></path><path class="cls-57" d="M38.61,55.21s.38.59.41.61c-1.28.77-1.99.01-2.65-1.22.63-1.07,1.63.16,2.25.61Z"></path><path class="cls-28" d="M44.73,54.81c-1.77,2.73-.35.79-.61-1.63.35.51.24,1.14.61,1.63Z"></path><path class="cls-44" d="M44.53,56.44c.03,1.38.95,2.86-.82,3.06-.1-.04-.39-.19-.41-.2-.47-.53-.43-1.84-1.02-2.65.83-.02,1.43-.04,2.25-.2Z"></path></g></g><g><path class="cls-1" d="M81.48,66.65c.32,1.04-.79,1.44-.82,1.53-.74,3.07,1.79,2.97-2.45,3.16v-.2c2.21-.02,1.53-2.08,1.84-3.78-.16-.21-1.64-.08-2.04-.1-6.29-.37-13.6.28-20.01,0,0-.03-.3.09-.2-.61,1.15-.27,22.57-.39,23.68,0Z"></path><path class="cls-4" d="M57.8,66.65c-.1.71.2.58.2.61.25,1.37.09,2.72.2,4.08-.28,0-.55,0-.82,0v-4.08c-.07-.76.1-.54.41-.61Z"></path><path class="cls-49" d="M78.01,67.26l.1,1.43c2.67-1.08-.05.38-.1.51-.04.09.36.74.2,1.94v.2c-2.29.1-4.65.02-6.94,0l.1-2.04c-2.89.18-3.14-1.04-3.16,1.84-.06,0-.14.36-1.22.2-.49-.07-1.06.21-1.43-.31,1.91-5.3-.85-3.23-1.84.31-.48-.02-.95.01-1.43,0-.72-2.74-3.82-5.15-3.06,0-.34,0-.68,0-1.02,0-.11-1.37.04-2.72-.2-4.08,6.41.28,13.72-.37,20.01,0Z"></path><path class="cls-38" d="M71.27,71.34c-.71,0-1.93.25-2.76.2-.16,0,.02-.38-.31-.41.02-2.87.28-1.65,3.16-1.84l-.1,2.04Z"></path><path class="cls-1" d="M62.29,71.34c-1.02-.02-2.04,0-3.06,0-.76-5.15,2.35-2.74,3.06,0Z"></path><path class="cls-51" d="M66.99,71.34c-1.03.52-2.22.04-3.27,0,.99-3.53,3.75-5.61,1.84-.31.37.52.94.24,1.43.31Z"></path><path class="cls-3" d="M78.22,71.14c.15-1.2-.24-1.85-.2-1.94.05-.13,2.77-1.59.1-.51l-.1-1.43c.4.02,1.88-.11,2.04.1-.31,1.69.37,3.76-1.84,3.78Z"></path></g><g><path class="cls-61" d="M13.5,32.14c-.06.5-.14,1.87-.2,2.04-.01.03-.4.38-.41.41-.83-.11-3.5.3-3.88,1.02l-1.22-.82c-.01-.48,0-.89,0-1.02.22-.1.41-.27.61-.41-.48,3.21,4.51,1,2.45-1.02,1.69-.39,1.14-.23,2.65-.2Z"></path><g><path class="cls-61" d="M16.35,32.35c.28.07.38.13.61.2-.08.71.12,2.35.41,2.86-.57,0-1.16-.5-1.63-.61-.32-.08-.86-.14-1.22-.2-.44-.07-1.02.23-1.22-.41.07-.17.15-1.54.2-2.04,1.07.02,1.76-.06,2.86.2Z"></path><path class="cls-44" d="M19.21,34.59c.39,1.77-.59,1.54-.61,1.63-.12-.33-.84-.41-1.02-.61,0-.01-.05.06-.2-.2-.29-.51-.49-2.14-.41-2.86,1.09.37,1.97.76,2.25,2.04Z"></path></g><g><path class="cls-54" d="M12.88,34.59c-.05.16-.49.29-.61.92-.21,1.07.16,4.07,0,5.61-.71.07-2.57.07-3.27,0,.23-.43-.3-4.94,0-5.51.38-.72,3.05-1.13,3.88-1.02Z"></path><path class="cls-19" d="M17.37,35.41c.15.26.19.19.2.2-.18,1.53-.28,4.56-1.22,5.72-.11.14-.25.31-.41.41-2.29-1.19-.1-4.34-.2-6.94.47.12,1.07.62,1.63.61Z"></path><path class="cls-64" d="M14.52,34.59c-.23.8-.6,6.19-.82,6.43-.2.22-1.07.07-1.43.1.16-1.55-.21-4.55,0-5.61.12-.63.56-.76.61-.92,0-.03.4-.38.41-.41.21.64.79.34,1.22.41Z"></path><path class="cls-60" d="M18.6,36.23c-.23.93-.62,3.78-1.02,4.49-.23.41-.74.68-1.22.61.94-1.16,1.05-4.19,1.22-5.72.18.21.9.28,1.02.61Z"></path></g><path class="cls-55" d="M10.84,32.35c2.06,2.02-2.93,4.23-2.45,1.02,1.05-.73,1.27-.75,2.45-1.02Z"></path></g><g><g><path class="cls-28" d="M47.18,33.17l-.2,3.47c-.26.04-.55-.02-.82,0-.4.03-.82-.04-1.22,0-.63.07-4.14-.54-6.94,1.84.2-.94-.38-2.08-.41-2.65,1.67.78-.16,2.52,3.06.82,1.32-.7,1.57-1.94,1.63-3.37,0-.14-.41-.28-.41-.31-.03-1.23-.1-1.4.92-2.25,2.81-.43,1.26,1.84,1.63,2.04.14.07,1.07-.25,2.76.41Z"></path><path class="cls-9" d="M40.45,32.55c.26.9.43,2.99.2,4.08-3.22,1.7-1.39-.03-3.06-.82-.1-1.86,1.57-1.02,1.63-1.12.26-.47-.71-2.21,1.22-2.14Z"></path><path class="cls-35" d="M49.22,34.8c.26,1.21-1.11,1.65-2.04,1.84-.06.01-.14,0-.2,0l.2-3.47c.37.14,1.97,1.29,2.04,1.63Z"></path><path class="cls-61" d="M41.87,32.96s.42.17.41.31c-.07,1.43-.31,2.67-1.63,3.37.23-1.09.05-3.19-.2-4.08.7.03,1.41.88,1.43.41Z"></path></g><g><path class="cls-1" d="M38,38.47c2.8-2.38,6.31-1.77,6.94-1.84l-.2,3.88c-2.92-.75-4.1,1.98-4.19-2.86-3.72,1.96-.15,3.24-3.67,2.86-.49-.33-.28-1.09-.31-1.84-.03-.97.23-1.72.2-2.65,1.96.29.12,2.42,1.22,2.45Z"></path><path class="cls-41" d="M46.98,36.64c.07,0,.14.01.2,0,2.12.62,1.3.85,1.43,3.67-.06,0,.44.33-.82.41-.82.05-1.62.17-2.45.2-.02-.12-.58-.4-.61-.41,1.82.52,1.31-2.7,1.43-3.88.27-.02.56.04.82,0Z"></path><path class="cls-24" d="M44.73,40.52s.59.29.61.41c-1.03.05-2.02.17-3.06.2-2.5.07-5.37.21-7.76-.2,1.12-.83,1.66.25,1.84-.1l.2-2.14c.03.74-.18,1.5.31,1.84,3.52.38-.05-.9,3.67-2.86.09,4.84,1.27,2.11,4.19,2.86Z"></path><path class="cls-42" d="M46.16,36.64c-.12,1.17.39,4.4-1.43,3.88l.2-3.88c.4-.04.82.03,1.22,0Z"></path></g></g><g><path class="cls-57" d="M118.44,29.08c.3.11,2.54,1.13,2.65,1.22.76.64.52,1.22,0,2.04-.04.06-.58.16-.82,1.02-.7-.07-1.38-.45-2.04-.61.97-.61-.14-2.3-.41-3.67.15.05,0-.22.61,0Z"></path><g><path class="cls-55" d="M128.03,21.94c.04.06-.19.76.61,1.43-3.02,3.28-1.38-.79-1.43-1.74,0-.15-.77-2.99-.82-2.45-1.44,3.52-2.73,12.77-3.06,13.37-.06.12-2.32,1.02-2.45,1.02-.03,0,.22-.12-.61-.2.24-.87.78-.97.82-1.02,2.22.69,1.85-2.19,2.04-3.57.08-.59,1.29-2.32-.31-1.74-1.32,1.64.31,2.85-1.53,3.06.39-.69-.98-1.44-1.02-1.53-.27-.62.93-.46-.61-2.45.27-.44.62-.04,1.22-.51,1.38.79.66-.02.61-.61-.02-.27-.14-.69-.2-1.02-.03-.17.26-.22.2-.51-.02-.09-.72-.72-.82-1.53-.2-1.74.22-1.21,1.74,0,.63-.45.05-.68.1-.82,2,3.37,2.05-.94.82-1.84,1.46-.81.37.9,1.94,1.43,1.94-5.48,1.79.08,1.94.51.29.83.79.67.82.71Z"></path><path class="cls-61" d="M128.64,23.37s.35-.1,1.02.2c.11.05-.39.19.61.41-.52.68-.41,1.58-.61,2.25-.22.7-.16.25-.61.41-.15.05-.26-.3-.51-.2-.29.11-.54,1.29-.92.61.46-.73,1.12-1.37.51-2.25-1.54,2.08-2.08,2.01-2.14,2.14-.15.32-1.07,7.66,1.22,4.8.51,1.75-1.94.8-2.14.82-.11,0-1.22,1.38-1.74,0,.33-.6,1.63-9.85,3.06-13.37.05-.54.81,2.3.82,2.45.05.94-1.59,5.01,1.43,1.74Z"></path><path class="cls-55" d="M122.52,21.12c.25-.65.58-1.18.82-1.84,1.23.89,1.18,5.21-.82,1.84Z"></path><path class="cls-18" d="M129.66,23.57c-.67-.3-.98-.17-1.02-.2-.8-.67-.57-1.36-.61-1.43.54-.98,3.62.93,1.63,1.63Z"></path><path class="cls-61" d="M121.09,32.35c.52-.82.76-1.4,0-2.04-.02-.18.05-.19.2-.2,1.84-.21.21-1.42,1.53-3.06,1.6-.58.39,1.14.31,1.74-.19,1.38.18,4.26-2.04,3.57Z"></path><path class="cls-20" d="M120.89,25.61s.27-.56.61-.61c.05.59.77,1.4-.61.61Z"></path><path class="cls-55" d="M127.62,27.04c-1.17,1.82.28-.09.2,1.94-1.91-.15-.41.56.2,1.53.53.85.56,1.36.61,1.43l-.82.41-.61-.61c-2.3,2.86-1.37-4.48-1.22-4.8.06-.14.61-.07,2.14-2.14.61.87-.05,1.52-.51,2.25Z"></path><path class="cls-46" d="M129.05,26.63c-.4.71-.34,1.53.2,2.25l-1.22,1.63c-.61-.97-2.11-1.68-.2-1.53.07-2.03-1.37-.12-.2-1.94.38.68.62-.5.92-.61.25-.1.36.26.51.2Z"></path></g><path class="cls-31" d="M130.07,29.08c.36.52.85,3.4.82,3.98,0,.17-.41.08-.41.1-.42-.5-1.57-.88-1.84-1.22-.05-.07-.08-.58-.61-1.43l1.22-1.63c.07.09.3-.53.82.2Z"></path><g><path class="cls-15" d="M127.83,32.35c.28,1.58-.49,1.16-.82,2.35-.44,1.57-.16,2.33-.2,2.45-.08.21-.53,0-.61.2-.63,1.63-.53,2.54-.61,2.65-.23.32-1.38-.25-1.22.51-.68,0-1.44-.2-2.04-.2l-1.43-6.74c.13,0,2.39-.9,2.45-1.02.51,1.38,1.63,0,1.74,0,.2-.02,2.65.94,2.14-.82l.61.61Z"></path><path class="cls-50" d="M128.64,31.94c.27.35,1.42.72,1.84,1.22-.01.26-.39.35-.41.61-1.39-.89-1.6,3.81-2.04,6.33-.5.04-.91-.19-.82.41-.95,0-1.91,0-2.86,0-.16-.76.99-.19,1.22-.51.08-.11-.02-1.02.61-2.65.08-.21.54,0,.61-.2.04-.12-.23-.88.2-2.45.33-1.19,1.1-.77.82-2.35l.82-.41Z"></path><path class="cls-1" d="M130.07,33.78c-.01.18.41,1.91.2,3.57-.27,2.19-.68,2.61-2.25,2.76.44-2.52.65-7.22,2.04-6.33Z"></path></g></g><g><g><path class="cls-15" d="M79.85,2.13c.05.22.93,1.97,1.02,2.04-.52.36-.39.92-.41,1.43-.27,6.59.22,13.22.2,19.8,0,1.43.01,2.86,0,4.29-.01,1.9.23,4.06,0,5.92-.09.72-1.82,1.9-.31,3.06.15.11.88-.21,1.12.31.16.36-.44.24-.41.51l-2.65,1.43c-1.4-.73-9.93-4.67-10.62-4.7.57-1.12-5.71-2.24-8.78-4.08.08-10.04.6-20.19.2-30.22l20.62.2Z"></path><path class="cls-63" d="M69.64.09c1.38,0,9.64-.2,10.11,0,.72.32.06,1.86.1,2.04l-20.62-.2c-.02-.61.04-1.23,0-1.84,3.47,0,6.94,0,10.41,0Z"></path></g><g><path class="cls-10" d="M82.3,42.97c-.07-.05-.89-.49-1.43-.82.98-1.11.22-2.5.2-2.65-.03-.27.57-.15.41-.51-.24-.52-.98-.19-1.12-.31-1.51-1.16.22-2.34.31-3.06,2.75-.37,1.28,3.13,1.63,7.35Z"></path><path class="cls-62" d="M81.07,39.49c.02.15.78,1.54-.2,2.65-.75-.46-1.66-.81-2.45-1.22l2.65-1.43Z"></path></g><g><path class="cls-50" d="M59.02,32.14c3.07,1.84,9.35,2.96,8.78,4.08-.73-.03-1.57.62-2.25.82-.92-1.73-4.38-.53-5.72.82l-2.04-3.06c.14-1.02-.25-2.28.2-3.27.34.23.68.41,1.02.61Z"></path><path class="cls-1" d="M65.56,37.04c-1.73.52-3.4,1.25-5.1,1.84-.18-.24-.4-.7-.61-.82v-.2c1.34-1.35,4.79-2.55,5.72-.82Z"></path></g><path class="cls-37" d="M59.84,38.07c.21.11.43.57.61.82-1.62.56-2.55,1.74-2.86-.2-.06-.38-.12-1.87.31-2.04,1.17.21.23.64.61,1.02.45.45,1.26.37,1.33.41Z"></path><g><g><path class="cls-41" d="M87.4,27.24c-.46,6.21.11,12.47,0,18.68-.02.97-.26,2.42-.61,3.37-.34-.03-1.48.11-1.63-.1-.11-.16.09-2.2,0-2.76-.3-1.95-1.34-2.4-2.86-3.47-.35-4.22,1.12-7.72-1.63-7.35.23-1.86-.01-4.02,0-5.92,1.17-.98.6-1.63,2.45-1.84,1.03-.12.16.85.92.82.14,0,.91-.69,1.22-.82.04-.02.31.39.82.2.23-.08-.11-1.19,1.33-.82Z"></path><path class="cls-37" d="M81.69,6.22c.72.62,5.61,4.83,5.72,5.21.52,1.77-.55,7.11.2,9.29-.62.21-1.03.78-1.12.82-.07.02-1.37-.25-1.43-.2-.35.24-.15,1.11-.61,1.43-.31.21-1.6-.12-2.35.71-.09.1.75.4-1.43,1.94.02-6.58-.47-13.22-.2-19.8.22-.08,1.12.52,1.22.61Z"></path></g><path class="cls-4" d="M89.44,28.88c.15,3.17-.03,9.62.2,11.43.2,1.59.18,1.77,1.84,2.04-.47.52-1.13,5.26-2.25,6.94-.81-.02-1.65.07-2.45,0,.35-.95.59-2.39.61-3.37.11-6.21-.46-12.47,0-18.68,1.49.39.96,1.77,1.94.2.2.12.09,1.15.1,1.43Z"></path><path class="cls-41" d="M90.47,28.06c-.41,1.62-.79,1.65.2,2.45-.27.36-.19.62-.2,1.02-.1,2.92-.19,5.85-.2,8.78h-.61c-.23-1.82-.05-8.26-.2-11.43,1.06-2.36.76-.97,1.02-.82Z"></path></g><g><path class="cls-3" d="M67.8,36.23c.69.03,9.22,3.96,10.62,4.7.79.42,1.7.77,2.45,1.22.54.33,1.36.77,1.43.82,1.52,1.07,2.56,1.52,2.86,3.47-1.27-.14-1.75.2-1.84.2-3.39,0-6.81-.19-10.21-.2-.82,0-1.62,0-2.45,0-1.7-.01-3.4.03-5.1,0-1.62-.03-3.31-.3-4.9,0-3.32-.36-6.83-.4-9.8.31.05.56-.08,1.19,0,1.74.02.17.14.22.2.41-1.68-1.83-2.97.64-2.86-2.86.05-1.61.44-1.97,3.88-3.67.77-.38,1.84-.67,2.65-1.02.58-.25,1.67-.35,1.74-.41.44-.4-.57-3.16,1.12-2.25.31,1.94,1.24.76,2.86.2,1.71-.59,3.37-1.32,5.1-1.84.67-.2,1.51-.84,2.25-.82Z"></path><path class="cls-56" d="M73.11,46.44c-.17.5,1.3.59,1.63.92.06.06-.12,1.05.51,1.33.37.16,6.79-.49,8.06,0-2.29,1.8-3.56.41-3.78.41-2.86-.03-5.59.14-8.47,0-1.14-.05-5.34-.11-5.51-.61,4.34-.24,5.56,1.04,5.1-2.04.83,0,1.63,0,2.45,0Z"></path><path class="cls-48" d="M70.66,46.44c.46,3.08-.76,1.8-5.1,2.04-.11-.33.08-1.45,0-2.04,1.7.03,3.4-.01,5.1,0Z"></path><path class="cls-38" d="M83.32,46.64v2.04c-1.27-.49-7.69.16-8.06,0-.63-.27-.45-1.27-.51-1.33-.33-.33-1.81-.42-1.63-.92,3.4.01,6.82.19,10.21.2Z"></path><g><path class="cls-65" d="M60.66,46.44c.66.07,3.56-.13,2.45,1.12-1.45-.11-3.36,1.04-3.98,1.12-1.32.17-6.17-.6-8.27-.2-.08-.54.05-1.18,0-1.74,2.97-.71,6.48-.66,9.8-.31Z"></path><path class="cls-48" d="M57.29,46.64c3.97-.45,3.97,1.68,0,1.22v-1.22Z"></path></g></g></g><g><path class="cls-40" d="M132.32,71.34c.16.07.24.16.41.2,1.31.32,7.77-.31,10.21.1v58.49c-1.26,1.9-1.35-1.5-1.43-2.45-.22-2.71-.21-13.11-.2-16.74,0-.02.41.06.41-.1.03-12.22-.02-24.43,0-36.65,1.09-.33.91-1.47.71-2.45-3.58.15-7.15-.12-10.72-.2l.61-.2Z"></path><path class="cls-14" d="M50.45,110.95l.1,16.54,2.96-.31c.02-5.41-.03-10.82,0-16.23h.41l.1,16.54h40.83c.17-5.51.13-11.03.1-16.54h.61l.1,16.54,2.55-.1c.02-5.48-.03-10.96,0-16.44h.61l.1,16.54c13.85.15,27.72-.37,41.55.41-.08.99.11,2.09,0,3.06-5.99.07-11.97.18-17.97.2-35.05.15-70.1-.37-105.14,0-2.11.02-4.23.18-6.33.2-.82,0-1.63,0-2.45,0-2.88-2.36-1.94-2.8-2.04-3.88h42.98c.59-5.48.27-11.04.31-16.54h.61Z"></path><path class="cls-40" d="M94.14,71.34c3.62.1,7.2.2,10.82.2,2.05,0,4.09-.18,6.12-.2.14,0,.27,0,.41,0,1.67-.02,3.19.08,4.9,0,1.02-.05,2.04.04,3.06,0,.75,1.41-1.04,2.46,1.63,2.45-8.78.02-17.56.21-26.34.2-.04,0,.22-.2-.82-.2-14.43,0-28.85.02-43.28,0-.34,0-.68,0-1.02,0-14.36-.02-28.72.08-43.08,0h-.82v-.2c.51-.09,1.51.41,1.02-2.04,5.39.18,10.74-.42,16.13-.41,1.85,0,3.68.2,5.51.2,9.68.05,19.31.07,28.99,0,.27,0,.54,0,.82,0,.34,0,.68,0,1.02,0,1.02,0,2.04-.02,3.06,0,.48.01.95-.02,1.43,0,1.04.04,2.23.52,3.27,0,1.09.15,1.16-.21,1.22-.2.32.03.14.4.31.41.83.04,2.05-.21,2.76-.2,2.29.02,4.65.1,6.94,0,4.24-.19,1.71-.09,2.45-3.16.02-.09,1.13-.49.82-1.53.95.34.04,4.15.51,4.49.5.35,10.65.16,12.15.2Z"></path><g><path class="cls-11" d="M6.55,110.95c-.02,5.52-.53,11.01,0,16.54.1,1.08-.84,1.52,2.04,3.88-.2,0-.41,0-.61,0-.41,0-.82,0-1.22,0-.27,0-.54,0-.82,0-.02-6.8.05-13.61,0-20.42h.61Z"></path><path class="cls-12" d="M5.74,73.59v.2c-.19,12.39.11,24.77.2,37.16.05,6.8-.02,13.61,0,20.42-.58-.01-1.33.07-1.84,0,.29-11.76-1.06-50.48-.2-58.39.56.45.99.76,1.84.61Z"></path><path class="cls-52" d="M6.76,71.55c.49,2.45-.51,1.95-1.02,2.04-.85.14-1.28-.16-1.84-.61.17-1.6.48-2.69,2.25-3.16-.23,2.1.59,1.63.61,1.74Z"></path></g><path class="cls-10" d="M141.51,127.69c.08.95.17,4.35,1.43,2.45v.82c-.82.01-1.63-.01-2.45,0,.11-.97-.08-2.07,0-3.06.48.03.62-.17,1.02-.2Z"></path><path class="cls-39" d="M99.24,110.95h42.06c0,3.63-.02,14.03.2,16.74-.4.03-.54.23-1.02.2-13.83-.78-27.7-.26-41.55-.41l-.1-16.54h.41Z"></path><path class="cls-10" d="M126.81,71.55c1.63.02,3.27-.04,4.9,0,3.57.09,7.14.36,10.72.2.19.98.37,2.12-.71,2.45-.98.29-17.64-.42-20.42-.41.2-.75-.1-1.52,0-2.25,1.83-.17,3.69-.02,5.51,0Z"></path><path class="cls-48" d="M6.55,73.79l.1,15.72h43.08l-.1-15.72c.34,0,.68,0,1.02,0l.1,15.72,2.76-.31c-.19-18.09.72-16.89.71.31h39.61l.1-15.72c1.04,0,.77.2.82.2.06,1.94-.4,15.2.31,15.52l3.16-.31c-.09-18.21.32-16.71.71.31q21.28.05,42.57.1l-.31.51-42.26-.2c.04,3.08-.39,19.73-.1,20.72.05.17.44,0,.41.31h-1.02c.03-6.99.23-14.05-.31-21.03l-3.16.31c-.19,6.91.17,13.82.2,20.72h-.82l-.1-21.03h-39.81l-.1,21.03h-.61c.03-7.01.06-14.02-.1-21.03l-2.96.31.2,20.72h-.82c.05-7.01.2-14.02-.1-21.03H6.86c-.58,6.99-.28,14.03-.31,21.03h-.61c-.1-12.38-.4-24.77-.2-37.16h.82Z"></path><path class="cls-26" d="M53.51,110.95c-.03,5.41.02,10.82,0,16.23l-2.96.31-.1-16.54h3.06Z"></path><g><path class="cls-6" d="M98.22,110.95h-3.27c-.03-6.9-.4-13.82-.2-20.72l3.16-.31c.54,6.98.34,14.03.31,21.03Z"></path><path class="cls-39" d="M98.22,110.95c-.03,5.48.02,10.96,0,16.44l-2.55.1-.1-16.54h2.65Z"></path></g><g><path class="cls-6" d="M141.71,74.2c-.02,12.22.03,24.43,0,36.65,0,.17-.41.08-.41.1h-42.06c.03-.3-.36-.14-.41-.31-.29-.99.15-17.64.1-20.72l42.26.2.31-.51q-21.28-.05-42.57-.1c-.39-17.01-.81-18.52-.71-.31l-3.16.31c-.71-.32-.24-13.58-.31-15.52,8.78,0,17.56-.18,26.34-.2.07,0,.14,0,.2,0,2.77,0,19.44.7,20.42.41Z"></path><path class="cls-48" d="M120.78,78.49c3.02,2.37-3.9,2.57,4.49,2.45v.82l-11.33-.1c-.85-1.24,8.54.54,6.23-2.14-.43,1.14-2.48,1.54-2.14-.1,1.98.13,1.24-.47,2.76-.92Z"></path><path class="cls-48" d="M114.86,96.86c12.51-.36,12.51,1.17,0,.82v-.82Z"></path><path class="cls-30" d="M119.76,93.8l.92.71c.63,4.77-6.47.26-.92-.71Z"></path></g><path class="cls-6" d="M53.51,110.95h-2.86l-.2-20.72,2.96-.31c.16,7.01.13,14.02.1,21.03Z"></path><g><path class="cls-16" d="M49.63,73.79l.1,15.72H6.66l-.1-15.72c14.36.08,28.72-.02,43.08,0Z"></path><path class="cls-48" d="M28.2,80.94c1.68-.16.34-.2,0-.41-.09-.06-.22-.58-.31-.61-.07-.02-.56.93-1.33.1-.26-1.49.73-1.24.82-1.33.68.38.83.56,1.22-.2,1.04.47,1.66.04,1.43,1.74-2.87,1.4,4.66.15,3.88,1.22l-10.72.1c-1.5-.89,3.95-.51,5-.61Z"></path><path class="cls-53" d="M28.6,78.49c-.4.76-.55.58-1.22.2,1.49-1.52.61-.48,1.22-.2Z"></path><path class="cls-50" d="M28.2,80.94v-.41c.34.21,1.68.25,0,.41Z"></path></g><g><path class="cls-6" d="M93.94,73.79l-.1,15.72h-39.61c0-17.2-.91-18.4-.71-.31l-2.76.31-.1-15.72c14.43.02,28.85,0,43.28,0Z"></path><path class="cls-48" d="M78.11,75.02c1.35-.68-2.33,5.47-3.37,6.43.42-.09,6.71-.11,5.61.51-3.72.11-14.23.05-10-.61,2.77-.44,4.24,2.02,7.76-6.33Z"></path></g><g><g><path class="cls-26" d="M49.84,110.95c-.04,5.5.28,11.05-.31,16.54H8.6l.2-16.54h41.04Z"></path><path class="cls-39" d="M8.8,110.95l-.2,16.54h-2.04c-.53-5.53-.02-11.02,0-16.54h2.25Z"></path></g><g><path class="cls-6" d="M49.84,110.95H6.55c.02-7-.27-14.04.31-21.03h42.87c.3,7.01.15,14.02.1,21.03Z"></path><path class="cls-48" d="M24.83,96.86c12.45-.26,11.92.91-.2.61l.2-.61Z"></path><path class="cls-30" d="M29.62,94.41c1.61,2.01-3.29,3.27-2.25-.2-.07,1.48,1.6-.19,1.74,1.43l.51-1.22Z"></path><path class="cls-29" d="M29.62,94.41l-.51,1.22c-.14-1.62-1.81.05-1.74-1.43.79-.96,1.7-.81,2.25.2Z"></path></g></g><g><path class="cls-39" d="M94.14,110.95h.82c.03,5.51.06,11.03-.1,16.54h-40.83l-.1-16.54h40.22Z"></path><g><path class="cls-6" d="M94.14,110.95h-40.02l.1-21.03h39.81l.1,21.03Z"></path><path class="cls-48" d="M72.81,96.86c.56-.04,7.25.07,7.25.51,0,.83-15.49.14-7.25-.51Z"></path><path class="cls-23" d="M73.52,94.82c1.22.81.79-.05,1.53,0,.21.01.29,1.56.71-.61,2.6,2.02-2.98,3.63-2.25.61Z"></path><path class="cls-21" d="M75.77,94.21c-.42,2.18-.5.63-.71.61-.74-.05-.31.81-1.53,0,.13-1.47,1.05-1.54,2.25-.61Z"></path></g></g></g></g></g></svg>