<svg xmlns="http://www.w3.org/2000/svg" xmlns:xlink="http://www.w3.org/1999/xlink" id="Layer_2" data-name="Layer 2" viewBox="0 0 195.96 173.37"><metadata></metadata><defs><style>      .cls-1 {        fill: #da5667;      }      .cls-1, .cls-2, .cls-3, .cls-4, .cls-5, .cls-6, .cls-7, .cls-8, .cls-9, .cls-10, .cls-11, .cls-12, .cls-13, .cls-14, .cls-15, .cls-16, .cls-17, .cls-18, .cls-19, .cls-20, .cls-21, .cls-22, .cls-23, .cls-24, .cls-25, .cls-26, .cls-27, .cls-28, .cls-29, .cls-30, .cls-31, .cls-32, .cls-33, .cls-34, .cls-35, .cls-36, .cls-37, .cls-38, .cls-39, .cls-40, .cls-41, .cls-42, .cls-43 {        stroke-width: 0px;      }      .cls-2 {        fill: #025a79;      }      .cls-3 {        fill: #9ab97a;      }      .cls-4 {        fill: #bf354f;      }      .cls-5 {        fill: #c9941a;      }      .cls-6 {        fill: #fae8e4;      }      .cls-7 {        fill: #23b6d8;      }      .cls-8 {        fill: #f4fefd;      }      .cls-9 {        fill: #fefaf8;      }      .cls-10 {        fill: url(#linear-gradient);      }      .cls-11 {        fill: #0691c0;      }      .cls-12 {        fill: #72712c;      }      .cls-13 {        fill: #dedc55;      }      .cls-14 {        fill: #75873e;      }      .cls-15 {        fill: #047aad;      }      .cls-16 {        fill: #676025;      }      .cls-17 {        fill: #6c202c;      }      .cls-18 {        fill: #49d7f2;      }      .cls-19 {        fill: #042b46;      }      .cls-20 {        fill: #a68786;      }      .cls-21 {        fill: #075885;      }      .cls-22 {        fill: #f0cb35;      }      .cls-23 {        fill: #d6b631;      }      .cls-24 {        fill: #f6f79a;      }      .cls-25 {        fill: #aba1a0;      }      .cls-26 {        fill: #1893b1;      }      .cls-27 {        fill: #016e90;      }      .cls-28 {        fill: #e4fefe;      }      .cls-29 {        fill: #13a4c8;      }      .cls-30 {        fill: #014663;      }      .cls-31 {        fill: #0e0e0f;      }      .cls-32 {        fill: #a12341;      }      .cls-33 {        fill: #b99d9c;      }      .cls-34 {        fill: #891d30;      }      .cls-35 {        fill: url(#linear-gradient-4);      }      .cls-36 {        fill: url(#linear-gradient-2);      }      .cls-37 {        fill: url(#linear-gradient-3);      }      .cls-38 {        fill: url(#linear-gradient-5);      }      .cls-39 {        fill: url(#linear-gradient-6);      }      .cls-40 {        fill: #091a2a;      }      .cls-41 {        fill: #1f849f;      }      .cls-42 {        fill: #e5e6e3;      }      .cls-43 {        fill: #e5edac;      }    </style><linearGradient id="linear-gradient" x1="184.75" y1="142.04" x2="24.92" y2="149.52" gradientUnits="userSpaceOnUse"><stop offset="0" stop-color="#a31e3c"></stop><stop offset=".55" stop-color="#730e29"></stop></linearGradient><linearGradient id="linear-gradient-2" x1="21.23" y1="37.53" x2="127.29" y2="51.81" gradientUnits="userSpaceOnUse"><stop offset="0" stop-color="#66e7f5"></stop><stop offset=".46" stop-color="#4fccea"></stop><stop offset="1" stop-color="#0f6d86"></stop></linearGradient><linearGradient id="linear-gradient-3" x1="46.9" y1="-13.81" x2="180.43" y2="70.44" gradientUnits="userSpaceOnUse"><stop offset="0" stop-color="#6b6e78"></stop><stop offset=".33" stop-color="#595362"></stop><stop offset=".61" stop-color="#322d41"></stop><stop offset="1" stop-color="#101521"></stop></linearGradient><linearGradient id="linear-gradient-4" x1="35.72" y1="21.22" x2="53.89" y2="23.21" gradientUnits="userSpaceOnUse"><stop offset="0" stop-color="#e5bb46"></stop><stop offset="1" stop-color="#f6e36d"></stop></linearGradient><linearGradient id="linear-gradient-5" x1="148.66" y1="54.42" x2="174.65" y2="76.21" gradientUnits="userSpaceOnUse"><stop offset="0" stop-color="#cacbd1"></stop><stop offset="1" stop-color="#878189"></stop></linearGradient><linearGradient id="linear-gradient-6" x1="158.79" y1="67" x2="165.79" y2="73.47" gradientUnits="userSpaceOnUse"><stop offset="0" stop-color="#faea61"></stop><stop offset="1" stop-color="#cd8f08"></stop></linearGradient></defs><g id="Layer_1-2" data-name="Layer 1"><g><g><path class="cls-10" d="M187.84,139.99c-.64,2.02-3.72,6.92-5.03,8.48-.41.48-2.28-1.15-.53,5.03-.66.35-1.25.83-1.99,1.06-48.79,6.43-97.77,11.69-146.49,18.81-5.22-.24-10.4-2.08-13.91-6.09-.17-.19-.25-.25-.26-.26-1.37-2.88-2.06-5.96-2.91-9.01,5.29,4.45,7.61,8.1,15.23,7.95,5.41-.11,41.28-5.63,51.66-6.89,25.55-3.11,51.17-5.65,76.69-9.01,9.02,1.03,11.06-1.74,13.51-9.54,2.31-7.36,3.49-15.36,6.09-22.52.45,4.25,7.2,16.1,7.95,21.99Z"></path><path class="cls-9" d="M72.34,120.92c1.82,8.26,4.95,1.06,5.03,6.09-5.48.23-5.19,2.83-6.89-3.97-1.2-4.83-.6-2.96,1.85-2.12Z"></path><path class="cls-34" d="M78.44,122.77c.02.48.98,5.08,2.12,3.97,0,1.3-2.83.25-3.18.26-.09-5.03-3.22,2.17-5.03-6.09,2,.68,4.04,1.35,6.09,1.85Z"></path><path class="cls-6" d="M86.65,125.95l-6.09.79c-1.14,1.11-2.1-3.49-2.12-3.97-.13-2.88,1.85-2.15,3.05,2.12,6.56-1,4.85.63,5.17,1.06Z"></path><path class="cls-1" d="M185.46,150.85c-1.96.97-.86-.02-2.65-2.38,1.32-1.56,4.4-6.46,5.03-8.48.53,4.14.23,7.5-2.38,10.86Z"></path><path class="cls-32" d="M182.81,148.47c1.79,2.36.69,3.35,2.65,2.38-.47.6-1.01,1.11-1.59,1.59-.54.44-.97.73-1.59,1.06-1.75-6.18.12-4.55.53-5.03Z"></path><g><path class="cls-4" d="M7.97,82.24c-.16,3.38-2.05,6.96-2.12,10.33-1.79,3.3,1.72,5.87,3.44,8.21,1.95,2.64,2.17,4.3,5.43,5.83,1.85.87,30.37,8.99,34.7,10.07,4.01,1,8.95,1.46,12.32,2.38,1.71,4.92,2.79,11.89,6.36,8.87-1.3-1.73-3.01-6.94-3.71-7.81l6.09,2.91c1.7,6.81,1.41,4.2,6.89,3.97.35-.01,3.17,1.03,3.18-.26l6.09-.79c.05.07-.18.65,1.19,1.32,13.79,3.64,63.55,21.76,72.45,22.78-25.52,3.35-51.14,5.9-76.69,9.01-10.37,1.26-46.25,6.78-51.66,6.89-7.62.15-9.94-3.5-15.23-7.95-3.28-11.7-6.4-23.56-9.27-35.37C6.4,118.36.14,92.73.02,91.12c-.38-5.23,4.11-6.45,7.95-8.87Z"></path><g><path class="cls-25" d="M62.54,141.58l-.66,1.06c-10.66,1-21.24,3.28-31.92,3.71-.42-.89-1.88-2.58.93-3.44,2.65-.81,24.12-2.76,29.93-3.97.73.08,1.8,2.04,1.72,2.65Z"></path><path class="cls-9" d="M26.38,121.98c5.06-.43,2.73,1.95,3.31,3.05.23.44,5.1.2,5.7,7.28-5.4,2.02-.35-5.26-8.48-5.56-.32,5.89,3.08,1.16,3.31,5.7-8.55,3.02-1.26-2.61-9.54-7.95-.48-1.83,1.63-2.39,3.31.4.8-.36-2.39-2.5,2.38-2.91Z"></path><path class="cls-34" d="M29.96,146.35c10.68-.42,21.26-2.71,31.92-3.71l.66-1.06q9.34-1.06,18.68-2.12l.13.93c-16.92,2.57-33.85,6.36-50.99,7.55-.7-.44-.26-1.29-.4-1.59Z"></path><g><path class="cls-17" d="M35.26,160.13c7.84-1.09,15.72-1.93,23.58-2.91,7.71-.97,17.74-1.96,25.03-3.18.79-.13,2.03-.24,2.52-1.06.02,1.05.07,1.75-.93,2.38-6.03.31-47.53,7.15-49.8,6.09-.65-.3-.27-1.11-.4-1.32Z"></path><path class="cls-33" d="M86.38,152.18c-9.72,1.3-19.41,2.77-29.14,3.97-4.25.53-10.42,2.14-9.54,0,12.24-1.79,24.54-3.19,36.69-5.56,2.06-.11,1.77.79,1.99,1.59Z"></path><path class="cls-33" d="M47.71,156.15c-.88,2.14,5.29.53,9.54,0l1.59,1.06c-7.86.99-15.73,1.83-23.58,2.91-.07-.12-1.9-1.53-.13-2.38.57-.28,10.71-1.32,12.58-1.59Z"></path><path class="cls-20" d="M86.38,152.18c.05.19,0,.54,0,.79-.49.82-1.73.93-2.52,1.06-7.29,1.22-17.32,2.21-25.03,3.18l-1.59-1.06c9.73-1.2,19.42-2.67,29.14-3.97Z"></path></g><g><path class="cls-9" d="M55.39,129.4s-.59.39-.79.53c-6.07,1.63-6.23-3.31-1.19-1.59,3.02-2.6-4.84-3.82,2.78-4.11.09-2.99-5.35-2.28-4.11-4.37,7.93-.42,4.8.25,7.55,4.11,1.18,1.66,2.76,3.12,3.97,4.77-4.36,2.04-5.42-2.63-6.76-2.25-.5.14-.83,2.13-1.46,2.91Z"></path><path class="cls-9" d="M64.4,120.13c.7.87,2.41,6.08,3.71,7.81-3.57,3.02-4.65-3.95-6.36-8.87,1.12.31,1.65-.19,2.65,1.06Z"></path></g><path class="cls-4" d="M54.59,129.93c.21-.14.77-.49.79-.53,2.05,2.02-3.7,5.41-4.77,1.46.13-.65,1.68.59,3.97-.93Z"></path><g><path class="cls-42" d="M39.36,120.13c6.11-.7,9.24,11.23,3.44,11.92-5.53.66-8.8-11.31-3.44-11.92Z"></path><path class="cls-4" d="M39.63,121.98c2.45-.49,6.28,8.62,1.85,7.95-.7-.23-4.14-7.49-1.85-7.95Z"></path></g></g></g></g><g><path class="cls-36" d="M38.43,12.57c-.93.27-2.99,1.21-3.44,1.99-.2.34-1.97,6.9-2.12,7.68-1.18,6.11-.16,3.16,8.08,7.02,4.26,1.06,8.63,1.64,13.11,2.91,3.3.94,6.51,2.24,9.8,3.18,6.26,1.79,12.55,3.51,18.81,5.3,11.37,3.24,31.92,8.47,41.33,11.92,1.71.63,3.43,1.23,5.03,2.12-.02.73,1.3-1.29-.26,6.62-.64,3.22-1.8,8.04-2.65,11.26-.06.24-.52.37-.53.4-2.94-1.02-6-1.88-9.01-2.65-3.51-.89-7.07-1.57-10.6-2.38-7.15-1.65-14.29-3.22-21.46-4.77-3.37-.73-26.41-5.11-27.42-6.09-.23-.23-.11-.52-.13-.79.78-3.6,2.19-4.91-2.12-6.36-2.21-.74-6.69-1.93-9.27-2.65-2.25-.63-4.47-1.34-6.76-1.85-.22-.05-.05-.48-.26-.53-.05,0-.15.39-.93.26-4.12-.64-2.76-.13-4.24,4.77,0,.03-.41.23-.53.26.77-4.49,1.76-5.38-4.11-1.06-6.57,4.85-9.79,11.15-15.5,15.1,1.43-5.24,2.78-10.53,4.24-15.76.17-.61.78-.74.79-.79.04-.14-.44-.39.26-2.91.17-.61.78-.74.79-.79.05-.16-.58-.1-.53-.26,2.06-7.38,6.49-24.93,8.48-29.93.32-.82,1.28-1.62,1.32-1.72,4.95-1.29,5.52-.47,9.8.53Z"></path><path class="cls-37" d="M195.79,54.43c-.78-.12-2.26-.33-2.91-.53-11.93-3.58-23.97-6.19-36.03-9.27-8.67-2.22-17.31-4.61-25.96-6.89-1.6-.42-3.17-.9-4.77-1.32-13.77-3.63-27.58-7.16-41.33-10.86-5.49-1.48-10.93-3.29-16.42-4.77-3.51-.95-7.09-1.71-10.6-2.65-6.43-1.73-12.86-4.05-19.34-5.56-4.28-1-4.85-1.82-9.8-.53,3.93-8.96,5.35-14.63,17.88-10.86q70.47,18.28,140.93,36.56c6.98,2.93,9.18,9.55,8.34,16.69Z"></path><path class="cls-18" d="M32.87,50.19c-.03.17.03.36,0,.53-.29,1.63-.7,3.41-1.06,5.03,0,.03-.1-.21-.26.53-.15.65-1.05.82-1.06,4.24,0,3.39.2,1.83,2.12,4.5-1.32-.08-2.58-.44-3.84.26-1.11.62-2.39,3.47-1.72,4.24-3.14,3.06,1.05,10.24-3.97,8.74-.66-.2-1.13-2.08-3.18,0l-.79-.53c.59-6.55-1.83,4.22-2.38,6.62-.03.15-1.05.58-.53,2.91.05.24-.03.54,0,.79-1.02.09-1.74.01-2.65,1.06.11-1.45-2.42,1.65-1.32,3.84-5.8,1.89-6.49,5.76-6.36-.4.07-3.37,1.96-6.95,2.12-10.33,2.15-5.88,3.65-11.99,5.3-18.01,5.71-3.95,8.92-10.25,15.5-15.1,5.87-4.32,4.87-3.43,4.11,1.06Z"></path><path class="cls-40" d="M195.79,54.43c-.31,2.68-8.73,33.76-10.6,41.33-.26,1.06-.54,2.12-.79,3.18-.09.36-.18.71-.26,1.06l-.53-.4c2.93-10.51,5.69-21.13,7.95-31.79l-.93-.13c-2.86,3.57-15.65,17.83-18.15,14.83.3-.05,2.81-1.6,3.05-1.85,1.46-1.56,6.34-20.21,6.23-21.32-.06-.57-1.63-3.21-2.12-3.58,0-.18-.07-.46.13-.53,1.74-.61,12.52-.1,15.1,1.06,1.28-1.65-1.89-.83-1.99-2.38.65.2,2.14.4,2.91.53Z"></path><path class="cls-31" d="M18.57,103.44c1.68.45,3.36.88,5.03,1.32,28.93,7.73,57.8,15.68,86.36,24.64,1.27.21,2.49.68,3.71,1.06,6.93,2.14,13.75,4.7,20.66,6.89,4.94,1.56,9.86,3.31,14.83,4.77,9.15,2.69,17.29,7.29,24.64-1.59-2.45,7.8-4.49,10.57-13.51,9.54-8.9-1.02-58.66-19.14-72.45-22.78-1.37-.68-1.14-1.25-1.19-1.32-.31-.43,1.4-2.06-5.17-1.06-1.19-4.27-3.18-5-3.05-2.12-2.05-.51-4.1-1.17-6.09-1.85-2.45-.84-3.06-2.71-1.85,2.12l-6.09-2.91c-1-1.25-1.53-.75-2.65-1.06-3.37-.92-8.31-1.39-12.32-2.38-4.33-1.08-32.86-9.2-34.7-10.07-3.26-1.53-3.48-3.18-5.43-5.83,3.06.98,6.17,1.83,9.27,2.65Z"></path><path class="cls-29" d="M13.53,89.13c-1.87,2.16-1.18,4.71,1.32,5.83l-2.65,6.23c2.97.95,7.98,1.7,6.36,2.25-3.1-.82-6.21-1.67-9.27-2.65-1.73-2.34-5.23-4.91-3.44-8.21-.13,6.16.56,2.28,6.36.4-1.1-2.19,1.43-5.3,1.32-3.84Z"></path><path class="cls-27" d="M125.59,72.97c-.56,2.14.02,1.37,0,1.46-.22.83-1.04,1.24-1.06,1.32-.02.08.31,1.42.26,1.59-.48,1.76-3.23,8.23-2.91,9.54.07.3,1.27-.61,1.59,5.56,0,.06.53,1,.53,1.06-.08,2.31-3.18,9.4-3.18,12.58-4.08-3.02-6.16,2.98-4.5,6.89l-.4.26c-1.72-2.46.46-5.62-.93-6.36.36-1.51.67-2.1-.93-2.91-1.99.19-2.74,2.54-2.91,2.65-.07.05,0-.67-1.72.26-1.03.56-1.56,2.53-3.18,0,.45-3.55,2.41-4.48,2.91-3.31-1.43,2.88,1.74,1.8,1.06-.26-3.65-3.65-6.84,4.14-4.77,5.96.57.5,1.09.16,1.19.26.92.88-.38,2.12-.4,2.25-1.23,7.08-3.79,7.67-6.62,13.78,3.49,1.26,7.15,2.17,10.6,3.44l-.26.4c-28.56-8.96-57.43-16.91-86.36-24.64,1.17-1.05,6.04,1.9,6.62.66.44-.93-1.88-1.39,1.46-2.78-.47-3.85-2.12-2.73-3.84-4.24,20.22,5.65,40.68,11.2,61.06,15.89,5.01-5.03,1.62-6.39-1.99-7.68.75-.49.54-.97.53-1.85,1.37-.63,1.88-5.01,2.91-7.42,1.58.78,2.81.56,5.56,3.18-1.35,1.07-2.11,3.56-1.32,5.17,2.5,2.57,3.88.34,4.11.4.59.15,2.58,5.72,5.17-4.11.18-2.08-1.94-.68-2.12-.66-.08,0-.19.02-.26,0,1.11-1.52,2.38-.48,2.52-.53,1.05-.36,1.41-3.64,2.78-4.9-.84-2.81-2.88-3.46-3.18-3.84-.94-1.21-1.05-1.15-1.59-2.65,1.94,1.95,3.89.74,4.11.79.16.04,1.13,1.14,2.91,1.59.92.23,1.73-.36,2.12-.26.25.06.71.92,1.19,1.06l-.4,1.06c5.33,3.4,7.44.64,9.67-4.37-1.54-.23-2.57-1.81-3.18-.4-.18-1.17-1.93-2.75-3.05-2.91-2.24-.34-1.59,1.29-3.84-.79,1.86.15,4.75.72,1.59-.4,3.02-3.9,1.27-5.83,1.59-6.62.31-.78,1.77.91,1.06-5.3-.08-.66-1.95-.15.79-2.52,3.01.77,6.07,1.63,9.01,2.65Z"></path><path class="cls-41" d="M126.12,36.41c-1.78,5.08-1.51,10.77-2.12,16.16-9.41-3.45-29.96-8.68-41.33-11.92.25-5.04,2.33-10.01,2.12-15.1,13.75,3.7,27.56,7.23,41.33,10.86Z"></path><path class="cls-7" d="M84.79,25.55c.21,5.09-1.87,10.06-2.12,15.1-6.26-1.79-12.55-3.5-18.81-5.3-.81-2.35.56-2.31,1.06-4.11.35-1.26.68-4.55.79-4.77.28-.54,4.02-.94,2.65-5.7,5.5,1.48,10.93,3.29,16.42,4.77Z"></path><path class="cls-41" d="M116.58,70.32c-2.74,2.36-.87,1.85-.79,2.52.71,6.2-.75,4.52-1.06,5.3-.32.79,1.43,2.73-1.59,6.62,3.16,1.12.27.55-1.59.4-2.38-.2-3.4.04-3.58,0-.87-.19-1.01-2.21-4.11-1.59-.8-1.04,1.54-.19,1.85-.66l-.26-13.51.53-1.46c3.52.81,7.09,1.49,10.6,2.38Z"></path><path class="cls-18" d="M68.37,20.79c1.37,4.76-2.37,5.15-2.65,5.7-.11.22-.44,3.51-.79,4.77-.5,1.8-1.87,1.75-1.06,4.11-3.29-.94-6.5-2.24-9.8-3.18,1.79-4.08,3.34-9.66,3.71-14.04,3.51.94,7.09,1.7,10.6,2.65Z"></path><path class="cls-2" d="M121.35,107.14c0-.06-.53-.28-.53-1.06,0-3.18,3.1-10.27,3.18-12.58,0-.06-.53-1-.53-1.06-.32-6.17-1.52-5.26-1.59-5.56-.32-1.31,2.44-7.78,2.91-9.54.05-.17-.29-1.51-.26-1.59.02-.08.84-.49,1.06-1.32.02-.09-.56.68,0-1.46,0-.03.47-.15.53-.4.85-3.22,2.01-8.04,2.65-11.26.86.19,1.22,5.08,1.06,6.76-.11,1.21-1.6,5.52-1.85,7.42-1.09,8.09-1.89,16.25-2.65,24.37-2.07,3.68-1.32,9.36-3.97,7.28Z"></path><path class="cls-2" d="M130.89,37.74c-.94,5.54-1.67,11.31-1.85,16.95-1.61-.89-3.32-1.49-5.03-2.12.6-5.39.34-11.08,2.12-16.16,1.6.42,3.17.9,4.77,1.32Z"></path><path class="cls-19" d="M192.87,53.9c.1,1.56,3.27.73,1.99,2.38-2.58-1.16-13.36-1.67-15.1-1.06-.2.07-.13.35-.13.53-1.39-1.05-19.21-5.7-22.25-6.36.18-.8-1.42-.63-1.59-.93-.1-.17,1.12-3.24,1.06-3.84,12.05,3.08,24.09,5.7,36.03,9.27Z"></path><path class="cls-42" d="M82.67,105.29c1.39.43,2.88.84,4.24,1.32,3.61,1.29,7,2.66,1.99,7.68-20.38-4.7-40.84-10.25-61.06-15.89-2.9-.81-11.37-2.73-12.98-3.44-2.51-1.12-3.19-3.67-1.32-5.83.91-1.05,1.63-.97,2.65-1.06,1.88-.17,32.12,7.8,36.69,9.01,8.71,2.3,21.54,5.67,29.8,8.21Z"></path><path class="cls-8" d="M19.1,77.74c-.05.55-1.48,8.23-2.38,6.62.55-2.41,2.98-13.17,2.38-6.62Z"></path><path class="cls-2" d="M114.99,106.88c1.39.74-.8,3.9.93,6.36l.4-.26c.23-.03.24.07.26.26.06.4-1.76,1.52,2.12,5.03-1.44,1.35-1.71,3.55-.79,5.3-.13,2.79-1.7,5.6-4.24,6.89-1.22-.38-2.44-.85-3.71-1.06l.26-.4c-3.45-1.27-7.1-2.19-10.6-3.44,2.83-6.11,5.4-6.69,6.62-13.78.02-.13,1.31-1.37.4-2.25-.11-.1-.62.24-1.19-.26l1.59-.4c-.73-1.4-1.14.78-.79-1.99,1.62,2.53,2.15.56,3.18,0-1.24,3.03,1.06,4.77,2.12,3.05.51-.82.43-6.18,2.65-4.5-2.65,5.75.14,4.2.79,1.46Z"></path><path class="cls-19" d="M147.58,134.43c.2.47,2.59,1.58,2.65,1.72.12.28-1.1,4.85-1.06,5.96-4.97-1.46-9.89-3.21-14.83-4.77-.52-1.17-6.33-2.02-6.62-2.78-.22-.56,1.84-1.92,1.85-4.5,0-1.84-.99-.66-1.06-1.99,6.28,2.21,12.71,4.41,19.07,6.36Z"></path><path class="cls-41" d="M27.84,98.4c1.72,1.51,3.37.39,3.84,4.24-3.34,1.39-1.02,1.85-1.46,2.78-.58,1.24-5.46-1.71-6.62-.66-1.68-.45-3.36-.88-5.03-1.32,1.62-.55-3.39-1.3-6.36-2.25l2.65-6.23c1.61.72,10.08,2.63,12.98,3.44Z"></path><path class="cls-30" d="M128.5,128.07c.07,1.32,1.07.15,1.06,1.99-.01,2.59-2.08,3.94-1.85,4.5.3.76,6.1,1.61,6.62,2.78-6.92-2.19-13.74-4.75-20.66-6.89,2.54-1.29,4.1-4.1,4.24-6.89,1,1.92,8.25,3.68,10.6,4.5Z"></path><path class="cls-41" d="M101.48,101.32c-.42-.08-.12-.69-.79-.53,0-.56-.26-.58-.26-.79-.04-3.16,3.19-4.84,3.18-7.95.3.38,2.34,1.03,3.18,3.84-1.37,1.26-1.73,4.54-2.78,4.9-.13.05-1.4-.99-2.52.53Z"></path><path class="cls-8" d="M100.42,99.99c0,.21.27.23.26.79-.03,2.49-1.48,2.39-1.72-.53-5.73,1.09-4.66,9.24,1.06,3.71.49.19-.55,7.62,2.78-1.99l-1.06-.66c.18-.01,2.3-1.42,2.12.66-2.59,9.83-4.58,4.25-5.17,4.11-.23-.06-1.61,2.17-4.11-.4-.79-1.6-.03-4.09,1.32-5.17,1.15-.91,3.18-1.55,4.5-.53Z"></path><path class="cls-2" d="M100.69,100.79c.68-.16.38.45.79.53.08.02.19,0,.26,0l1.06.66c-3.33,9.6-2.29,2.18-2.78,1.99-5.72,5.53-6.79-2.62-1.06-3.71.24,2.92,1.7,3.02,1.72.53Z"></path><path class="cls-30" d="M112.34,92.58c3.03.88,6.69.17,6.09-3.71.61-1.42,1.64.17,3.18.4-2.22,5.01-4.34,7.77-9.67,4.37l.4-1.06Z"></path><path class="cls-8" d="M106.25,106.88c-.35,2.77.07.59.79,1.99l-1.59.4c-2.07-1.83,1.12-9.61,4.77-5.96.68,2.06-2.49,3.14-1.06.26-.5-1.17-2.47-.24-2.91,3.31Z"></path><path class="cls-8" d="M90.36,97.34c-1.03,2.41-1.55,6.79-2.91,7.42-.04-3.26,1.66-8.46,2.25-8.48,1,.43.61,1.03.66,1.06Z"></path><g><path class="cls-30" d="M156.85,44.63c.06.6-1.16,3.67-1.06,3.84.17.3,1.77.13,1.59.93-2.31-.5-7.76-3.18-10.33,3.31-.35.89-4.49,17.59-4.5,18.54-.02,1.89,1.4,4.32,3.18,5.17q-4.9,6.95-9.8,13.91c1.8-.05,3.63,1.66,3.84,1.72.95.28,1.72-.95,3.58.53-2.84-.78-3.39.29-3.58.26-.16-.02-1.05-1.3-1.85-1.59-1.68-.6-2.77.04-2.91,0-.29-.09-1.34-1.43-2.12-1.59-3.23-.66-6.37,1.85-4.64,5.17,1.12,2.15,3.59,1.93,5.56,2.52-4.02-.38-1.78,1.09-2.12,2.25-.08.27-.71,0-.79.26-.22.7-2.81,9.18-.93,8.08l.26-2.91c-.1,5.19,2.41,2.83,3.05,4.5l-2.78-1.06c-1.34-.83-3.59,7.6-2.91,8.48,2.9-4.07.67-9.62,5.17-5.83,1.33,1.13,2.2-2.07,6.09.26l-3.05-.79c-.92,0-1.67,5.54-1.72,6.62-2.38.8,1.08,1.86,0,3.05-3.83,2.13-11.98-4.01-14.83-2.25-.38.24-.51.24-.53.26-3.88-3.52-2.06-4.64-2.12-5.03,1.91,1.12,3.8-2.04,2.38,1.19.49,2,3.01-4.2,1.46-3.84-6.97,7.54-2.36-11.85.26-1.32.85.21.69-1.59.66-2.12,2.65,2.08,1.91-3.6,3.97-7.28.76-8.12,1.56-16.29,2.65-24.37.26-1.89,1.74-6.21,1.85-7.42.16-1.67-.2-6.57-1.06-6.76,1.56-7.92.24-5.89.26-6.62.19-5.64.92-11.42,1.85-16.95,8.65,2.27,17.29,4.67,25.96,6.89Z"></path><path class="cls-8" d="M120.82,106.09c0,.78.53,1,.53,1.06.02.53.19,2.33-.66,2.12-2.62-10.53-7.24,8.87-.26,1.32,1.56-.36-.97,5.84-1.46,3.84,1.42-3.23-.48-.07-2.38-1.19-.03-.2-.03-.29-.26-.26-1.65-3.91.42-9.91,4.5-6.89Z"></path><path class="cls-8" d="M133.27,109.53c.3.79.61,1.5-.53,1.59-4.49-3.79-2.27,1.76-5.17,5.83-.68-.88,1.58-9.31,2.91-8.48l2.78,1.06Z"></path><path class="cls-8" d="M132.08,112.97c1.49.23-.18,2.54-.13,4.37-1.81,1.36-.68-1.9.13-4.37Z"></path></g><g><path class="cls-42" d="M160.82,130.72c5.21,3.69,1.39,7.23-.4,7.42-.76.08-10.97-3.13-12.85-3.71-6.36-1.95-12.79-4.15-19.07-6.36-2.35-.82-9.59-2.59-10.6-4.5-.91-1.74-.64-3.95.79-5.3.02-.02.15-.03.53-.26,1.56-.09,3.17.37,4.64.79,12.41,3.58,24.64,8.04,36.95,11.92Z"></path><path class="cls-9" d="M159.76,121.71c-8.49-3.34-5.2-.06-8.61,2.65-.72-.57,1.74-3.95,1.46-4.64-.14-.34-4.97-1.66-6.49-3.31l-1.46,6.09c-1.51.46.49-10.98,1.72-11.39,1.81-.61,16.97,4.58,17.35,5.7.1,4.4-.93,2.51-1.06,2.65-.44.48-.85,9.43-2.65,6.89.97-3.89,1.58-3.91-.26-4.64Z"></path></g><g><path class="cls-29" d="M79.76,84.63c1.38,1.43.16.44.26.93.45,2.12,5.75,2.66,6.62,4.77-2.5,2.06-1.17,3.4-4.9,5.43-1.76-.14-1.35-2.31-2.91-2.65-3.13-.68-2,3.2-4.64.79-.11-.22.39-1.6-1.32-1.46-.22,2.42-3.09,9.14,2.38,5.7-.28.66-.46,1.11-1.19,1.32-1.72.5-1.63-1.6-2.38,2.38.44.38,9.97,2.04,10.99,3.44-8.26-2.55-21.09-5.91-29.8-8.21-4.57-1.21-34.81-9.18-36.69-9.01-.03-.25.05-.56,0-.79,4.92.67,28.27,7.58,29.8,7.68,3.59.24,3.71-2.57.26-1.85l-.4-.66c2.8.63,4.79-4.17,5.56-2.12.42,1.12-.08,5.78,4.24,3.05,1.52-.48,2.57-2.85,1.06.66.56.87,1.87.98,2.65.13,1.14,1.21-1.33,2.71,1.46,2.91.85-.58.11-1.01.13-1.06.42-1.15,1.45-3.92,1.59-4.77.96,1.25,2.56.02,3.84,1.59,2.91-5.29,2.69-.68,5.56,1.06,1.19-3.96,1.22-1.32,3.71-1.06.52-.61,1.09-3.4,1.19-3.58.09-.16,2.14-1.91,2.38-2.65.16-.49-1.08-2.2.53-1.99Z"></path><path class="cls-8" d="M68.24,90.99l1.06.26c1.24,2-.72.7-.93.93-1.36,1.5-1.94,8.89,1.99,2.78l.66.13c1.55,2.37-9.33,6.86-2.78-4.11Z"></path></g><g><path class="cls-8" d="M32.61,65.02c1.6.09,1.26.25,1.32.26l-1.59,5.96c4.72,3.37.78-6.08,7.55-3.31,2.88,1.18,1.74,5.38,0,6.09-1.21.49-12.78-1.96-12.85-4.5-.67-.77.61-3.62,1.72-4.24,1.26-.7,2.52-.34,3.84-.26Z"></path><path class="cls-29" d="M36.98,68.73c5.86-.69,3.96,6.57-1.19,3.58l1.19-3.58Z"></path><path class="cls-29" d="M29.82,66.08c3.8-.21,2.77,1.46,1.32,5.03-4.48-.43-2.72-4.67-1.32-5.03Z"></path></g><g><path class="cls-35" d="M57.77,18.14c-.37,4.38-1.92,9.96-3.71,14.04-4.48-1.28-8.85-1.86-13.11-2.91-8.24-3.86-9.26-.91-8.08-7.02.15-.78,1.92-7.34,2.12-7.68.46-.77,2.52-1.72,3.44-1.99,6.48,1.51,12.9,3.84,19.34,5.56Z"></path><g><path class="cls-43" d="M45.59,47.28l-1.06,1.06c-.67-.1-.47-.41-1.32,0-.45-.11-2.39-.84-2.52-.79-.48.16-.53,1.83-1.46,3.18-.94,1.37-.23,1.63-4.77,0,.96-1.79.5-5.36,3.18-5.56.78.12.88-.27.93-.26.22.05.05.48.26.53,2.29.51,4.5,1.22,6.76,1.85Z"></path><path class="cls-22" d="M54.86,49.93c2.83.83,1.75,3.51,1.19,3.71-.53.19-1.26-1.33-2.78,1.85-.19-.08-1.21-.07-1.32-.4-.08-.22,2.09-3.02.4-4.37-.32-.25-7.41-2.32-7.81-2.38l1.06-1.06c2.58.72,7.06,1.91,9.27,2.65Z"></path><path class="cls-23" d="M56.98,56.28s-.18-.11-.26.26c-1.11-.38-2.37-.59-3.44-1.06,1.52-3.19,2.25-1.66,2.78-1.85.56-.2,1.64-2.88-1.19-3.71,4.31,1.44,2.9,2.75,2.12,6.36Z"></path><path class="cls-43" d="M37.64,45.16c-2.67.21-2.22,3.78-3.18,5.56-.74-.27-1.22-.26-1.06-.79,1.48-4.9.12-5.41,4.24-4.77Z"></path><path class="cls-3" d="M34.46,50.72c4.54,1.63,3.82,1.37,4.77,0-.24,1.69-.12,1.38,1.59,1.85-.05.1.05.44,0,.53l-7.95-2.38c.03-.17-.03-.36,0-.53.12-.04.52-.24.53-.26-.16.54.32.53,1.06.79Z"></path><path class="cls-43" d="M40.82,53.1c-.14.23-1.55,1.03-1.85,1.72-.09.2,0,2.42.26,3.05-2.52-.41-5.01-1.27-7.42-2.12.36-1.62.77-3.41,1.06-5.03l7.95,2.38Z"></path><path class="cls-13" d="M32.61,61.05c.7.2,1.43.55,2.12.79.99.34,1.88.74,2.91,1.06-2.02,3.7,1.38,2.87,2.65,3.44.89.4.75.51.79.53-2.46-.41-4.72-1.18-7.15-1.59-.07-.01.28-.17-1.32-.26-1.92-2.67-2.13-1.12-2.12-4.5.68.25,1.45.34,2.12.53Z"></path><path class="cls-14" d="M49.03,54.69l-.26.26c-.64-.13-3.78-.78-4.11-.53l-1.19,4.24.53.53c-1.55.02-2.46,3.94-1.85,4.5.2.19.46.29.53.53-.62-.17-1.24-.36-1.85-.53-1.05-.29-2.13-.47-3.18-.79-1.03-.32-1.93-.72-2.91-1.06.56-.09,1.06.13,1.59.26,1,.26,3.21,1.02,3.71,1.06,1.71.14,1.59-.31,2.38-3.97-.37-.45-4.13-1.07-5.03-1.32-.71-.2-1.41-.34-2.12-.53-1.24-.34-2.42-.88-3.71-1.06.17-.74.26-.5.26-.53,2.41.85,4.89,1.71,7.42,2.12.09.01.18-.01.26,0,.67.1,2.51.72,3.05.53.89-.32,1.3-4.33,1.46-4.5.62-.7,4.05.69,5.03.79Z"></path><path class="cls-24" d="M35.26,57.34l-2.65,3.71c-.67-.19-1.44-.28-2.12-.53,0-3.42.91-3.58,1.06-4.24,1.28.18,2.47.72,3.71,1.06Z"></path><path class="cls-5" d="M53.27,67.94c-2.92,3.23-8.7.35-12.19-1.06,3.42.57,5.77,1.78,5.56-1.59,2.47.65,7.23,1.16,6.62,2.65Z"></path><path class="cls-22" d="M56.71,57.08c-.37,1.56-.85,2.98-1.32,4.5-.84-.51-1.98-.82-2.91-1.06-1.52-.4-1.13-2.33-1.85-.93l1.06-3.58c1.63.4,3.44.44,5.03,1.06Z"></path><path class="cls-5" d="M55.12,62.38c-.05.17,0,1.31-.79,3.44-1.62.77-4.43-.76-5.83-1.06l5.03-3.18c.6.2,1.2.17,1.59.79Z"></path><path class="cls-12" d="M44.53,48.34c.4.06,7.49,2.13,7.81,2.38,1.7,1.35-.47,4.15-.4,4.37.11.33,1.13.31,1.32.4,1.07.47,2.33.68,3.44,1.06-.04.15.04.38,0,.53-1.59-.62-3.41-.66-5.03-1.06-.87-.22-2-.87-2.91-1.06l.26-.26c1.94.21,2.45.86,3.44-3.05-.1-.34-5.8-2.27-6.62-2.52-.88-.27-1.76-.57-2.65-.79.85-.41.65-.1,1.32,0Z"></path><path class="cls-12" d="M48.5,64.76c1.4.3,4.2,1.83,5.83,1.06-.1.28.15.78-1.06,2.12.6-1.48-4.15-1.99-6.62-2.65-1.33-.35-2.65-.69-3.97-1.06-.07-.24-.33-.34-.53-.53,1.97.54,4.57.67,6.36,1.06Z"></path><path class="cls-16" d="M52.47,60.52c.94.24,2.07.55,2.91,1.06-.08.26-.18.52-.26.79-.39-.62-.99-.6-1.59-.79-3.11-1.02-6.38-1.51-9.54-2.38l-.53-.53c2.97.69,6.06,1.09,9.01,1.85Z"></path><path class="cls-43" d="M43.2,48.34c-2.27,1.1-1.74,3.9-1.85,4.11-.14.25-.51.09-.53.13-1.71-.47-1.83-.16-1.59-1.85.92-1.34.98-3.01,1.46-3.18.12-.04,2.07.68,2.52.79Z"></path><path class="cls-13" d="M45.85,49.13c-.29,2.53-.22,3.07-1.85,4.77-.86.89-.43,1.21-.66,1.32-.08.04-1.02-1.01-1.59-.79-.46.17-.28,3.02-2.25,3.44-.09-.01-.18.01-.26,0-.26-.62-.35-2.85-.26-3.05.3-.69,1.71-1.49,1.85-1.72.05-.09-.05-.43,0-.53.02-.04.39.11.53-.13.11-.21-.42-3,1.85-4.11.89.22,1.77.53,2.65.79Z"></path><path class="cls-22" d="M42.67,64.23c1.32.37,2.65.71,3.97,1.06.2,3.37-2.14,2.16-5.56,1.59-.04-.02.1-.13-.79-.53l.53-2.65c.62.17,1.23.36,1.85.53Z"></path><path class="cls-13" d="M37.37,57.87c-1.05.91-.66,2.85-1.06,4.24-.52-.14-1.03-.35-1.59-.26-.69-.24-1.41-.59-2.12-.79l2.65-3.71c.71.19,1.41.33,2.12.53Z"></path><path class="cls-13" d="M40.82,63.7l-.53,2.65c-1.27-.57-4.67.26-2.65-3.44,1.05.32,2.13.5,3.18.79Z"></path><path class="cls-22" d="M44,59.2c3.15.87,6.42,1.36,9.54,2.38l-5.03,3.18c-1.79-.39-4.39-.52-6.36-1.06-.6-.56.3-4.48,1.85-4.5Z"></path><path class="cls-13" d="M48.77,54.96c.91.19,2.04.84,2.91,1.06l-1.06,3.58c.73-1.4.34.52,1.85.93-2.95-.76-6.04-1.16-9.01-1.85l1.19-4.24c.32-.25,3.46.4,4.11.53Z"></path><path class="cls-13" d="M49.03,54.69c-.98-.11-4.41-1.5-5.03-.79,1.64-1.7,1.57-2.24,1.85-4.77.82.25,6.52,2.18,6.62,2.52-1,3.91-1.51,3.26-3.44,3.05Z"></path><path class="cls-13" d="M42.41,59.2c-1.79-.68-3.03,2.56-2.38,3.97-.5-.04-2.71-.8-3.71-1.06.4-1.39,0-3.33,1.06-4.24.91.25,4.66.87,5.03,1.32Z"></path><path class="cls-13" d="M39.49,57.87c1.97-.43,1.79-3.27,2.25-3.44.57-.22,1.51.83,1.59.79.23-.11-.2-.43.66-1.32-.16.18-.57,4.18-1.46,4.5-.54.19-2.37-.43-3.05-.53Z"></path><path class="cls-13" d="M42.41,59.2c-.8,3.66-.68,4.11-2.38,3.97-.65-1.41.59-4.65,2.38-3.97Z"></path></g></g><g><path class="cls-28" d="M23.07,78.27c.73,3.45-4.18,3.19-3.18,0,2.05-2.08,2.52-.2,3.18,0Z"></path><path class="cls-7" d="M21.08,78.27c2.13-.19,1.22,2.61-.4,1.19l.4-1.19Z"></path></g><g><path class="cls-38" d="M157.38,49.4c3.04.66,20.87,5.31,22.25,6.36.49.37,2.06,3.01,2.12,3.58.11,1.12-4.77,19.77-6.23,21.32-.24.26-2.75,1.81-3.05,1.85-1.36.22-25.52-5.5-26.76-6.09-1.77-.85-3.2-3.28-3.18-5.17.01-.95,4.15-17.66,4.5-18.54,2.57-6.49,8.03-3.81,10.33-3.31Z"></path><path class="cls-39" d="M156.72,64.23c2.15.84,7.56.96,7.95,1.06.08.02.94.95,1.32,1.06.62.18,3.26.33,5.17,1.46l-2.25,9.14c-.81,1.03-14.72-3.1-14.97-3.84l2.78-8.87Z"></path></g><g><path class="cls-8" d="M59.36,94.16c-.77.85-2.08.73-2.65-.13,1.51-3.51.46-1.14-1.06-.66-6.45,2.03-3.53-8.24.93-6.89,3.15,3.01,1.27,6.94,1.46,7.28.26.48.39-.6,1.32.4Z"></path><path class="cls-29" d="M54.99,87.28c2.72-.33,1.05,2.7,2.52,3.84-5.58,4.51-5.17-1.14-4.37-1.46,4.26.66-.59-.78,1.85-2.38Z"></path></g><g><path class="cls-7" d="M84.53,63.17c.32,6.5-2.98,9.93-3.18,10.46-.34.91-.16,3.81-.26,3.97-.26.39-6.23,1.94-1.32,7.02-1.61-.22-.37,1.49-.53,1.99-.24.74-2.3,2.49-2.38,2.65-.1.18-.67,2.97-1.19,3.58-2.49-.26-2.52-2.9-3.71,1.06-2.88-1.74-2.66-6.35-5.56-1.06-1.28-1.57-2.88-.34-3.84-1.59.46-2.84-.9-3.16-2.65-1.19,2.96,3.16-1.04,5.25.66,6.76l.4-.79c-.02.05.72.47-.13,1.06-2.79-.21-.32-1.7-1.46-2.91-.94-1-1.06.09-1.32-.4-.19-.35,1.7-4.28-1.46-7.28-4.46-1.35-7.37,8.92-.93,6.89-4.32,2.73-3.82-1.93-4.24-3.05-.77-2.05-2.77,2.75-5.56,2.12l.4.66c3.45-.72,3.33,2.09-.26,1.85-1.54-.1-24.88-7.01-29.8-7.68-.52-2.33.5-2.76.53-2.91.91,1.61,2.33-6.07,2.38-6.62l.79.53c-1,3.19,3.91,3.45,3.18,0,5.03,1.5.84-5.69,3.97-8.74.07,2.54,11.64,5,12.85,4.5,1.74-.71,2.88-4.92,0-6.09-6.77-2.76-2.83,6.68-7.55,3.31l1.59-5.96c2.44.41,4.69,1.18,7.15,1.59,3.48,1.41,9.26,4.29,12.19,1.06,1.21-1.34.96-1.84,1.06-2.12.8-2.13.74-3.28.79-3.44.09-.27.18-.53.26-.79.47-1.52.95-2.95,1.32-4.5.04-.15-.04-.37,0-.53.09-.37.26-.25.26-.26.02.28-.1.57.13.79,1.01.98,24.05,5.36,27.42,6.09Z"></path><path class="cls-29" d="M67.31,80.92c1.19-.64,1.24-1.63,1.59-2.12,1.06-1.48-.1-1.79,2.38-1.46.31,4.03-3.88,7.72-7.42,4.5.17-1.18,1.17.3,3.44-.93Z"></path><path class="cls-8" d="M34.06,81.45c3.45-.75,2.98,4.26.93,2.25,1.99-2.96-4.07-1.36-2.12,3.71,2.68,2.37,4.35-2.24,1.99.13-2.86-.73,3.37-3.73,1.72.4-4.81,3.72-7.08-4.03-2.52-6.49Z"></path><path class="cls-8" d="M26.38,78.54c2.86.25,2.43,2.72.53,3.97-4.59-.44,3.62-1.47-.53-2.91-3.09,4-7.46,9.42-6.23,2.52l.79-.26c-.82,6.31,2.18-.92,5.43-3.31Z"></path><path class="cls-8" d="M30.35,80.12c1.48-1.04.85,7.11-2.91,6.89-4.69-.28-1.28-6.27.26-2.12-4.71-1.51,2.16,6.23,2.65-4.77Z"></path><g><path class="cls-8" d="M68.9,78.8c-.35.49-.4,1.48-1.59,2.12-2.73.74-3.74-.76-5.7-1.32-4.61-1.33-17.86-2.33-10.6-9.27,6.27,2.4,20.41,3.47,17.88,8.48Z"></path><path class="cls-29" d="M51.28,71.65l3.58.93c-.46,6.36-6.83,3.05-3.58-.93Z"></path><path class="cls-11" d="M64.79,75.36l1.59.26c4.72,5.39-6.74,5.89-1.59-.26Z"></path><path class="cls-29" d="M56.05,72.97c3.92.72,3.19.73,1.85,4.5l-3.05-.93,1.19-3.58Z"></path><path class="cls-11" d="M60.55,74.03l2.52.93c-.62,5.78-5.56,4.05-2.52-.93Z"></path></g><g><path class="cls-8" d="M47.31,84.63c7.63.2,3.17,4.58-.26,7.42-1.34-1.15,3.08-2.46,0-2.91-2.6,6.21-2.29,1.45.26-4.5Z"></path><path class="cls-29" d="M47.84,85.69c4.41-.52,2.72,3.72-.93,2.52l.93-2.52Z"></path></g><g><path class="cls-8" d="M42.28,83.83c5.3,4.35-5.6,2.36-.79,6.62,8.28-1.64-.94,3.04-1.99-.66-.35-2.57.95-4.34,2.78-5.96Z"></path><path class="cls-26" d="M42.01,85.16c1.25-.36.69,2.27-.66.93l.66-.93Z"></path></g></g><g><path class="cls-8" d="M62.54,91.25c-.14.84-1.17,3.62-1.59,4.77l-.4.79c-1.7-1.5,2.3-3.6-.66-6.76,1.75-1.97,3.11-1.65,2.65,1.19Z"></path><path class="cls-41" d="M61.35,89.66c.9-.19,1,1.96-.4.66l.4-.66Z"></path></g><g><path class="cls-9" d="M111.55,85.16c2.25,2.09,1.6.46,3.84.79,1.12.17,2.87,1.75,3.05,2.91.6,3.88-3.06,4.59-6.09,3.71-.48-.14-.95-1-1.19-1.06-.39-.1-1.2.5-2.12.26-1.79-.45-2.75-1.55-2.91-1.59-.22-.06-2.16,1.15-4.11-.79-.88-2.43-1.73-5.11,1.85-5.83,3.1-.62,3.23,1.4,4.11,1.59.17.04,1.2-.2,3.58,0Z"></path><path class="cls-27" d="M104,84.89c6.15.03.03,8.69-1.19,1.46l1.19-1.46Z"></path><path class="cls-21" d="M113.8,87.28l1.59.26c3.71,5.81-6.21,5.08-1.59-.26Z"></path><path class="cls-21" d="M109.03,86.22h1.59c2.71,5.66-5.7,5.47-1.59,0Z"></path></g><g><path class="cls-8" d="M114.99,106.88c-.66,2.75-3.44,4.29-.79-1.46-2.22-1.68-2.14,3.68-2.65,4.5-1.06,1.73-3.36-.02-2.12-3.05,1.73-.94,1.65-.22,1.72-.26.17-.11.92-2.46,2.91-2.65,1.6.81,1.29,1.4.93,2.91Z"></path><path class="cls-30" d="M110.36,107.41l.66.4c-.39,3.92-1.82-.11-.66-.4Z"></path></g><g><path class="cls-19" d="M133.8,97.34c.53.16,1.03.37,1.59.53-.19,1.03,1.57.28,2.25.53.25.09.79.95,1.06,1.06,2.14.86,4.73.93,5.43,2.78-.28,2.68-1.12,5.28-1.06,5.56.05.21,2.55,2.05,2.38,3.44-.04.36-1.62.54-.26,1.06l-1.85,9.54c.22.4.84,1.51,1.32.66l1.46-6.09c1.52,1.66,6.35,2.97,6.49,3.31.28.69-2.17,4.07-1.46,4.64,3.41-2.71.12-5.99,8.61-2.65.93,1.28.5,2.81-.13,3.97-.68-.43-.18-.8-.4-1.32-.87-2.1-.95-.4-1.32,0-2.13,2.29.02,1.9,0,3.31,0,.22-.96,1.12-.79,1.32.13.16,1.71.31,3.71,1.72-12.32-3.88-24.55-8.34-36.95-11.92-1.47-.42-3.08-.88-4.64-.79,2.86-1.76,11,4.38,14.83,2.25,1.08-1.18-2.38-2.25,0-3.05-.22,4.18,1.04.33,1.85-4.9,3.39-1.15,3.36,1.29,3.97,3.44-5-.14-1.26,6.03.53,3.71.61-2.49.94-6.57-1.59-8.08-3.9-2.33-4.76.86-6.09-.26,1.14-.09.83-.8.53-1.59-.64-1.67-3.14.69-3.05-4.5l-.26,2.91c-1.89,1.1.71-7.38.93-8.08.08-.27.72,0,.79-.26.33-1.17-1.9-2.63,2.12-2.25Z"></path><path class="cls-8" d="M159.23,124.36c-.8,3.5-2.36,2.87-1.32,0,.37-.4.45-2.1,1.32,0Z"></path><path class="cls-8" d="M143.2,112.44c1.66-.44-1.17,6.83-.93,8.08-2.16,2.4.46-7.96.93-8.08Z"></path><path class="cls-8" d="M155.92,122.24c1.78-.56-1.32,6.14-1.46,3.31l1.46-3.31Z"></path></g><g><path class="cls-9" d="M143.34,92.58c4.26,3.39,1.6,8.1-3.05,7.15-.81-.17-2.49-1.81-2.65-1.85-.11-.03-.29.58-2.25,0-.56-.16-1.06-.37-1.59-.53-1.98-.59-4.44-.37-5.56-2.52-1.73-3.32,1.41-5.83,4.64-5.17.78.16,1.83,1.5,2.12,1.59.14.04,1.24-.6,2.91,0,.8.29,1.69,1.57,1.85,1.59.19.02.74-1.04,3.58-.26Z"></path><path class="cls-19" d="M141.09,93.63l1.06.26c4.52,6.81-6.94,4.46-1.06-.26Z"></path><path class="cls-19" d="M131.55,90.99l1.99.93c.18,7.49-6.94,1.16-1.99-.93Z"></path><path class="cls-19" d="M136.05,92.31l1.32.53c2.62,5.87-5.93,4.33-1.32-.53Z"></path></g><g><path class="cls-8" d="M138.83,111.38c2.53,1.51,2.2,5.59,1.59,8.08-1.79,2.32-5.53-3.85-.53-3.71-.62-2.16-.59-4.59-3.97-3.44-.81,5.23-2.07,9.09-1.85,4.9.06-1.08.8-6.62,1.72-6.62l3.05.79Z"></path><path class="cls-19" d="M138.7,116.68c2.16-.21.87,3.63-.4,1.46l.4-1.46Z"></path></g><g><path class="cls-29" d="M105.99,67.94l-.53,1.46.26,13.51c-.31.47-2.66-.38-1.85.66-3.59.72-2.74,3.4-1.85,5.83.54,1.5.65,1.44,1.59,2.65.01,3.11-3.22,4.79-3.18,7.95-1.32-1.02-3.35-.38-4.5.53-2.76-2.62-3.98-2.4-5.56-3.18-.06-.03.34-.63-.66-1.06-.59.02-2.29,5.22-2.25,8.48.01.88.22,1.37-.53,1.85-1.36-.49-2.85-.9-4.24-1.32-1.03-1.4-10.55-3.06-10.99-3.44.76-3.99.66-1.89,2.38-2.38.73-.21.91-.66,1.19-1.32,1.62-3.82-.68-2.96-.93-3.18-.3-.27-.02-.83-.13-1.06,2.64,2.4,1.5-1.48,4.64-.79,1.56.34,1.15,2.51,2.91,2.65,3.73-2.03,2.4-3.37,4.9-5.43-.87-2.11-6.17-2.65-6.62-4.77-.1-.48,1.11.5-.26-.93-4.9-5.08,1.07-6.63,1.32-7.02.11-.17-.07-3.06.26-3.97.2-.53,3.5-3.96,3.18-10.46,7.17,1.55,14.31,3.12,21.46,4.77Z"></path><path class="cls-8" d="M83.87,94.96c2.77-.15.96,4.55.26,1.06-4.2,1.98-.09,10.18,1.06,3.71l.93.4c-1.89,7.62-8.69-1.6-2.25-5.17Z"></path><path class="cls-41" d="M90.62,87.81c.95.19,2.65-.22,3.44-.79l.13.79c5.65-1.07-4.17,4.65-3.58,0Z"></path><g><path class="cls-9" d="M94.06,87.01c-.79.58-2.5.99-3.44.79-.51-.1-2.37-1.81-2.52-1.85-2.99-.88-12.15-.24-8.87-6.76,3.27-2.84,9.9,1.66,10.46,1.72.18.02,1.15-1.1,3.44-.26,2.45.9,3.09,4.77.93,6.36Z"></path><path class="cls-27" d="M90.49,81.71l1.85.26c3.83,6.22-5.96,5.09-1.85-.26Z"></path><path class="cls-11" d="M82.01,79.33c4.53-.36,1.38,7.92-1.99,2.52-.31-1.19.98-2.44,1.99-2.52Z"></path><path class="cls-15" d="M85.99,80.65c3.59-.35,2.77,6.16-.93,3.58l.93-3.58Z"></path></g><g><path class="cls-8" d="M77.51,93.63c6.68.97-2.07,3.86.79,6.62,3.04-2.12,2.59,1.06-.79.79-2.68-2.82,1.3-3.35-.93-6.49l.93-.93Z"></path><path class="cls-11" d="M78.04,94.43l.93.4c-.01,1.87-1.58.03-.93-.4Z"></path></g></g><g><path class="cls-8" d="M74.2,93.9c.11.23-.17.79.13,1.06.24.22,2.55-.65.93,3.18-5.47,3.45-2.61-3.28-2.38-5.7,1.72-.15,1.22,1.24,1.32,1.46Z"></path><path class="cls-29" d="M73.8,95.22l.93.66c-.25,3.83-3.13,2.23-.93-.66Z"></path></g><g><path class="cls-19" d="M184.13,99.99c-1.08,4.4-2.55,8.82-3.44,13.25-.32,1.56-.96,3.15-.79,4.77-2.6,7.15-3.78,15.16-6.09,22.52-7.35,8.88-15.48,4.28-24.64,1.59-.04-1.11,1.18-5.68,1.06-5.96-.06-.14-2.45-1.25-2.65-1.72,1.88.57,12.09,3.79,12.85,3.71,1.79-.19,5.6-3.73.4-7.42-2-1.42-3.58-1.56-3.71-1.72-.16-.2.79-1.1.79-1.32.02-1.41-2.13-1.03,0-3.31-1.03,2.87.53,3.5,1.32,0,.22.52-.28.89.4,1.32.64-1.17,1.07-2.69.13-3.97,1.84.72,1.24.74.26,4.64,1.8,2.55,2.21-6.4,2.65-6.89.13-.14,1.16,1.75,1.06-2.65-.38-1.11-15.54-6.3-17.35-5.7-1.23.41-3.24,11.85-1.72,11.39-.49.85-1.11-.26-1.32-.66l1.85-9.54c-1.35-.52.22-.7.26-1.06.16-1.39-2.34-3.23-2.38-3.44-.06-.29.78-2.88,1.06-5.56-.7-1.85-3.29-1.92-5.43-2.78-.26-.11-.81-.97-1.06-1.06-.68-.25-2.44.5-2.25-.53,1.96.58,2.14-.03,2.25,0,.16.04,1.84,1.69,2.65,1.85,4.64.95,7.31-3.76,3.05-7.15-1.86-1.48-2.63-.25-3.58-.53-.21-.06-2.04-1.77-3.84-1.72q4.9-6.95,9.8-13.91c1.24.59,25.4,6.32,26.76,6.09,2.5,3,15.29-11.26,18.15-14.83l.93.13c-2.25,10.66-5.01,21.27-7.95,31.79l.53.4Z"></path><g><path class="cls-9" d="M155.92,95.49c2.14,0,2.99,1.8,3.18,1.85.42.12,5.43-1.94,5.7,4.37-3.38,6.47-6.82.75-7.28.66-.13-.03-.81.88-2.65.53-3.92-.74-3.51-7.42,1.06-7.42Z"></path><path class="cls-40" d="M160.42,98.4l1.59.26c3.25,7.5-6.77,4.21-1.59-.26Z"></path><path class="cls-40" d="M155.13,97.08c6.35-.18-.43,9.4-1.19,1.19l1.19-1.19Z"></path></g></g></g></g></g></svg>