<svg xmlns="http://www.w3.org/2000/svg" id="Layer_2" data-name="Layer 2" viewBox="0 0 222.08 355.84"><metadata></metadata><defs><style>      .cls-1 {        fill: #02adbb;      }      .cls-1, .cls-2, .cls-3, .cls-4, .cls-5, .cls-6, .cls-7, .cls-8, .cls-9, .cls-10, .cls-11, .cls-12, .cls-13, .cls-14, .cls-15, .cls-16, .cls-17 {        stroke-width: 0px;      }      .cls-2 {        fill: #149eb5;      }      .cls-3 {        fill: #f8f9f5;      }      .cls-4 {        fill: #117497;      }      .cls-5 {        fill: #44a5d5;      }      .cls-6 {        fill: #c8cac7;      }      .cls-7 {        fill: #b2b2b0;      }      .cls-8 {        fill: #0a0e12;      }      .cls-9 {        fill: #2484c6;      }      .cls-10 {        fill: #eee9d8;      }      .cls-11 {        fill: #aa9ea1;      }      .cls-12 {        fill: #034b4c;      }      .cls-13 {        fill: #50455b;      }      .cls-14 {        fill: #1c8fc5;      }      .cls-15 {        fill: #533950;      }      .cls-16 {        fill: #5abdcc;      }      .cls-17 {        fill: #02252f;      }    </style></defs><g id="Layer_1-2" data-name="Layer 1"><g><path class="cls-8" d="M25.61,3.5c-1.77,8.11,2.69,2.81,14.23,1q73.15.25,146.3.5c5.21.99,10.51,1.89,15.23,4.49-6.05,10.1,4.27-2.78,7.49,13.23.04.19,1.5.51,1.5,1,0,.95-1.77-1.12-1.5,4.24-.97-1.89-1.8-3.72-3-5.49-5.53-8.22-15.05-10.95-24.47-11.98-13.77-1.51-70.8-.63-89.87-.5-25.38.18-61.23-4.84-69.4,11.98,1.12-2.96,1.41-5.66,3.99-7.74-6.16-3.63-14.63,14.68-15.48,18.97-.57,2.89-1.29,56.08-.5,58.92.09.31.68.6,1,.75.27.12,1.03-.28,1,.5-.23,3.03.81,8.1.5,8.74-.08.16-2.58.68-3,2-.41,1.31-.63,26.24,0,27.46.5.97,3.36.5,3.99,1-.61,2.63-1.08,8.1-1.5,9.99-.16.72-2.46,3.28-2.5,3.5-.24,1.3-.35,25.48.75,26.21l.75-.5h1.5c0,.54,1.92,8.24,1.5,10.74-.16.92-1.55,1.46-2,2.75-2.12,6.1-.38,10.71-.5,16.98-.24,12-1.81,89.96-1,94.62.72,4.15,2.78,3.99,5.24,6.74,4.64-5.94,1.23,14.71,1.75,20.22.11,1.13,3.58,14.3,5.99,14.23,1.37,2.16,2.44,3.43,4.49,4.99,4.81,3.66,8.39,4.11,14.23,4.99q71.4-.5,142.8-1c4.39-.93,9.16-1.43,13.23-3.5.16,4.17-.73,6.05,3.99,4.49-1.75,1.02-3.07,1.78-4.99,2.5-13.79,5.16-28.57,3.18-42.94,3.5-12.14.27-24.31.27-36.45.5-15.58.29-85.51,2.06-92.37,1-4.13-.64-8.74-2.29-11.98-4.99-5.46-4.55-8.33-12.86-8.99-19.72-1.91-19.86,1.8-111.55,0-120.83-.24-1.23-4.46-1.92-3.5-24.47.03-.72,2.14-.03,1.5-13.98-.02-.35-1.99-.55-1.5-6.49.05-.61,2.02-3.23,1.5-11.98-.03-.47-1.48-1.87-1.5-2-.67-6.13,2.48-8.03,2.5-8.49.03-.7-2.22-2.48-2.5-4.99-.25-2.24.21-29.77.5-32.45.21-1.96,2.48-3.76,2.5-3.99.1-1.27-7.35-9.58-2.5-24.47.48-1.46,2.87-3.07,3-3.5,1.27-4.44-1.76-42.34,1-52.43C8.42,10.54,16.37,6.2,25.61,3.5Z"></path><path class="cls-2" d="M209.85,15.48l-1,.5c-1.85-2.39-4.85-5.03-7.49-6.49-4.72-2.6-10.02-3.5-15.23-4.49q-73.15-.25-146.3-.5c-11.55,1.81-16,7.11-14.23-1C34.65.85,42.99.41,52.32,0l126.82,1c13.07,2.78,22.17,3.2,30.71,14.48Z"></path><path class="cls-5" d="M217.84,206.21c-.26,29.88.48,59.77-.5,89.62l-1.5-.25c.14-29.87-.99-59.75-.5-89.62,1.3-.82,2.18.27,2.5.25Z"></path><path class="cls-16" d="M209.85,15.48c1.63,2.16,3.48,4.17,4.49,6.74,4.62,11.73,2.03,42.2,2,56.67-.27-.1-.76.21-1-.25-2.68-5.11,5.84-46.8-6.49-62.66l1-.5Z"></path><path class="cls-14" d="M11.63,202.22c.12-6.27-1.62-10.88.5-16.98,1.47,1.03,1.95,17.88-.5,16.98Z"></path><g><path class="cls-8" d="M208.85,15.98c12.33,15.86,3.81,57.55,6.49,62.66.24.46.72.15,1,.25.9.32,4.01-.44,4.49.25.91,1.28-.69,27.48,0,31.46-8.89.34-4.84,5.34-4.99,11.73-.48,19.44,1.08,18.44,1,.5.32,0,2.07-1.45,3.5.25-.88,9.1,2.27,20.57-2.5,20.22-1.67-.12-1.71-1.91-3-1.25,1.84,6.94-1.42,22.98,2,23.22.93.17,4.08-.34,4.49.25,1.15,1.63.81,38.12,0,39.94-.5,1.14-2.51.7-3.5.75-.32.02-1.2-1.07-2.5-.25-.49,29.88.64,59.75.5,89.62-.12,25.03,4.25,42.08-13.48,52.43-4.72,1.56-3.84-.33-3.99-4.49,7.39-3.74,11.09-11.37,12.48-19.22-1.13-75.39.09-150.8-.5-226.18-.17-21.71.27-43.75-.5-65.41,0-.24-.85-1.89-1-4.74-.27-5.36,1.5-3.29,1.5-4.24,0-.49-1.46-.81-1.5-1-3.22-16.01-13.54-3.14-7.49-13.23,2.64,1.46,5.64,4.1,7.49,6.49Z"></path><path class="cls-16" d="M217.84,143.3q-.5,10.98-1,21.97c-3.42-.24-.15-16.28-2-23.22,1.28-.66,1.32,1.13,3,1.25Z"></path><path class="cls-4" d="M216.84,122.83c.08,17.94-1.48,18.94-1-.5,1.19-.19.94.5,1,.5Z"></path><path class="cls-8" d="M217.59,79.89l2.75.25c-1.04,10,2.78,34.51-3.5,28.96q.37-14.6.75-29.21Z"></path></g><g><path class="cls-8" d="M22.12,21.97c-1.48,3.9-3.23,7.57-3.99,11.73l.5,289.6c1.17,5.5,1.92,9.88,4.99,14.73-2.41.07-5.89-13.1-5.99-14.23-.52-5.51,2.9-26.16-1.75-20.22-2.46-2.75-4.52-2.59-5.24-6.74-.81-4.66.76-82.61,1-94.62,2.45.9,1.97-15.95.5-16.98.45-1.28,1.84-1.83,2-2.75.43-2.5-1.5-10.19-1.5-10.74-.02-3.38,1.48-28.2.25-28.96-3.16-1.95-2.53,26.99-1.75,28.96l-.75.5c-1.09-.73-.99-24.92-.75-26.21.04-.21,2.34-2.77,2.5-3.5.42-1.89.88-7.35,1.5-9.99-.64-.5-3.49-.03-3.99-1-.63-1.22-.41-26.15,0-27.46.41-1.32,2.92-1.84,3-2,.31-.64-.73-5.71-.5-8.74,0-.06.98-.37,1-.75,1.39-22.65-3.08-23.25-2,.25-.32-.15-.91-.44-1-.75-.8-2.84-.07-56.03.5-58.92.84-4.3,9.32-22.61,15.48-18.97-2.59,2.08-2.87,4.78-3.99,7.74Z"></path><path class="cls-14" d="M12.63,171.76h-1.5c-.78-1.97-1.42-30.91,1.75-28.96,1.23.76-.27,25.57-.25,28.96Z"></path><path class="cls-9" d="M12.13,93.37c.03-.78-.73-.38-1-.5-1.08-23.49,3.39-22.9,2-.25-.02.38-.99.69-1,.75Z"></path><path class="cls-9" d="M11.38,103.36c1.35-1.24,1.6,6.03,1.75,10.24.06,1.68.04,23.31-2.5,17.48l.75-27.71Z"></path></g><g><path class="cls-10" d="M91.52,9.99c-.07,2.25,3.63-.53,3,2.75-.3,1.55-6.28,0-4.99,8.99,1.68,11.69,16.34,6.57,28.71,7.74.71.07,6.49,4.54,13.48,0,6.32-4.1,5.18-13.81,3.5-18.47q23.09-.25,46.19-.5c9.42,1.03,18.93,3.76,24.47,11.98l-1,.25c2.49,2.31,2.26,5.71,3.99,8.49q.25,118.58.5,237.17c-3.39-2.96-4.91.16-8.24,2.25-2.47-1.98-.67-3.07-.75-3.25-1.06-2.42-19.73-.89-20.72-1.25-1.15-.42-1.13-5.49,0-6.49-4.33-1.36.64,11.03-7.99,9.49-2.5-.99-1.31-9.5-2-9.99-.59-.42-13.79-.21-14.48,0-4.29,1.3,2.64,5.8-8.49,6.49-1.12.07-.6-.99-1-1-.32,0-3.64,1.4-5.99.5-2.71-1.04.57-6.52-5.24-3,.2-8.61-1.63-48.88-.5-51.18.38-.77,2.02-.03,3-1.75,1.41-2.47-.18-11.97.5-13.23.63-1.17,14.93-4.81,19.47-16.98.43-1.14,3.55-19.91,3-22.72.14-1.92.04-4.05,0-5.99-.17-7.8-1.23-9.85-3.99-16.73-.23-.56.52-.95.5-1-7.43-17.49-24.98-29.28-43.94-29.21-7.03.03-11.59,1.07-17.97,3.99,3.41-4.19-7.21-.74-13.98,4.49-9.95-1.38-23.06,11.45-30.96,17.73,2.77,8.4-7.95-2.81-6.24,9.24l-1.25-.25c1.82-3.3-9.2-2.45-9.74-2.25-3.44,1.3-.9,9.42-5.49,10.49-4.92-3.46-4.87.51-6.24-6.74h-1v185.24c1.25,4.53,2.34,9.02,4.99,12.98,1.01,1.51,4.53,3.64,3.5,4.74-2.05-1.56-3.12-2.83-4.49-4.99-3.07-4.84-3.82-9.23-4.99-14.73l-.5-289.6c.77-4.16,2.52-7.83,3.99-11.73,8.17-16.83,44.03-11.8,69.4-11.98Z"></path><path class="cls-10" d="M205.86,22.47c1.2,1.78,2.03,3.6,3,5.49.15,2.86.99,4.5,1,4.74.77,21.66.33,43.7.5,65.41.58,75.39-.63,150.8.5,226.18-1.39,7.85-5.09,15.48-12.48,19.22-4.08,2.06-8.84,2.57-13.23,3.5q-71.4.5-142.8,1c-5.84-.88-9.42-1.33-14.23-4.99,1.04-1.11-2.48-3.23-3.5-4.74-2.66-3.96-3.74-8.45-4.99-12.98v-185.24h1c1.37,7.25,1.32,3.28,6.24,6.74,4.59-1.06,2.05-9.19,5.49-10.49.54-.2,11.56-1.05,9.74,2.25l1.25.25c-1.7-12.05,9.01-.84,6.24-9.24,7.9-6.28,21-19.1,30.96-17.73-2.76,2.14-5.37,6.15-5.74,6.49-.14.13-.94-.48-2.25.75-.05.04.98.54.25,1.25-.1.09-1.73.22-2.5,1-14.15,14.38-20.92,27.3-18.72,48.18,2.4,22.87,24.8,52.68,27.96,64.91,2.76,10.65,2.02,46.66,3.99,53.43,1.86,6.36,12.87,17.86,18.47,10.24,1.21.86.95.01,1,0,4.16-1.15,5.81-3.31,6.49-7.49,2.17-.83,4.82-3.6,5.49-3.99,1.35-.79,2.69-1.75,3.99-2.5.39-.23,2.14-.78,2.5-1,5.71-3.46,5.43-1.82,5.74-2,7.37-4.3,7.08-11.97,7.24-18.97,5.82-3.53,2.53,1.95,5.24,3,2.35.9,5.68-.51,5.99-.5.4,0-.12,1.07,1,1,11.13-.69,4.2-5.19,8.49-6.49.69-.21,13.89-.42,14.48,0,.69.49-.51,9,2,9.99,8.63,1.55,3.66-10.84,7.99-9.49-1.13,1-1.15,6.08,0,6.49.99.36,19.66-1.17,20.72,1.25.08.18-1.72,1.27.75,3.25,3.33-2.09,4.85-5.21,8.24-2.25q-.25-118.58-.5-237.17c-1.73-2.78-1.5-6.18-3.99-8.49l1-.25Z"></path><path class="cls-6" d="M94.51,107.35c-10.72,4.92-23.06,19.23-26.46,30.46-.51.05-.75,1.01-1,1.5-2.84-.58-6.27,6.85-6.99,9.24-4.53,14.92,2.23,29.48,5.49,43.94q10.49,20.47,20.97,40.94c.08,12.55,1.56,24.9,2.5,37.45.24,3.24-4.11,18.91,10.74,24.72.56.22,5.09-1.37,2.25,2.5-5.6,7.63-16.62-3.88-18.47-10.24-1.98-6.76-1.24-42.77-3.99-53.43-3.16-12.23-25.56-42.04-27.96-64.91-2.19-20.88,4.58-33.8,18.72-48.18.76-.78,2.4-.9,2.5-1,.73-.71-.3-1.2-.25-1.25,1.3-1.23,2.1-.62,2.25-.75.37-.34,2.98-4.36,5.74-6.49,6.77-5.23,17.39-8.68,13.98-4.49Z"></path><path class="cls-10" d="M134.46,262.13c-.16,7,.13,14.67-7.24,18.97-.31.18-.04-1.46-5.74,2,2.24-2.77,5.06-4.95,6.99-7.99,4.82-7.58,4.86-10.12-1.5-16.98-.14-3.65.33-7.12.5-10.74,0-.18-1.16-2.47-1-3.5.28-1.82,4.44-3.87,4.49-4.99.03-.69-6.99-10.94-6.99-11.98,0-1.91,4.87-5.14,4.99-5.49.6-1.76-.78-9.88.5-10.98.29-.25,6.76,0,7.49-1.25-.98,1.72-2.62.98-3,1.75-1.13,2.29.7,42.57.5,51.18Z"></path><path class="cls-10" d="M136.96,209.21c.67-1.15-.53-6.59-.5-7.99.06-2.84-.72-6.55,1-8.49,1.49-1.68,20.46-8.61,22.47-36.45.55,2.81-2.57,21.58-3,22.72-4.55,12.16-18.84,15.81-19.47,16.98-.68,1.26.91,10.76-.5,13.23Z"></path><path class="cls-7" d="M67.05,139.31c-8.83,17.21-5.71,40.43,5.49,55.92-2.05,5.11,3.08,10.12,4.99,14.73,4.24,10.2,2.53,8.11,9.99,21.47,3.13,5.6,1.9,8.84,4.99,6.74-7.25,16.48,7.39,17.69,4.99,29.21-.49,2.37-14.12,14.8,8.49,23.72,2.57-.51-.59,2.22-3,6.99-.05.01.21.86-1,0,2.84-3.87-1.68-2.28-2.25-2.5-14.84-5.81-10.49-21.47-10.74-24.72-.94-12.54-2.42-24.9-2.5-37.45q-10.49-20.47-20.97-40.94c-3.26-14.46-10.02-29.02-5.49-43.94.72-2.39,4.15-9.82,6.99-9.24Z"></path><path class="cls-6" d="M109.49,290.59c-.68,4.18-2.33,6.34-6.49,7.49,2.41-4.77,5.56-7.5,3-6.99.88-.03,2.82-.24,3.5-.5Z"></path><g><path class="cls-10" d="M181.39,10.49q-23.09.25-46.19.5c1.68,4.66,2.82,14.37-3.5,18.47-7,4.54-12.77.07-13.48,0-12.37-1.17-27.03,3.95-28.71-7.74-1.29-8.98,4.69-7.44,4.99-8.99.64-3.28-3.06-.5-3-2.75,19.07-.13,76.1-1.01,89.87.5Z"></path><path class="cls-8" d="M97.76,13.98c15.05-2.97,14.04,7.56,17.97,5.99,11.95-16.12,25.04,5.57,10.98,7.99-10.31,1.77-10-7.91-13.48-6.99-.39.1-1.88,3.56-4.99,4.49-14.91,4.47-19.94-9.62-10.49-11.48Z"></path></g><path class="cls-11" d="M89.02,218.69c13.03,11.45,5.87,14.06,3.5,19.47-3.09,2.1-1.87-1.14-4.99-6.74-7.46-13.36-5.75-11.27-9.99-21.47-1.92-4.61-7.05-9.62-4.99-14.73,2.66,3.68,12.23,12.36,12.48,13.23.44,1.52-.44,6.58,0,7.99.58,1.86,3.82,2.1,3.99,2.25Z"></path></g><g><path class="cls-8" d="M112.49,103.36c-5.15,2.16-10.94,3.5-15.73,6.49-19.94,12.43-28.4,49.17-8.24,73.15,9.09,10.81,10,8.41,19.47,8.74.29.85-1,2.49-1.5,3-5.49,5.63-11.18,4-4.99,8.99-.84.74-5.71,4.89-5.49,5.74q8.24,8.61,16.48,17.23c0,.17,0,.33,0,.5-.91,2.64-13.41,12.29-13.48,13.23-.09,1.22,11.85,18.27,13.98,19.72,0,.83,0,1.66,0,2.5q-6.49,6.37-12.98,12.73c.24,1.6,11.23,7.53,12.98,8.74.16.11-1.26-.08,2,2.5-.67.39-3.32,3.16-5.49,3.99-.67.26-2.61.47-3.5.5-22.6-8.91-8.98-21.35-8.49-23.72,2.4-11.52-12.24-12.72-4.99-29.21,2.38-5.41,9.54-8.02-3.5-19.47-.39-3.92.53-14.4,0-16.23-1.01-3.46-33.05-24.83-20.97-64.66,3.41-11.22,15.74-25.54,26.46-30.46,6.38-2.93,10.94-3.97,17.97-3.99Z"></path><path class="cls-15" d="M89.02,218.69c-.17-.15-3.41-.39-3.99-2.25-.44-1.41.44-6.47,0-7.99-.25-.87-9.82-9.55-12.48-13.23-11.2-15.49-14.33-38.72-5.49-55.92.25-.49.49-1.45,1-1.5-12.08,39.83,19.97,61.2,20.97,64.66.53,1.83-.39,12.31,0,16.23Z"></path><g><path class="cls-17" d="M136.46,191.23l1,1.5c-1.72,1.94-.93,5.64-1,8.49-7.75-12.72-16.94-7.34-17.97-3.25-1.28,5.06,1.6,72.48.5,86.13-1.3.75-2.64,1.7-3.99,2.5-3.26-2.58-1.83-2.38-2-2.5,0-7.16,0-14.31,0-21.47,0-.83,0-1.66,0-2.5,0-11-.39-21.97-.5-32.95,0-.17,0-.33,0-.5-.06-5.81,2.17-27.85-1-30.96-1.43-1.4-3.15-2.09-4.99-1,.49-.51,1.79-2.15,1.5-3,4.77.17,25.88.27,28.46-.5Z"></path><path class="cls-16" d="M112.99,284.1c-1.75-1.21-12.74-7.13-12.98-8.74q6.49-6.37,12.98-12.73c0,7.16,0,14.31,0,21.47Z"></path><g><path class="cls-16" d="M112.49,226.68q-8.24-8.61-16.48-17.23c-.22-.85,4.65-5,5.49-5.74,3.14-2.77,7.18-4.76,9.99-7.99,3.17,3.11.94,25.15,1,30.96Z"></path><path class="cls-16" d="M112.99,260.14c-2.13-1.46-14.07-18.51-13.98-19.72.07-.94,12.57-10.59,13.48-13.23.11,10.99.5,21.95.5,32.95Z"></path><path class="cls-1" d="M111.49,195.73c-2.81,3.23-6.85,5.22-9.99,7.99-6.19-4.99-.5-3.36,4.99-8.99,1.84-1.09,3.57-.4,4.99,1Z"></path></g><g><path class="cls-16" d="M136.46,201.22c-.03,1.39,1.17,6.84.5,7.99-.73,1.25-7.2,1-7.49,1.25-1.28,1.1.1,9.23-.5,10.98-.12.35-4.99,3.58-4.99,5.49,0,1.04,7.02,11.29,6.99,11.98-.05,1.12-4.21,3.18-4.49,4.99-.16,1.03,1.01,3.31,1,3.5-.17,3.61-.64,7.09-.5,10.74.22,5.69,1.85,11.23,1.5,16.98-1.93,3.04-4.75,5.22-6.99,7.99-.36.22-2.1.77-2.5,1,1.1-13.65-1.78-81.07-.5-86.13,1.04-4.1,10.23-9.48,17.97,3.25Z"></path><path class="cls-2" d="M128.47,275.12c.36-5.75-1.27-11.29-1.5-16.98,6.36,6.86,6.32,9.4,1.5,16.98Z"></path></g></g><g><path class="cls-2" d="M159.92,156.28c-2,27.84-20.98,34.77-22.47,36.45l-1-1.5c3.45-1.03,13.37-12.23,15.48-15.73,5.04-8.35,5.87-15.99,7.99-25.21.04,1.94.14,4.07,0,5.99Z"></path><g><path class="cls-16" d="M159.92,150.29c-2.12,9.22-2.95,16.86-7.99,25.21-2.11,3.5-12.03,14.7-15.48,15.73-2.58.77-23.69.67-28.46.5-9.47-.33-10.39,2.07-19.47-8.74-20.16-23.98-11.7-60.72,8.24-73.15,4.79-2.99,10.58-4.33,15.73-6.49,18.96-.07,36.5,11.72,43.94,29.21.02.05-.73.43-.5,1,2.76,6.87,3.82,8.93,3.99,16.73Z"></path><g><path class="cls-3" d="M137.45,140.3c-9.16,23.53-41.5,13.57-39.94-14.98,1.56-9.73,9.9-18.6,19.72-17.97.39.02,6.8,1.74,7.49,2,12.44,4.62,17.4,18.98,12.73,30.96Z"></path><path class="cls-12" d="M137.45,140.3c-10.73,29.58-44.58,13.94-39.94-14.98-1.56,28.55,30.78,38.51,39.94,14.98Z"></path><path class="cls-8" d="M130.96,117.84c4.51,6.82,5.28,16.56-.25,22.97-1.12-14.49-8.63-29.9-25.71-22.47,5.72-8.35,20.09-9.39,25.96-.5Z"></path><g><path class="cls-8" d="M130.96,117.84c11.66,13.09-.52,35.69-18.72,28.96-8.63-3.19-14.89-17.29-7.24-28.46,17.09-7.43,24.6,7.98,25.71,22.47,5.53-6.4,4.76-16.15.25-22.97Z"></path><path class="cls-13" d="M119.48,142.8c-.44-7.65-3.82-16.96-10.49-20.97,12.85-3.18,22.68,17.72,10.49,20.97Z"></path><path class="cls-6" d="M114.99,142.8c-9.42-2.01-15.16-16.17-7.49-20.47l7.49,20.47Z"></path><path class="cls-7" d="M108.99,121.83c6.66,4.01,10.04,13.32,10.49,20.97-2.35.63-2.22.49-4.49,0l-7.49-20.47c.84-.47.76-.32,1.5-.5Z"></path></g></g></g></g></g></g></g></svg>