<svg xmlns="http://www.w3.org/2000/svg" xmlns:xlink="http://www.w3.org/1999/xlink" id="Layer_2" data-name="Layer 2" viewBox="0 0 209.3 212.41"><metadata></metadata><defs><style>      .cls-1 {        fill: #56726a;      }      .cls-1, .cls-2, .cls-3, .cls-4, .cls-5, .cls-6, .cls-7, .cls-8, .cls-9, .cls-10, .cls-11, .cls-12, .cls-13, .cls-14, .cls-15, .cls-16, .cls-17, .cls-18, .cls-19, .cls-20, .cls-21, .cls-22, .cls-23, .cls-24, .cls-25, .cls-26, .cls-27, .cls-28, .cls-29, .cls-30, .cls-31 {        stroke-width: 0px;      }      .cls-2 {        fill: #ac4651;      }      .cls-3 {        fill: url(#linear-gradient);      }      .cls-4 {        fill: #11576e;      }      .cls-5 {        fill: #eaf8ec;      }      .cls-6 {        fill: #a3ece6;      }      .cls-7 {        fill: #224266;      }      .cls-8 {        fill: #d7f0db;      }      .cls-9 {        fill: #c1edd8;      }      .cls-10 {        fill: #c7f3ef;      }      .cls-11 {        fill: #f2d1c5;      }      .cls-12 {        fill: #af4742;      }      .cls-13 {        fill: #89b7d0;      }      .cls-14 {        fill: #465479;      }      .cls-15 {        fill: #335476;      }      .cls-16 {        fill: url(#linear-gradient-2);      }      .cls-17 {        fill: url(#linear-gradient-3);      }      .cls-18 {        fill: #5784a3;      }      .cls-19 {        fill: #734449;      }      .cls-20 {        fill: #a2e5ed;      }      .cls-21 {        fill: #e2683c;      }      .cls-22 {        fill: #59dbe2;      }      .cls-23 {        fill: #0eb4c5;      }      .cls-24 {        fill: #b4fbe8;      }      .cls-25 {        fill: #fff;      }      .cls-26 {        fill: #77d2cb;      }      .cls-27 {        fill: #7b4f46;      }      .cls-28 {        fill: #928e8b;      }      .cls-29 {        fill: #303542;      }      .cls-30 {        fill: #d86353;      }      .cls-31 {        fill: #b8696c;      }    </style><linearGradient id="linear-gradient" x1="605.34" y1=".26" x2="670.52" y2="416.18" gradientTransform="translate(-33.89 46.84) scale(.34)" gradientUnits="userSpaceOnUse"><stop offset="0" stop-color="#0e93a8"></stop><stop offset="1" stop-color="#14475b"></stop></linearGradient><linearGradient id="linear-gradient-2" x1="523.32" y1="72.98" x2="696.86" y2="333.47" gradientTransform="translate(-33.89 46.84) scale(.34)" gradientUnits="userSpaceOnUse"><stop offset="0" stop-color="#146b85"></stop><stop offset="1" stop-color="#144e63"></stop></linearGradient><linearGradient id="linear-gradient-3" x1="430.4" y1="-8.81" x2="471.61" y2="471.42" gradientTransform="translate(-33.89 46.84) scale(.34)" gradientUnits="userSpaceOnUse"><stop offset="0" stop-color="#68e3ea"></stop><stop offset=".46" stop-color="#2bc5d2"></stop><stop offset=".77" stop-color="#16b2c9"></stop><stop offset="1" stop-color="#0e7894"></stop></linearGradient></defs><g id="Layer_1-2" data-name="Layer 1"><path class="cls-28" d="M.23,11.58c.1-.23-.57-.14,0-1.38v1.38Z"></path><g><g><path class="cls-25" d="M170.3,36.78c-2.68.08-5.62.14-8.28.34-.89-11.6-6.28-26.49-17.59-31.55,15.36-5.23,22.93,19.67,25.86,31.21Z"></path><path class="cls-25" d="M159.95,37.12c-.43.03-.71.68-.86.69-3.13.25-6.38.03-9.48.69.62-8.42.88-17.75-2.41-25.69-.97-2.35-6.02-7.82.17-3.28,7.34,5.39,11.31,18.94,12.59,27.59Z"></path><path class="cls-25" d="M147.54,35.4c-.08,1.16-.23,2.3-.34,3.45-6.6.83-13.4.49-20,1.03-1.35-12.81.84-26.75,13.62-32.76,6.95,7.46,7.4,18.65,6.72,28.28Z"></path><path class="cls-25" d="M119.61,40.91c-3.57.37-7.2.4-10.69,1.38.75-14.93,3.09-37.36,21.72-39.48-12.32,7.88-11.95,25.17-11.03,38.1Z"></path><path class="cls-25" d="M106.5,42.64l-7.59.34c1.92-11.23,3.76-25.91,12.07-34.48,3.65-3.77,9.56-6.64,14.83-7.07-16.45,6.64-18.86,25.57-19.31,41.21Z"></path></g><g><path class="cls-14" d="M173.05,36.43c-.14,0-.41.27-2.76.34-2.93-11.54-10.51-36.44-25.86-31.21,11.3,5.06,16.7,19.95,17.59,31.55-1.46.11-1.97,0-2.07,0-1.28-8.64-5.25-22.2-12.59-27.59-6.2-4.55-1.14.93-.17,3.28,3.29,7.94,3.03,17.27,2.41,25.69-.09,1.19-1.27,4.81-1.03,5.69.11.4,2.1,1.49,2.76,2.24-.94,5.79-1.07,6.55-4.48,3.62,2.49-5.77,1-5.55,1.03-5.86.09-.76,1.14-5.26,1.03-5.52-.26-.63-1.19,1.47-1.38-3.28.67-9.63.22-20.82-6.72-28.28-12.78,6-14.97,19.95-13.62,32.76-.59.05-1.37.29-2.07.34-1.58-13.71.45-27.82,13.79-34.65-7.39-5.91-14.08,5.97-15.86,12.07-2.14,7.32-2.17,15.44-1.38,22.93-.73.07-1.34.27-2.07.34-.92-12.93-1.28-30.22,11.03-38.1-18.64,2.13-20.98,24.55-21.72,39.48-.35,6.97,1.36,11.65-2.76,8.79-.3-2.82.27-5.66.34-8.45.45-15.64,2.86-34.57,19.31-41.21-5.26.43-11.17,3.3-14.83,7.07-8.82,7.08-11.2,23.15-12.41,33.96-.64.56-1.33.42-2.07.52,1.59-14.73,6.14-37.64,22.93-42.07,12.11-3.2,19.95,3,21.03,3.1,1.24.12,4.5-1.62,6.21-1.72,15.68-.97,22.85,22.35,26.38,34.14Z"></path><g><path class="cls-3" d="M208.57,204.7c-5.91-8.65-13.97-16.83-21.55-24.48-4.66,8.89-7.17,19.14-12.24,27.59-.01-2.3-.07-4.6,0-6.9,1.4.54,1.71-3.95,2.41-6.03.73-2.16,6.59-17.57,7.41-18.1.2-.13,2.36-.04,2.93-.86-.75-19.63-.1-39.34-.69-58.96-.77-25.58-3.28-51.2-3.79-76.72,5.48,2.05,10.42.48,16.21,1.21,4.45,53.96,7.94,107.96,10,162.06.15.76-.13.85-.69,1.21Z"></path><path class="cls-16" d="M183.05,40.22c.52,25.53,3.02,51.14,3.79,76.72.59,19.63-.06,39.33.69,58.96-.57.82-2.73.73-2.93.86-.82.53-6.68,15.94-7.41,18.1-.71,2.08-1.02,6.58-2.41,6.03.38-11.98.31-23.89.34-35.86,0-.97-.35-2.23-.34-3.1.08-30.83-.58-87.52,1.72-114.65.28-3.25.73-6.62,1.38-9.83,1.86.71,3.83,2.25,5.17,2.76Z"></path><path class="cls-4" d="M208.57,204.7c-.1.06-.51-.06-.69,0-1.97.69-28.4,4.87-33.45,5.17.85-1.43.35-1.48.34-2.07,5.07-8.44,7.58-18.7,12.24-27.59,7.58,7.65,15.64,15.83,21.55,24.48Z"></path></g><path class="cls-29" d="M174.43,209.87c5.05-.3,31.48-4.48,33.45-5.17v.69c-8.56,1.14-25.74,5.73-32.59,6.21-3.96.28-14.69-.17-19.31-.34-9.33-.35-23.88-2.41-32.07-2.41-.12,0-2.02.45-2.24.69-3.33-.21-6.67-.48-10-.69-6.44-.41-12.87-.64-19.31-1.03-4.21-.26-8.53-1.18-12.76-.34-3.65-.3-13.69-.07-15.17-3.45q55,2.93,110,5.86Z"></path><path class="cls-12" d="M207.88,205.39c0,.61.09,1-.52,1.38-1.28.8-26.75,5.33-29.65,5.52-11.07.7-42.37-1.91-56.03-2.76.22-.24,2.12-.69,2.24-.69,8.18,0,22.74,2.07,32.07,2.41,4.62.17,15.35.62,19.31.34,6.85-.48,24.02-5.07,32.59-6.21Z"></path><path class="cls-11" d="M92.37,207.81c6.44.39,12.87.62,19.31,1.03-4.54.25-22.83.25-25.34-.34-.26-.06-.18-.46-.17-.69,1.76.11,5.33,1.09,6.21,0Z"></path><path class="cls-31" d="M92.37,207.81c-.88,1.09-4.45.11-6.21,0-2.19-.14-4.35-.16-6.55-.34,4.22-.84,8.55.09,12.76.34Z"></path><path class="cls-23" d="M113.75,143.32c-.38-1.67-3.32-.69-3.45-.52,1.48,1.45-.38,2.08,2.41,2.59-3.9.55-2.02-1.53-2.76-3.28-.42-.99-6.82-3.8-8.79-5.34-6.97-5.46-9.13-13.42-11.55-21.55-.08-.26-2.48-2.88,0-3.97,2.88,9.2,8.23,17.29,17.24,21.38,1.17.53,2.94,1.85,4.31,2.07,12.97,2.03,24.84-9.4,30.52-19.83,5.77-10.61,8.88-23.35,9.31-35.34,0-.23,0-.46,0-.69,2.01-10.1-2.64-23.47,2.07-30.34,7.68,11.71,3.39,49-2.07,62.24-12.81,31.07-34.48,28.89-37.07,30.86-.5.38.55,1.47.52,1.55-.11.31-.67.13-.69.17Z"></path><path class="cls-15" d="M151.33,46.43c.8.91.95.88,1.72,2.07-4.71,6.88-.06,20.24-2.07,30.34.02-.92,0-1.84,0-2.76-.02-3.05.23-7.03,0-9.83-.05-.55-1.03-.96-1.03-1.03-.35-3.44.11-7.75-1.38-10.86-1.41-2.94-3.15-2.04-3.45-2.59-.32-.6,1.87-11.01,2.07-12.93.12-1.15.26-2.29.34-3.45.19,4.74,1.12,2.65,1.38,3.28.11.26-.94,4.75-1.03,5.52-.04.32,1.46.09-1.03,5.86,3.41,2.93,3.55,2.17,4.48-3.62Z"></path><path class="cls-6" d="M113.75,143.32c-.91,2.14.07,2.76-1.03,2.07-2.79-.5-.93-1.14-2.41-2.59.13-.17,3.07-1.15,3.45.52Z"></path><g><path class="cls-17" d="M177.88,37.47c-.65,3.21-1.1,6.57-1.38,9.83-2.3,27.13-1.65,83.83-1.72,114.65-2.48,1.12-1.75,2.21.34,3.1-.04,11.97.03,23.89-.34,35.86-.07,2.3-.01,4.6,0,6.9,0,.59.51.64-.34,2.07q-55-2.93-110-5.86c-.96-2.17,1.65-41.34,1.72-47.41,5.96-.64-.96-2.12,0-4.48q3.45-53.1,6.9-106.2c.64-.47.03-1.49.86-1.9,1.27-.62,18.84-.71,22.24-1.03-1.7,12.02-1.42,5.57-6.03,6.21-6.15.85-1.53,8.42-1.55,8.97,0,.11-.92.37-1.03,1.9-1.1,14.71-2.37,31.92.69,46.38.34,1.62.88,3.25,1.38,4.83-2.48,1.09-.08,3.71,0,3.97,2.42,8.13,4.58,16.09,11.55,21.55,1.98,1.55,8.37,4.36,8.79,5.34.74,1.75-1.14,3.82,2.76,3.28,1.11.69.13.07,1.03-2.07.02-.04.58.14.69-.17.03-.08-1.02-1.17-.52-1.55,2.58-1.97,24.26.21,37.07-30.86,5.46-13.24,9.75-50.53,2.07-62.24-.78-1.19-.92-1.16-1.72-2.07-.66-.75-2.65-1.85-2.76-2.24-.23-.87.95-4.5,1.03-5.69,3.1-.66,6.35-.44,9.48-.69.15-.01.43-.66.86-.69.1,0,.61.11,2.07,0,2.66-.2,5.59-.26,8.28-.34,2.35-.07,2.62-.35,2.76-.34,5.22.01,4.47.9,4.83,1.03Z"></path><g><path class="cls-26" d="M67.71,178.84h1.03c2.79,3.67-3.95,3.65-1.03,0Z"></path><path class="cls-6" d="M67.71,185.05c3.99.99-.86,5.29-.86.52l.86-.52Z"></path><path class="cls-9" d="M135.3,183.32c1.78,1.59,1.26,3.32-1.03,3.1-1.75-4.1-.04-.72,1.03-3.1Z"></path><path class="cls-9" d="M168.05,127.46c1.59,1.89,1.52,3.49-1.03,3.1-1.55-3.73.4-.72,1.03-3.1Z"></path><path class="cls-6" d="M103.92,171.6c3.41,3.37-1.69,4.49-.86,1.9-1.6-1.45.81-.09.86-1.9Z"></path><path class="cls-6" d="M98.4,155.74c2.41.39.44,5.59-1.9.86,1.92.21,1.79-.88,1.9-.86Z"></path><path class="cls-8" d="M92.88,183.67c2.02,3.06-.15,4.81-1.9,1.21l1.9-1.21Z"></path><path class="cls-8" d="M143.23,172.98l1.55.86c-2.36,4.15-3.97-.69-1.55-.86Z"></path><path class="cls-6" d="M93.92,140.57l1.55,1.55c-1.84,1.03-.47,3.47-3.45-.34l1.9-1.21Z"></path><path class="cls-6" d="M82.54,134.36c2.11,2.51-.18,5.08-1.55,1.21l1.55-1.21Z"></path><path class="cls-6" d="M77.37,175.05c.49.32-.6,1.48,1.55,1.55l-1.21,1.9c-2.51-1.33-2.3-1.29-.34-3.45Z"></path><path class="cls-6" d="M145.3,132.29l1.9,1.21c-2.18,3.05-4.63.36-1.9-1.21Z"></path><path class="cls-6" d="M152.19,182.29c1.82,2.98.12,4.94-1.9,1.21l1.9-1.21Z"></path><path class="cls-6" d="M137.02,155.05l1.55,1.21c-1.55,3.29-4.25.6-1.55-1.21Z"></path><path class="cls-6" d="M151.85,116.77l1.55,1.21c.17,1.93-4.21,1.89-1.55-1.21Z"></path><path class="cls-9" d="M154.95,151.6c2.02,2.9.19,4.34-1.9.86l1.9-.86Z"></path><path class="cls-6" d="M112.88,175.74l1.21,1.9c-2.25,2.53-3.93.13-1.21-1.9Z"></path><path class="cls-9" d="M169.09,170.91l1.55,1.21c-1.67,2.89-4.35,1.1-1.55-1.21Z"></path><path class="cls-6" d="M141.85,165.05c2.78,3.52-2.06,3.4-1.21.86l1.21-.86Z"></path><path class="cls-5" d="M175.12,165.05c-2.1-.9-2.83-1.98-.34-3.1,0,.87.35,2.13.34,3.1Z"></path><path class="cls-10" d="M164.26,90.57l1.55.86c-1.13,2.74-4.32.78-1.55-.86Z"></path><path class="cls-20" d="M103.23,164.36c2.04,2.17-.04,4.47-1.21,1.55l1.21-1.55Z"></path><path class="cls-6" d="M79.09,162.98c1.55,2.7-.63,4.5-1.55,1.21l1.55-1.21Z"></path><path class="cls-6" d="M90.13,167.46c1.83,2.32.76,4.53-1.21,1.21l1.21-1.21Z"></path><path class="cls-6" d="M156.33,175.05c1.11-.17,1.65,4.25-.86,1.9l.86-1.9Z"></path><path class="cls-6" d="M113.92,170.91c.86,1.78,2.12,2.77-.86,2.24l.86-2.24Z"></path><path class="cls-24" d="M129.09,166.77c1.38,1.11-.42,2.69-.86.86l.86-.86Z"></path><path class="cls-23" d="M88.4,108.84c.57,2.33-.36,2.99-.17.17l.17-.17Z"></path></g></g><path class="cls-22" d="M147.19,38.84c-.2,1.93-2.39,12.33-2.07,12.93.29.54,2.04-.36,3.45,2.59-.65-.24-1.28.32-1.38.86-.81,4.35,5.21,40.82-13.45,63.96-3.26,4.05-8.83,9.01-13.79,10.69-24.33-13.6-29.76-48.37-23.45-73.45,2.85-2.42.34-4.23.34-4.48.07-2.87,1.58-6.11,2.07-8.97l7.59-.34c-.08,2.79-.65,5.63-.34,8.45,4.12,2.85,2.41-1.83,2.76-8.79,3.49-.98,7.12-1.01,10.69-1.38.73-.07,1.34-.28,2.07-.34,1.14-.11,2.31-.25,3.45-.34.7-.06,1.48-.3,2.07-.34,6.6-.54,13.39-.21,20-1.03Z"></path><path class="cls-25" d="M125.12,40.22c-1.14.09-2.3.24-3.45.34-.79-7.49-.76-15.61,1.38-22.93,1.78-6.09,8.47-17.98,15.86-12.07-13.35,6.84-15.38,20.95-13.79,34.65Z"></path><path class="cls-23" d="M96.5,56.43c-6.31,25.07-.88,59.85,23.45,73.45-13.55,4.59-23.01-7.75-26.9-19.31-.45-1.34-.53-3.5-1.38-4.83-.02-.11.02-.23,0-.34-.83-5.43-1.55-10.88-1.72-16.38-.1-3.28.6-28.07,1.03-29.48.31-1.03,3.09-2.08,4.14-2.76.13-.09,1.3-.27,1.38-.34Z"></path><g><path class="cls-21" d="M92.37,109.53c.2.34.25.89.69,1.03,3.89,11.56,13.34,23.9,26.9,19.31,4.96-1.68,10.53-6.64,13.79-10.69,1,2.71-6.03,8.13-8.62,10-.12.09.06.76-2.24,2.07-4.93,2.8-10.69,2.8-16.03,1.38-9.01-4.09-14.36-12.18-17.24-21.38-.5-1.58-1.04-3.21-1.38-4.83.31-2.84,2.16-1.67,3.1.17.08.16-.72.03,1.03,2.93Z"></path><path class="cls-30" d="M90.64,59.19v.69c-1.51.08-1.69,6.88-1.72,10,0,.6,1.04.18,1.03.52,0,.5-.69,3.65-.69,4.14-.06,10.26-.63,21.02,2.41,30.86.02.11-.02.23,0,.34.19,1.3.35,2.52.69,3.79-1.75-2.9-.95-2.78-1.03-2.93-.94-1.84-2.8-3.01-3.1-.17-3.06-14.46-1.79-31.67-.69-46.38.11-1.53,1.03-1.79,1.03-1.9.69.34,1.38.7,2.07,1.03Z"></path><path class="cls-19" d="M90.99,59.53c-.43,1.41-1.14,26.2-1.03,29.48.17,5.5.89,10.95,1.72,16.38-3.04-9.84-2.47-20.6-2.41-30.86,0-.48.68-3.64.69-4.14,0-.33-1.04.08-1.03-.52,1.84.52,1.14-5.83,1.72-10v-.69c.08.04.38-.07.34.34Z"></path><path class="cls-4" d="M106.85,132.64c5.34,1.42,11.11,1.42,16.03-1.38,2.31-1.31,2.12-1.98,2.24-2.07,15.27-7.51,24.48-33.77,25.52-49.65h.34c-.43,12-3.54,24.74-9.31,35.34-5.68,10.42-17.55,21.86-30.52,19.83-1.37-.21-3.14-1.54-4.31-2.07Z"></path><path class="cls-27" d="M150.99,78.84c0,.23,0,.46,0,.69h-.34c.11-1.76-.3-3.41.34-3.45,0,.92.02,1.84,0,2.76Z"></path><path class="cls-30" d="M148.57,54.36c1.49,3.11,1.03,7.42,1.38,10.86,0,.07.99.48,1.03,1.03.23,2.79-.02,6.78,0,9.83-.65.04-.23,1.68-.34,3.45-1.03,15.89-10.24,42.15-25.52,49.65,2.59-1.87,9.62-7.29,8.62-10,18.66-23.15,12.64-59.62,13.45-63.96.1-.54.73-1.1,1.38-.86Z"></path><path class="cls-1" d="M93.06,110.57c-.44-.14-.49-.7-.69-1.03-.34-1.27-.5-2.5-.69-3.79.85,1.33.93,3.49,1.38,4.83Z"></path><path class="cls-2" d="M90.64,59.88c-.59,4.17.11,10.52-1.72,10,.03-3.12.21-9.92,1.72-10Z"></path></g><g><path class="cls-15" d="M110.99,8.5c-8.31,8.57-10.15,23.25-12.07,34.48-.49,2.86-2,6.1-2.07,8.97-3.71-1.05.53,2.42-1.72,4.83-1.05.68-3.82,1.73-4.14,2.76.04-.42-.26-.3-.34-.34-.69-.34-1.38-.7-2.07-1.03.03-.54-4.6-8.12,1.55-8.97,4.62-.64,4.34,5.82,6.03-6.21.11-.01.23.02.34,0,.74-.1,1.42.05,2.07-.52,1.21-10.82,3.59-26.88,12.41-33.96Z"></path><path class="cls-7" d="M96.85,51.95c0,.25,2.51,2.06-.34,4.48-.08.07-1.24.26-1.38.34,2.26-2.41-1.99-5.88,1.72-4.83Z"></path><g><path class="cls-18" d="M90.47,49.88c6.1,1.49-1.62,11.81-2.24,2.24l2.24-2.24Z"></path><path class="cls-13" d="M89.78,51.6c2.23-.91,1.22,6.93-.86,1.55l.86-1.55Z"></path></g></g></g></g></g></svg>