<?xml version="1.0" encoding="UTF-8"?>
<!-- Uploaded to: SVG Repo, www.svgrepo.com, Generator: SVG Repo Mixer Tools -->
<svg xmlns="http://www.w3.org/2000/svg" xmlns:xlink="http://www.w3.org/1999/xlink" fill="#000000" height="800px" width="800px" version="1.1" id="Layer_1" viewBox="0 0 512.784 512.784" xml:space="preserve">
<g>
	<g>
		<path d="M379.932,54.392H132.868c-33.908,0-60.476,25.696-60.476,58.496v93.504c0,2.208,1.788,4,4,4s4-1.792,4-4v-93.504    c0-28.316,23.052-50.496,52.476-50.496h247.064c29.416,0,52.46,22.18,52.46,50.496v93.504c0,2.208,1.788,4,4,4    c2.212,0,4-1.792,4-4v-93.504C440.392,80.088,413.832,54.392,379.932,54.392z"></path>
	</g>
</g>
<g>
	<g>
		<path d="M47.892,194.272C21.484,194.272,0,215.76,0,242.168c0,26.408,21.484,47.896,47.892,47.896    c26.412,0,47.9-21.484,47.9-47.896C95.792,215.76,74.304,194.272,47.892,194.272z M47.892,282.068    C25.896,282.068,8,264.172,8,242.172s17.896-39.896,39.892-39.896c22,0,39.9,17.9,39.9,39.896    C87.792,264.168,69.892,282.068,47.892,282.068z"></path>
	</g>
</g>
<g>
	<g>
		<path d="M468.388,286.392c-2.212,0-4,1.792-4,4v125.532c0,10.92-10.248,22.468-19.936,22.468H70.516    c-10.208,0-18.124-12.076-18.124-22.468V290.392c0-2.208-1.788-4-4-4s-4,1.792-4,4v125.532c0,14.384,11.172,30.468,26.124,30.468    h373.94c15.476,0,27.936-16.668,27.932-30.468V290.392C472.388,288.184,470.6,286.392,468.388,286.392z"></path>
	</g>
</g>
<g>
	<g>
		<path d="M92.392,246.392c-2.212,0-4,1.792-4,4v192c0,2.208,1.788,4,4,4s4-1.792,4-4v-192    C96.392,248.184,94.604,246.392,92.392,246.392z"></path>
	</g>
</g>
<g>
	<g>
		<path d="M464.892,194.272c-26.412,0-47.9,21.488-47.9,47.896c0,26.408,21.488,47.896,47.9,47.896    c26.408,0,47.892-21.484,47.892-47.896C512.784,215.76,491.3,194.272,464.892,194.272z M464.892,282.068    c-22,0-39.9-17.896-39.9-39.896s17.9-39.896,39.9-39.896c21.996,0,39.892,17.9,39.892,39.896    C504.784,264.168,486.888,282.068,464.892,282.068z"></path>
	</g>
</g>
<g>
	<g>
		<path d="M74.228,238.168c-2.212,0-4,1.792-4,4c0,12.32-10.02,22.34-22.336,22.34c-12.312,0-22.328-10.02-22.328-22.34    c0-12.316,10.016-22.336,22.328-22.336c2.212,0,4-1.792,4-4s-1.788-4-4-4c-16.724,0-30.328,13.608-30.328,30.336    c0,16.728,13.604,30.34,30.328,30.34c16.728,0,30.336-13.612,30.336-30.34C78.228,239.96,76.44,238.168,74.228,238.168z"></path>
	</g>
</g>
<g>
	<g>
		<path d="M491.22,238.168c-2.212,0-4,1.792-4,4c0,12.32-10.016,22.34-22.328,22.34c-12.32,0-22.344-10.02-22.344-22.34    c0-12.316,10.024-22.336,22.344-22.336c2.212,0,4-1.792,4-4s-1.788-4-4-4c-16.732,0-30.344,13.608-30.344,30.336    c0,16.728,13.612,30.34,30.344,30.34c16.724,0,30.328-13.612,30.328-30.34C495.22,239.96,493.432,238.168,491.22,238.168z"></path>
	</g>
</g>
<g>
	<g>
		<path d="M420.392,242.392c-2.212,0-4,1.792-4,4v196c0,2.208,1.788,4,4,4c2.212,0,4-1.792,4-4v-196    C424.392,244.184,422.604,242.392,420.392,242.392z"></path>
	</g>
</g>
<g>
	<g>
		<path d="M420.392,286.392h-328c-2.212,0-4,1.792-4,4s1.788,4,4,4h328c2.212,0,4-1.792,4-4S422.604,286.392,420.392,286.392z"></path>
	</g>
</g>
<g>
	<g>
		<path d="M420.392,326.392h-28c-2.212,0-4,1.792-4,4s1.788,4,4,4h28c2.212,0,4-1.792,4-4S422.604,326.392,420.392,326.392z"></path>
	</g>
</g>
<g>
	<g>
		<path d="M356.392,326.392h-264c-2.212,0-4,1.792-4,4s1.788,4,4,4h264c2.212,0,4-1.792,4-4S358.604,326.392,356.392,326.392z"></path>
	</g>
</g>
<g>
	<g>
		<path d="M353.696,166.764c-2.212,0-4,1.792-4,4c0,5.128-4.176,9.3-9.304,9.3s-9.304-4.168-9.304-9.3    c0-5.132,4.176-9.304,9.304-9.304c2.212,0,4-1.792,4-4s-1.788-4-4-4c-9.544,0-17.304,7.764-17.304,17.304    c0,9.54,7.76,17.3,17.304,17.3s17.304-7.76,17.304-17.3C357.696,168.556,355.908,166.764,353.696,166.764z"></path>
	</g>
</g>
<g>
	<g>
		<path d="M198.04,137.052c-1.724-1.384-4.24-1.108-5.624,0.612l-8.18,10.176c-1.384,1.72-1.112,4.24,0.608,5.624    c0.744,0.596,1.624,0.884,2.504,0.884c1.172,0,2.332-0.512,3.12-1.496l8.18-10.176C200.032,140.956,199.76,138.436,198.04,137.052    z"></path>
	</g>
</g>
<g>
	<g>
		<path d="M198.648,198.848l-8.18-10.172c-1.38-1.724-3.904-2-5.624-0.612c-1.716,1.384-1.992,3.904-0.608,5.624l8.18,10.172    c0.788,0.984,1.948,1.496,3.12,1.496c0.88,0,1.764-0.288,2.504-0.884C199.756,203.088,200.032,200.568,198.648,198.848z"></path>
	</g>
</g>
<g>
	<g>
		<path d="M158.944,147.84l-8.18-10.176c-1.38-1.72-3.892-2-5.624-0.612c-1.716,1.384-1.992,3.904-0.608,5.624l8.18,10.176    c0.788,0.984,1.948,1.496,3.12,1.496c0.88,0,1.764-0.288,2.504-0.884C160.052,152.08,160.328,149.56,158.944,147.84z"></path>
	</g>
</g>
<g>
	<g>
		<path d="M158.336,188.064c-1.724-1.38-4.24-1.108-5.624,0.612l-8.18,10.172c-1.384,1.72-1.112,4.24,0.608,5.624    c0.744,0.596,1.624,0.884,2.504,0.884c1.172,0,2.332-0.512,3.12-1.496l8.18-10.172    C160.328,191.968,160.056,189.448,158.336,188.064z"></path>
	</g>
</g>
<g>
	<g>
		<path d="M184.236,166.764c-2.212,0-4,1.792-4,4c0,5.128-4.176,9.3-9.304,9.3c-5.128,0-9.304-4.168-9.304-9.3    c0-5.132,4.176-9.304,9.304-9.304c2.212,0,4-1.792,4-4s-1.788-4-4-4c-9.544,0-17.304,7.764-17.304,17.304    c0,9.54,7.76,17.3,17.304,17.3s17.304-7.76,17.304-17.3C188.236,168.556,186.448,166.764,184.236,166.764z"></path>
	</g>
</g>
<g>
	<g>
		<path d="M367.5,137.052c-1.728-1.384-4.24-1.108-5.624,0.612l-8.18,10.176c-1.384,1.72-1.112,4.24,0.608,5.624    c0.744,0.596,1.624,0.884,2.504,0.884c1.172,0,2.336-0.512,3.12-1.496l8.18-10.176C369.492,140.956,369.22,138.436,367.5,137.052z    "></path>
	</g>
</g>
<g>
	<g>
		<path d="M368.108,198.848l-8.18-10.172c-1.38-1.724-3.9-2-5.624-0.612c-1.716,1.384-1.992,3.904-0.608,5.624l8.18,10.172    c0.788,0.984,1.948,1.496,3.12,1.496c0.88,0,1.764-0.288,2.504-0.884C369.216,203.088,369.492,200.568,368.108,198.848z"></path>
	</g>
</g>
<g>
	<g>
		<path d="M328.404,147.84l-8.18-10.176c-1.38-1.72-3.892-2-5.624-0.612c-1.716,1.384-1.992,3.904-0.608,5.624l8.184,10.176    c0.788,0.984,1.948,1.496,3.12,1.496c0.876,0,1.76-0.288,2.5-0.884C329.512,152.08,329.788,149.56,328.404,147.84z"></path>
	</g>
</g>
<g>
	<g>
		<path d="M327.8,188.064c-1.728-1.38-4.24-1.108-5.624,0.612l-8.18,10.172c-1.384,1.72-1.112,4.24,0.608,5.624    c0.744,0.596,1.624,0.884,2.504,0.884c1.172,0,2.332-0.512,3.12-1.496l8.18-10.172C329.792,191.968,329.52,189.448,327.8,188.064z    "></path>
	</g>
</g>
<g>
	<g>
		<path d="M92.392,438.392h-16c-2.212,0-4,1.792-4,4v12c0,2.208,1.788,4,4,4h16c2.212,0,4-1.792,4-4v-12    C96.392,440.184,94.604,438.392,92.392,438.392z M88.392,450.392h-8v-4h8V450.392z"></path>
	</g>
</g>
<g>
	<g>
		<path d="M436.392,438.392h-16c-2.212,0-4,1.792-4,4v12c0,2.208,1.788,4,4,4h16c2.212,0,4-1.792,4-4v-12    C440.392,440.184,438.604,438.392,436.392,438.392z M432.392,450.392h-8v-4h8V450.392z"></path>
	</g>
</g>
<g>
	<g>
		<path d="M256.392,54.392c-2.212,0-4,1.792-4,4v232c0,2.208,1.788,4,4,4c2.212,0,4-1.792,4-4v-232    C260.392,56.184,258.604,54.392,256.392,54.392z"></path>
	</g>
</g>
</svg>
