<svg xmlns="http://www.w3.org/2000/svg" id="Capa_1" data-name="Capa 1" viewBox="0 0 800 800"><defs><style>      .cls-1 {        fill: #66a0b0;        stroke-width: 0px;      }    </style></defs><path class="cls-1" d="M37.5,712.5h175v-237.5H37.5v237.5ZM164.8,579.7c8.2,0,14.8,6.6,14.8,14.8s-6.6,14.8-14.8,14.8-14.8-6.7-14.8-14.9,6.6-14.8,14.8-14.8Z"></path><path class="cls-1" d="M250,787.5v-350H0v350h37.5v-37.5h175v37.5h37.5ZM37.5,725h-12.5v-262.5h200v262.5H37.5Z"></path><path class="cls-1" d="M300,712.5h175v-237.5h-175v237.5ZM439.8,579.7c8.2,0,14.8,6.6,14.8,14.8s-6.7,14.8-14.8,14.8-14.8-6.7-14.8-14.9,6.6-14.8,14.8-14.8Z"></path><path class="cls-1" d="M512.5,787.5v-350h-250v350h37.5v-37.5h175v37.5h37.5ZM300,725h-12.5v-262.5h200v262.5h-187.5Z"></path><rect class="cls-1" x="562.5" y="575" width="200" height="137.5"></rect><path class="cls-1" d="M750,425h-62.5c-6.9,0-12.5,5.6-12.5,12.5h-25c0-6.9-5.6-12.5-12.5-12.5h-62.5c-6.9,0-12.5,5.6-12.5,12.5h-37.5v350h37.5v-37.5h200v37.5h37.5v-350h-37.5c0-6.9-5.6-12.5-12.5-12.5ZM717.2,482c0,8.2-6.6,14.8-14.8,14.8s-14.8-6.6-14.8-14.8,6.6-14.8,14.8-14.8,14.8,6.7,14.8,14.8ZM750,525c3.5,0,6.2,2.8,6.2,6.2s-2.8,6.2-6.2,6.2h-175c-3.5,0-6.2-2.8-6.2-6.2s2.8-6.2,6.2-6.2h175ZM654.7,482c0,8.2-6.6,14.8-14.8,14.8s-14.8-6.6-14.8-14.8,6.6-14.8,14.8-14.8,14.8,6.7,14.8,14.8ZM577.4,467.2c8.2,0,14.8,6.6,14.8,14.8s-6.7,14.8-14.8,14.8-14.8-6.7-14.8-14.9c0-8.2,6.6-14.8,14.8-14.8ZM775,725h-225v-162.5h225v162.5h0ZM764.8,467.2c8.2,0,14.8,6.6,14.8,14.8s-6.7,14.8-14.8,14.8-14.8-6.7-14.8-14.9,6.6-14.8,14.8-14.8Z"></path><path class="cls-1" d="M712.5,175V12.5h-112.5v162.5h-37.5l-50,87.5h287.5l-50-87.5h-37.5ZM714.8,234.4c-8.2,0-14.8-6.6-14.8-14.8s6.6-14.8,14.8-14.8,14.8,6.6,14.8,14.8c0,8.2-6.7,14.8-14.8,14.8Z"></path><path class="cls-1" d="M325,387.5h50c6.9,0,12.5-5.6,12.5-12.5s-5.6-12.5-12.5-12.5h-62.5c-6.9,0-12.5,5.6-12.5,12.5v50h25v-37.5h0Z"></path><path class="cls-1" d="M200,425v-50c0-6.9-5.6-12.5-12.5-12.5h-62.5c-6.9,0-12.5,5.6-12.5,12.5s5.6,12.5,12.5,12.5h50v37.5h25Z"></path><path class="cls-1" d="M262.5,425v-75c6.9,0,12.5-5.6,12.5-12.5s-5.6-12.5-12.5-12.5v-25c0-6.9-5.6-12.5-12.5-12.5s-12.5,5.6-12.5,12.5v25c-6.9,0-12.5,5.6-12.5,12.5s5.6,12.5,12.5,12.5v75h25Z"></path><path class="cls-1" d="M462.5,162.5H197.1c17.1-14.5,27.9-36,27.9-60.2,0-43.6-35.3-78.9-78.9-78.9s-78.9,35.3-78.9,78.9,10.8,45.7,27.9,60.2H25v25h437.5v-25h0ZM93.8,102.4c0-28.9,23.5-52.4,52.4-52.4s52.4,23.5,52.4,52.4-23.5,52.4-52.4,52.4-52.4-23.5-52.4-52.4Z"></path><circle class="cls-1" cx="146.1" cy="102.4" r="39.8"></circle><path class="cls-1" d="M268.8,150h175c3.5,0,6.2-2.8,6.2-6.2s-2.8-6.2-6.2-6.2h-175c-3.4,0-6.2,2.8-6.2,6.2s2.8,6.2,6.2,6.2Z"></path><path class="cls-1" d="M281.2,125h150c3.5,0,6.2-2.8,6.2-6.2s-2.8-6.2-6.2-6.2h-150c-3.4,0-6.2,2.8-6.2,6.2s2.8,6.2,6.2,6.2Z"></path><path class="cls-1" d="M281.2,100h150c3.5,0,6.2-2.8,6.2-6.2s-2.8-6.2-6.2-6.2h-150c-3.4,0-6.2,2.8-6.2,6.2s2.8,6.2,6.2,6.2Z"></path><path class="cls-1" d="M314.4,75h77.6c11.8,0,19.3-16.8,19.3-28.9s-3.6-21.1-9.7-21.1h-96.7c-6.2,0-9.8,12.7-9.8,21.1,0,12.1,7.5,28.9,19.4,28.9Z"></path></svg>