<svg xmlns="http://www.w3.org/2000/svg" id="Layer_1" data-name="Layer 1" viewBox="0 0 256 256"><defs><style>      .cls-1 {        fill: #66a0b0;        stroke-width: 0px;      }    </style></defs><path class="cls-1" d="M129.2,81.3c-25.7,0-46.5,20.9-46.5,46.5s20.9,46.5,46.5,46.5,46.5-20.9,46.5-46.5-20.9-46.5-46.5-46.5ZM129.2,103.1c-13.6,0-24.7,11.1-24.7,24.7s-1.9,4.3-4.3,4.3-4.3-1.9-4.3-4.3c0-18.4,15-33.4,33.4-33.4s4.3,1.9,4.3,4.3-1.9,4.3-4.3,4.3Z"></path><path class="cls-1" d="M129.2,53.4h0c-41.1,0-74.4,33.3-74.4,74.4h0c0,41.1,33.3,74.4,74.4,74.4h0c41.1,0,74.4-33.3,74.4-74.4h0c0-41.1-33.3-74.4-74.4-74.4ZM129.2,183c-30.4,0-55.1-24.7-55.1-55.1s24.7-55.1,55.1-55.1,55.1,24.7,55.1,55.1-24.7,55.1-55.1,55.1Z"></path><path class="cls-1" d="M251.1,141.9h0l3.2,48c.3,6.7-5.1,12.4-11.8,12.4s-12.1-5.6-11.8-12.4l3.1-46.5c0-.8-.6-1.4-1.4-1.4h-3.1c-4.3,0-7.5-4-6.6-8.2l17.1-75.5c.6-2.6,2.9-4.5,5.6-4.5h0c3.2,0,5.7,2.6,5.7,5.7v82.5"></path><path class="cls-1" d="M45,88.7l-1.6-35.3h-7.3v36.4c0,2.4-1.9,4.3-4.3,4.3s-4.3-1.9-4.3-4.3v-36.4h-8.5v36.4c0,2.4-1.9,4.3-4.3,4.3s-4.3-1.9-4.3-4.3v-36.4H3.1l-1.6,35.3c-.2,5.3,1.7,10.5,5.4,14.4l8,8.4-3.5,78.4c-.3,6.8,5.1,12.4,11.9,12.4s12.2-5.7,11.9-12.4l-3.5-78.4,8-8.4c3.7-3.9,5.6-9.1,5.4-14.4Z"></path></svg>