<svg xmlns="http://www.w3.org/2000/svg" id="Layer_2" data-name="Layer 2" viewBox="0 0 230.36 246.86"><metadata></metadata><defs><style>      .cls-1 {        fill: #f2f1f0;      }      .cls-1, .cls-2, .cls-3, .cls-4, .cls-5, .cls-6, .cls-7, .cls-8, .cls-9, .cls-10, .cls-11, .cls-12, .cls-13, .cls-14, .cls-15, .cls-16 {        stroke-width: 0px;      }      .cls-2 {        fill: #834b31;      }      .cls-3 {        fill: #4e6e7d;      }      .cls-4 {        fill: #4e1713;      }      .cls-5 {        fill: #801c1b;      }      .cls-6 {        fill: #617481;      }      .cls-7 {        fill: #acbdc4;      }      .cls-8 {        fill: #b07953;      }      .cls-9 {        fill: #d9dbdc;      }      .cls-10 {        fill: #0a0909;      }      .cls-11 {        fill: #241e1e;      }      .cls-12 {        fill: #171c1e;      }      .cls-13 {        fill: #c4c6c1;      }      .cls-14 {        fill: #d9e7ed;      }      .cls-15 {        fill: #967e83;      }      .cls-16 {        fill: #94bcc8;      }    </style></defs><g id="Layer_1-2" data-name="Layer 1"><g><g><g><path class="cls-14" d="M190.3,27.93c-4.68,5.97-22.83,42.33-26.9,52.42-.5-.15-1.84-.12-2.41-.34-.01-.41-.7-.74-.69-.86.24-2.16,11.42-24.73,13.45-28.79,3.32-6.64,12.24-22.17,13.45-25.17l3.1,2.76Z"></path><path class="cls-14" d="M195.13,32.76c-1.33,1.81-9.57,17.06-11.72,21.04-5.01,9.24-9.68,18.6-14.14,28.1-.62.41-1.35-.05-2.41-.17,6.32-18.09,17.28-34.58,25.17-52.07l3.1,3.1Z"></path><path class="cls-11" d="M192.03,29.66c-7.89,17.49-18.85,33.98-25.17,52.07-2.52-.3-3.27-1.32-3.45-1.38,4.07-10.08,22.22-46.44,26.9-52.42,1.6-2.04.72.27,1.9,0,.61-.14,2.17-3.46-.17,1.72Z"></path><path class="cls-14" d="M184.44,25.17c-.99,1.27-11.39,19.27-13.1,22.41-1.38,2.53-2.83,5.02-4.14,7.59l-3.45-.69c6.24-12.87,12.95-22.9,17.24-31.73l3.45,2.41Z"></path><path class="cls-11" d="M187.2,25.17c-1.21,3-10.13,18.54-13.45,25.17-3.09,1.07-1.7-1.13-2.41-2.76,1.72-3.14,12.12-21.15,13.1-22.41,2.99-3.84,2.25-1.47,2.59-1.38.18.05,1.83-2.74.17,1.38Z"></path><path class="cls-11" d="M195.47,36.9c-.45,1.02-.91,2.09-1.38,3.1-2.48,5.34-5.53,10.46-7.93,15.86-1.86,1.79-2.06-.08-2.76-2.07,2.16-3.98,10.39-19.22,11.72-21.04,5.31-7.24,1.83.74.34,4.14Z"></path><path class="cls-10" d="M173.75,50.35c-2.03,4.07-13.21,26.64-13.45,28.79-.01.12.68.46.69.86-.62-.24-3.61-1.74-4.14-2.07,3.35-5.88,5.02-12.57,7.93-18.62.67-1.39,1.71-2.75,2.41-4.14,1.31-2.57,2.76-5.06,4.14-7.59.72,1.63-.68,3.83,2.41,2.76Z"></path><path class="cls-14" d="M164.78,59.31c-2.92,6.05-4.59,12.75-7.93,18.62-.91-.57-1.76-1.15-2.76-1.55,2.05-6.04,4.95-11.64,7.59-17.41l3.1.34Z"></path><path class="cls-16" d="M167.2,55.18c-.71,1.38-1.74,2.74-2.41,4.14l-3.1-.34c.7-1.53,1.33-2.96,2.07-4.48l3.45.69Z"></path></g><g><path class="cls-3" d="M53.74,28.97c.05.1-.06.47.69,2.07,5.49,11.75,11.02,23.45,16.55,35.17,10.4,22.04,20.35,44.3,31.38,66.04,1.07,2.89.85,7.78-.34,10.52-1.6-.41-10.01,3.78-11.9,4.83-.5.28-.47,1.01-.52,1.03-1.88,1.08-3.78,2.07-5.69,3.1-11.38-21.83-20.04-45.25-31.21-67.24-1.51-2.98-3.6-5.8-4.83-8.97.13-.88.35-1.47.34-1.55-.17-1.62-8.63-15.55-12.07-30.17-.21-.89-.52-1.9-.69-2.76-.02-.12-.21-1.58-.34-2.41-1.09-6.51-1.55-11.32-1.03-17.93.53-6.78,2.26-14.76,5.69-20.69,4.28,9.83,9.43,19.27,13.97,28.97Z"></path><g><g><path class="cls-10" d="M180.99,22.76c-4.29,8.83-11,18.85-17.24,31.73-.74,1.52-1.37,2.95-2.07,4.48-2.64,5.77-5.54,11.38-7.59,17.41,1,.4,1.85.98,2.76,1.55.53.33,3.52,1.83,4.14,2.07.57.22,1.92.19,2.41.34.18.05.93,1.08,3.45,1.38,1.06.13,1.8.59,2.41.17,4.46-9.51,9.13-18.87,14.14-28.1.7,1.99.9,3.86,2.76,2.07-1.49,3.35-2.78,6.6-4.14,10-1.35,3.37-2.56,6.59-3.79,10-1.97,5.45-7.45,24.6-9.66,27.76-2.37,3.4-14.84,10.33-15.86,11.38-.81.84-7.32,12.43-8.28,14.48-2.97,6.38-18.21,48.44-20,55.18-.13.5.13,1.37,0,1.9-.63,2.61-2.16,2.83-1.03,5.69.78,2,19.92,32.07,22.76,36.38,1.15,1.75-.48,2.85,5.52-1.03.04.06,1.01.63,1.03.69,5.95,12.06-6.51,24.1-17.07,15.86-2.15-1.68-5.42-7.45-6.38-10-.07-.19.58-.57.34-1.21-1.09-2.92-2.01-5.87-3.1-8.79-2.4-6.38-4.37-13.04-7.76-18.97-.33.08-.1.99-.17,1.03-.94.59-.67-1.09-2.07,2.24-.22.53-2.82,9.76-3.1,11.04-.04.18.62,1.2.34,2.59-.89,4.47-4.03,12.5-1.72,11.72,1.57-.18,1.31.33,1.38.34-1.8,17.4-22.6,12.5-19.66-2.41.11-.56,3.09-7.72,3.79-9.31.21-.47.46-.89.69-1.38,3.39-7.42,7.69-13.87,11.04-22.07.09-.22,2.15-3.05,2.07-4.31-.03-.44-2.39-4.44-2.76-5.35-.34-.82-.69-1.6-1.03-2.41-2.59-6.08-5.16-12.29-7.93-18.28,2.11-1.06,4.12-2.34,6.21-3.45,1.89-1,3.85-2.02,5.86-2.76.03.07.19.22.69,1.38l-4.31,2.41c-.61,1.09,7.8,14.84,8.45,17.41.78,1.48,2-2.27,3.1-4.66,4.65-10.05,22.78-55.48,23.79-63.97,1.25-10.44-6.04-13.64-5.17-24.14.42-5.09,11.86-24.74,15.17-30.17,1.76-2.9,3.7-5.75,5.52-8.62,4.91-7.76,11.01-16.85,16.21-24.48.23-.35.69-.88,1.03-1.38.49-.7,3.63-5.55,3.97-5.52.12.01.33,1.01.69,1.03.27.02,2.01-2.75.17,1.03Z"></path><path class="cls-1" d="M140.13,89.31l29.48,10.17c-2.1,6.18-14.3,10.67-17.59,14.14-1.95,2.05-9.06,15.22-10.86,19.14.19-5.8,5.97-19.78,5.35-23.97-.46-3.04-8.52-9.92-6.38-19.48Z"></path></g><path class="cls-2" d="M125.13,186.56c.07,2.12,2.94,4.93,3.45,5.86.05.09-.05.26,0,.34.02.04-.5-.16-.34.86,5.94,9.88,12.56,19.14,19.31,28.45.68.94,1.4,1.84,2.07,2.76.99,1.06-2.03,3.36-3.45,3.79-2.84-4.32-21.98-34.38-22.76-36.38-1.12-2.86.4-3.08,1.03-5.69.22.02.51-.05.69,0Z"></path><path class="cls-2" d="M119.61,178.97c-1.11,2.39-2.32,6.14-3.1,4.66-.65-2.58-9.06-16.32-8.45-17.41l4.31-2.41c2.21,5.13,4.06,10.54,7.24,15.17Z"></path><path class="cls-1" d="M111.68,162.42c-2.02.74-3.97,1.75-5.86,2.76l-3.1-4.83c2.04-1.7,4.26-3.03,6.21-4.83.94,2.01,2.21,4,3.1,6.03.18.4-.45.62-.34.86Z"></path><path class="cls-6" d="M105.81,165.18c-2.08,1.11-4.09,2.39-6.21,3.45-.53-1.15-1.17-2.27-1.72-3.45.82-1.32,3.54-3.76,4.83-4.83l3.1,4.83Z"></path><path class="cls-15" d="M118.57,206.22c-1.07,4.68-1.61,9.48-2.76,14.14-1.31-.12-.46,3.79-2.07,1.72.28-1.39-.39-2.4-.34-2.59.29-1.27,2.88-10.51,3.1-11.04,1.4-3.33,1.13-1.65,2.07-2.24Z"></path><path class="cls-8" d="M115.81,220.36c-.34,1.36-.66,2.8-1.03,4.14-.02.08-.57-.4-1.03,1.21-.76,2.62-.86,5.49-1.72,8.1-2.31.78.83-7.26,1.72-11.72,1.61,2.07.76-1.85,2.07-1.72Z"></path><path class="cls-4" d="M151.68,227.6c-6,3.88-4.37,2.78-5.52,1.03,1.42-.43,4.44-2.73,3.45-3.79.11.15-.03-.55,2.07,2.76Z"></path><path class="cls-4" d="M145.82,218.29c.4.39.55,1.2,1.38,1.03l.34,2.76c-6.75-9.31-13.37-18.57-19.31-28.45-.15-1.02.37-.82.34-.86,3.62,4.51,15.42,23.73,17.24,25.52Z"></path><path class="cls-12" d="M102.02,142.77c-1.39,3.2-8.43,4.75-8.62,6.03-.05.37,3.16,5.69,3.79,6.38-1.06.59-2.17,1.28-3.1,2.07-1.36-2.91-2.78-5.89-4.48-8.62.05-.03.02-.76.52-1.03,1.89-1.05,10.29-5.24,11.9-4.83Z"></path><path class="cls-1" d="M107.88,154.15c-3.72,2.79-3-1.98-4.66-2.07-.34-.02-5.26,2.68-6.03,3.1-.63-.69-3.85-6.01-3.79-6.38.19-1.28,7.23-2.83,8.62-6.03,1.94.5,4.92,9.46,5.86,11.38Z"></path><path class="cls-10" d="M107.88,154.15c.04.08.33-.13,1.03,1.38-1.94,1.8-4.16,3.13-6.21,4.83-1.29,1.07-4,3.51-4.83,4.83-1.24-2.65-2.55-5.27-3.79-7.93.93-.79,2.04-1.48,3.1-2.07.77-.43,5.7-3.12,6.03-3.1,1.65.09.93,4.86,4.66,2.07Z"></path></g></g></g><g><path class="cls-5" d="M35.47,41.04C-22.44,105.27,12.09,207.07,97.54,222.42c-.7,1.59-3.68,8.75-3.79,9.31-37.97-7.6-68.82-32.98-84.49-68.28C-1.39,139.48-2.81,113.1,4.77,87.94c5.19-17.21,17.47-36.69,30.35-49.31.14.84.32,2.29.34,2.41Z"></path><path class="cls-5" d="M225.48,151.04c-4.42,15.68-15.08,32.98-25.86,45.17-13.44,15.19-28.17,24.56-46.9,32.07-.03-.06-1-.63-1.03-.69-2.1-3.31-1.96-2.61-2.07-2.76-.67-.92-1.39-1.82-2.07-2.76l-.34-2.76c33.16-8.23,68.79-39.14,78.62-72.07.73.52-.08,2.86-.34,3.79Z"></path><path class="cls-5" d="M126.5,224.15c1.1,2.92,2.01,5.87,3.1,8.79.24.63-.42,1.01-.34,1.21-4.39-.36-12.48.48-15.86,0-.07,0,.19-.52-1.38-.34.87-2.61.97-5.48,1.72-8.1.46-1.6,1.01-1.13,1.03-1.21q5.86-.17,11.72-.34Z"></path><path class="cls-1" d="M229.96,125.87c-.51,6.01-2.4,15.56-4.14,21.38-9.84,32.94-45.46,63.84-78.62,72.07-.83.17-.98-.64-1.38-1.03,0-.24-.11-.54.17-.69.64-.35,11.08-3.39,13.79-4.48,34.26-13.79,63.9-46.65,67.42-84.31,2.86-30.61-4.84-71.56-33.11-88.8.47-1.01.93-2.08,1.38-3.1,27.39,17.67,37.06,58.47,34.48,88.97Z"></path><path class="cls-1" d="M176.16,26.21c-.35.5-.8,1.03-1.03,1.38C135.26.94,92.73,2.51,54.43,31.04c-.75-1.6-.64-1.97-.69-2.07C87.32,3.66,126.43-1.61,164.27,18.28c2.93,1.54,10.02,5.65,11.9,7.93Z"></path><path class="cls-7" d="M145.82,218.29c-1.82-1.79-13.62-21.01-17.24-25.52-.05-.09.05-.26,0-.34,1.26-.09,2.56-.53,3.79-.69,17.67-2.29,34.8-11.5,46.21-25.35.12-.14-.11-1.07,0-1.21,1.64-2.02,4.1-4.3,5.52-6.38,20.69-30.35,17.01-62.93-2.07-92.94,1.36-3.4,2.65-6.65,4.14-10,2.4-5.4,5.45-10.52,7.93-15.86,28.27,17.24,35.96,58.19,33.11,88.8-3.51,37.67-33.16,70.53-67.42,84.31-2.71,1.09-13.16,4.14-13.79,4.48-.28.15-.17.45-.17.69Z"></path><path class="cls-7" d="M47.88,75.52c-.06.43-2.02,4.9-2.07,5.17l-.17-.69c-10.22,16.82-10.31,40.58-5,59.14,7.67,26.83,31.55,48.68,59.14,53.28.37-.24-1.94-4.89-2.24-5.52,2.16-.03,4.17.86,6.21,1.38q2.76,5.35,5.52,10.69c-3.34,8.2-7.65,14.65-11.04,22.07-20.05-5.4-35.47-10.8-51.55-24.48C1.55,158.16-4.3,87.48,36.16,43.8c3.44,14.62,11.9,28.55,12.07,30.17,0,.09-.22.67-.34,1.55Z"></path><path class="cls-7" d="M175.13,27.59c-5.2,7.64-11.29,16.73-16.21,24.48-29.66-16.87-64.16-14.69-91.04,6.38.27,2.24,2.78,4.85,3.1,6.72.06.33-.03.7,0,1.03-5.53-11.73-11.06-23.42-16.55-35.17C92.73,2.51,135.26.94,175.13,27.59Z"></path><g><path class="cls-13" d="M178.58,160.01s-.44-.5-.86,0c-11.05,12.97-26.98,23.28-43.97,26.21-1.85.32-6.96.79-8.62.34-.18-.05-.47.02-.69,0,.13-.53-.13-1.39,0-1.9,1.79-6.74,17.03-48.79,20-55.18.96-2.05,7.46-13.65,8.28-14.48,1.02-1.05,13.49-7.98,15.86-11.38,2.2-3.16,7.68-22.31,9.66-27.76,8.93,17.1,14.52,32.18,12.41,51.9-.98,9.15-6.16,25.07-12.07,32.24Z"></path><path class="cls-13" d="M52.71,84.49c11.17,21.99,19.83,45.42,31.21,67.24,1.91-1.03,3.81-2.02,5.69-3.1,1.7,2.73,3.12,5.71,4.48,8.62,1.24,2.66,2.55,5.28,3.79,7.93.55,1.18,1.19,2.3,1.72,3.45,2.77,5.99,5.34,12.2,7.93,18.28-3.04-.37-7.5-.9-10.35-1.72-8.94-2.6-20.8-9.6-27.76-15.86-18.34-16.49-24.74-38.04-22.24-62.24.68-6.55,2.88-13.02,4.14-19.48.32-1.67.75-4.08,1.38-3.1Z"></path></g><path class="cls-1" d="M36.16,43.8C-4.3,87.48,1.55,158.16,46.67,196.56c16.08,13.69,31.51,19.08,51.55,24.48-.22.49-.48.91-.69,1.38C12.09,207.07-22.44,105.27,35.47,41.04c.17.86.48,1.87.69,2.76Z"></path><path class="cls-7" d="M126.5,224.15q-5.86.17-11.72.34c.37-1.34.7-2.78,1.03-4.14,1.15-4.66,1.69-9.46,2.76-14.14.07-.05-.16-.95.17-1.03,3.39,5.93,5.36,12.59,7.76,18.97Z"></path><path class="cls-3" d="M108.57,189.32c.37.91,2.73,4.91,2.76,5.35.08,1.26-1.98,4.09-2.07,4.31q-2.76-5.35-5.52-10.69c1.58.4,3.23.74,4.83,1.03Z"></path><path class="cls-1" d="M107.54,186.91c.35.81.7,1.59,1.03,2.41-1.6-.29-3.25-.63-4.83-1.03-2.04-.52-4.05-1.4-6.21-1.38-.05-.11-1.01.67-.34-1.72,2.84.83,7.31,1.35,10.35,1.72Z"></path><g><path class="cls-3" d="M178.58,165.18v-5.17c5.91-7.17,11.09-23.09,12.07-32.24,2.11-19.72-3.48-34.8-12.41-51.9,1.23-3.41,2.45-6.63,3.79-10,19.08,30,22.76,62.58,2.07,92.94-1.42,2.08-3.88,4.36-5.52,6.38Z"></path><g><path class="cls-6" d="M158.92,52.07c-1.82,2.87-3.75,5.72-5.52,8.62-27.64-16.3-56.58-13.95-82.42,4.48-.32-1.87-2.83-4.49-3.1-6.72,26.88-21.07,61.38-23.25,91.04-6.38Z"></path><path class="cls-3" d="M52.71,84.49c-.63-.98-1.05,1.43-1.38,3.1-4.28,6.1-6.86.7-5.52-6.9.05-.27,2.01-4.74,2.07-5.17,1.23,3.16,3.32,5.99,4.83,8.97Z"></path></g></g><g><path class="cls-9" d="M178.58,160.01v5.17c-.11.14.12,1.06,0,1.21-11.41,13.84-28.54,23.06-46.21,25.35q.69-2.76,1.38-5.52c16.98-2.92,32.92-13.24,43.97-26.21.43-.5.83.03.86,0Z"></path><path class="cls-1" d="M133.75,186.22q-.69,2.76-1.38,5.52c-1.23.16-2.53.6-3.79.69-.51-.94-3.37-3.75-3.45-5.86,1.66.44,6.77-.03,8.62-.34Z"></path></g><path class="cls-1" d="M45.81,80.69c-1.34,7.6,1.24,13,5.52,6.9-1.26,6.46-3.46,12.94-4.14,19.48-2.5,24.21,3.9,45.75,22.24,62.24,6.96,6.26,18.82,13.27,27.76,15.86-.66,2.4.29,1.62.34,1.72.3.63,2.61,5.28,2.24,5.52-27.59-4.6-51.47-26.45-59.14-53.28-5.31-18.56-5.22-42.32,5-59.14l.17.69Z"></path></g></g></g></svg>