<svg xmlns="http://www.w3.org/2000/svg" id="Layer_2" data-name="Layer 2" viewBox="0 0 499.31 541.1"><defs><style>      .cls-1 {        fill: #76b1c4;      }      .cls-1, .cls-2 {        stroke-width: 0px;      }      .cls-2 {        fill: #fff;      }    </style></defs><g id="Layer_1-2" data-name="Layer 1"><path class="cls-1" d="M499.09,437.72c0,7.28.02,13.62.06,19.01.06,8.89-.21,15.21-.81,18.96-1.89,11.71-5.81,21.93-11.78,30.66-12.3,17.99-31.82,31.06-53.65,34.08-3.21.45-8.34.67-15.37.67-118.02-.02-230.4-.03-337.14-.04-8.45,0-14.86-.46-19.21-1.39-6.82-1.45-13.22-3.83-19.21-7.14-16.48-9.12-28.4-22.3-35.75-39.54-3.99-9.33-6.01-19.09-6.07-29.26C0,440.06-.03,316.05.03,91.72c0-7.93.06-13.74.17-17.44.33-11.6,4.17-23.77,10.12-34.24C22.21,19.11,40.52,6.15,65.24,1.17,69.14.38,75.56,0,84.5,0c54.25.04,165.75.05,334.5.02,13.24,0,24.81,2.18,34.7,6.55,6.21,2.74,11.92,6.18,17.11,10.33,16.5,13.18,27.45,34.35,28.18,55.83.24,6.95.35,17.87.32,32.74-.07,34.2-.14,144.95-.22,332.25Z"></path><path class="cls-2" d="M338.05,517.13c-82.79,0-166.81-.01-252.06-.05-6.58,0-12.42-.26-17.51-.77-5.95-.59-12.17-3.02-18.66-7.28-12.41-8.15-19.93-19.89-22.56-35.22-.54-3.16-.81-8.02-.8-14.59.07-161.72.09-288.55.07-380.5,0-12.17,3.21-22.85,9.66-32.04,7.97-11.37,18.82-18.54,32.54-21.53,2.23-.49,6.74-.72,13.51-.7,34.16.11,135.41.12,303.75.03,8.84,0,17.68.01,26.51.06,9.48.04,16.12.46,19.93,1.26,13.21,2.78,23.78,10.12,31.72,22.01,4.21,6.31,6.77,13.28,7.7,20.91.39,3.24.57,10.91.54,23-.19,71.07-.21,191.73-.06,362,0,4.68-.07,9.19-.2,13.52-.18,5.5-.76,9.94-1.73,13.33-5.05,17.55-18.74,31.1-36.32,34.99-6.41,1.41-13.26,1.38-20.34,1.41-20.87.1-46.1.15-75.69.16Z"></path><path class="cls-1" d="M228.89,270.05c-.11.23-.17.53-.18.92-.18,12-.28,24-.29,36-.03,46.35-.05,92.65-.05,138.9,0,.34-.27.61-.61.61,0,0,0,0-.01,0-25.07-.09-41.41-.1-49.01-.03-2.89.03-5.78-.07-8.67-.3-.33-.03-.5-.21-.5-.55,0-141.67-.06-256.22-.16-343.63,0-1.26.09-3.01.26-5.24.05-.6.54-1.06,1.14-1.06,40.87-.05,83.19.05,126.98.29,15.85.08,30.97,5.1,45.38,15.05,16.46,11.36,28.33,30.23,31.79,50.58,2.87,16.87,1.86,33.15-3.04,48.85-9.62,30.82-38.61,53.86-70.42,58.39-3.77.53-9.28.8-16.53.81-8.79.01-27.23-.02-55.3-.09-.34,0-.64.2-.78.5Z"></path><path class="cls-2" d="M228.3,140.99c0-.75.59-1.35,1.34-1.36h0l51.69-.27c22.57-.12,40.97,18.13,41.09,40.76l.02,2.24c.12,22.63-18.08,41.08-40.66,41.2,0,0,0,0-.01,0l-51.69.27c-.75,0-1.35-.59-1.36-1.34h0s-.42-81.5-.42-81.5Z"></path></g></svg>