<svg xmlns="http://www.w3.org/2000/svg" id="Layer_2" data-name="Layer 2" viewBox="0 0 348.45 539.33"><defs><style>      .cls-1 {        fill: #ff2b21;      }      .cls-1, .cls-2, .cls-3, .cls-4, .cls-5 {        stroke-width: 0px;      }      .cls-2 {        fill: #fbfcfc;      }      .cls-6 {        stroke: #ff7211;      }      .cls-6, .cls-7, .cls-8, .cls-9, .cls-10, .cls-11 {        fill: none;        stroke-width: 2px;      }      .cls-3 {        fill: #ffb800;      }      .cls-7 {        stroke: #116bab;      }      .cls-8 {        stroke: #81aa6e;      }      .cls-9 {        stroke: #8f793d;      }      .cls-4 {        fill: #1f3a7a;      }      .cls-10 {        stroke: #8f334e;      }      .cls-11 {        stroke: #81647e;      }      .cls-5 {        fill: #029cdb;      }    </style></defs><g id="Layer_1-2" data-name="Layer 1"><g><path class="cls-9" d="M244.55,192.64c-.42-.23-1.21-.2-2.36.09"></path><path class="cls-7" d="M244.84,234.74c1.28,3.27,3.15,6.87,5.62,10.78.45.7.95,1,1.5.9"></path><path class="cls-11" d="M276.36,291.41c-1.5,3.61-3.51,7.4-6.03,11.35-7.39,11.57-13.44,20.9-18.15,27.97"></path><path class="cls-11" d="M178.22,207.27c-.39-21-.51-41.76-.36-62.28,0-1.03.11-3.49.3-7.37.12-2.39.14-4.85.05-7.39"></path><path class="cls-10" d="M336.23,404.33l-40.44.47"></path><path class="cls-9" d="M120.07,404.22c.02.29-.16.44-.54.45-13.64.23-28.96.26-45.95.08"></path><path class="cls-6" d="M73.58,404.75l-24.74-44.84c-.17-.32-.17-.71.02-1.03.25-.4.1-.71-.44-.94"></path><path class="cls-9" d="M254.57,404.69l-45.93.06"></path><path class="cls-10" d="M73.58,404.75l-49.4-.24"></path><path class="cls-7" d="M168.52,404.25l-.2.28c-.17.27-.42.4-.74.4-18.17.18-33.48.15-45.93-.08-.51,0-1.03-.22-1.58-.63"></path><path class="cls-8" d="M120.07,404.22l-50.1-85.23"></path><path class="cls-7" d="M102.71,218.6l-3.82.37"></path></g><path class="cls-1" d="M177.96,40.91c-2.37.61-5.43,1.58-9.18,2.9-1.36.47-2.16,0-2.4-1.41-.31-1.79-.52-3.84-.63-6.16-.24-4.82-5.77-11.25-9-15.43-.39-.5-.66-.98-.82-1.45-.22-.62.06-1.32.66-1.61,1.79-.88,4.51-2.17,8.14-3.86,5.8-2.69,9.6-8.17,13.41-13.38.4-.55,1.17-.67,1.72-.27.1.07.19.16.27.26,4.05,5.42,6.4,9.71,12.11,12.39,5.22,2.45,8.43,3.94,9.63,4.49.76.34,1.1,1.23.76,1.98-.03.07-.07.14-.11.2-1.45,2.27-3.4,5.03-5.84,8.28-1.8,2.39-3.32,4.89-3.54,8.31-.11,1.71-.31,3.76-.6,6.14-.15,1.28-.84,1.71-2.06,1.3-1.23-.42-3.51-1.24-6.84-2.46-1.79-.66-3.68-.73-5.68-.22Z"></path><path class="cls-3" d="M244.55,192.64c-.42-.23-1.21-.2-2.36.09-.18-.23-1.21-.23-3.1.02-.72.1-1.38-.41-1.48-1.13,0-.05-.01-.1-.01-.15-.03-1.17.27-2.43.9-3.8,1.17-2.56,1.96-4.68,2.37-6.37.19-.77-.06-1.34-.77-1.69-2.11-1.07-4.79-2.07-6.58-3.22-7.87-5.08-14.97-11.69-21.3-19.83-8.53-10.97-15.05-21.96-19.58-32.97-3.61-8.77-5.6-17.6-5.99-26.5s1.02-17.58,4.21-26.03c6.09-16.13,16.5-28.13,31.24-36.01,12.38-6.63,27.48-6.89,40.95-2.84,7.44,2.23,14.08,6.08,19.91,11.57,13.77,12.95,21.36,28.52,22.76,46.7.75,9.87-.54,19.89-3.88,30.06-6.23,18.93-17.14,34.93-32.73,47.99-5.41,4.53-11.48,8.06-18.23,10.59-.63.23-.84.67-.61,1.31,1.14,3.2,2.56,6.36,4.25,9.48.54.99.28,1.7-.77,2.13-2.8,1.13-5.87,1.33-9.2.6Z"></path><path class="cls-5" d="M102.71,218.6l-3.82.37-7.41-2.03c-.37-.1-.59-.48-.49-.84,0-.03.02-.06.03-.09,1.28-3.17,2.92-6.71,4.92-10.6.51-1.01.24-1.69-.83-2.05-6.81-2.31-13.07-5.97-18.78-10.96-15.96-13.95-28.06-31.37-34.44-51.59-5.39-17.1-4.98-33.45,1.24-49.04,11.19-28.06,39.1-44.97,69.19-39.31,21.45,4.03,36.81,20.08,43.91,40.16,2.03,5.72,3.23,12.24,3.61,19.55.77,14.7-1.99,28.8-8.29,42.29-6.45,13.82-14.95,26.05-25.62,35.78-6.17,5.63-13.48,10.04-21.94,13.23-.33.13-.5.51-.37.84,0,.02.01.03.02.05l5.49,11.41c.32.66.04,1.46-.63,1.78-.11.05-.23.09-.35.11l-5.44.94Z"></path><path class="cls-2" d="M213.62,90.68c.17,10.44,2.25,20.07,6.24,28.9.99,2.17.28,3.79-2.13,4.86-.05.03-.27.05-.66.08-2.61.19-4.6-.83-5.97-3.06-1.44-2.35-2.75-5.22-3.94-8.6-6.25-17.75-5.01-35.51,3.73-53.27,1.32-2.69,3.26-3.77,5.82-3.22.1.02.16.03.17.03,2.58.72,3.44,2.17,2.58,4.35-4.05,10.19-6,20.17-5.84,29.93Z"></path><path class="cls-2" d="M71.11,85.79c-5.23,13.67-6.13,27.92-2.71,42.73.82,3.55,1.9,7.32,3.23,11.3.24.69.08,1.46-.41,2-1.39,1.54-3.96,2.98-5.94,1.57-3.95-2.83-5.56-9.27-6.94-14.13-4.39-15.47-2.99-30.5,4.22-45.07,1.87-3.77,4.01-7.43,7.71-8.31,1.05-.25,2,.08,2.85.98,2.09,2.21-1.13,6.64-2.01,8.93Z"></path><path class="cls-5" d="M244.84,234.74c1.28,3.27,3.15,6.87,5.62,10.78.45.7.95,1,1.5.9.05.45.12,1.1.35,1.52,7.97,14.49,15.98,28.98,24.05,43.47-1.5,3.61-3.51,7.4-6.03,11.35-7.39,11.57-13.44,20.9-18.15,27.97-.72-.78-1.13-1.26-1.23-1.44-20.65-34.77-41.48-69.45-62.48-104.02-3.78-6.21-7.2-12.21-10.25-18-.39-21-.51-41.76-.36-62.28,0-1.03.11-3.49.3-7.37.12-2.39.14-4.85.05-7.39.01-.65.43-1.13,1.25-1.44.33-.12.66-.1.97.05,3.04,1.44,5.52,5.25,7.68,8.57,10.36,15.85,18.72,30.53,32.53,54.42,8.1,14,16.17,28.3,24.2,42.91Z"></path><path class="cls-1" d="M178.21,130.23c.09,2.54.07,5-.05,7.39-.19,3.88-.29,6.34-.3,7.37-.15,20.52-.03,41.28.36,62.28l-23.72-37.69c-.19-.31-.2-.63-.01-.94.69-1.18,1.64-2.14,2.36-3.36,5.35-9.15,10.72-18.28,16.11-27.39.75-1.28,2.5-3.83,5.25-7.66Z"></path><path class="cls-1" d="M.19,207.85c-.28-.37-.25-.88.08-1.2,4.4-4.36,7.52-8.77,9.36-13.22.31-.74,1.17-1.1,1.91-.79.1.04.19.09.28.16,3.2,2.29,4.98,3.78,9.02,4.48,2.12.37,3.7.67,4.75.9.85.19,1.39,1.03,1.2,1.89-.02.09-.05.19-.09.27-1.65,3.85-1.7,7.87-.15,12.06.32.88-.13,1.86-1.01,2.18-.09.03-.19.06-.28.08-4.21.77-7.99,2.65-11.33,5.64-.59.53-1.49.48-2.02-.11-.06-.06-.11-.13-.15-.2-2.55-4.07-5.83-7.46-9.84-10.17-.57-.39-1.36-1.48-1.73-1.97Z"></path><path class="cls-4" d="M244.55,192.64c.52,7.12,1.34,14.06,2.47,20.81,1.57,9.37,3.22,18.73,4.96,28.06.21,1.14.21,2.78-.02,4.91-.55.1-1.05-.2-1.5-.9-2.47-3.91-4.34-7.51-5.62-10.78-2.4-14.33-3.28-28.33-2.65-42.01,1.15-.29,1.94-.32,2.36-.09Z"></path><path class="cls-5" d="M283.43,216.41c2.59-3.53,2.25-7.74,2.68-12.71.13-1.55.33-2.73.58-3.54.32-1.04.99-1.37,2.01-.98,2.69,1.04,5.99,2.45,9.88,4.23,1.73.79,3.85.84,6.35.15,4.45-1.24,7.29-2,8.53-2.27,2.19-.48,3.23.4,3.1,2.65-.12,2.09-.23,4.85-.32,8.26-.05,1.82.82,4.05,1.9,5.71,2.27,3.49,4.05,6.48,5.35,8.99.31.6.08,1.34-.53,1.65-.03.01-.06.03-.08.04-3.2,1.37-6.77,2.78-10.71,4.23-2.15.79-4.3,2.99-5.99,5.04-1.9,2.32-3.79,4.36-5.68,6.12-.48.45-1.24.42-1.7-.06-.02-.02-.03-.03-.04-.05-2.16-2.63-4.65-5.9-7.47-9.8-.69-.96-2.6-2.35-3.76-2.76-3.39-1.2-7.22-2.14-10.31-4.08-.59-.36-.77-1.13-.41-1.73.02-.03.04-.06.06-.08,1.71-2.37,3.89-5.38,6.56-9.01Z"></path><path class="cls-3" d="M254.57,404.69l-45.93.06c-.59-.92-1.2-1.78-1.85-2.59-.81-1.02-1.43-1.87-1.85-2.55-6.63-10.87-13.15-21.81-19.55-32.84-3.97-6.83-7.36-12.58-10.16-17.23-.3-.5-9.02-14.99-26.16-43.46-12.09-20.1-24.05-40.26-35.86-60.48-.35-.61-.37-1.36-.04-1.98,11.12-20.67,17.37-32.28,18.75-34.85,1.06-1.96,1.56-3.41,2.37-5.18.57-1.26,1.21-1.29,1.92-.1,23.6,39.86,39.29,66.32,47.08,79.37,6.59,11.05,26.58,44.68,59.96,100.87,4.97,8.36,8.74,15.35,11.32,20.96Z"></path><path class="cls-4" d="M102.71,218.6c-.99,13.09-2.22,26.08-3.71,38.95-.41,3.6-1.05,6.29-1.91,8.06-.91,1.88-2.18,4.35-3.79,7.42-.72,1.36-1.02,1.28-.9-.25.12-1.64.4-3.72.84-6.23.33-1.92.61-4,.83-6.23,1.88-19.45,2.62-29.73,4.82-41.35l3.82-.37Z"></path><path class="cls-3" d="M64.13,274.24c.07.23.52,2.08,1.33,5.54.44,1.85-.28,2.95-2.15,3.3-5.06.94-9.11,1.09-12.67,3.98-2.41,1.97-4.31,3.44-5.69,4.43-1.33.94-2.41.71-3.25-.68-2.46-4.1-4.69-8.09-7.86-11.25-2.45-2.44-6.63-4.92-9.18-7.02-.93-.77-1.06-2.14-.3-3.07,0-.01.02-.02.03-.03,1.68-1.97,3.44-3.85,5.27-5.66,2.45-2.39,4.14-4.32,5.07-5.78,1.74-2.72,3.14-5.48,4.19-8.28.23-.61.87-1.6,1.22-2.16.45-.71,1.38-.93,2.1-.48.01,0,.03.02.04.03,4.08,2.76,7.65,6.85,13.57,8.02.66.13,3.64.67,8.93,1.63.93.17,1.63.95,1.7,1.89.05.77-.09,1.8-.42,3.07-.41,1.61-1.01,3.93-1.79,6.97-.56,2.2-.61,4.05-.14,5.55Z"></path><path class="cls-5" d="M168.52,404.25l-.2.28c-.17.27-.42.4-.74.4-18.17.18-33.48.15-45.93-.08-.51,0-1.03-.22-1.58-.63l-50.1-85.23,21.88-42.48c.1-.2.34-.28.54-.18.07.03.12.09.16.15,1.17,1.83,2.7,3.72,3.76,5.51,26.87,45.29,50.79,85.51,71.74,120.68.23.39.39.92.47,1.58Z"></path><path class="cls-1" d="M320.99,294.64c1.12-3.13.86-5.55.48-9.25-.07-.76.47-1.43,1.22-1.52,2.89-.33,7.22-.12,10.39-1.35.87-.33,2.74-1.31,5.59-2.94.59-.33,1.34-.12,1.68.48.03.05.05.1.07.15,1.33,3.4,2.01,7.11,4.18,10.29.59.87,1.84,2.65,3.75,5.34.18.25.12.6-.13.77,0,0-.01.01-.02.02-3.76,2.38-7.87,5.95-12.34,10.71-1.12,1.2-2.28,1.23-3.47.1-2.23-2.11-4.4-4.39-7.29-5.34-1.17-.39-2.72-.82-4.64-1.29-.85-.2-1.37-1.06-1.16-1.92.02-.08.04-.15.07-.22.95-2.33,1.49-3.67,1.62-4.03Z"></path><path class="cls-1" d="M276.36,291.41l61.67,110.8c.32.57.24,1.08-.25,1.51-.79.71-1.31.91-1.55.61l-40.44.47c-13.81-22.82-27.52-45.81-41.13-68.98-1.21-2.05-2.03-3.74-2.48-5.09,4.71-7.07,10.76-16.4,18.15-27.97,2.52-3.95,4.53-7.74,6.03-11.35Z"></path><path class="cls-3" d="M69.97,318.99l50.1,85.23c.02.29-.16.44-.54.45-13.64.23-28.96.26-45.95.08l-24.74-44.84c-.17-.32-.17-.71.02-1.03.25-.4.1-.71-.44-.94l21.55-38.95Z"></path><path class="cls-1" d="M48.42,357.94c.54.23.69.54.44.94-.19.32-.19.71-.02,1.03l24.74,44.84-49.4-.24c-.47.24-.83.15-1.1-.28-.18-.29-.19-.59-.02-.89l25.36-45.4Z"></path><path class="cls-4" d="M336.23,404.33l-130.87,74.03c-.39.22-.61.65-.56,1.1l6.52,59.73s-.03.08-.07.09c0,0,0,0-.01,0-21.82-.31-42.22-.3-61.21.05-.37,0-.53-.17-.49-.53l6.28-59c.07-.64-.25-1.27-.81-1.59L24.18,404.51l49.4.24c16.99.18,32.31.15,45.95-.08.38,0,.56-.16.54-.45.55.41,1.07.62,1.58.63,12.45.23,27.76.26,45.93.08.32,0,.57-.13.74-.4l.2-.28c.19.3.53.45,1.01.46,12.91.23,25.95.24,39.11.04l45.93-.06,41.22.11,40.44-.47Z"></path></g></svg>