<svg xmlns="http://www.w3.org/2000/svg" id="Layer_2" data-name="Layer 2" viewBox="0 0 723 706.04"><defs><style>      .cls-1 {        fill: #76b1c4;        stroke-width: 0px;      }    </style></defs><g id="Layer_1-2" data-name="Layer 1"><path class="cls-1" d="M373.05,5.63c0,1.43-1.16,2.59-2.59,2.59h-.77c-1.43,0-2.59-1.17-2.59-2.6h0s0-1.48,0-1.48c0-1.43,1.16-2.59,2.59-2.59h.77c1.43,0,2.59,1.17,2.59,2.6h0s0,1.48,0,1.48Z"></path><path class="cls-1" d="M349.96,4.01c0,1.75-1.42,3.17-3.17,3.17-1.75,0-3.17-1.42-3.17-3.17s1.42-3.17,3.17-3.17c1.75,0,3.17,1.42,3.17,3.17Z"></path><path class="cls-1" d="M390.79,6.88c0,1.69-1.37,3.07-3.07,3.07h0c-1.69,0-3.07-1.37-3.07-3.07h0c0-1.69,1.37-3.07,3.07-3.07h0c1.69,0,3.07,1.37,3.07,3.07h0Z"></path><path class="cls-1" d="M326.81,3.7l.21,2.09c.1,1.03-.63,1.96-1.65,2.1l-1.15.17c-.77.11-1.53-.26-1.93-.92l-1.08-1.84c-.55-.91-.25-2.1.66-2.65.19-.11.39-.19.6-.23l2.03-.41c1.04-.21,2.06.47,2.27,1.51.01.06.02.12.03.18Z"></path><path class="cls-1" d="M370.64.2c.06-.16.23-.24.39-.18,0,0,.01,0,.02,0,.29.11.52.37.69.75.16.35.05.69-.32,1.02-.22.2-.56.19-.77-.03-.03-.03-.06-.07-.08-.11-.18-.34-.15-.83.07-1.45Z"></path><path class="cls-1" d="M302.97,10.87c-1.58.7-3.48-.13-4.25-1.86-.77-1.73-.1-3.7,1.48-4.4h0c1.58-.7,3.48.13,4.25,1.86h0c.77,1.73.1,3.7-1.48,4.4t0,0Z"></path><path class="cls-1" d="M414.27,9.92c0,1.8-1.46,3.25-3.25,3.25-1.8,0-3.25-1.46-3.25-3.25s1.46-3.25,3.25-3.25c1.8,0,3.25,1.46,3.25,3.25Z"></path><path class="cls-1" d="M286.51,15.98c-1.41.78-3.24.17-4.09-1.36h0c-.85-1.53-.39-3.41,1.02-4.19,0,0,0,0,0,0,1.41-.78,3.24-.17,4.09,1.36h0c.85,1.53.39,3.41-1.02,4.19,0,0,0,0,0,0Z"></path><path class="cls-1" d="M437.16,14.65c0,1.67-1.35,3.03-3.03,3.03h0c-1.67,0-3.03-1.35-3.03-3.03h0c0-1.67,1.35-3.03,3.03-3.03h0c1.67,0,3.03,1.35,3.03,3.03h0Z"></path><path class="cls-1" d="M265.91,18.95c0,1.81-1.47,3.28-3.28,3.28h0c-1.81,0-3.28-1.47-3.28-3.28s1.47-3.28,3.28-3.28,3.28,1.47,3.28,3.28h0Z"></path><path class="cls-1" d="M460.66,21.2c0,1.82-1.48,3.3-3.3,3.3s-3.3-1.48-3.3-3.3,1.48-3.3,3.3-3.3,3.3,1.48,3.3,3.3Z"></path><path class="cls-1" d="M244.51,25.53c0,1.8-1.46,3.25-3.25,3.25h0c-1.8,0-3.25-1.46-3.25-3.25s1.46-3.25,3.25-3.25c1.8,0,3.25,1.46,3.25,3.25h0Z"></path><path class="cls-1" d="M483.34,29.44c0,1.84-1.49,3.33-3.33,3.33h0c-1.84,0-3.33-1.49-3.33-3.33s1.49-3.33,3.33-3.33,3.33,1.49,3.33,3.33h0Z"></path><path class="cls-1" d="M218.12,30.75c-.07-.64.39-1.21,1.03-1.28,0,0,0,0,0,0l1.16-.13c1.79-.21,3.39.91,3.58,2.51,0,0,0,0,0,0l.04.42c.18,1.59-1.12,3.04-2.91,3.25l-1.16.15c-.64.08-1.22-.38-1.29-1.02,0,0,0,0,0-.01l-.45-3.88Z"></path><path class="cls-1" d="M345.4,40.97c-1.15-1.15-1.06-3.11.21-4.39,1.27-1.28,3.24-1.39,4.39-.24,1.15,1.15,1.06,3.11-.21,4.39-1.27,1.28-3.24,1.39-4.39.24Z"></path><path class="cls-1" d="M504.73,39c0,1.81-1.47,3.28-3.28,3.28s-3.28-1.47-3.28-3.28h0c0-1.81,1.47-3.28,3.28-3.28h0c1.81,0,3.28,1.47,3.28,3.28Z"></path><path class="cls-1" d="M370.56,39.17c0,1.71-1.38,3.09-3.09,3.09h0c-1.71,0-3.09-1.38-3.09-3.09h0c0-1.71,1.38-3.09,3.09-3.09h0c1.71,0,3.09,1.38,3.09,3.09Z"></path><path class="cls-1" d="M331.36,39.72c0,1.79-1.45,3.24-3.24,3.24s-3.24-1.45-3.24-3.24h0c0-1.79,1.45-3.24,3.24-3.24h0c1.79,0,3.24,1.45,3.24,3.24Z"></path><path class="cls-1" d="M387.25,43.53c-1.5-.42-2.34-2.12-1.88-3.79,0,0,0,0,0,0,.47-1.67,2.07-2.69,3.57-2.27,1.5.42,2.34,2.12,1.88,3.79h0c-.47,1.67-2.07,2.69-3.57,2.27Z"></path><path class="cls-1" d="M204.79,40.62l.04,1.4c.03.82-.41,1.59-1.14,1.98l-1.37.74c-1.06.57-2.38.18-2.96-.88-.08-.15-.14-.31-.19-.47l-.58-2.17c-.31-1.16.39-2.36,1.55-2.66.19-.05.38-.07.57-.07h1.92c1.17.03,2.12.96,2.15,2.13Z"></path><path class="cls-1" d="M309.97,42.85c-.27,1.58-1.88,2.62-3.6,2.33-1.72-.29-2.9-1.8-2.63-3.38.27-1.58,1.88-2.62,3.6-2.33,1.72.29,2.9,1.8,2.63,3.38Z"></path><path class="cls-1" d="M413.06,42.87c0,1.72-1.4,3.12-3.12,3.12h0c-1.72,0-3.12-1.4-3.12-3.12s1.4-3.12,3.12-3.12c1.72,0,3.12,1.4,3.12,3.12h0Z"></path><path class="cls-1" d="M285.69,50.11c-1.54.24-3.02-1.03-3.29-2.84h0c-.28-1.8.75-3.46,2.3-3.69,1.54-.24,3.02,1.03,3.29,2.84h0c.28,1.8-.75,3.46-2.3,3.69Z"></path><path class="cls-1" d="M434.33,48.38c0,1.74-1.41,3.16-3.16,3.16s-3.16-1.41-3.16-3.16h0c0-1.74,1.41-3.16,3.16-3.16h0c1.74,0,3.16,1.41,3.16,3.16Z"></path><path class="cls-1" d="M525.87,49.89c0,1.87-1.51,3.38-3.38,3.38s-3.38-1.51-3.38-3.38,1.51-3.38,3.38-3.38,3.38,1.51,3.38,3.38Z"></path><path class="cls-1" d="M262.74,55.47c-1.64-.19-2.79-1.84-2.58-3.68,0,0,0,0,0,0,.21-1.84,1.71-3.18,3.35-2.99,1.64.19,2.79,1.84,2.58,3.68h0c-.21,1.84-1.71,3.18-3.35,2.99Z"></path><path class="cls-1" d="M184.22,54.25c-1,1.25-2.93,1.38-4.31.28-1.38-1.1-1.69-3.01-.69-4.27,1-1.25,2.93-1.38,4.31-.28,1.38,1.1,1.69,3.01.69,4.27Z"></path><path class="cls-1" d="M455.1,54.43c0,1.77-1.43,3.2-3.2,3.2s-3.2-1.43-3.2-3.2h0c0-1.77,1.43-3.2,3.2-3.2h0c1.77,0,3.2,1.43,3.2,3.2Z"></path><path class="cls-1" d="M243.85,60.85c0,1.75-1.42,3.17-3.17,3.17h0c-1.75,0-3.17-1.42-3.17-3.17s1.42-3.17,3.17-3.17c1.75,0,3.17,1.42,3.17,3.17h0Z"></path><path class="cls-1" d="M475.42,61.45c0,1.79-1.45,3.24-3.24,3.24s-3.24-1.45-3.24-3.24h0c0-1.79,1.45-3.24,3.24-3.24h0c1.79,0,3.24,1.45,3.24,3.24Z"></path><path class="cls-1" d="M546.34,62.02c0,1.77-1.44,3.21-3.21,3.21-1.77,0-3.21-1.44-3.21-3.21s1.44-3.21,3.21-3.21c1.77,0,3.21,1.44,3.21,3.21Z"></path><path class="cls-1" d="M163.09,68.99c-.54.26-1.29.2-2.26-.16-2.3-.85-2.9-2.24-1.8-4.16.09-.15.2-.29.33-.41,2.47-2.29,4.13-1.54,4.99,2.26.23.98-.3,2.01-1.27,2.47Z"></path><path class="cls-1" d="M218.98,72.64c-1.56-.66-2.25-2.55-1.54-4.22,0,0,0,0,0,0,.71-1.67,2.54-2.5,4.1-1.84t0,0c1.56.66,2.25,2.55,1.54,4.22,0,0,0,0,0,0-.71,1.67-2.54,2.5-4.1,1.84h0Z"></path><path class="cls-1" d="M494.92,70.66c0,1.8-1.46,3.26-3.26,3.26h0c-1.8,0-3.26-1.46-3.26-3.26h0c0-1.8,1.46-3.26,3.26-3.26h0c1.8,0,3.26,1.46,3.26,3.26h0Z"></path><path class="cls-1" d="M563.47,80.87c-1.8-.1-3.17-1.77-3.06-3.73.11-1.96,1.66-3.47,3.46-3.37h0c1.8.1,3.17,1.77,3.06,3.73-.11,1.96-1.66,3.47-3.46,3.37h0Z"></path><path class="cls-1" d="M145.88,79.56c0,1.67-1.35,3.03-3.03,3.03-1.67,0-3.03-1.35-3.03-3.03h0c0-1.67,1.35-3.03,3.03-3.03h0c1.67,0,3.03,1.35,3.03,3.03Z"></path><path class="cls-1" d="M513.66,81.69c-.98,1.3-2.89,1.52-4.26.48-1.38-1.03-1.7-2.93-.72-4.23,0,0,0,0,0,0,.98-1.3,2.89-1.52,4.26-.48,1.38,1.03,1.7,2.93.72,4.23h0Z"></path><path class="cls-1" d="M200.78,82.67c-.42.59-.95,1.04-1.59,1.33-1.21.57-2.65.05-3.22-1.15-.78-1.62-.85-2.88-.21-3.78.64-.89,1.86-1.23,3.65-1.02,1.32.15,2.28,1.35,2.13,2.68-.08.7-.33,1.34-.75,1.93Z"></path><path class="cls-1" d="M533.25,92.9c-.83,1.5-2.8,2-4.4,1.12-1.6-.89-2.23-2.82-1.4-4.32.83-1.5,2.8-2,4.4-1.12s2.23,2.82,1.4,4.32Z"></path><path class="cls-1" d="M178.97,96.35c-1.58.5-3.3-.5-3.84-2.23-.54-1.73.3-3.53,1.88-4.02,1.58-.5,3.3.5,3.84,2.23.54,1.73-.3,3.53-1.88,4.02Z"></path><path class="cls-1" d="M586.77,95.02c0,1.8-1.46,3.25-3.25,3.25-1.8,0-3.25-1.46-3.25-3.25h0c0-1.8,1.46-3.25,3.25-3.25h0c1.8,0,3.25,1.46,3.25,3.25Z"></path><path class="cls-1" d="M126.17,97.07c0,1.62-1.31,2.93-2.93,2.93h0c-1.62,0-2.93-1.31-2.93-2.93h0c0-1.62,1.31-2.93,2.93-2.93h0c1.62,0,2.93,1.31,2.93,2.93h0Z"></path><path class="cls-1" d="M123.2,95.96c.12-.16.36-.19.52-.07.04.03.07.06.1.11.38.62.28,1.22-.29,1.8-.22.23-.59.24-.83,0-.1-.1-.17-.24-.18-.39-.03-.38.2-.86.67-1.45Z"></path><path class="cls-1" d="M549.67,108.92c-1.57.5-3.29-.49-3.85-2.22-.56-1.73.27-3.54,1.84-4.05s3.29.49,3.85,2.22h0c.56,1.73-.27,3.54-1.84,4.05h0Z"></path><path class="cls-1" d="M159.99,111.04c-1.34.75-3.14.1-4.02-1.47,0,0,0,0,0,0-.88-1.57-.5-3.45.84-4.2t0,0c1.34-.75,3.14-.1,4.02,1.47h0c.88,1.57.5,3.45-.84,4.2,0,0,0,0,0,0Z"></path><path class="cls-1" d="M108.71,116.43l-1.86,1.48c-.93.74-2.28.59-3.03-.34-.12-.15-.21-.31-.29-.48l-.82-1.86c-.36-.81-.19-1.76.44-2.39l.89-.89c.74-.74,1.91-.84,2.76-.24l1.81,1.28c.97.69,1.2,2.03.51,3-.12.16-.25.31-.41.43Z"></path><path class="cls-1" d="M568.35,124.91c-1.43.79-3.29.17-4.14-1.39h0c-.85-1.55-.39-3.45,1.05-4.24,1.43-.79,3.29-.17,4.14,1.39h0c.85,1.55.39,3.45-1.05,4.24Z"></path><path class="cls-1" d="M142.84,124.48c-.72,1.37-2.54,1.83-4.06,1.02-1.52-.8-2.17-2.56-1.45-3.93h0c.72-1.37,2.54-1.83,4.06-1.02,1.52.8,2.17,2.56,1.45,3.93,0,0,0,0,0,0Z"></path><path class="cls-1" d="M91.04,135.61c-.97,1.21-2.87,1.31-4.25.2,0,0,0,0,0,0-1.38-1.1-1.71-2.98-.74-4.19.97-1.21,2.87-1.31,4.25-.2,0,0,0,0,0,0,1.38,1.1,1.71,2.98.74,4.19Z"></path><path class="cls-1" d="M127.85,138.02c0,1.76-1.43,3.18-3.18,3.18h0c-1.76,0-3.18-1.43-3.18-3.18h0c0-1.76,1.43-3.18,3.18-3.18h0c1.76,0,3.18,1.43,3.18,3.18h0Z"></path><path class="cls-1" d="M376.72,440.22c3.72-3.4,7.5-7.04,11.35-10.91,46.68-47.09,74.11-74.72,82.29-82.87,22.96-22.87,51.6-51.76,85.91-86.67,7.14-7.26,13.36-13.49,18.68-18.68,36.1-35.31,67.52-66.93,94.26-94.88.26-.27.53-.27.79,0l52.83,55.76c.22.23.21.59-.01.82-102.33,102.24-199.73,199.97-292.18,293.22-16.83,16.97-35.49,35.85-55.97,56.66-.32.33-.85.33-1.18.01,0,0,0,0-.01-.01-22.44-22.88-75.17-76.27-158.18-160.17-26.89-27.18-53.77-54.36-80.64-81.55-13.81-13.99-21.27-21.71-22.37-23.18-.23-.3-.23-.73.01-1.03,1.54-1.94,2.61-3.2,3.2-3.79,17.86-18,32.92-33.55,45.18-46.66,2.15-2.3,4.2-4.7,6.14-7.19.33-.41.67-.43,1.03-.05.78.83,5.45,5.72,14.02,14.68,6.25,6.53,10.87,11.31,13.89,14.35,65.09,65.56,125.12,126.27,180.08,182.13.23.25.62.26.87.03Z"></path><path class="cls-1" d="M114.29,155.46c-.98,1.27-2.93,1.39-4.37.29-1.44-1.11-1.82-3.03-.84-4.3t0,0c.98-1.27,2.93-1.39,4.37-.29,1.44,1.11,1.82,3.03.84,4.3,0,0,0,0,0,0Z"></path><path class="cls-1" d="M75.59,154.06c-.34,1.5-1.97,2.41-3.65,2.03,0,0,0,0,0,0-1.67-.38-2.75-1.91-2.41-3.41.34-1.5,1.97-2.41,3.65-2.03,0,0,0,0,0,0,1.67.38,2.75,1.91,2.41,3.41Z"></path><path class="cls-1" d="M97.84,174.92c-1.31.92-3.27.41-4.36-1.15-1.1-1.56-.92-3.57.4-4.49h0c1.31-.92,3.27-.41,4.36,1.15h0c1.1,1.56.92,3.57-.4,4.49Z"></path><path class="cls-1" d="M61.29,175.84c-1.13,1.08-3.02.95-4.22-.3h0c-1.19-1.25-1.24-3.14-.11-4.23,1.13-1.08,3.02-.95,4.22.3h0c1.19,1.25,1.24,3.14.11,4.23Z"></path><path class="cls-1" d="M60.54,173.63c0,.57-.46,1.03-1.03,1.03h0c-.57,0-1.03-.46-1.03-1.03h0c0-.57.46-1.03,1.03-1.03s1.03.46,1.03,1.03Z"></path><path class="cls-1" d="M85.7,191.4c0,1.66-1.34,3-3,3s-3-1.34-3-3,1.34-3,3-3,3,1.34,3,3h0Z"></path><path class="cls-1" d="M48.5,197.56c-1.14,1.13-3.12.98-4.42-.34-1.3-1.31-1.42-3.29-.28-4.42,1.14-1.13,3.12-.98,4.42.34,1.3,1.31,1.42,3.29.28,4.42Z"></path><path class="cls-1" d="M73.7,209.9c0,1.71-1.39,3.11-3.11,3.11s-3.11-1.39-3.11-3.11,1.39-3.11,3.11-3.11h0c1.71,0,3.11,1.39,3.11,3.11Z"></path><path class="cls-1" d="M37.41,218.83c-.98,1.3-3,1.42-4.52.28h0c-1.51-1.14-1.94-3.12-.96-4.42.98-1.3,3-1.42,4.52-.28,0,0,0,0,0,0,1.51,1.14,1.94,3.12.96,4.42Z"></path><path class="cls-1" d="M62.97,232.69c-1.31,1.17-3.39.99-4.64-.41t0,0c-1.25-1.4-1.2-3.48.11-4.65,1.31-1.17,3.39-.99,4.64.41h0c1.25,1.4,1.2,3.48-.11,4.65Z"></path><path class="cls-1" d="M27.62,238.97c0,1.61-1.3,2.91-2.91,2.91s-2.91-1.3-2.91-2.91,1.3-2.91,2.91-2.91h0c1.61,0,2.91,1.3,2.91,2.91h0Z"></path><path class="cls-1" d="M53.8,253.37c-1.58.85-3.6.16-4.51-1.53-.91-1.69-.36-3.75,1.22-4.6,1.58-.85,3.6-.16,4.51,1.53.91,1.69.36,3.75-1.22,4.6Z"></path><path class="cls-1" d="M20.4,261.11c0,1.75-1.42,3.17-3.17,3.17s-3.17-1.42-3.17-3.17h0c0-1.75,1.42-3.17,3.17-3.17h0c1.75,0,3.17,1.42,3.17,3.17Z"></path><path class="cls-1" d="M48.33,273c-.68,1.43-2.55,1.96-4.18,1.18-1.63-.78-2.39-2.56-1.71-3.99,0,0,0,0,0,0,.68-1.43,2.55-1.96,4.18-1.18,1.63.78,2.39,2.56,1.71,3.99,0,0,0,0,0,0Z"></path><path class="cls-1" d="M14.48,285.79c-1.25,1.26-3.37,1.18-4.75-.18-1.37-1.36-1.48-3.48-.23-4.75,1.25-1.26,3.37-1.18,4.75.18,1.37,1.36,1.48,3.48.23,4.75Z"></path><path class="cls-1" d="M43.16,292.89c0,1.79-1.45,3.24-3.24,3.24h0c-1.79,0-3.24-1.45-3.24-3.24h0c0-1.79,1.45-3.24,3.24-3.24s3.24,1.45,3.24,3.24Z"></path><path class="cls-1" d="M10.36,307.54c-.46,1.51-2.2,2.31-3.89,1.8s-2.69-2.15-2.23-3.66c.46-1.51,2.2-2.31,3.89-1.8s2.69,2.15,2.23,3.66h0Z"></path><path class="cls-1" d="M39.74,314.54c-.19,1.56-1.97,2.62-3.97,2.37-2-.25-3.46-1.71-3.27-3.27.19-1.56,1.97-2.62,3.97-2.37,2,.25,3.46,1.71,3.27,3.27Z"></path><path class="cls-1" d="M7.61,330.35c0,1.73-1.4,3.13-3.13,3.13s-3.13-1.4-3.13-3.13,1.4-3.13,3.13-3.13,3.13,1.4,3.13,3.13Z"></path><path class="cls-1" d="M35.53,336.98c-1.31,1.2-3.45,1-4.78-.45h0c-1.32-1.45-1.33-3.6-.02-4.8,1.31-1.2,3.45-1,4.78.45h0c1.32,1.45,1.33,3.6.02,4.8Z"></path><path class="cls-1" d="M6.82,352.49c.15,1.58-1.25,3-3.13,3.18-1.88.18-3.53-.95-3.68-2.53,0,0,0,0,0,0-.15-1.58,1.25-3,3.13-3.18,1.88-.18,3.53.95,3.68,2.53h0Z"></path><path class="cls-1" d="M36.32,354.02c0,1.93-1.56,3.49-3.49,3.49h0c-1.93,0-3.49-1.56-3.49-3.49h0c0-1.93,1.56-3.49,3.49-3.49s3.49,1.56,3.49,3.49Z"></path><path class="cls-1" d="M602.32,525.21c24.4-36.45,40.11-76.26,47.12-119.43,2.67-16.5,3.73-34.99,4.02-51.95.01-.84.7-1.52,1.55-1.52h40.71c.44,0,.8.35.82.79,1.81,71.31-16.88,136.25-56.08,194.83-19.42,29.03-44.11,55.98-74.07,80.87-31.2,25.92-66.37,45.68-105.52,59.29-59.53,20.68-123.68,23.36-184.83,8.83-60.11-14.29-112.65-42.26-157.61-83.92-7.28-6.75-15.86-15.27-25.74-25.57-.67-.7-.66-1.8.03-2.5l26.98-26.98c.1-.1.27-.1.37,0,10.24,10.01,17.17,16.75,20.81,20.22,34.5,32.93,74.35,56.9,119.55,71.91,9.14,3.03,17.61,5.4,25.41,7.1,31.87,6.92,64.29,8.62,97.26,5.09,20.01-2.15,38.9-6.19,56.67-12.13,21.7-7.27,41.75-16.52,60.16-27.75,34.09-20.82,63.92-47.22,89.48-79.21,2.33-2.92,4.19-5.48,5.56-7.66,1-1.58,2.24-3.28,3.74-5.1.5-.62,1.7-2.34,3.61-5.18Z"></path><path class="cls-1" d="M36.8,374.41c-.12,1.82-1.82,3.19-3.78,3.05-1.97-.13-3.46-1.72-3.33-3.54.12-1.82,1.82-3.19,3.78-3.05,1.97.13,3.46,1.72,3.33,3.54Z"></path><path class="cls-1" d="M7.22,375.66c.04,1.5-1.39,2.76-3.2,2.81-1.81.05-3.31-1.13-3.35-2.63h0c-.04-1.5,1.39-2.76,3.2-2.81,1.81-.05,3.31,1.13,3.35,2.63Z"></path><path class="cls-1" d="M39.06,395.12c-.15,1.43-1.42,2.47-2.85,2.33l-1.89-.19c-1.43-.15-2.47-1.42-2.33-2.85,0,0,0,0,0,0l.08-.82c.15-1.43,1.42-2.47,2.85-2.33l1.89.19c1.43.15,2.47,1.42,2.33,2.85h0s-.08.82-.08.82Z"></path><path class="cls-1" d="M9.36,397.17c.29,1.4-.92,2.83-2.68,3.19-1.77.36-3.43-.49-3.71-1.89h0c-.29-1.4.92-2.83,2.68-3.19,1.77-.36,3.43.49,3.71,1.89,0,0,0,0,0,0Z"></path><path class="cls-1" d="M41.62,413.61c0,1.6-1.3,2.89-2.89,2.89h0c-1.6,0-2.89-1.3-2.89-2.89s1.3-2.89,2.89-2.89,2.89,1.3,2.89,2.89h0Z"></path><path class="cls-1" d="M12.9,420.73c-.36,1.7-2.14,2.76-3.98,2.37,0,0,0,0,0,0-1.84-.39-3.05-2.08-2.69-3.78,0,0,0,0,0,0,.36-1.7,2.14-2.76,3.98-2.37,0,0,0,0,0,0,1.84.39,3.05,2.08,2.69,3.78h0Z"></path><path class="cls-1" d="M45.79,434.65c-.86,1.41-2.77,1.81-4.27.9-1.5-.91-2.03-2.8-1.17-4.21.86-1.41,2.77-1.81,4.27-.9,1.5.91,2.03,2.8,1.17,4.21Z"></path><path class="cls-1" d="M16.29,440.35c1.05.47,1.5,1.2,1.36,2.21-.2,1.38-1.18,2.13-2.95,2.23-2.13.13-3.24-.84-3.33-2.91-.06-1.29.97-2.38,2.3-2.44.1,0,.19,0,.29,0l2.37.2c.2.02.27.14.21.36-.02.06-.1.15-.25.26-.04.03-.04.05,0,.08Z"></path><path class="cls-1" d="M52.04,451.02c.04,1.55-1.33,2.85-3.04,2.88h0c-1.71.04-3.13-1.19-3.17-2.74h0c-.04-1.55,1.33-2.85,3.04-2.88h0c1.71-.04,3.13,1.19,3.17,2.74h0Z"></path><path class="cls-1" d="M24.62,464.8c-.5,1.52-2.29,2.29-4,1.73-1.71-.56-2.7-2.25-2.2-3.77.5-1.52,2.29-2.29,4-1.73,1.71.56,2.7,2.25,2.2,3.77Z"></path><path class="cls-1" d="M57.84,469.72c0,1.77-1.43,3.2-3.2,3.2s-3.2-1.43-3.2-3.2c0-1.77,1.43-3.2,3.2-3.2h0c1.77,0,3.2,1.43,3.2,3.2h0Z"></path><path class="cls-1" d="M32.51,485.24c0,1.77-1.44,3.21-3.21,3.21s-3.21-1.44-3.21-3.21h0c0-1.77,1.44-3.21,3.21-3.21h0c1.77,0,3.21,1.44,3.21,3.21Z"></path><path class="cls-1" d="M66.11,492.46c-1.13,1.3-3.2,1.35-4.63.12,0,0,0,0,0,0-1.43-1.24-1.67-3.3-.55-4.6s3.2-1.35,4.63-.12c0,0,0,0,0,0,1.43,1.24,1.67,3.3.55,4.6Z"></path><path class="cls-1" d="M42.45,506.46c-.08,1.65-1.65,2.92-3.51,2.83h0c-1.86-.09-3.3-1.51-3.22-3.16h0c.08-1.65,1.65-2.92,3.51-2.83h0c1.86.09,3.3,1.51,3.22,3.16h0Z"></path><path class="cls-1" d="M77.32,508.87c0,1.74-1.41,3.14-3.14,3.14h0c-1.74,0-3.14-1.41-3.14-3.14s1.41-3.14,3.14-3.14,3.14,1.41,3.14,3.14h0Z"></path><path class="cls-1" d="M53.21,527.16c0,1.74-1.41,3.16-3.16,3.16s-3.16-1.41-3.16-3.16,1.41-3.16,3.16-3.16h0c1.74,0,3.16,1.41,3.16,3.16h0Z"></path><path class="cls-1" d="M89.49,528.51c0,1.75-1.42,3.17-3.17,3.17h0c-1.75,0-3.17-1.42-3.17-3.17s1.42-3.17,3.17-3.17,3.17,1.42,3.17,3.17h0Z"></path><path class="cls-1" d="M102.31,547.38c0,1.81-1.47,3.28-3.28,3.28h0c-1.81,0-3.28-1.47-3.28-3.28h0c0-1.81,1.47-3.28,3.28-3.28s3.28,1.47,3.28,3.28Z"></path><path class="cls-1" d="M65.82,550.13c-1.17,1.12-3.2.9-4.52-.49t0,0c-1.32-1.39-1.45-3.42-.27-4.54,0,0,0,0,0,0,1.17-1.12,3.2-.9,4.52.49t0,0c1.32,1.39,1.45,3.42.27,4.54,0,0,0,0,0,0Z"></path><path class="cls-1" d="M81.3,569.72c-1,1.37-3.07,1.55-4.63.41,0,0,0,0,0,0-1.55-1.14-2-3.17-1-4.53,1-1.37,3.07-1.55,4.63-.41h0c1.55,1.14,2,3.17,1,4.53Z"></path></g></svg>