<svg xmlns="http://www.w3.org/2000/svg" id="Layer_2" data-name="Layer 2" viewBox="0 0 382.69 437.28"><defs><style>      .cls-1 {        fill: #76b1c4;        stroke-width: 0px;      }    </style></defs><g id="Layer_1-2" data-name="Layer 1"><path class="cls-1" d="M291.08,161.67c0,.75.6,1.67,1.78,2.77.95.88,1.53,2.38,1.74,4.5.46,4.61-.88,8.34-4.03,11.19-4.18,3.76-10.15,4.15-14.94,1.13-4.61-2.89-6.32-7.46-5.13-13.71.44-2.33,2.59-4.46,2.64-6.88.19-10.63.22-28.21.07-52.74-.05-9.64-.34-16.28-.85-19.91-2.97-21.2-14.12-39.97-31.12-52.99-17-13.01-36.86-18.35-59.57-16-19.95,2.06-36.94,11.96-50.24,26.7-14.2,15.73-21.41,34.29-21.64,55.69-.06,5.8-.16,26.22-.3,61.27,0,.54.16,1.07.45,1.52,3.93,5.94,3.32,11.24-1.83,15.9-6.48,5.88-16.75,3.7-19.48-4.99-1.41-4.51-.58-8.6,2.51-12.26.39-.46.6-1.04.59-1.64-.11-27.91-.13-47.59-.05-59.04.11-17.31,2.87-32.12,10.55-47.37,7.25-14.4,17.27-26.31,30.05-35.73C149.52,6.36,168.47,0,189.12.01c3.2,0,5.59,0,7.16-.01,2.57,0,4.95.11,7.15.34,24.04,2.5,44.33,12.48,60.86,29.94,13.75,14.53,22.17,31.59,25.25,51.17,1.03,6.58,1.49,13.65,1.37,21.22-.09,5.35-.03,25.01.17,59Z"></path><path class="cls-1" d="M20.91,388.15c-.03.55.13.62.5.21,13.93-15.31,27.37-29.43,40.3-42.36,3.82-3.82,6.69-6.9,12.65-5.36,3.09.8,5.03,2.85,5.84,6.15.74,3.05-.14,5.91-2.64,8.59-3.26,3.49-5.37,5.71-6.33,6.64-12.49,12.13-30.49,30.54-54,55.23-.8.85-.63,1.39.51,1.64.43.1,1.15.15,2.15.15,70.57.11,182.65.14,336.24.07,3.43,0,6.82-.05,10.17-.14.22,0,.4-.18.39-.41,0-.1-.04-.2-.11-.27-17.49-18.44-32.85-34.64-46.08-48.59-3.35-3.54-8.91-8.95-13.38-14.06-3.2-3.66-3.8-7.29-1.81-10.9,1.09-1.98,2.64-3.31,4.64-4,4.95-1.71,8.73,1.17,12.57,5.21,1.53,1.59,14.67,15.31,39.43,41.14.38.4.55.32.51-.23-.44-5.57-.98-12.88-1.62-21.94-.26-3.63-2.57-41.96-6.94-114.99-1.92-32.09-3.94-64.17-6.07-96.24-.23-3.37-.36-6.78-.41-10.22-.01-.41-.35-.74-.76-.74h-40.98c-.43,0-.78-.35-.78-.78v-16.82c0-.58.29-.87.87-.88,11.07-.08,25.46-.03,43.16.14,4.65.05,9.35-.06,14.09-.31.31-.02.59.21.61.53,0,0,0,0,0,.01,2.97,48.74,6.04,96.72,9.21,143.95.51,7.49.92,14.15,1.25,19.96,2.61,45.89,5.31,91.77,8.12,137.64.22,3.64.38,7.18.48,10.62.01.26-.19.48-.45.49-.02,0-.04,0-.06,0-2.69-.19-5.13-.28-7.32-.28-111.31-.05-236.01-.04-374.11.02-.41,0-.75-.33-.75-.75,0-.02,0-.03,0-.05L20.31,124.77c.02-.31.27-.55.58-.55h57.33c.45,0,.81.35.81.79h0v17.09c0,.35-.28.63-.63.63h-40.15c-.89,0-1.36.44-1.42,1.33l-15.92,244.09Z"></path><path class="cls-1" d="M259,141.89c0,.55-.45,1-1,1H124.36c-.55,0-1-.45-1-1v-16.58c0-.55.45-1,1-1h133.64c.55,0,1,.45,1,1v16.58Z"></path></g></svg>