<svg xmlns="http://www.w3.org/2000/svg" id="Layer_2" data-name="Layer 2" viewBox="0 0 548.38 669.87"><defs><style>      .cls-1 {        fill: #edf5f7;      }      .cls-1, .cls-2, .cls-3, .cls-4 {        stroke-width: 0px;      }      .cls-2 {        fill: #020806;      }      .cls-3 {        fill: #76b1c4;      }      .cls-4 {        fill: #fff;      }    </style></defs><g id="Layer_1-2" data-name="Layer 1"><path class="cls-3" d="M105.63,45.76c.15-1.55.25-6.39.31-14.53.06-9.36,3.56-17.18,10.49-23.48,2.53-2.29,5.13-3.93,7.82-4.9,7.64-2.79,15.56-3.53,23.78-2.23,14.22,2.26,22.78,10.03,25.67,23.31.56,2.55.87,6.16.95,10.82.08,4.6.13,8.21.17,10.82,0,.81.66,1.46,1.47,1.46h198.87c1.09,0,1.64-.55,1.64-1.64,0-.73-.02-5.33-.03-13.81-.02-11.48,4.47-20.2,13.45-26.16,8.6-5.72,23.9-6.46,33.32-3.47,11.54,3.68,18.54,11.32,21.02,22.92.53,2.51.8,5.9.82,10.18,0,3.14.05,6.55.16,10.22.02.8.69,1.44,1.5,1.43,13.05-.12,26.13,2.28,39.26,7.19,19.49,7.3,34.8,19.43,45.93,36.41,10.56,16.11,15.92,34.23,16.08,54.35.05,7.88.08,26,.08,54.36-.04,137.25-.1,255.5-.18,354.75,0,6.86-.34,13.36-.99,19.48-.72,6.74-1.95,13.08-3.69,19.01-7.66,26.16-23.36,46.35-47.09,60.59-12.07,7.24-25.03,12.09-38.87,14.53-11.09,1.95-23.47,2.28-35.82,2.31-102.53.22-195.28.27-278.25.16-19-.03-37.07.59-55.51-2.58-34.4-5.89-62.26-28.34-77.63-59.43-5-10.12-8.14-21.33-9.42-33.64-.67-6.44-.98-19.81-.93-40.12.26-98.17.29-222.24.08-372.2-.02-13.9.13-22.56.43-25.98,1.91-21.69,10.18-40.69,24.8-57.01,15.75-17.59,35.71-28.03,59.89-31.32,3.87-.53,10.45-.9,19.73-1.11.43,0,.67-.23.7-.66Z"></path><path class="cls-1" d="M151.19,82.08c-.02,4.89-3.99,8.83-8.88,8.82h-3.23c-4.89-.03-8.83-4-8.82-8.89l.17-49.44c.02-4.89,3.99-8.83,8.88-8.82h3.23c4.89.03,8.83,4,8.82,8.89l-.17,49.44Z"></path><path class="cls-1" d="M421.87,81.54c-.02,5.01-4.09,9.05-9.1,9.04h-2.81c-5.01-.03-9.05-4.1-9.04-9.11h0s.17-48.6.17-48.6c.02-5.01,4.09-9.05,9.1-9.04h2.81c5.01.03,9.05,4.1,9.04,9.11h0s-.17,48.6-.17,48.6Z"></path><path class="cls-4" d="M27.13,157.58c-.63-13.6.73-29.38,6.91-41.7,5.94-11.86,14.03-21.23,24.28-28.12,9.72-6.54,19.09-10.13,28.11-10.78,6.6-.47,12.84-.66,18.71-.57.6,0,1.08.5,1.07,1.09h0c-.03,3.31.4,7.84,1.29,13.58.96,6.16,4.41,11.77,10.36,16.84,8.22,7,17.73,7.86,28.28,6.53,7.9-.99,14.54-4.19,19.92-9.6,4.54-4.57,7.19-10.2,7.94-16.9.28-2.5.46-5.66.56-9.49.02-.66.56-1.19,1.22-1.19h199.95c.74,0,1.12.37,1.13,1.11.26,10.5,1.08,19.18,8.7,26.99,5.29,5.41,11.33,8.42,18.13,9.02,8.68.78,17.75.12,25.41-4.1,9.66-5.32,14.92-13.3,15.77-23.94.16-2.02.38-5.03.66-9.03.03-.4.36-.72.77-.72,6.83,0,14.66-.07,21.03,1.36,10.92,2.42,20.42,7.13,28.5,14.11,14.42,12.48,22.7,28.08,24.84,46.8.83,7.17,1.16,13.64,1.02,19.42,0,.25-.22.46-.47.46-11.91.04-23.87-.34-33.64-.34-34.34,0-179.87.05-436.59.12-10.88,0-18.43.05-22.66.16-.62.01-1.14-.47-1.17-1.09Z"></path><path class="cls-4" d="M89.56,637.7c-31.13-5.28-53.63-29.84-60.62-60.08-1.24-5.39-1.88-13.31-1.92-23.75-.3-93.95-.43-170.65-.39-230.1,0-6.45.06-15.13.14-26.06.3-36.75.36-75.4.17-115.97,0-.53.4-.98.93-1.02,2.82-.25,4.76-.37,5.82-.36,25.67.17,51.08.16,76.23-.01,8.84-.06,17.53-.06,26.05.01,29.32.23,58.64.33,87.97.29,106.78-.17,162.05-.23,165.81-.2,3.37.03,6.74.03,10.1,0,23.99-.23,45.61-.17,64.86.18,5.82.11,14.51.04,26.07-.22,10.1-.23,19.76-.13,28.97.33.43.02.77.38.77.81-.26,122.18-.26,247.77.01,376.78.03,11.53-1.96,22.47-5.97,32.84-9.59,24.78-31.04,42.26-57.27,46.6-4.73.77-13.4,1.16-26.02,1.17-168.68.07-278.4.07-329.17,0-3.61,0-7.79-.41-12.55-1.22Z"></path><path class="cls-2" d="M252.13,399.1c-1.06.73-1.02,1.39.12,1.99,19.32,10.21,29.28,26.44,29.88,48.69.13,4.86-.41,10.39-1.62,16.61-1.76,9.08-5.82,17.37-12.17,24.89-8.29,9.82-17.43,17.17-29.5,21.75-9.27,3.51-18.9,5.33-28.9,5.46-7.04.1-14.92-1.33-23.65-4.29-7.84-2.65-14.72-6.44-20.64-11.38-13.08-10.91-21.2-24.71-24.35-41.41-.12-.68.33-1.33,1.01-1.45.07-.01.14-.02.22-.02h33.68c.79,0,1.49.53,1.71,1.29,3.6,12.38,11.49,19.92,23.68,22.62,9.36,2.07,22.1.93,30.43-4.85,8.96-6.19,13.69-14.93,14.19-26.22.32-7.13-1.59-13.83-5.73-20.08-6.51-9.84-15.68-15.08-27.52-15.7-8.5-.45-16.08-.44-22.74.03-.6.04-.9-.23-.9-.83v-28.28c0-.81.66-1.47,1.47-1.47,0,0,0,0,.01,0,8.15.08,15.7,0,22.65-.23,3.67-.13,10.62-2.42,14.28-4.83,6.77-4.45,10.89-10.38,12.37-17.8,1.18-5.92.64-11.75-1.62-17.49-5.69-14.4-21.04-20.68-35.78-17.97-8.82,1.63-15.84,6.69-21.07,15.18-1.75,2.84-3,5.55-3.75,8.13-.21.71-.86,1.2-1.6,1.2h-31.78c-1.01,0-1.44-.5-1.29-1.5,2.22-14.48,8.51-26.78,18.89-36.89,17.21-16.74,38.24-22.86,63.11-18.36,15.64,2.83,28.22,10.09,37.76,21.77,5.8,7.11,9.76,14.75,11.86,22.92,2.19,8.49,2.24,17.63.16,27.42-1.86,8.7-5.79,16.05-11.81,22.03-3.21,3.21-6.88,6.22-11.04,9.06Z"></path><path class="cls-2" d="M351.07,348.62c0-1.38-.52-1.62-1.56-.72l-22.5,19.53c-.33.29-.83.25-1.12-.08-.01-.02-.03-.03-.04-.05l-16.55-22.42c-.38-.52-.32-1.24.16-1.68,13.16-12.02,28.2-26.43,45.11-43.23,1.57-1.55,2.66-2.35,3.27-2.4,7.17-.43,15.7-.47,25.6-.1.56.02,1,.47,1,1.03.06,71.87-.06,140.87-.35,207,0,1.45-.31,2.71-.33,4.05,0,.73-.59,1.32-1.32,1.32,0,0,0,0-.01,0-9.89-.11-19.9.02-30.05.39-.7.03-1.29-.51-1.31-1.21,0-.02,0-.04,0-.05v-161.37Z"></path></g></svg>