<svg xmlns="http://www.w3.org/2000/svg" id="Layer_2" data-name="Layer 2" viewBox="0 0 967 656.7"><defs><style>      .cls-1 {        fill: #fe4931;      }      .cls-1, .cls-2, .cls-3, .cls-4, .cls-5, .cls-6 {        stroke-width: 0px;      }      .cls-7 {        fill: none;        stroke: #fb8022;        stroke-width: 2px;      }      .cls-2 {        fill: #000;      }      .cls-3 {        fill: #edd164;      }      .cls-4 {        fill: #f8b612;      }      .cls-5 {        fill: #212d38;      }      .cls-6 {        fill: #76b1c4;      }    </style></defs><g id="Layer_1-2" data-name="Layer 1"><path class="cls-2" d="M917.76,652.33c-7.58,2.79-14.77,3.92-23.28,3.92-94.32.04-170.65.07-228.97.09-280.78.07-472.07.19-573.87.37-21.75.03-35.72-.9-41.9-2.79-15.56-4.76-28.29-14.63-38.2-29.6C3.83,612.63-.01,599.79,0,585.81.22,404.48.25,232.6.09,70.18c-.02-9.2,1.45-16.74,5.48-25.08C20,15.08,45.03.08,80.66.11,297.1.34,533.13.3,788.77,0c2.15-.01,29.22.08,81.2.28,21.24.07,35.57,1.15,43,3.23,30.03,8.36,54.09,36.94,54.03,69.38-.32,167.36-.32,336.82,0,508.39.01,10.16-.83,17.98-2.53,23.45-7.09,22.81-22.66,38.67-46.71,47.6Z"></path><path class="cls-6" d="M27.13,572.7c-.02-162.58.22-359.8.15-487.91,0-9.74.28-18.32,4.72-26.7,9.76-18.51,25.26-27.75,46.51-27.74,275.21.27,541.41.28,798.6.02,15.89-.01,26.87,1.1,32.91,3.36,13.4,5.01,22.74,15.27,28.04,30.77,1.46,4.27,2.17,13.74,2.12,28.41-.27,96.06-.45,254.41-.52,475.07,0,11.49-.22,18.49-.67,20.98-3.03,17.41-17,33.02-33.26,37.79-7.49,2.19-16.67,1.71-25.14,1.65-43.16-.29-105.89-.43-188.19-.41-281.14.04-457.44.12-528.9.24-24.05.04-48.1.17-72.15.37-9.72.09-16.56.05-20.53-.11-8.4-.32-14.78-1.64-19.14-3.96-12.08-6.43-21.78-18.84-24.1-32.65-.29-1.82-.44-8.21-.45-19.16Z"></path><path class="cls-7" d="M793.42,481.41c1.96,1.8,4.06,3.76,6.28,5.87,8.58,8.1,14.44,20.09,17,31.29,4.73,20.7-.02,38.73-14.27,54.09-3.15,3.39-6.27,6.34-9.38,8.86"></path><path class="cls-2" d="M712.89,149.13c17.02-20.2,32.44-38.19,46.27-53.98,1.33-1.53,3.26-2.4,5.28-2.4h37.74c.78,0,1.09.38.93,1.15-.49,2.43-1.52,4.58-3.07,6.47-17.89,21.74-32.21,39.11-42.96,52.12-1.15,1.39-3.12,5.07-5.05,6.8-.36.32-.82.5-1.3.5h-39.28c-1.69,0-3.06-1.35-3.07-3.04,0-.42.08-.84.25-1.23.77-1.8,2.18-3.93,4.24-6.39Z"></path><path class="cls-2" d="M869.86,110.11c-11.72,13.54-23.52,27.02-35.38,40.43-2.43,2.75-5.02,9.12-10.16,9.22-14.39.3-27.54.07-39.45-.69-1.01-.06-1.79-.93-1.73-1.93,0-.15.04-.31.09-.45.81-2.51,2.11-4.82,3.92-6.93,11.35-13.32,23.09-27.03,35.23-41.12,3.36-3.91,7.09-8.71,11.17-14.4.53-.74,1.38-1.18,2.27-1.19,9.47-.07,21.05-.06,34.75.04,3.13.03,5.18,1.54,6.15,4.53,1.45,4.44-3.14,8.19-6.86,12.49Z"></path><path class="cls-5" d="M267.06,316.97c-.1,18.19-14.92,32.86-33.11,32.76h0l-99.33-.52c-16.47-.08-29.75-13.54-29.67-30.05,0,0,0-.02,0-.02l.48-93.11c.1-16.52,13.52-29.83,29.99-29.73h0l99.33.52c18.19.1,32.86,14.92,32.76,33.11h0s-.45,87.05-.45,87.05Z"></path><path class="cls-3" d="M120.5,244.67c5.76.29,12.03.22,18.8-.22,7.32-.45,14.1.97,19.08-6.19,3.59-5.21,5.23-13.11,4.89-23.69-.01-.71.33-1.06,1.04-1.06h42.12c.88,0,1.6.72,1.6,1.6,0,.01,0,.03,0,.04-.26,8.96.97,19.6,7.04,25.98,1.83,1.93,4.91,2.97,9.22,3.1,7.06.2,16.1,0,27.11-.58.82-.04,1.23.35,1.23,1.17v29.73c0,.78-.4,1.14-1.19,1.08-12.79-1.03-21-1.34-24.64-.93-8.47.91-12.83,5.93-13.08,15.07-.19,7.28.24,13.4,1.28,18.36.2.93-.15,1.89-.89,2.47-7.12,5.53-10.41,12.57-9.87,21.13.05.69-.47,1.29-1.17,1.34-.03,0-.06,0-.09,0h-36.29c-.81,0-1.5-.56-1.67-1.34-1.92-8.81-4.66-16.61-8.23-23.41-.35-.66-.4-1.35-.17-2.06.53-1.65.82-4.3.84-7.97.06-7.23,1.06-17.95-6.5-22.13-5.22-2.88-19.16-1.62-25.75-1.04-1.39.13-2.53.61-3.44,1.43-.39.34-.97.31-1.31-.07-.15-.17-.23-.38-.23-.6v-30.99c0-.13.11-.24.24-.24,0,0,.02,0,.02,0Z"></path><path class="cls-3" d="M232.26,241.12c-7.67.04-16.13.8-18.97-8.55-1.57-5.2-1.93-10.98-1.08-17.34.1-.72.51-1.13,1.23-1.21,2.73-.35,9.14-.55,19.23-.61,7.67-.04,16.13-.8,18.97,8.55,1.57,5.2,1.93,10.98,1.08,17.34-.1.72-.51,1.13-1.23,1.21-2.73.35-9.14.55-19.23.61Z"></path><path class="cls-3" d="M159.33,214.46c.02,6.08-1.1,21.48-6.58,24.82-1.73,1.05-3.92,1.57-6.56,1.56-11.09-.09-19.29.11-24.6.58-.74.06-1.12-.27-1.15-1-.13-3.88.08-9.62.63-17.21.39-5.2,3.16-8.03,8.32-8.49,10.71-.97,20.4-1.35,29.06-1.15.58.01.87.31.89.89Z"></path><path class="cls-3" d="M248.22,306.06c-11-.49-20.71-.45-29.12.11-.76.06-1.44-.49-1.54-1.26-.69-5.56-.84-11.04-.43-16.46.53-7.25,4.12-10.91,10.76-11,7.77-.1,15.54.38,23.32,1.43.9.13,1.34.65,1.34,1.56v24.73c0,.88-.43,1.26-1.3,1.13-.68-.1-1.69-.18-3.03-.24Z"></path><path class="cls-3" d="M154.46,305.37h-33.39c-.62,0-.93-.31-.93-.93v-23.65c0-.9.44-1.36,1.32-1.41,9.21-.39,15.28-.63,18.21-.71,5-.17,10.39-1.36,13.32,3.38,1.07,1.76,1.61,4.6,1.62,8.51.01,5.3.16,10.03.43,14.18.03.42-.17.63-.58.63Z"></path><path class="cls-3" d="M121.15,309.13c10.51-.94,20.84-1.15,30.99-.65,1.86.09,3.47,1.3,4.07,3.05l6.67,19.99c.17.49-.09,1.02-.58,1.18-.09.03-.19.05-.29.05-8.16.19-16.33.18-24.51-.02-4.87-.11-9.66.52-13.34-3.05-4.09-3.96-4.53-13.6-4.31-19.19.03-.84.46-1.29,1.3-1.36Z"></path><path class="cls-3" d="M214.16,332.87c-5.56.12-7.48-2.46-5.76-7.73,1.11-3.41,1.96-5.72,2.56-6.93,2.74-5.63,6.8-8.45,12.17-8.47l27.89-.04c.79,0,1.19.43,1.19,1.28,0,7.61-1.36,13.66-4.09,18.17-1.31,2.15-3.88,3.24-7.71,3.27-5.99.03-14.74.18-26.24.45Z"></path><path class="cls-2" d="M241.24,442.34c0,1.09-.89,1.97-1.97,1.97l-137.03-.24c-1.09,0-1.97-.89-1.97-1.97h0s.06-34.82.06-34.82c0-1.09.89-1.97,1.97-1.97h0l137.03.24c1.09,0,1.97.89,1.97,1.97h0s-.06,34.82-.06,34.82Z"></path><path class="cls-2" d="M446.37,442.13c0,1.11-.9,2.01-2.01,2.01h-138.76c-1.11,0-2.01-.9-2.01-2.01v-34.6c0-1.11.9-2.01,2.01-2.01h138.76c1.11,0,2.01.9,2.01,2.01v34.6Z"></path><path class="cls-2" d="M653.23,442.54c0,1.02-.83,1.84-1.84,1.84h0l-140.23-.24c-1.02,0-1.84-.83-1.84-1.84l.06-35.08c0-1.02.83-1.84,1.84-1.84h0l140.23.24c1.02,0,1.84.83,1.84,1.84h0l-.06,35.08Z"></path><path class="cls-2" d="M861.18,441.66c0,1.18-.96,2.14-2.14,2.14h-138.54c-1.18,0-2.14-.96-2.14-2.14v-34.3c0-1.18.96-2.14,2.14-2.14h138.54c1.18,0,2.14.96,2.14,2.14h0v34.3Z"></path><path class="cls-1" d="M793.42,481.41c1.96,1.8,4.06,3.76,6.28,5.87,8.58,8.1,14.44,20.09,17,31.29,4.73,20.7-.02,38.73-14.27,54.09-3.15,3.39-6.27,6.34-9.38,8.86-10.61,6.67-21.83,10.22-33.65,10.65-12.04.45-22.94-2.02-32.7-7.41-14.55-8.03-24.01-21.06-28.37-39.11-4.63-19.19.15-37.04,14.36-53.57,8.08-9.4,17.59-15.48,28.52-18.23,18.25-4.61,35.65-2.09,52.21,7.56Z"></path><path class="cls-4" d="M793.05,581.52c3.1-2.51,6.23-5.46,9.38-8.86,14.25-15.36,19-33.39,14.27-54.09-2.56-11.2-8.42-23.19-17-31.29-2.22-2.11-4.32-4.06-6.28-5.87,10.75-5.56,20.57-8.7,29.45-9.42,24.82-1.99,43.49,7.54,56.02,28.6,7.51,12.65,10.72,25.64,7.93,40.08-3.93,20.3-14.85,35.36-32.76,45.19-11.37,6.24-24.32,7.64-36.92,5.22-3.18-.61-7.23-2.07-12.17-4.4-4.06-1.91-8.03-3.63-11.91-5.18Z"></path><path class="cls-5" d="M273.62,575.53c-.61,1.44-2.28,2.11-3.72,1.5h0l-.2-.09c-1.44-.61-2.11-2.28-1.5-3.72l13.51-31.67c.61-1.44,2.28-2.11,3.72-1.5h0l.2.09c1.44.61,2.11,2.28,1.5,3.72l-13.51,31.67Z"></path><path class="cls-5" d="M129.4,545.38h-19.32c-.81,0-1.21-.4-1.21-1.21v-1.78c0-1.11.56-1.67,1.67-1.67h28.09c.75,0,1.37.6,1.38,1.35,0,.31-.1.61-.29.86-4.89,6.24-9.98,13.92-15.24,23.06-1.2,2.08-1.81,4.57-1.84,7.47-.01.81-.41,1.32-1.19,1.54-2.77.79-5.34,1.1-7.71.93-1.6-.12-1.96-.84-1.08-2.19l17.5-27.02c.58-.9.33-1.34-.74-1.34Z"></path><path class="cls-5" d="M175.98,564.74c-.09,6.49-5.43,11.68-11.92,11.59l-1.78-.02c-6.49-.09-11.68-5.43-11.59-11.92h0s.17-12.08.17-12.08c.09-6.49,5.43-11.68,11.92-11.59l1.78.02c6.49.09,11.68,5.43,11.59,11.92h0s-.17,12.08-.17,12.08Z"></path><path class="cls-5" d="M207.31,557.76c-1.52.98-1.44,1.67.24,2.08,4.46,1.08,6.07,4.14,4.83,9.18-1.2,4.88-4.68,7.39-10.46,7.54-9.14.22-12.95-3.44-13.84-11.8-1-9.42,1.17-22.3,11.82-23.84,8.73-1.23,12.6,5.37,11.67,13.08-.09.72-.46,1.3-1.13,1.73l-3.14,2.04Z"></path><path class="cls-5" d="M250.77,546.14h-17.6c-.85,0-1.28-.43-1.28-1.28v-2.25c0-1.09.88-1.97,1.97-1.97h24.99c.57,0,1.05.45,1.05,1.03,0,.2-.05.41-.17.58-4.69,7.64-9.38,15.55-14.08,23.73-1.56,2.71-2.06,5.22-3.25,9.27-.19.65-.79,1.1-1.47,1.1h-5.15c-.93,0-1.69-.76-1.68-1.69,0-.27.07-.54.19-.78,5.07-9.87,10.73-18.79,16.98-26.74.52-.66.35-1-.5-1Z"></path><path class="cls-5" d="M337.93,553.61c-.08,1.13.77,2.12,1.9,2.2.3.02.59-.02.87-.12,3.96-1.5,6.8-.99,8.53,1.54,3,4.37,4.55,6.76,4.63,7.17.53,2.56-.13,5.1-1.99,7.62-4.33,5.85-16.22,6.08-19.23-1.34-1.82-4.55-.19-12.67-.17-17.58.06-9.94,7.8-14.55,17.08-11.07,2.13.78,3.55,2.79,3.57,5.05.04,2.81-1.05,4.08-3.29,3.79-.7-.08-1.31-.48-1.67-1.08-1.5-2.58-3.4-3.9-5.69-3.94-.79-.03-1.44.26-1.93.87-1.53,1.88-2.4,4.18-2.62,6.91Z"></path><path class="cls-5" d="M316.99,556.57c-1.79.79-1.79,1.57,0,2.34,2.21.95,3.81,2.21,4.31,4.98,1.73,9.92-6.26,13.23-14.83,12.23-4.78-.55-7.47-2.93-8.08-7.15-.54-3.79,1.39-7.84,1.88-11.35.13-.98.15-2.52.06-4.61-.17-3.71,1.07-6.94,3.72-9.68,4.72-4.87,14.46-2.6,16.39,4.42,1.21,4.36.06,7.3-3.46,8.81Z"></path><path class="cls-5" d="M383.58,557.14c-.25.75,0,2.05.71,3.9,1.65,4.2.06,10.22-2.86,12.39-4.94,3.65-10.18,4.16-15.72,1.52-6.04-2.88-4.98-13.49-4.35-19.79.75-7.68,4.35-12.28,10.78-13.79,10.91-2.58,14.2,7.62,11.43,15.79Z"></path><path class="cls-6" d="M163.41,573.01c-4.89.03-8.89-6.17-8.93-13.83-.04-7.67,3.89-13.9,8.78-13.93,4.89-.03,8.89,6.17,8.93,13.83h0c.04,7.67-3.89,13.9-8.78,13.93Z"></path><path class="cls-6" d="M367.21,555.62c-.32-.03-.55-.32-.52-.64h0s.15-1.57.15-1.57c.43-4.31,3.97-7.49,7.9-7.1l.26.02c3.93.39,6.78,4.19,6.37,8.51l-.17,1.56c-.03.31-.31.55-.63.52l-13.36-1.3Z"></path><path class="cls-6" d="M200.04,546.37l4.18.91c.99.21,1.77.98,1.99,1.97l.78,3.57c.3,1.4-.59,2.78-2,3.09-.13.03-.27.05-.41.05l-8.6.5c-1.43.09-2.67-1-2.75-2.43-.04-.61.14-1.21.5-1.7l3.66-4.96c.61-.82,1.64-1.21,2.64-1Z"></path><path class="cls-6" d="M307.42,556.05c-.9-.22-1.47-.32-1.71-.32-1.03-.04-1.79-1-1.7-2.15.02-.26.08-.51.19-.75,2.08-4.74,4.66-6.73,7.73-5.98,2.62.65,4.22,3.3,3.57,5.93-.06.25-.14.49-.24.72-1.13,2.69-3.74,3.54-7.84,2.56Z"></path><path class="cls-6" d="M348.39,565.52c0,3.4-2.75,6.15-6.15,6.15h0c-3.4,0-6.15-2.75-6.15-6.15h0c0-3.4,2.75-6.15,6.15-6.15h0c3.4,0,6.15,2.75,6.15,6.15h0Z"></path><path class="cls-6" d="M377.56,560.32c1.53.01,2.76,1.26,2.75,2.79h0s-.02,2.25-.02,2.25c-.04,4.07-3.07,7.33-6.76,7.3,0,0,0,0-.01,0h-.39c-3.69-.04-6.64-3.37-6.6-7.43l.02-2.25c.01-1.53,1.26-2.76,2.79-2.75h0l8.23.09Z"></path><path class="cls-6" d="M204.26,561.01c1.42-.04,2.59,1.08,2.64,2.49l.09,2.32c.11,3.63-2.75,6.67-6.38,6.78,0,0,0,0,0,0l-.78.02c-3.63.11-6.66-2.74-6.78-6.37l-.07-2.32c-.04-1.42,1.08-2.59,2.49-2.64l8.79-.28Z"></path><path class="cls-6" d="M315.47,567.35c-.36,3.04-3.64,5.15-7.32,4.71-3.68-.44-6.37-3.26-6.01-6.3h0c.36-3.04,3.64-5.15,7.32-4.71,3.68.44,6.37,3.26,6.01,6.3h0Z"></path></g></svg>