<svg xmlns="http://www.w3.org/2000/svg" id="Layer_2" data-name="Layer 2" viewBox="0 0 464.76 461.31"><defs><style>      .cls-1 {        stroke: #16898e;      }      .cls-1, .cls-2, .cls-3 {        fill: none;        stroke-width: 2px;      }      .cls-2 {        stroke: #82b3b0;      }      .cls-4 {        fill: #76b1c4;      }      .cls-4, .cls-5 {        stroke-width: 0px;      }      .cls-5 {        fill: #fff;      }      .cls-3 {        stroke: #92d4d9;      }    </style></defs><g id="Layer_1-2" data-name="Layer 1"><path class="cls-4" d="M75.09,401.82c-30.61-27.85-52.28-61.48-65.01-100.89C2.98,278.94-.37,255.03.03,229.2c.54-34.84,8.75-67.84,24.63-99.01,14.72-28.89,33.96-53.41,57.72-73.57,23.84-20.23,50.41-35.24,79.7-45.04,57.29-19.17,120.23-14.26,174.41,12.64,12.53,6.22,23.84,13.09,33.92,20.62,24.99,18.63,45.5,41.38,61.53,68.25,17.12,28.69,27.56,60.05,31.33,94.08,5.32,48.03-3.6,92.75-26.76,134.18-11.27,20.15-25.77,38.39-42.52,54.63-11.75,11.39-24.28,21.18-37.59,29.39-25.12,15.47-52.09,26.06-80.91,31.78-7.09,1.41-13.68,2.4-19.75,2.99-39.63,3.79-77.58-1.61-113.87-16.22-24.53-9.88-46.79-23.91-66.78-42.1Z"></path><path class="cls-5" d="M411.88,96.09c10.34,13.59,18.9,27.88,25.67,42.87,6.42,14.21,11.46,29.57,15.11,46.09,6.58,29.79,6.92,59.98,1.03,90.58-.72,3.75-2.3,9.74-4.75,17.98-2.05,6.9-4.02,12.77-5.92,17.61-8.6,21.89-20.95,42.48-37.04,61.76-18.67,22.37-40.74,40.3-66.19,53.78-16.48,8.73-34.79,15.75-54.94,21.04-14.22,3.74-29.53,5.81-45.93,6.21-16.23.39-31.32-.58-45.27-2.93-10.25-1.73-21.63-4.54-34.14-8.41-6.35-1.97-12.6-4.29-18.74-6.96-28.16-12.27-52.84-29.68-74.03-52.24-14.73-15.69-27.12-33.37-37.18-53.05C9.03,290.24,2.64,244.21,9.58,199.6c2.21-14.19,5.59-27.56,10.13-40.13,9.79-27.09,24.04-51.56,42.75-73.41,29.65-34.63,69.79-59.05,113.67-71.47,14.51-4.11,29.75-6.54,45.72-7.29,33.41-1.58,67.78,4.28,98.79,17.5,36.48,15.55,66.89,39.32,91.24,71.29Z"></path><g><path class="cls-2" d="M152.92,86.57l-6.16,4.18"></path><path class="cls-1" d="M146.76,90.75c-3.83,1.11-7.21,3.08-10.15,5.91"></path><path class="cls-2" d="M136.61,96.66l-7.54,5.28"></path><path class="cls-1" d="M129.07,101.94c-3.19,1.83-5.91,4.08-8.16,6.75"></path><path class="cls-2" d="M120.91,108.69c-1.94,2.46-4.17,4.52-6.68,6.19"></path><path class="cls-3" d="M120.91,108.69c11.7,19.77,24.4,40.1,38.09,60.99,1.31,1.99,3.26,2.34,5.87,1.03l.13-.09c1.9-1.42,2.27-4.31.85-6.7l-36.78-61.98"></path><path class="cls-3" d="M136.61,96.66c5.91,8.74,10.12,15.17,12.64,19.3,5.28,8.63,12.38,19.89,21.29,33.8,3.13,4.89,5.41,8.03,6.84,9.44.62.61,1.49.77,2.62.47,1.5-.39,2.77-1.13,3.82-2.21.22-.23.33-.56.29-.88-.27-2.39-2.34-5.5-3.81-7.93-11.31-18.7-21.31-35.29-29.98-49.76-1.51-2.51-2.7-5.23-3.56-8.14"></path></g><path class="cls-4" d="M336.7,90.65c5.17,3.8,8.42,6.22,9.75,7.27,1.71,1.35,2.04,3.12,1,5.29-.02.04-.05.08-.08.12-1.47,1.8-3.11,2.14-4.93,1.01-1.25-.77-2.9-1.95-4.93-3.54-2.75-2.14-4.37-3.38-4.84-3.71-26.21-18.29-54.92-28.55-86.12-30.78-2.54-.18-3.58-1.34-3.12-3.48,0-.03.01-.07.01-.14-.03-2.19,1.1-3.28,3.37-3.29,8.65-.03,17.89,1.07,27.73,3.31,12.45,2.83,24.45,6.94,36.02,12.33,8.92,4.15,17.63,9.36,26.14,15.61Z"></path><path class="cls-4" d="M152.92,86.57l-6.16,4.18c-3.83,1.11-7.21,3.08-10.15,5.91l-7.54,5.28c-3.19,1.83-5.91,4.08-8.16,6.75-1.94,2.46-4.17,4.52-6.68,6.19-.67.13-1.28.46-1.82.99-23.73,23.11-39.57,50.69-47.54,82.75-2.29,9.24-3.59,18.82-3.88,28.74-.85,28.45,5.29,55.72,18.4,81.81,5.79,11.52,12.8,22.48,21.02,32.89,2.29,2.9,4.86,5.32,7.24,8.19,1.74,2.11,1.65,3.95-.28,5.54-.87.73-1.81.95-2.82.68-1.41-.39-2.98-1.55-4.72-3.5-21.95-24.67-36.38-53.09-43.31-85.24-5.63-26.12-4.84-52.06,2.36-77.81,3.66-13.07,9.13-26.03,16.4-38.86,10.93-19.28,24.29-35.51,40.08-48.69,11.75-9.81,24.5-18.23,38.23-25.28,16.39-8.42,34.22-14.1,53.47-17.05,2.39-.37,4.04.57,4.93,2.82.05.14.08.24.09.3.2,2.17-.65,3.51-2.56,4.01-2.03.53-6.19,1.39-12.49,2.57-14.53,2.74-29.24,8.35-44.11,16.83Z"></path><path class="cls-4" d="M222.37,62.42c2.82,1.06,5.69,3.39,7.63,5.69,6.73,7.99,11.63,17.29,14.72,27.89.7,2.41,1.05,5.52,1.04,9.33-.07,64.14-.11,99.98-.12,107.52,0,2.84-.24,4.72-3.2,5.48-4.05,1.06-11.18,2.15-14.77-.77-2.55-2.08-4.3-4.51-5.23-7.28-.71-2.11-1.06-5.48-1.05-10.1.01-4.38-.04-45.49-.17-123.33,0-4.9.09-9.52.3-13.87.02-.35.31-.62.66-.6.07,0,.13.02.19.04Z"></path><path class="cls-4" d="M152.92,86.57c1.52,1.99,2.84,3.81,3.96,5.48,14.86,22.04,28.72,43.62,41.59,64.73,3.07,5.04,4.86,9.84,4.03,15.7-.22,1.52-.84,4.8-1.87,9.83-.92,4.5-1.11,8.77-.58,12.8.25,1.86.9,3.56,1.96,5.11,2.91,4.26,8.31,10.9,16.21,19.93,21.91,25.03,44.34,50.15,67.28,75.35,3.49,3.84,7.94,8.82,13.35,14.94,8.83,9.99,18.31,20.64,28.43,31.93,3.6,4.01,3.98,8.35,1.14,13.04-1.83,3.01-4.68,4.7-8.56,5.05-4.05.37-7.24-.79-9.56-3.48-2.84-3.29-6.46-7.63-10.87-13.02-16.11-19.72-32.83-38.87-48.66-58.75-22.6-28.37-43.74-54.22-63.43-77.54-3.3-3.91-5.36-5.76-10.64-7.43-7.39-2.33-14.98-4.89-19.98-10.42-2.09-2.31-4.15-5.28-6.18-8.9-11.17-19.87-18.48-32.89-21.94-39.06-4.91-8.75-9.7-17.75-14.37-26.98,2.51-1.67,4.74-3.73,6.68-6.19,11.7,19.77,24.4,40.1,38.09,60.99,1.31,1.99,3.26,2.34,5.87,1.03l.13-.09c1.9-1.42,2.27-4.31.85-6.7l-36.78-61.98,7.54-5.28c5.91,8.74,10.12,15.17,12.64,19.3,5.28,8.63,12.38,19.89,21.29,33.8,3.13,4.89,5.41,8.03,6.84,9.44.62.61,1.49.77,2.62.47,1.5-.39,2.77-1.13,3.82-2.21.22-.23.33-.56.29-.88-.27-2.39-2.34-5.5-3.81-7.93-11.31-18.7-21.31-35.29-29.98-49.76-1.51-2.51-2.7-5.23-3.56-8.14l6.16-4.18Z"></path><path class="cls-5" d="M146.76,90.75c.86,2.91,2.05,5.63,3.56,8.14,8.67,14.47,18.67,31.06,29.98,49.76,1.47,2.43,3.54,5.54,3.81,7.93.04.32-.07.65-.29.88-1.05,1.08-2.32,1.82-3.82,2.21-1.13.3-2,.14-2.62-.47-1.43-1.41-3.71-4.55-6.84-9.44-8.91-13.91-16.01-25.17-21.29-33.8-2.52-4.13-6.73-10.56-12.64-19.3,2.94-2.83,6.32-4.8,10.15-5.91Z"></path><path class="cls-5" d="M129.07,101.94l36.78,61.98c1.42,2.39,1.05,5.28-.85,6.7l-.13.09c-2.61,1.31-4.56.96-5.87-1.03-13.69-20.89-26.39-41.22-38.09-60.99,2.25-2.67,4.97-4.92,8.16-6.75Z"></path><path class="cls-4" d="M269.25,195.76c.34-.63.44-1.35.29-2.04-.83-3.77-1.97-7.14-2.42-11.06-1.19-10.54.86-20.24,6.16-29.11,5.25-8.79,11.81-16.25,19.66-22.4,12.31-9.65,26.34-14.51,42.08-14.6,3.93-.03,6.68.08,8.26.31,4.95.73,9.97,3.59,11.6,8.71.53,1.65.78,3.8.75,6.47-.19,20.26-6.68,38.22-19.48,53.87-9.49,11.61-22.33,19.15-37.28,20.55-1.43.13-5.84.19-13.24.17-2.77-.01-6.58,3.31-9.56,6.44-8.13,8.54-16.16,17.17-24.11,25.88-.94,1.03-2.08,2.16-3.41,3.4-.39.36-1.01.34-1.37-.05-.02-.02-.03-.04-.05-.06l-8.06-10.03c-.35-.44-.32-1.07.07-1.48,7.11-7.37,15.12-16.36,24.02-26.98,2.05-2.44,4.43-4.9,6.09-7.99Z"></path><path class="cls-5" d="M331.09,133.22c.56,1.22.25,2.37-.93,3.44-2.25,2.06-4.87,4.04-7.06,6.28-8.72,8.95-16.6,16.87-23.64,23.75-1.7,1.65-3.71,2.81-6.04,3.46-.32.09-.66.08-.97-.03-2.37-.84-3.92-3.69-2.27-6.12,1.12-1.65,2.08-2.88,2.87-3.71,6.49-6.79,14.88-15.41,25.16-25.84,1.34-1.37,3.04-2.73,5.11-4.09,3.17-2.08,6.42-.12,7.77,2.86Z"></path><path class="cls-4" d="M381.85,152.23c-3.34-5.68-7.1-10.43-10.46-15.65-1.3-2.02-.84-3.48,1.39-4.39.16-.07.27-.12.33-.15,2.07-1.09,3.98-.47,5.72,1.87,15.6,20.97,25.76,43.98,30.49,69.03,4.27,22.63,3.9,45.1-1.09,67.39-6.01,26.83-17.73,51.08-35.14,72.73-3.3,4.11-6.79,7.69-10.48,10.76-.74.61-1.73.84-2.66.62-.74-.17-1.21-.34-1.4-.49-2.1-1.73-2.38-3.46-.85-5.19,5.71-6.48,8.6-9.76,8.67-9.85,18.09-22.72,29.89-48.27,35.39-76.65,1.18-6.07,1.94-12.7,2.27-19.91,1.49-32.42-5.91-62.46-22.18-90.12Z"></path><path class="cls-5" d="M319.82,169.56c-4.63,5.5-7.74,8.92-9.32,10.26-1.61,1.36-4.07,1.72-6.48.94-.06-.02-.11-.04-.16-.07-2.81-1.81-3.19-3.8-1.14-5.97,9.39-9.93,17.27-18.56,23.64-25.87.77-.89,1.9-1.92,3.38-3.11,2.21-1.77,4.25-.16,5.76,1.85.59.78.57,1.87-.04,2.64-7.59,9.51-12.8,15.96-15.64,19.33Z"></path><path class="cls-4" d="M212.91,255.82l11.9,14.83c.52.64.5,1.27-.05,1.88-6.39,7.13-14.51,16.55-24.34,28.26-3.05,3.63-7.41,8.68-13.09,15.13-10.89,12.37-21.64,24.85-32.25,37.44-2.87,3.41-5.04,5.52-6.49,6.35-2.96,1.68-6.19,1.82-9.68.41-3.69-1.49-6.25-4.34-7.68-8.53-1.41-4.13-.57-7.84,2.52-11.12,13.11-13.95,29.52-31.82,49.23-53.61,9.79-10.83,21.29-22.95,28.71-31.08.42-.46.83-.45,1.22.04Z"></path><path class="cls-4" d="M226.12,274.71c7.19,8.1,13.23,15.39,18.14,21.87.31.42.58.92.79,1.51.21.6.33.95.37,1.05.15.36.22.72.23,1.09.12,21.58.13,44.83.03,69.74-.02,4.61-.12,7.36-.3,8.23-.59,2.82-2.01,5.29-4.26,7.42-2.88,2.73-8,2.74-11.44,1.46-5.03-1.88-7.4-7.15-7.42-12.44-.2-36.17-.28-66.92-.25-92.25,0-3.19,1.06-5.76,3.17-7.73.26-.25.68-.23.93.03,0,0,0,.01.01.02Z"></path><path class="cls-4" d="M231.07,403.68c31.84-.01,63.34-9.84,90.23-26.89,2.07-1.31,3.77-.93,5.09,1.14.02.04.05.08.09.13,1.43,1.92,1.05,3.61-1.14,5.06-18.72,12.37-38.95,20.73-60.7,25.09-11.52,2.31-22.71,3.47-33.57,3.47s-22.05-1.15-33.57-3.46c-21.75-4.35-41.98-12.71-60.71-25.07-2.19-1.45-2.57-3.14-1.14-5.06.04-.05.07-.09.09-.13,1.32-2.07,3.02-2.45,5.09-1.14,26.89,17.04,58.4,26.86,90.24,26.86Z"></path></g></svg>