<svg xmlns="http://www.w3.org/2000/svg" xmlns:xlink="http://www.w3.org/1999/xlink" id="Layer_2" data-name="Layer 2" viewBox="0 0 459.69 490.96"><metadata></metadata><defs><style>      .cls-1 {        fill: #183c2a;      }      .cls-1, .cls-2, .cls-3, .cls-4, .cls-5, .cls-6, .cls-7, .cls-8, .cls-9, .cls-10, .cls-11, .cls-12, .cls-13, .cls-14, .cls-15, .cls-16, .cls-17, .cls-18, .cls-19, .cls-20, .cls-21, .cls-22, .cls-23, .cls-24, .cls-25, .cls-26, .cls-27, .cls-28, .cls-29, .cls-30, .cls-31, .cls-32, .cls-33, .cls-34, .cls-35, .cls-36, .cls-37, .cls-38, .cls-39 {        stroke-width: 0px;      }      .cls-2 {        fill: #b20e23;      }      .cls-3 {        fill: #cdc2bd;      }      .cls-4 {        fill: #a0a830;      }      .cls-5 {        fill: #696835;      }      .cls-6 {        fill: #250a0b;      }      .cls-7 {        fill: #4e0812;      }      .cls-8 {        fill: #386843;      }      .cls-9 {        fill: #627713;      }      .cls-10 {        fill: url(#linear-gradient);      }      .cls-11 {        fill: #758431;      }      .cls-12 {        fill: #97091f;      }      .cls-13 {        fill: #bbafaa;      }      .cls-14 {        fill: #d04d5e;      }      .cls-15 {        fill: #7ba186;      }      .cls-16 {        fill: #b5b156;      }      .cls-17 {        fill: #294e34;      }      .cls-18 {        fill: #686716;      }      .cls-19 {        fill: #5e7f42;      }      .cls-20 {        fill: #898911;      }      .cls-21 {        fill: #2c3719;      }      .cls-22 {        fill: #f0f0f0;      }      .cls-23 {        fill: #4b6a37;      }      .cls-24 {        fill: #447756;      }      .cls-25 {        fill: #110909;      }      .cls-26 {        fill: #e2dbd8;      }      .cls-27 {        fill: #3c3d2b;      }      .cls-28 {        fill: #a09893;      }      .cls-29 {        fill: #374722;      }      .cls-30 {        fill: #d41825;      }      .cls-31 {        fill: url(#linear-gradient-4);      }      .cls-32 {        fill: url(#linear-gradient-2);      }      .cls-33 {        fill: url(#linear-gradient-3);      }      .cls-34 {        fill: #6e1415;      }      .cls-35 {        fill: #972639;      }      .cls-36 {        fill: #325e2c;      }      .cls-37 {        fill: #330c0b;      }      .cls-38 {        fill: #ae2e41;      }      .cls-39 {        fill: #7f071f;      }    </style><linearGradient id="linear-gradient" x1="102.13" y1="363.49" x2="92.8" y2="404.44" gradientTransform="translate(199.15 63.8) scale(.5)" gradientUnits="userSpaceOnUse"><stop offset="0" stop-color="#163727"></stop><stop offset="1" stop-color="#23543d"></stop></linearGradient><linearGradient id="linear-gradient-2" x1="-146.03" y1="137.21" x2="3.77" y2="187.44" gradientTransform="translate(199.15 63.8) scale(.5)" gradientUnits="userSpaceOnUse"><stop offset="0" stop-color="#d21829"></stop><stop offset="1" stop-color="#aa0a20"></stop></linearGradient><linearGradient id="linear-gradient-3" x1="206.35" y1="151.91" x2="-47.76" y2="206.92" gradientTransform="translate(199.15 63.8) scale(.5)" gradientUnits="userSpaceOnUse"><stop offset="0" stop-color="#530a12"></stop><stop offset=".78" stop-color="#960919"></stop><stop offset="1" stop-color="#41080d"></stop></linearGradient><linearGradient id="linear-gradient-4" x1="110.47" y1="98.82" x2="88.77" y2="152.61" gradientTransform="translate(199.15 63.8) scale(.5)" gradientUnits="userSpaceOnUse"><stop offset="0" stop-color="#670814"></stop><stop offset="1" stop-color="#97071c"></stop></linearGradient></defs><g id="Layer_1-2" data-name="Layer 1"><g><g><path class="cls-3" d="M338.8.04c-.84,7.54-3.17,2.98-3.75,3-7.53,6.23,11.85,23.1,19.75,33.74,3.11,4.19,13.75,19.61,16,23.5,7.11,12.27,16.71,38.26,22,46.49.94,1.46,3.07,1.54,4,3,.12.2.23,2.57.5,3,2.09,3.32,11.84,12.59,12,23.5l-2.5.75c-.31-.29-6.39-4.01-7.25-4.5-2.95-1.68-7.5-3.48-10.75-4.5-7.39-2.32-8.99-2.11-17-2.25.75-2.06-2.26-9.74-3.5-12.5-1.42-3.15-15.88-30.57-17-31.99-.33-.43-6.34-5.13-7-6-2.26-2.95-5.62-10.03-6-10.5-.74-.91-3.7-2.55-4.5-3.5-2.11-2.53-6.49-9.36-9-12-6.92-7.27-21.23-18.82-30.24-22.75-8.38-3.65-16.63-4.21-17.5-4.5-.55-.18-7.49-4.12-10.5-5-10-2.93-20.17-4.41-30.49-5.5-30.45-1.28-54.47,3.37-79.48,23-18.38,15.4-29.99,36.26-45.24,54.24-13.58,3.84-22.45,11.15-21.5,26.99,2.09,3.11,5.2,1.19,5.5,1.25.32.06.67-.03,1,0,.16.02.26.79,3,1,.1,9.74.47,22.22-1,31.74-.04.25-1.44,2.2-1.5,2.5-.26,1.32-.18,5.27-1,9-.14.65-2.4,2.56-2.5,3-2.55,10.85-2.25,35.08-6.5,48.49,2.13,7.77-1.62,11.33-2.5,24-1.15,16.52,2.55,44.97,7.5,60.99,2.81,9.09,16.22,38.38,21.5,45.99,4.67,6.74,53.93,60.02,61.74,67.24,15.37,14.2,18.75,16.17,40.74,19.25v-2.25c2.35,10.18,5.39,23.77,8.5,33.49-2.47,3.54-.7,5.78-3.25,5.5-3.13-7.44-9.11-4.72-13.5-7-2.37-1.23-1.19-2.54-4-4-2.29-1.19-12.82-2.93-16-4-3.32-1.12-9.56-4.98-11.5-5.5-1.88-.51-3.84.62-4,.5-.28-.2-.58-4.54-4-5-.6-.08-8.81,4.53-5.75-3.75-19.4-12.44-51.39-46.51-63.49-65.49-14.24-22.83-34.87-72.15-39.99-96.98-1.29-6.24-4.32-31.34-5-38.99-.83-9.39,1.83-20.05-3.5-22,1.17-59.09,7.05-102.85,36.49-154.97,11.74-20.26,36.24-44.47,38.99-49.49,1.47-2.67.83-5.73,1-6,.36-.55,5.32-.18,6-4.25C201.49,0,270.14-.02,338.8.04Z"></path><path class="cls-13" d="M132.84.04c-.68,4.07-5.64,3.7-6,4.25-.17.27.47,3.32-1,6-2.76,5.02-27.25,29.23-38.99,49.49-29.44,52.12-35.32,95.87-36.49,154.97,5.33,1.94,2.67,12.61,3.5,22,.67,7.65,3.71,32.75,5,38.99,5.12,24.83,25.75,74.15,39.99,96.98,12.1,18.97,44.09,53.05,63.49,65.49-3.06,8.28,5.15,3.67,5.75,3.75,3.42.45,3.72,4.8,4,5,.16.12,2.12-1.01,4-.5,1.94.52,8.18,4.38,11.5,5.5,3.17,1.07,13.7,2.81,16,4,2.81,1.46,1.63,2.77,4,4,4.39,2.28,10.36-.44,13.5,7,2.55.28.78-1.96,3.25-5.5,2.51,7.86,5.67,17.22,9.5,24.5-9.62-3.53-20.01-4.38-29.74-7.5-10.18-3.26-20.86-9.57-22-10-.47-.18,1.24,2.5-9.5-1.5-5.07-1.89-10.85-6.01-11.5-6-.26,0-.13,1.45-1.5,1.5-1.75.06-1.38-2.74-3-4-1.4-1.09-29.38-16.76-30.99-17.5-11.71-5.36,5.89,5.43,5.75,6.25l-1.25.75c-26.09-13.39-11.58-7.8-11.75-10.25-15.22-8.24-26.82-23.22-39.49-34.99-8.19-10.2-7.8-16.01-11-22-5.03-9.42-14.32-21.14-18.5-30.49-3.37-7.53-4.59-16.1-7.5-22.5-2.89-6.34-10.86-15.63-14.5-24-.37-.85-.84-5.27-1-5.5-.96-1.44-3.1-.41-3.75-.75-2.38-1.25-6.72-22.42-6.75-25.74-.04-5.54,3.86-12.03,0-10.5,2.42-18-7.09-25.33-3.5-46.49,6.28-1.98,1.7-.83,1-2-1.16-1.92,5.04-39.42,6-44.49.9-4.76,4.54-13.74,4.5-14.5-.11-1.99-1.81-1.47-2-2-.37-1.02,5.3-16.39,5.5-18,.26-2.07-1.52-2.53-1-3.5.25-.47,1.09,2.99,5-8.5l-3-.5c4.94-3.04,2.63-10.8,4.75-4.75,1.45.65,9.42-27.35,11.75-29.24.39-4.03-6.46,9.16-5.5,11.5-1.6,2.29-1.12-3.79-.5-6.5.49-2.18,7.39-18.26,8-11.25-.53,1.18-2.07,2.99-1.75,4.5l1.75-4.5c4.31-9.54,8.02-16.28,1.25-9l-1.25-1.75c5.73-10.03,6.6-5.65,7-6,.53-.47.32-5.13,4-13.5,3.32-7.54,8.25-10.91,6.5-15.5,5.79,1.56,16.11-14.55,22.5-20-14.8-.19-6.16-1.63,2-2.5-9.18-17.46,1.27-1.16-1-12.75,15-.02,29.99.01,44.99,0Z"></path><path class="cls-13" d="M370.29.04c.36,2.21-1.1,1.79-.5,3.75,1.46,4.75,41.79,52.54,48.49,75.49,2.56,8.76,3.25,18.15,6,26.99,2.86,9.2,11.56,25.53,13,30.49.73,2.52,6.48,37.49,6.5,39.49q-2,16-4,31.99c1.26,43.83.53,78.58-24.5,115.98,5.52-.1-.43,7.05-1.5,3l-4.5,9c.5,2.98,2.89-1.08,2.5,1.5-3.92,4.8-5.42,11.91-6.5,14-4.72,9.12-11.96,17.04-12.5,18-.09.17,1.19,1.9-.5,3.5-1.41,1.33-1.51-.43-1.75-.25-3.31,2.56-5.02,7.6-7.25,11-8.47,12.94-14.76,23.8-26.49,34.49l-1,.75,1-.75c7.69-3.71,14.1-14.16,14.5-10-10.54,13.33-24.54,22.57-38.74,31.49-16.13,10.14-33.25,19.01-49.99,27.99-.39.21-3.71,4.48-7,5-4.5.71-11.53-3.23-5.75,2.75.02.63-10.21.33-12.25.25,1.03,4.73-.21,2.24-4,4.5-4,2.39-9.71,7.43-10.75,6,.31-.37.59-.97.5-1.5.61.06.47-.46.5-.5,1.94-2.39-2.87-13.39-4-17,4.07.39,4.47-1.85,5.25-2,1.45-.29,3.91,1.25,5.5,1,.97-.15,15.9-6.91,18-8,11.33-5.92,29.5-20.32,39.49-28.99,11.4-9.9,29.14-27.67,38.74-39.24,16.44-19.81,35.55-50.6,44.99-74.49,1.08-2.73-.08-4.76,0-5,.18-.56,2.21-1.14,2.5-2,5.21-15.29,1.64-12.58,1.5-14.5-.16-2.18,2.45-5.83,3-7.5.29-.89.55-6.34,1-7,.46-.68,5.45-1.76,5-6.5-.31-3.25-3.84-.76-3-5,8.76,2.73,1.15-5.08,1-6.5-.06-.55,1.56-11.9,4-8.5-1.05-3.62,2.13-7.73,1.5-11.5-.11-.64-3.15-2.26-2-12.5.78-6.92,2.78-6.26,3-7,.4-1.37.61-27.07.5-28.49-.17-2.24-2.67-7.73-2.5-8.5.09-.4,2.4-2.08,2.5-2.5.13-.51.76-8.34,1-10.5.34-3.14-1.09-5.54-1-6,.1-.52,5.66-5.96,1-8.75,6.37-3.63,5.5-3.82,1-9,.05-.32-.01-.67,0-1,.11-3.03-2.74-8.4-5-10.5l2.5-.75c-.16-10.91-9.91-20.18-12-23.5-.27-.43-.38-2.8-.5-3-.93-1.46-3.06-1.54-4-3-5.29-8.23-14.89-34.22-22-46.49-2.25-3.88-12.89-19.31-16-23.5-7.89-10.64-27.28-27.51-19.75-33.74.57-.02,2.91,4.54,3.75-3,10.5,0,21-.01,31.49,0Z"></path><path class="cls-28" d="M403.28.04c7.22,10.21,14.68,20.12,20.5,31.24,14.34,27.42,23.05,56.66,28.49,86.98,12.14,67.68,10.54,146.91-13.5,211.96-8.26,22.35-39.05,79.35-53.99,96.98-13.31,15.71-46.09,40.97-65.24,48.24-7.41,2.81-43.04,12.14-50.99,13.5-10.53,1.79-18.6,2.1-29.24,2,.23-1.6,2.57-3.38,3.5-4.5,1.03,1.43,6.75-3.61,10.75-6,3.79-2.26,5.03.23,4-4.5,2.04.08,12.26.38,12.25-.25-5.78-5.98,1.25-2.04,5.75-2.75,3.29-.52,6.61-4.79,7-5,16.74-8.99,33.86-17.86,49.99-27.99,14.21-8.93,28.2-18.16,38.74-31.49,2-2.53,14.96-21.94,14.5-23.25l-2.5-1.25c2.23-3.4,3.94-8.44,7.25-11,.23-.18.34,1.58,1.75.25,1.69-1.6.41-3.33.5-3.5.53-.96,7.78-8.88,12.5-18,1.08-2.09,2.57-9.2,6.5-14,.4-2.58-2,1.48-2.5-1.5l4.5-9c1.07,4.05,7.02-3.1,1.5-3,25.02-37.4,25.76-72.15,24.5-115.98q2-16,4-31.99c-.02-2-5.77-36.98-6.5-39.49-1.43-4.96-10.13-21.29-13-30.49-2.75-8.84-3.44-18.24-6-26.99-6.7-22.94-47.03-70.73-48.49-75.49-.6-1.96.86-1.54.5-3.75,11,.01,22-.02,32.99,0Z"></path><path class="cls-26" d="M130.34,102.52c-5.74,4.26-12.4,9.94-10.5,18,.58,2.44,12.86,10.58,16,13-4.11,10.59-12.86,21.63-8.5,33.24-3.97,11.68-1.28,24.17-4.5,36.49,2.23,7.96-.02,29.52.5,30.99.1.29,6.38-1.64.5,2.5.38,2.63,13.28,3.55,15,5.25-2.63-.48-5.35-.6-8-1-.31-.05-3.06-3-5,.5-.16.02-.34-.03-.5,0-2.5-1.06-5.85-2.15-8.5-2.5-2.68-.36-3.56,1.04-3.75,1-12.73-2.39-15.28-12.08-13.75-1.5.91,6.3,1.42,12.74,2.5,19,.37,2.16,1.07,4.35,1.5,6.5.36,1.81.57,3.69,1,5.5.61,2.6,1.26,6.2,2,8.5.77,2.41,1.44,3.77,2.5,6,2.2,4.62,3.59,4.95,3.5,5.25-.26.83-2.46-1.21-.5,3,.64,1.38,3.46,3.98,4,4.75.74,1.05,1.67,3.04,2.5,4,6.82,7.84,15.11,13.15,25.5,14.5.16.02.34-.02.5,0l1,4c-.14.03-.05,1.18-2,2-.16.02-.34-.02-.5,0-8.89.93-17.79,9.68-19.75,11-5.78,3.89-9.78.09-2.75,5.5,2.97,2.28,3.71,2.47,4.5,3,4.09,2.74,4.23,3.25,9.5,6,1.54,2.53,9.18,6.19,12,7,3.73,1.07,2.8.48,3.5.5,2.94,2.65,7.85,2.23,11.5,1.5.05,2.35,3.03,1.53,4.5,1,4.9,3.02,37.33-.6,39.49-3.25.2-.24,1-5.22,0-6.25.26.07.68-.04,1,0-1.77,27.56,3.33,53.75,9.5,80.48v2.25c-22-3.08-25.37-5.05-40.74-19.25-7.81-7.22-57.06-60.49-61.74-67.24-5.28-7.61-18.69-36.9-21.5-45.99-4.95-16.02-8.65-44.46-7.5-60.99.88-12.66,4.63-16.22,2.5-24,4.25-13.41,3.95-37.65,6.5-48.49.1-.44,2.35-2.35,2.5-3,.82-3.72.74-7.68,1-9,.06-.3,1.46-2.25,1.5-2.5,1.47-9.52,1.1-22.01,1-31.74.54.04.86.99,1.5.25-8.54-18.8,17.83-18.83,29.49-15.75Z"></path><path class="cls-26" d="M388.79,128.01c-7.46-1.19-14.47-1.26-22-.5-5.23.53-10.31,2.21-15.5,3-.63-8.91-5.62-48.77-9-54.49-1.13-1.91-3.24.6-5.25.5-3.97-.2-15.91-3.73-20.5-4.5-7.19-1.2-15.54-.82-22.75-3.25,4.4-3.77-3.89-5.66-4.5-6.5-.5-.69.07-2.4,0-2.5-4.1-5.71-16.71-10.77-18.75-9.75-1.21.6-.46,2.17-1,2.5-2.27,1.37-18.32-3.11-14,4.5-5.41-1.87-11.24,1.47-16-1.5-1.7,1,3.03,1.44-1.75,3.5-.15.05-.35-.05-.5,0-1.51-2.85-12.27-18.05-13.75-18.5-1.35-.41-16.64.58-28.24,0-7.96-.4-7.31-4.19-13,5.75-12.84,22.46-4.73,50-6,54.99-.05.21-1.51,1.59-2,1.75-.03-1.62-12.01-28.45-13-29.74-1.35-1.77-9.02-6.38-11.5-7.25-1.07-.37-3.58-2.42-8.5-1.25-.56,2.92.97,25.18-.25,25.74-1.68.77-19.1-5.64-36.49,1.5-14.5,5.95-18.08,26.23-9.25,25-.3-.05-3.41,1.86-5.5-1.25-.95-15.84,7.92-23.16,21.5-26.99,15.25-17.98,26.86-38.84,45.24-54.24,25.02-19.63,49.04-24.28,79.48-23,10.33,1.09,20.5,2.57,30.49,5.5,3.01.88,9.95,4.81,10.5,5,.86.29,9.12.85,17.5,4.5,9.01,3.92,23.33,15.48,30.24,22.75,2.51,2.64,6.88,9.47,9,12,.8.95,3.76,2.58,4.5,3.5.38.47,3.74,7.55,6,10.5.66.87,6.66,5.57,7,6,1.12,1.42,15.58,28.85,17,31.99,1.24,2.75,4.25,10.44,3.5,12.5,8.01.14,9.61-.07,17,2.25Z"></path><path class="cls-28" d="M46.85,81.02l-1.75,4.5c-.32-1.51,1.22-3.32,1.75-4.5Z"></path><path class="cls-3" d="M391.79,140.01c5.37.98,16.9,5.98,17.5,12.25.07.75-2.51,8.8,0,5.75.76-.57,1.43-.46,1.5-.5,4.66,2.79-.89,8.22-1,8.75-.09.46,1.34,2.86,1,6-.24,2.16-.87,9.99-1,10.5-.1.42-2.41,2.1-2.5,2.5-.17.77,2.33,6.26,2.5,8.5.11,1.42-.1,27.13-.5,28.49-.22.74-2.22.08-3,7-1.15,10.24,1.89,11.85,2,12.5.63,3.77-2.55,7.88-1.5,11.5-2.44-3.4-4.06,7.94-4,8.5.15,1.42,7.76,9.23-1,6.5-.84,4.24,2.69,1.75,3,5,.45,4.74-4.54,5.81-5,6.5-.45.66-.71,6.11-1,7-.55,1.67-3.15,5.32-3,7.5.14,1.92,3.71-.8-1.5,14.5-.29.86-2.32,1.44-2.5,2-.08.24,1.08,2.27,0,5-9.44,23.89-28.55,54.67-44.99,74.49-9.6,11.57-27.34,29.34-38.74,39.24-9.99,8.68-28.16,23.08-39.49,28.99-2.09,1.09-17.02,7.85-18,8-1.59.25-4.05-1.29-5.5-1-.78.15-1.18,2.39-5.25,2-4.54-14.56-8.39-27.09-12-41.99,1.05,1.17,3.82-2.22,6.75-3.5,1.74-.76,9.54-2.57,11.5-3.5,1.71-.81,2.63-2.51,3.5-3,1.17-.66,3.44-.84,4.5-1.5,2.37-1.47,9.27-7.98,12.5-10,4.32-2.7,10.36-4.77,13-6.5,12.49-8.19,22.74-17.21,33.24-27.74.09-.09-.06-1.93.5-2.5,1.47-1.49,6.86-4.95,11-9.5,4.34-4.77,18.17-20.9,19.5-25.99.34-1.32-4.09-.98,4-7,3.72-11.41,11.23-23.83,15-34.99.2-.59-2.58-.8,3.5-11.5,7.23-33.84,9.85-68.9,12.5-103.48-.53-11.72.98-23.75-.5-35.24,4.89-.71,8.7-.38,13.5.5Z"></path><path class="cls-13" d="M371.29,408.46c-.39-4.17-6.81,6.29-14.5,10,11.73-10.7,18.02-21.56,26.49-34.49l2.5,1.25c.46,1.31-12.5,20.72-14.5,23.25Z"></path><path class="cls-13" d="M356.79,418.46l-1,.75,1-.75Z"></path><g><path class="cls-28" d="M87.85.04c2.27,11.58-8.18-4.71,1,12.75-8.16.87-16.8,2.31-2,2.5-6.39,5.45-16.71,21.56-22.5,20,1.75,4.59-3.18,7.95-6.5,15.5-3.68,8.36-3.47,13.03-4,13.5-.4.35-1.27-4.03-7,6l1.25,1.75c6.77-7.28,3.06-.54-1.25,9-.61-7.01-7.5,9.07-8,11.25-.62,2.71-1.1,8.79.5,6.5-.96-2.34,5.89-15.53,5.5-11.5-2.32,1.89-10.3,29.89-11.75,29.24-2.12-6.05.19,1.71-4.75,4.75l3,.5c-3.91,11.49-4.75,8.03-5,8.5-.52.97,1.26,1.43,1,3.5-.2,1.61-5.87,16.97-5.5,18,.19.53,1.89.01,2,2,.04.76-3.6,9.74-4.5,14.5-.96,5.07-7.16,42.57-6,44.49.7,1.17,5.28.02-1,2-3.59,21.16,5.92,28.49,3.5,46.49,3.86-1.53-.04,4.95,0,10.5.02,3.32,4.36,24.49,6.75,25.74.65.34,2.78-.69,3.75.75.16.23.63,4.65,1,5.5,3.64,8.36,11.61,17.65,14.5,24,2.91,6.4,4.13,14.96,7.5,22.5,4.18,9.35,13.47,21.08,18.5,30.49,3.19,5.98,2.8,11.8,11,22,12.67,11.77,24.27,26.75,39.49,34.99.17,2.45-14.34-3.14,11.75,10.25l1.25-.75c.14-.81-17.45-11.61-5.75-6.25,1.62.74,29.59,16.4,30.99,17.5,1.62,1.26,1.25,4.06,3,4,1.37-.05,1.24-1.5,1.5-1.5.65,0,6.43,4.11,11.5,6,10.74,4,9.02,1.32,9.5,1.5,1.14.42,11.82,6.74,22,10,9.74,3.12,20.13,3.97,29.74,7.5.06.11.32.02,1.5,2,.69,1.15,1.11,2.42,2.5,3-2.26-.02-1.92-.99-2.25-1-40.13-.6-77.14-.82-112.48-23-18.46-11.58-47.77-37.84-60.74-55.24-1.82-2.45-29.59-47.59-31.99-51.99-3.78-6.92-11.9-24.36-14.5-31.49-5.55-15.22-14.47-55.37-15.5-70.99-.54-8.3-.42-55.23,0-65.49C2.87,130.24,25.14,54.61,54.35.04c11.16-.02,22.33.01,33.49,0Z"></path><path class="cls-3" d="M57.1,46.03c2.4-.31,2.12.91,0,1v-1Z"></path></g><path class="cls-22" d="M147.83,143.51c.07.45.75.04,1,4,1.16,18.38-5.65,31.55,8.5,55.49-15.09-16.32-20.22-21.83-27.24-43.49.35,14,2.23,25.37,12.25,35.74-18.25,14.69-16.07,13.13,2.75,3.25,4.22,4.03,8.4,8.41,13,12,4.98,3.89,5.96,3.29,6.25,3.5,1.89,1.37,3.32,2.7,4,5-3.08.44-12.89,7.3-19.75,6.5-1.89-.22-7.59-4.47-1,1,7.15,2.37,15.5-3.84,21.75-7,2.11.36,2.74.81,4.5,1.5,8.93,3.48,7.56,4.31,8,4.5-10.01,9.32-14.22,12.19-27.74,15.5,17.06,1.38,30.31-.79,45.24-9,.45-.25,2.91-1.68,3-1-.54,1.06-.79,3.52-1,4-2.89,6.73-7.67,16.11-12.5,21.5l-8.5-8.25,7,10.25c-4.34,4.27-5.75,1.75-3.75,5.5,15.74.43,26.35-6.98,35.74-19,.05.01.32-.77,1,0-2.11,8.57-4.79,21.69-2,29.99-3.63,8.91-4.41,21.47-6,31.24-.35,2.13-3.18,10.19-3.5,12.5-.12.87,1.28.93,1,3-.84,6.35-3.19,18.72-3.5,23.25l-16-5.25c2.82-1.36,4.06-2.95,6-5.25,6.84-8.11,7.17-23.27,2.5-32.49-4.66-9.2-13.86-4.31-19,1.75-10.11,11.94-3.07,23.74-4.25,24.25-7.43-8.7-12.35-9.86-23.25-9-2.36.19-1.89.98-2,1-2.56.39-4.09-.69-5-.5l-1-4c8.55.93,15.68.2,23.5-3.5.7-.33,1.19.53,1.25.5.75-.42.97-1.77,1.25-2,16.15-13.12,17.62-38.16,3.5-53.24-8.54-9.12-22.12-12.96-33.99-15.25-.31-.06-.69.06-1,0-1.71-1.7-14.62-2.62-15-5.25,5.88-4.14-.4-2.21-.5-2.5-.52-1.47,1.73-23.03-.5-30.99,3.22-12.32.53-24.81,4.5-36.49-4.36-11.61,4.39-22.65,8.5-33.24,4.17,3.2,8.37,6.14,12,10Z"></path><path class="cls-22" d="M205.32,347.47c1,1.03.2,6.01,0,6.25-2.16,2.65-34.59,6.27-39.49,3.25.86-.31.79-.38,1-.5,11.62-2.16,14.85-10.64,17-13,1.79-1.96.25-2.09,4.25-2,4.55.11,13.07,4.81,17.25,6Z"></path><path class="cls-22" d="M342.3,76.02c-1.07.21-4.11,1.49-4.5,1.5-3.95.08-26.31-6.71-49.24-7-1.19-.01-6.74,1.22-7.5,1-.46-.13-3.77-5.01-6.5-7-9.59-7-25.58-8.8-36.74-5.5,4.78-2.06.05-2.5,1.75-3.5,4.76,2.97,10.58-.37,16,1.5-4.32-7.61,11.73-3.13,14-4.5.54-.33-.21-1.9,1-2.5,2.04-1.02,14.65,4.03,18.75,9.75.07.1-.5,1.81,0,2.5.61.84,8.9,2.73,4.5,6.5,7.2,2.43,15.55,2.05,22.75,3.25,4.59.77,16.53,4.3,20.5,4.5,2.01.1,4.12-2.41,5.25-.5Z"></path><path class="cls-26" d="M227.82,425.46c-1.01-4.15-2.64-8.3-3.5-12.5,1.08-3.1,2.77-1.66,3.25-2,.51-.36-.81-.64.5-1.5,16.47-10.76,27.44-17.53,43.99-29.49.44-.32.95.53,1,.5.34-.24,3.52-4.25,4.5-5,.43-.33.96.53,1,.5,12.07-9.29,33.15-38.32,39.24-52.24,4.36-9.95,6.94-23.98,8.5-27.99.95-2.45,4.34-1.71,2.5-6.25,4.95.64,10.12,1.86,13.75,5.5.58-2.28-1.64-4.27-3.25-5.5l-2.5-2.25c1.96-7.91,3.74-16.58,9-24,3.68-17.7,5.55-35.69,8.5-53.49.04-.24.96-.76,1-1,.38-2.23-.77-3.97-.5-5.5.16-.94,6.17-10.57,0-8.25,7.87-16.53,9.37-31.54,11-49.49,1.18-.82,3.76-4.72,12.5-6,1.48,11.49-.03,23.52.5,35.24-2.64,34.58-5.27,69.64-12.5,103.48-6.08,10.7-3.3,10.9-3.5,11.5-3.77,11.16-11.28,23.58-15,34.99-8.09,6.02-3.66,5.68-4,7-1.32,5.09-15.15,21.23-19.5,25.99-4.14,4.55-9.53,8.01-11,9.5-.56.57-.41,2.41-.5,2.5-10.5,10.53-20.76,19.55-33.24,27.74-2.64,1.73-8.68,3.8-13,6.5-3.23,2.02-10.13,8.53-12.5,10-1.06.66-3.33.84-4.5,1.5-.87.49-1.79,2.19-3.5,3-1.96.93-9.76,2.74-11.5,3.5-2.93,1.28-5.7,4.67-6.75,3.5Z"></path><path class="cls-22" d="M252.81,277.98c-11.32,3.03-18.28,6.74-24.5,17,3.23-10.5,3.97-21.74,11-30.49.36-.07.56-.04.5-.5,4.53,4.82,17.19,15.1,13,14Z"></path><path class="cls-22" d="M339.3,289.48c-2.78-2.12-8.06-3.35-11.5-4.5-24.06-8.03-38.36-9.96-63.49-9-.2,0-2.85,1.21-4,.25-1.06-.88-3.37-22.17-5.5-26.99,13.59,4.2,20.68,9.29,18.25,24.75,2.55,1.37,4.9-11.36-3.5-19-8.44-7.68-15.98-2.51-15.75-12.5,15.71,7.17,29.5,13.95,42.24,25.99-3.73-14.31-25.95-27.42-25.25-29.24.46-1.19,15.42,1.44,25.25.75,18.24-1.27,24.5-6.39,36.74-17.5,7.67-6.95,11.25-10.1,17-19,1.86-2.89,3.51-5.37,5-8.5,6.17-2.32.16,7.31,0,8.25-.27,1.53.88,3.27.5,5.5-.04.24-.96.76-1,1-2.95,17.8-4.82,35.79-8.5,53.49-5.26,7.42-7.04,16.08-9,24l2.5,2.25Z"></path><g><path class="cls-22" d="M328.8,289.48c1.84,4.54-1.54,3.8-2.5,6.25-1.56,4.01-4.14,18.04-8.5,27.99-6.09,13.92-27.17,42.95-39.24,52.24-.04.03-.57-.83-1-.5-.98.75-4.16,4.76-4.5,5-.05.03-.56-.82-1-.5-16.55,11.97-27.52,18.74-43.99,29.49-1.31.85,0,1.14-.5,1.5-.48.34-2.17-1.1-3.25,2-4.3-20.98-5.83-42.36-4-63.74.84-9.8.65-17.39,9.5-23.25.41-.27,2.11-1.51,2.25-1.5.65.03,5.08,4.56,11.75,5.5,21.4,3.03,38.07-33.15,67.49-39.49.16-.03.34.03.5,0,6.74-1.18,9.89-1.92,17-1Z"></path><path class="cls-5" d="M235.07,338.97q6.12,2.62,12.25,5.25c.3,3.26-12.06-3.14-12.25-5.25Z"></path></g></g><g><path class="cls-29" d="M410.78,157.51c-.07.04-.74-.07-1.5.5-1.12-3.19,2.27-7.9,2.5-9.5,4.5,5.18,5.37,5.36-1,9Z"></path><path class="cls-17" d="M188.83,227.99c3.15,1.36,6.27,2.38,9.5,3.5.05.02-.17.69,1,.5-14.93,8.21-28.18,10.37-45.24,9,13.53-3.31,17.73-6.18,27.74-15.5.36.15.22-.43,7,2.5Z"></path><path class="cls-1" d="M225.82,246.49c4.13,6.44,8.76,11.91,14,17.5.06.46-.14.43-.5.5-1.21.23-7.25,9.42-11,12-.27.19-3.22,1.88-3.5,2-5.31,2.31-4.76,1.69-6.5-3.5-2.79-8.31-.11-21.42,2-29.99.34-1.39,1.06-2.69,1.5-4,1.83,1.33,2.81,3.64,4,5.5Z"></path><g><path class="cls-23" d="M243.32,484.94c.09.53-.19,1.13-.5,1.5-.93,1.12-3.27,2.9-3.5,4.5-.5,0-1,0-1.5,0-1.39-.58-1.81-1.85-2.5-3,.24-3.26.72-9.6.5-12.5,7.03,8.89-.48,13.22,7.5,9.5Z"></path><path class="cls-19" d="M224.82,278.48c-.94,2.43-1.71,4.89-2,7.5-3.7,11.07-6.92,28.97-8.5,40.74-4.66,34.69-3.33,59.07,4.5,93.23,1.94,7.61,3.42,15.42,5.5,23,.63,2.32,3.59,14.57,4,15.25,1.22,2.03,2.32.64,2.5,1,1.49,2.9,2.19,11.72,5,13.25.1.98-.07,2.01,0,3,.22,2.9-.26,9.23-.5,12.5-1.18-1.98-1.44-1.89-1.5-2-3.83-7.28-6.99-16.64-9.5-24.5-3.11-9.73-6.15-23.31-8.5-33.49-6.17-26.73-11.26-52.92-9.5-80.48.09-1.39-.02-2.15,0-2.5.31-4.53,2.66-16.9,3.5-23.25.28-2.07-1.12-2.13-1-3,.32-2.31,3.15-10.37,3.5-12.5,1.59-9.78,2.36-22.33,6-31.24,1.74,5.19,1.19,5.81,6.5,3.5Z"></path><path class="cls-29" d="M243.82,484.44s.11.56-.5.5c-7.97,3.72-.46-.61-7.5-9.5-.07-.99.1-2.02,0-3-.87-8.27-5.99-15.42-6.5-23.25-2.6-.43.1-.05-1-4-1.11-4-2.43-3.27-2.5-3.5-.06-.18,1.45-.07,1-1.5-.14-.44-.98-.2-1-.25-1.95-6.11-3.15-12.72-4.5-19-1.4-6.49-1.18-14.22-4.5-19.75-1.51-11.95-3.2-25.98-3-37.99.14-8.56,2.74-16.08,2-24.5,3.3-.7.33-1.49.5-3,.61-5.36,2.26-11.09,3-16.5.35-2.51-.35-5.99,0-8.5.34-2.47,2.16-5.35,2.5-7.5.04-.25-.54-4.75-.5-5,.07-.47,1.44-.03,1.5-.5.18-1.46-1.02-1.82-1-2,.02-.17,1.39-2,1.5-3,.04-.35-1.22-.13-.5-6.75.28-2.6,1.06-5.07,2-7.5.27-.12,3.23-1.81,3.5-2l1.5-.25c-2.04,11.06-7.54,25.95-9,36.99-.23,1.74.67,2.65.5,4-2.45,19.75-5.75,41.09-2,59.99-.97,23.21,13.17,72.97,21,95.98.8,2.36,4.69,8.13,3.5,11.25Z"></path><path class="cls-21" d="M239.32,264.49c-7.03,8.75-7.76,20-11,30.49-.34,2.85-1.35,5.07-1.5,8-1.18,3.54-2.02,7.56-2.5,11.25-2.32,17.78-1.85,14.14,5.5,8.75.02.08.61-.35.5,1.5-.05.76-1.69,1.32-.5,1.5-8.85,5.85-8.66,13.45-9.5,23.25-1.83,21.38-.31,42.76,4,63.74.86,4.19,2.49,8.35,3.5,12.5,3.61,14.91,7.45,27.43,12,41.99,1.12,3.6,5.94,14.61,4,17,1.19-3.11-2.7-8.89-3.5-11.25-7.83-23.01-21.96-72.77-21-95.98-3.75-18.9-.45-40.24,2-59.99.17-1.35-.73-2.26-.5-4,1.46-11.04,6.96-25.93,9-36.99l-1.5.25c3.75-2.57,9.79-11.77,11-12Z"></path><path class="cls-23" d="M221.32,420.96l-2.5-1c-7.83-34.16-9.16-58.54-4.5-93.23,1.58-11.78,4.79-29.67,8.5-40.74-.72,6.62.54,6.4.5,6.75-.11,1-1.48,2.83-1.5,3-.02.17,1.18.54,1,2-.06.47-1.43.03-1.5.5-.04.25.54,4.75.5,5-.34,2.15-2.15,5.03-2.5,7.5-.35,2.5.35,5.99,0,8.5-.74,5.41-2.39,11.14-3,16.5-.17,1.51,2.8,2.3-.5,3,.75,8.41-1.86,15.93-2,24.5-.2,12.01,1.49,26.04,3,37.99,3.32,5.53,3.1,13.26,4.5,19.75Z"></path><path class="cls-23" d="M235.82,472.45c-2.81-1.53-3.51-10.35-5-13.25-.18-.36-1.28,1.03-2.5-1-.41-.68-3.36-12.93-4-15.25l1.5-3c.02.05.86-.19,1,.25.45,1.43-1.06,1.32-1,1.5.07.23,1.39-.5,2.5,3.5,1.1,3.95-1.6,3.57,1,4,.5,7.83,5.63,14.98,6.5,23.25Z"></path><path class="cls-23" d="M221.32,420.96c1.35,6.28,2.55,12.89,4.5,19l-1.5,3c-2.07-7.57-3.56-15.38-5.5-23l2.5,1Z"></path></g><path class="cls-22" d="M229.82,322.98c-7.35,5.39-7.82,9.04-5.5-8.75.48-3.68,1.32-7.7,2.5-11.25-.42,8.25,1.22,12.51,3,20Z"></path><g><path class="cls-8" d="M219.32,244.99c-9.4,12.01-20,19.43-35.74,19-2-3.75-.59-1.23,3.75-5.5,2.08-2.05,1.42-1.91,1.5-2,4.83-5.39,9.61-14.77,12.5-21.5,3.56,4.79,13.86,6.84,15.25,7.5.93.44.49,2.02,2.75,2.5Z"></path><path class="cls-17" d="M221.32,236.99c.62.8,1.02,1.63,1.5,2.5-2.42.86-.84,1.01-1,1.5-.44,1.31-1.16,2.61-1.5,4-.68-.77-.95.01-1,0-2.26-.48-1.82-2.06-2.75-2.5-1.38-.66-11.69-2.71-15.25-7.5.21-.48.46-2.94,1-4,.05-.09.93-.58,1.5-1.5,2.54,1.94,13.72,6.38,17.5,7.5Z"></path></g><g><path class="cls-17" d="M157.33,203c2.87,4.85,8.26,9.47,7,11-.29-.21-1.27.39-6.25-3.5-4.6-3.59-8.77-7.97-13-12-18.82,9.88-21,11.44-2.75-3.25-10.02-10.37-11.9-21.75-12.25-35.74,7.02,21.67,12.15,27.17,27.24,43.49Z"></path><path class="cls-17" d="M169.33,219.5c-6.25,3.16-14.6,9.37-21.75,7-6.59-5.47-.89-1.22,1-1,6.85.8,16.67-6.06,19.75-6.5,2.01-.29.66.44,1,.5Z"></path></g><path class="cls-17" d="M188.83,256.49c-.08.09.58-.05-1.5,2l-7-10.25,8.5,8.25Z"></path><g><g><path class="cls-17" d="M130.84,240.99c2.65.4,5.37.52,8,1,.31.06.69-.06,1,0-.34,2.45.79,2.73,1.5,4,11.75,20.91,10.38,31.12,14,53.99-2.61-2.49-18.77-20.84-19.5-22.5-.14-.32.43-3.91-1.5-6.5-.49-3.34-1.24-4.34-2-7-.75-3.47-.6-2.93-2-6-.2-.5-.4-2.68-1-4-3.82-8.48-10.92-11.23-4-12.5.16-.03.34.02.5,0,1.68-.18,3.32.26,5-.5Z"></path><path class="cls-17" d="M119.34,295.48c12.07,6.06,19.14-1.85,43.49,13,1.71,1.04,3.65,1.95,5,3.5-7.82,3.7-14.94,4.43-23.5,3.5-.16-.02-.34.02-.5,0q-12.75-7.25-25.5-14.5c-.83-.96-1.76-2.95-2.5-4,2.65,1.19,1.17-1.89,3.5-1.5Z"></path><path class="cls-17" d="M116.84,238.99c2.73,3.93,3.66,9.09,5.5,13.25.12.28,1.18-.69,3.5,4.5,1.75,3.92.37,11.29,7.75,13.75.29-.16-1.07-5.69-1.25-6.5.76,2.66,1.51,3.66,2,7,.09.6-.56,1.77,1,4.25l-.75.75c-2.63-2.11-6.36-1.5-7.25-3,.34.03,1.37,1.07,3,.25-9.96-11.86-19.94-23.84-30.99-34.74-1.53-10.58,1.02-.89,13.75,1.5.19.04,1.07-1.36,3.75-1Z"></path><path class="cls-9" d="M127.34,272.98c-6.71-.6-12.8-4.82-18-9-2.24-1.8-4.87-5.37-7.5-6.5-1.07-6.26-1.59-12.69-2.5-19,11.06,10.9,21.04,22.89,30.99,34.74-1.63.82-2.66-.22-3-.25Z"></path><path class="cls-23" d="M109.34,263.99c5.2,4.18,11.28,8.4,18,9,.89,1.5,4.62.89,7.25,3l.75-.75c-1.56-2.47-.91-3.65-1-4.25,1.93,2.58,1.36,6.18,1.5,6.5-9.17,1.6-25.17-4.19-29.49.5-.74-2.3-1.39-5.89-2-8.5,7.75,3.59,2.33-.65,2.5-5,.94.02,1.47-.76,2.5-.5Z"></path><path class="cls-17" d="M125.34,241.49c-6.92,1.27.18,4.01,4,12.5-1.9-.24.53,2.96,1,4,.38.99,1.69,4.92,2,6,.18.81,1.54,6.33,1.25,6.5-7.38-2.45-6-9.82-7.75-13.75-2.32-5.19-3.38-4.22-3.5-4.5-1.84-4.16-2.77-9.31-5.5-13.25,2.65.35,6,1.44,8.5,2.5Z"></path><path class="cls-36" d="M112.84,278.98c-.81,9.93,3.18,7.78,5.5,14-2.18.21-5.73-.88,1,2.5-2.33-.39-.85,2.69-3.5,1.5-.54-.77-3.36-3.37-4-4.75-1.96-4.21.24-2.17.5-3,.09-.3-1.3-.63-3.5-5.25l1-5.25c1.02-1.44,1.79-.19,3,.25Z"></path><path class="cls-9" d="M143.83,315.48c-10.39-1.35-18.68-6.66-25.5-14.5q12.75,7.25,25.5,14.5Z"></path><path class="cls-23" d="M109.34,263.99c-1.03-.26-1.56.52-2.5.5-.86-.02-1.82-.81-3.5-.5-.43-2.15-1.13-4.34-1.5-6.5,2.63,1.13,5.26,4.7,7.5,6.5Z"></path><path class="cls-20" d="M106.84,264.49c-.17,4.35,5.25,8.59-2.5,5-.42-1.8-.64-3.69-1-5.5,1.68-.31,2.64.48,3.5.5Z"></path><path class="cls-16" d="M130.84,240.99c-1.68.76-3.32.32-5,.5,1.94-3.5,4.69-.55,5-.5Z"></path><path class="cls-17" d="M170.33,310.48c-.56-.67-2.25-1.11-3-1.5,8.59-11.51,8.24-17.76,8.5-31.74-1.11-.34-1.12-6.31-1.5-7.5-1.8-5.73-10.81-18.48-15-17,7.19,14.76,6.94,37.66,4,53.74-3.63-2.32-4-2.77-7-5.5l2,.25c1.22-15.85-2.63-46.4-17-55.24-.71-1.27-1.84-1.54-1.5-4,11.87,2.28,25.45,6.13,33.99,15.25,14.12,15.08,12.65,40.12-3.5,53.24Z"></path><path class="cls-18" d="M163.83,306.98c1.1.67,2.36,1.41,3.5,2,.75.39,2.44.83,3,1.5-.28.23-.5,1.58-1.25,2-.06.03-.55-.83-1.25-.5-1.35-1.55-3.29-2.46-5-3.5l1-1.5Z"></path><path class="cls-1" d="M156.33,300.98c-.38-.35-.66-.68-1-1-3.62-22.87-2.25-33.08-14-53.99,14.37,8.84,18.22,39.39,17,55.24l-2-.25Z"></path><path class="cls-23" d="M132.34,263.99c-.31-1.08-1.62-5.01-2-6,1.4,3.07,1.25,2.53,2,6Z"></path><path class="cls-23" d="M129.34,253.99c.59,1.32.8,3.49,1,4-.47-1.04-2.9-4.24-1-4Z"></path><path class="cls-1" d="M167.33,308.98c-1.13-.59-2.4-1.33-3.5-2-.03-.02.11-.11-.5-.5,2.94-16.08,3.19-38.98-4-53.74,4.19-1.49,13.2,11.27,15,17,.37,1.19.39,7.16,1.5,7.5-.26,13.98.09,20.23-8.5,31.74Z"></path><g><path class="cls-9" d="M135.84,277.48c.73,1.66,16.88,20.01,19.5,22.5.34.32.62.65,1,1,3,2.73,3.37,3.18,7,5.5.61.39.47.48.5.5l-1,1.5c-24.35-14.85-31.42-6.94-43.49-13-6.73-3.38-3.18-2.29-1-2.5,4.54-.45,8.97-.23,10.5-1.25-3.77-4.24-10.9-10.87-16-12.75-1.21-.44-1.98-1.69-3-.25l-1,5.25c-1.06-2.23-1.73-3.59-2.5-6,4.33-4.69,20.33,1.1,29.49-.5Z"></path><path class="cls-23" d="M125.09,284.98c10.98,1.61,17.6-.95,23.25,9.75-2.32,2.86-27.55-7.02-23.25-9.75Z"></path></g><path class="cls-23" d="M118.34,292.98c-2.32-6.22-6.31-4.06-5.5-14,5.1,1.88,12.22,8.5,16,12.75-1.53,1.02-5.96.8-10.5,1.25Z"></path></g><g><g><path class="cls-1" d="M198.82,301.98c4.67,9.23,4.34,24.39-2.5,32.49-6.09,5.33-12.95,6.94-9.5,2.5,4.02-2.46,1.09-.91,2-2.75,5-10.18,8.01-17.32,1.25-28.24l-1.25.25c-.74,10.25.71,20.98-3,30.74-1.89.83-2.1,1.99-2.25,2-1.24.06-.65-1.5-.75-1.5-.36-6.37.88-29.73,2.5-33.74.43-1.05,3.24-1.91,2.75-4.25,7.3-1.52,10.22,12.37,11.5,11.5,1.52-3.37-2.59-9.27-.75-9Z"></path><path class="cls-17" d="M198.82,301.98c-1.84-.27,2.27,5.63.75,9-1.28.87-4.2-13.02-11.5-11.5.49,2.34-2.32,3.2-2.75,4.25-1.62,4.01-2.86,27.37-2.5,33.74-.56.01-.94,0-1.5,0-2.93-6.62-16.42-18.23-17.5-13.5-1.32,2.23,7.13,7.1,4,11-2.66-2.34-4.44-6.2-7-8.75-3.05-3.05-9.31-6.03-8.5-7.25,10.9-.86,15.81.3,23.25,9,1.18-.51-5.87-12.3,4.25-24.25,5.14-6.06,14.34-10.95,19-1.75Z"></path><path class="cls-17" d="M186.83,336.97c-.16.1-.78-.1-1,0,3.71-9.77,2.25-20.5,3-30.74l1.25-.25c6.76,10.93,3.75,18.07-1.25,28.24-.91,1.84,2.02.29-2,2.75Z"></path></g><g><path class="cls-17" d="M142.83,321.48c-7.14,4.73,3-.99,10,14.5-.43.6-.37.94-.5,1.5-.16.7-.49.47-.5.5-.91-.27-1.59.65-.5,1-1.12,1.98-8.39,10.39-9.75,10.5-.84.07-8.56-5.27-9.75-6.75.81-1.01,2.57-.86,1.5-2.25,3.51-1.43,6.27-2.21,3.75-3-4.67.8-10.47-.08-9.75,2l-7-1.5c-7.04-5.41-3.03-1.61,2.75-5.5,1.96-1.32,10.86-10.07,19.75-11Z"></path><path class="cls-17" d="M152.83,335.97c-7-15.49-17.13-9.77-10-14.5.16-.02.34.02.5,0,.35-.04,5.83.42,7,.5.92.06.77-2.56,7.25,2.5,3.6,2.81,5.62,7.04,8.75,10.25-1.72,2.34-9.37.38-13.5,1.25Z"></path><path class="cls-27" d="M152.33,318.98c-.81,1.22,5.44,4.2,8.5,7.25,2.56,2.55,4.34,6.4,7,8.75,4.02,3.54,4.27,1.89,9,2.5.65.08,1.04.98,1.25,1,2.02.17,3.08-1,3.25-1,.56,0,.94.01,1.5,0,.1,0-.49,1.56.75,1.5.15,0,.36-1.17,2.25-2,.22-.1.84.1,1,0-3.46,4.44,3.4,2.83,9.5-2.5-1.94,2.3-3.18,3.89-6,5.25l16,5.25c-.02.35.09,1.11,0,2.5-.32-.04-.74.07-1,0-4.17-1.19-12.69-5.89-17.25-6-4-.09-2.46.04-4.25,2-1.43.21-.89-.5,0-1.75-1.04-1.63-2.12.02-3.5-.25-.03,0,.19-.36-.5-.5-2.9-.57-5.65-.62-8.5-1-.62-.08-3.48-1.22-7.5-1.5-3.16-.22-3.47-1.11-6,.5-.44-1.63-3.54-1.5-5.5-1.5.13-.56.07-.9.5-1.5,4.13-.87,11.78,1.09,13.5-1.25-3.13-3.21-5.15-7.44-8.75-10.25-6.48-5.06-6.33-2.44-7.25-2.5v-2c.11-.02-.36-.81,2-1Z"></path><path class="cls-17" d="M179.83,340.97c-3.27,5.91-11.99,13.7-18.5,15-3.65.73-8.56,1.15-11.5-1.5.05,0-.16-.98.25-1,1.07-.06-.21,1.7,4.5.5,5.01-1.28,14.01-9.21,16.75-14,2.85.38,5.6.43,8.5,1Z"></path><path class="cls-17" d="M171.33,339.97c-2.73,4.79-11.73,12.72-16.75,14-4.71,1.2-3.43-.56-4.5-.5-.41.02-.2,1-.25,1-.7-.02.23.57-3.5-.5.3-2.21-2.48-2.64-4-3.5.64-.23,5.26-.86,5.5-1l3.25,3.5c4.49-4.64,9.55-8.79,12.75-14.5,4.02.28,6.88,1.42,7.5,1.5Z"></path><path class="cls-17" d="M157.83,338.97c-.84.53-9.38,10.13-10,10.5-.24.14-4.86.77-5.5,1-4.48-2.54-7.39-3.18-8-3.5-5.26-2.75-5.41-3.26-9.5-6l2-1c-1.48,4.03,3.87,1.57,6.5.5,1.07,1.39-.69,1.24-1.5,2.25,1.19,1.48,8.91,6.81,9.75,6.75,1.36-.1,8.62-8.52,9.75-10.5.18-.32.36-.66.5-1,.01-.03.34.2.5-.5,1.96,0,5.06-.13,5.5,1.5Z"></path><path class="cls-23" d="M180.33,341.47c-.46,3.21-12.45,14.4-13.5,15-.21.12-.14.19-1,.5-1.46.53-4.45,1.35-4.5-1,6.5-1.3,15.22-9.08,18.5-15,.69.14.47.49.5.5Z"></path><path class="cls-11" d="M142.33,350.47c1.52.86,4.3,1.29,4,3.5-2.81-.81-10.46-4.47-12-7,.61.32,3.52.96,8,3.5Z"></path><path class="cls-4" d="M150.33,319.98v2c-1.17-.08-6.65-.54-7-.5,1.95-.82,1.86-1.97,2-2,.91-.19,2.44.89,5,.5Z"></path><path class="cls-9" d="M127.34,339.47l-.5.5-2,1c-.79-.53-1.53-.72-4.5-3l7,1.5Z"></path><path class="cls-17" d="M133.34,340.47c-2.62,1.07-7.98,3.53-6.5-.5l.5-.5c-.73-2.08,5.08-1.2,9.75-2,2.53.79-.24,1.57-3.75,3Z"></path><path class="cls-15" d="M151.83,337.97c-.14.34-.32.68-.5,1-1.09-.35-.41-1.27.5-1Z"></path><path class="cls-17" d="M183.83,343.47c-2.15,2.35-5.37,10.83-17,13,1.05-.59,13.03-11.79,13.5-15,1.38.27,2.46-1.38,3.5.25-.89,1.25-1.43,1.96,0,1.75Z"></path><path class="cls-36" d="M163.83,338.47c-3.19,5.7-8.26,9.86-12.75,14.5l-3.25-3.5c.62-.37,9.16-9.97,10-10.5,2.53-1.61,2.84-.72,6-.5Z"></path><path class="cls-17" d="M181.33,337.47c-.17,0-1.22,1.17-3.25,1-.21-.02-.6-.92-1.25-1-2.99-4.17-8.49-11.67-13-13.5,1.08-4.74,14.56,6.88,17.5,13.5Z"></path><path class="cls-1" d="M176.83,337.47c-4.73-.61-4.98,1.04-9-2.5,3.13-3.89-5.32-8.77-4-11,4.51,1.83,10,9.33,13,13.5Z"></path></g></g></g><g><path class="cls-10" d="M253.31,240.49c-.12.86.52,1.02.5,2-.24,9.99,7.31,4.82,15.75,12.5,8.4,7.64,6.05,20.37,3.5,19,2.43-15.45-4.66-20.54-18.25-24.75,2.13,4.82,4.44,26.11,5.5,26.99,1.15.96,3.8-.24,4-.25l1.75,2.5c-3.44-.32-6.61,1-9.25,3-4.48,3.39-14.55,19.62-10.5,25-3.03,3.05-7.49,8.9-10.5,12.5-1.62-10.61-.4-25.18,7.75-32.99,5.77-5.53,12.21-4.95,9.25-8,4.2,1.1-8.47-9.17-13-14-5.24-5.59-9.87-11.06-14-17.5l.75-1c5.28,3.68-1.04-1.09-3.75-6-.48-.87-.88-1.7-1.5-2.5,10.64,3.14,20.88,4.07,31.99,3.5Z"></path><path class="cls-8" d="M225.82,246.49c-1.19-1.86-2.17-4.17-4-5.5.16-.49-1.42-.64,1-1.5,2.71,4.91,9.03,9.68,3.75,6l-.75,1Z"></path></g><g><path class="cls-17" d="M235.82,318.98c-1.64,1.96-2.28,4.91-5.5,5.5.11-1.85-.48-1.42-.5-1.5-1.78-7.48-3.41-11.74-3-20,.15-2.93,1.16-5.15,1.5-8,6.22-10.26,13.18-13.97,24.5-17,2.96,3.04-3.48,2.47-9.25,8-8.15,7.81-9.37,22.39-7.75,32.99Z"></path><path class="cls-8" d="M339.3,289.48c1.61,1.22,3.83,3.22,3.25,5.5-3.63-3.64-8.8-4.86-13.75-5.5-7.11-.92-10.26-.18-17,1,2.9-2.04,8.01-2.18,12-3.5.88-.29,1.96.97,4-2,3.44,1.15,8.72,2.38,11.5,4.5Z"></path><g><path class="cls-24" d="M323.8,286.98c-3.99,1.32-9.1,1.46-12,3.5-.16.03-.34-.03-.5,0-32.27,6.12-45.18,31.66-61.74,37.99-1.71.66-4.84-.38-5.75,1.5-6.67-.94-11.09-5.47-11.75-5.5-.14,0-1.84,1.23-2.25,1.5-1.19-.18.45-.74.5-1.5,3.22-.59,3.86-3.54,5.5-5.5,3.01-3.6,7.46-9.45,10.5-12.5.76-.77,1.75-1.81,2.5-2.5,17.09-15.56,53.25-22.85,74.99-17Z"></path><path class="cls-17" d="M311.3,290.48c-29.42,6.34-46.09,42.52-67.49,39.49.91-1.88,4.03-.84,5.75-1.5,16.55-6.33,29.46-31.88,61.74-37.99Z"></path></g><path class="cls-17" d="M327.8,284.98c-2.04,2.97-3.12,1.71-4,2-21.73-5.86-57.9,1.44-74.99,17-.45-8.09,3.97-15.71,8-22.5,2.64-2,5.81-3.32,9.25-3l-1.75-2.5c25.13-.96,39.42.97,63.49,9Z"></path><path class="cls-1" d="M256.81,281.48c-4.03,6.79-8.45,14.41-8,22.5-.75.69-1.73,1.73-2.5,2.5-4.05-5.37,6.02-21.6,10.5-25Z"></path></g><path class="cls-17" d="M332.8,222.49c-12.24,11.1-18.5,16.22-36.74,17.5-9.83.69-24.78-1.94-25.25-.75-.7,1.82,21.52,14.94,25.25,29.24-12.74-12.04-26.53-18.83-42.24-25.99.02-.98-.62-1.14-.5-2,11.26-.58,25.25-4.3,34.49-11,12.23,3.89,34.16.87,41.99-10.25,2.01-2.85,2.79-6.83,3-7.25,2.06-4.15,4.27-8.53,4-5.25l-4,15.75Z"></path><path class="cls-22" d="M287.81,229.49c1.21-.87,2.39-1.99,3.5-3,2.37.8,5.92.6,8.5.5,12.52-.49,24.97-4.96,32.99-15-.21.42-.99,4.4-3,7.25-7.83,11.12-29.76,14.14-41.99,10.25Z"></path><g><path class="cls-32" d="M149.83,66.03c8.38,23.25,3.9,48.66,11,72.24,1.01,3.34,3.91,8.1,5,11.25,5.26,15.21,10.39,30.09,15,45.49,3.21,10.75,5.54,22.05,10,32.24l-2,.75c-6.78-2.93-6.64-2.35-7-2.5-.44-.19.93-1.02-8-4.5.29-.64.66-.9.5-1.75-.98-5.19-9.55-37-11.5-42.49-3.15-8.88-9.09-21.2-14-29.24-.25-3.96-.93-3.55-1-4-1.15-6.96-3.72-13.8-5-20.75-1.08-5.85-2.32-23.91-3.25-24.75-15.61-6.16-47.07-4.48-43.24,19-.32-.03-.68.06-1,0-8.84,1.24-5.25-19.05,9.25-25,17.4-7.14,34.81-.73,36.49-1.5,1.22-.56-.31-22.83.25-25.74,4.92-1.17,7.43.88,8.5,1.25Z"></path><path class="cls-30" d="M388.79,128.01c3.24,1.02,7.8,2.82,10.75,4.5.86.49,6.94,4.21,7.25,4.5,2.26,2.1,5.1,7.47,5,10.5-3.01-2.78-3.92-5.5-7.5-8.5-7.06-5.91-27.42-11.73-36.24-6.5-19.5,26.73-80.88,46.47-112.48,52.99-8.18,1.69-69.53,11.7-71.74,8.25l.5-1.75c.5-.35,6.19-3.3,6.75-3.5,18.86-6.87,71.95-6.23,110.73-22.5,3.51-1.47,6.62-3.35,10-5,13.78-6.72,26.88-14.59,39.99-22.5,5.69-3.43,14.03-6.35,15-11,7.53-.76,14.53-.69,22,.5Z"></path><path class="cls-34" d="M411.78,147.51c-.01.33.05.68,0,1-.23,1.6-3.62,6.31-2.5,9.5-2.51,3.05.07-5,0-5.75-.6-6.27-12.13-11.26-17.5-12.25,2.07-1.62,5.35.5,6.25.5.19,0,.81-1,1-1,4.06-.1,5.87.77,5.25-.5,3.58,3,4.49,5.72,7.5,8.5Z"></path><g><path class="cls-12" d="M147.83,143.51c-3.62-3.86-7.83-6.79-12-10-3.14-2.41-15.42-10.55-16-13,7.4,9.34,9.17-10.48,13-16.25.39-1.32-.83-1.31-2.5-1.75-11.67-3.09-38.03-3.05-29.49,15.75-.64.74-.96-.21-1.5-.25-2.74-.21-2.84-.98-3-1-3.83-23.47,27.63-25.16,43.24-19,.92.84,2.17,18.89,3.25,24.75,1.28,6.94,3.84,13.78,5,20.75Z"></path><path class="cls-30" d="M119.84,120.51c-1.9-8.06,4.75-13.74,10.5-18,1.67.44,2.89.43,2.5,1.75-3.83,5.76-5.6,25.59-13,16.25Z"></path></g><path class="cls-34" d="M351.29,130.51c.18,2.52-.56,5.55.5,8-13.11,7.9-26.22,15.78-39.99,22.5,2.57-13.76,5.79-27.4,6-41.49,2.19-1.78,10.12-9.55,11.5-11.5.42,1.2,5.89,8.49,7,5.25,2.8-11.61,2.06-23.42,1.5-35.24v-.5c.39,0,3.43-1.29,4.5-1.5,3.38,5.72,8.37,45.58,9,54.49Z"></path><path class="cls-30" d="M337.8,77.52v.5c-6.75,6.72-13,14.57-20.5,20.5-2.78,2.19-8.47,6.35-11.5,7.5-3.64,1.38-10.87,2.73-14.75,3-8.53.58-10.44.54-4.75-1,6.4-1.74,9.19-2.99,15-6,6.23-3.23,11.78-6.68,16.5-12,1.98-2.24,7.94-5.71-3.25-9.5-3.88-1.31-30.65-5.17-34.24-2-.34-.57-7.63-9.14-8.75-10-10.49-8.04-34.46-9.59-43.49,1.5l-2.25-.5c.38-1.15.45-1.91.5-2,.05-.1-.14-.41,1-2,2.63-3.65,6.27-4.2,9.75-5.5.44-.17.19-.98.25-1,.15-.05.35.05.5,0,11.16-3.3,27.15-1.5,36.74,5.5,2.72,1.99,6.04,6.86,6.5,7,.76.22,6.31-1.01,7.5-1,22.94.28,45.29,7.08,49.24,7Z"></path><path class="cls-34" d="M174.33,103.02c.09,5.34-10.17,18.53,3.5,5l1.5-.25c-3.3,8.11-9.66,15.05-12.5,23.5-.23.68.22,2.24,0,3-.14.5-1.37,0-1.5.5-.03.11.55,1.95.5,2.25-.22,1.4.05,1.75,0,3,0,.06-1,.4-1,.75.03,3.05,1.21,5.7,1,8.75-1.09-3.15-3.99-7.91-5-11.25-7.1-23.58-2.61-48.99-11-72.24,2.48.87,10.15,5.48,11.5,7.25.98,1.29,12.97,28.12,13,29.74Z"></path><path class="cls-30" d="M366.79,127.51c-.97,4.64-9.31,7.57-15,11-1.06-2.45-.32-5.48-.5-8,5.18-.79,10.27-2.47,15.5-3Z"></path><path class="cls-33" d="M309.3,125.51c.77,3.58-1.72,9.24-2.5,13.25-.85,4.38-1.05,9.71-2,14-1.37,6.15-5.23,12.22-3,13.25-38.78,16.26-91.87,15.63-110.73,22.5-.56.2-6.25,3.15-6.75,3.5-1.41.99-2.39,1-2,3-.6-.19-.84-.5-1.5,0-4.6-15.4-9.74-30.29-15-45.49.21-3.04-.97-5.7-1-8.75,0-.35,1-.69,1-.75,10.53,7.58,57.81,26.21,67.24,26.99,9.67.81,23.63-3.57,31.74-9.25l-.75-.75c-14.77,8.2-32.95,4.42-46.74-4,4.76,1.3,7.28,3.09,12.75,3.5,20.51,1.55,38.49-8.8,55.74-18,4.7-2.51,9.42-4.73,14-7.5,2.96-1.79,6.8-3.69,9.5-5.5Z"></path><path class="cls-14" d="M173.83,221c-1.76-.69-2.39-1.14-4.5-1.5-.34-.06,1.01-.79-1-.5-.68-2.3-2.11-3.63-4-5,1.27-1.53-4.13-6.15-7-11-14.15-23.94-7.34-37.11-8.5-55.49,4.91,8.04,10.85,20.36,14,29.24,1.95,5.49,10.52,37.3,11.5,42.49.16.85-.21,1.11-.5,1.75Z"></path><path class="cls-34" d="M182.33,195c1.33.42,2.56,1.01,4.5,1.5-.08.81-1.09.13-1,1.25.24,2.95,8.71,29.56,12.5,33.74-3.23-1.12-6.35-2.14-9.5-3.5l2-.75c-4.46-10.19-6.79-21.49-10-32.24.66-.5.9-.19,1.5,0Z"></path><path class="cls-2" d="M404.28,139.01c.62,1.27-1.19.4-5.25.5-.19,0-.81,1-1,1-.9,0-4.17-2.12-6.25-.5-4.8-.88-8.61-1.21-13.5-.5-8.74,1.28-11.32,5.18-12.5,6-3.89,2.69-7.43,5.89-11.5,8.5-4.7,3.01-9.65,6.28-14.5,9-2.95,1.65-7.12,4.07-10,5.5-.66.33-1.35.69-2,1-2.17,1.04-4.75,2.02-7,3-2.78,1.21-5.67,2.38-8.5,3.5-15.31,6.05-41.21,13.98-57.24,17-13.03,2.45-48.3,6.69-60.24,5.5-2.39-.24-5.58-1.39-8-2-1.94-.49-3.17-1.08-4.5-1.5-.39-2,.59-2,2-3l-.5,1.75c2.2,3.45,63.55-6.56,71.74-8.25,31.59-6.51,92.98-26.26,112.48-52.99,8.82-5.24,29.18.59,36.24,6.5Z"></path><path class="cls-25" d="M311.8,161.01c-3.38,1.65-6.49,3.53-10,5-2.23-1.03,1.63-7.1,3-13.25.95-4.28,1.15-9.62,2-14,.78-4.01,3.27-9.67,2.5-13.25,2.79-1.87,5.9-3.89,8.5-6-.21,14.09-3.43,27.73-6,41.49Z"></path><path class="cls-6" d="M194.82,198.5c1.8,8.86,1.52,25.28,9,30.99-.57.92-1.45,1.41-1.5,1.5-.09-.68-2.55.75-3,1-1.17.19-.95-.48-1-.5-3.79-4.19-12.26-30.79-12.5-33.74-.09-1.12.92-.44,1-1.25,2.42.61,5.61,1.76,8,2Z"></path><path class="cls-12" d="M329.3,108.02c8.03-11.35-4.44-2.94-9.5,1-1.23-1.42-5.71,3.95-7,2.25.7-4.81,5.17-10.65,4.5-12.75,7.5-5.92,13.74-13.78,20.5-20.5.56,11.82,1.3,23.64-1.5,35.24-1.11,3.25-6.58-4.05-7-5.25Z"></path><path class="cls-30" d="M329.3,108.02c-1.38,1.95-9.31,9.72-11.5,11.5-2.6,2.11-5.71,4.13-8.5,6-2.69,1.81-6.53,3.71-9.5,5.5-1.87-.37-2.12-.85-2-3,1.37-1.08,2.59-2.45,4-3.5,3.15-2.67-5.93-1.26-2.5-4,2.95.69,5.45,2.03,5.75,2,1.19-.12,12.42-11.68,14.75-13.5,5.06-3.94,17.53-12.35,9.5-1Z"></path><path class="cls-14" d="M194.32,114.52c.88,4.05,2.39,7.24,4,11,1.66,3.86,2.91,5.95,5,9.5,3.85,6.51,8.04,12.72,13.5,18-9.26-2.61-17.47-6.56-26.49-9.5-2.67-7.03-4.27-13.69-2-21,.33-1.07.94-2.57,1.5-3.5.16-.27,3.65-4.22,4.5-4.5Z"></path><path class="cls-25" d="M184.83,111.52c-3.07,9.35-7.8,18.12-9,27.99-3.27-.95-6.63-1.97-10-2.5.05-.3-.53-2.14-.5-2.25.13-.5,1.36,0,1.5-.5.22-.76-.23-2.32,0-3,2.84-8.44,9.2-15.39,12.5-23.5l-1.5.25c.16-.16-.18-1.04,2.75-3.5.86,0,3.62,6.02,4.25,7Z"></path><path class="cls-6" d="M204.82,83.52c4.29,1.64,7.34,8.1,8.5,9.5h-.5c-.32-1.43-1.86-2.66-3-3.5-.08-.06-.68-1.19-1.25-1.5-9.72,8.58-11.5,24.97-10.25,37.49-1.61-3.75-3.12-6.95-4-11-.38-1.73-.79-3.22-1-5-.85-7.18-1.23-15.37,3.5-21.5,3.88-5.03,7.37-4.31,8-4.5Z"></path><path class="cls-34" d="M189.83,119.01c-.56.93-1.17,2.43-1.5,3.5-5.61-.37-4.45,13.07-2.5,20-3.31-1.02-6.67-2.04-10-3,1.2-9.88,5.92-18.65,9-27.99,1.63,2.51,3.69,4.77,5,7.5Z"></path><g><path class="cls-30" d="M195.32,40.53c-.02,2.6,5.15,5.15,5,7.25-.1,1.41-12.81,18.13-14.5,24.25-3.1,11.25,2.09,22.42,5.5,32.99.48,1.48.59,3.52,2,4.5.21,1.78.62,3.27,1,5-.85.28-4.34,4.23-4.5,4.5-1.31-2.73-3.37-4.99-5-7.5-.63-.98-3.39-6.99-4.25-7-2.93,2.46-2.59,3.34-2.75,3.5-13.67,13.53-3.41.34-3.5-5,.49-.16,1.95-1.54,2-1.75,1.27-4.99-6.84-32.53,6-54.99,5.68-9.94,5.04-6.15,13-5.75Z"></path><path class="cls-12" d="M237.32,59.03c-.06.02.19.83-.25,1-3.48,1.3-7.12,1.85-9.75,5.5-10.84-16.54-35.19-2.97-37.99,13-1.44.23-.61.5-1.5,1-.27-3.51,1.06-7.25-2-7.5,1.69-6.12,14.4-22.83,14.5-24.25.15-2.1-5.01-4.65-5-7.25,11.6.58,26.89-.41,28.24,0,1.47.45,12.24,15.64,13.75,18.5Z"></path><path class="cls-34" d="M189.33,78.52c10.33-1.67,2.63,6.11,7.5,9.5-4.73,6.12-4.35,14.32-3.5,21.5-1.41-.98-1.52-3.02-2-4.5,1.9-8.08-2.4-11.44-3.5-25.5.89-.5.06-.77,1.5-1Z"></path><path class="cls-12" d="M187.83,79.52c1.1,14.06,5.4,17.41,3.5,25.5-3.41-10.58-8.6-21.74-5.5-32.99,3.06.24,1.72,3.99,2,7.5Z"></path></g><path class="cls-34" d="M284.31,107.02l2,1c-5.69,1.54-3.78,1.58,4.75,1,3.87-.26,11.11-1.61,14.75-3-2.83,5.16-8.88,7.24-14,9,1.31-2.71-4.54-.11-5.75,0-2.48.22-6.13-.33-8,0-3.88.69-22.08,7.79-23.5,7.5-1.25-.26-14.7-16.04-17.25-18.5l.5-1c1.51,1.26,2.91,2.57,4.25,4,15.19-.72,26.65,6.87,42.24,0Z"></path><path class="cls-30" d="M227.32,65.53c-1.14,1.59-.95,1.9-1,2-.78.29-2.34,1.09-3,1-.09-.01-1.39-.45-1.5-.5-1.34-.61-12.9-12.89-24.5,4.25-.83,5.26,1.59,4.4,5.5,7.25,1.16.85,2.34,1.62,3.5,2.5,0,.42-1.4,1.47-1.5,1.5-.63.19-4.12-.53-8,4.5-4.87-3.38,2.83-11.16-7.5-9.5,2.8-15.96,27.15-29.54,37.99-13Z"></path><path class="cls-6" d="M319.8,109.02c-2.33,1.81-13.55,13.37-14.75,13.5-.3.03-2.79-1.31-5.75-2-4.54-1.06-8.95-2.99-13.75-3-1.12-.88,2.77-1.31,6.25-2.5,5.11-1.75,11.17-3.84,14-9,3.02-1.15,8.72-5.31,11.5-7.5.67,2.1-3.8,7.93-4.5,12.75,1.28,1.7,5.77-3.67,7-2.25Z"></path><path class="cls-2" d="M317.8,90.02c-4.48-9.6-9.37-8.25-18.75-7l.25,1c-.32-.21-3.89-1.44-4-1.25,5.61,9.69.99,15.64-7,21.25-3.95-.94,4.56-4.63,6-9.75,2.74-9.73-1.75-15.43-11.5-15.25-.78.01-1.53-.22-1.5.5-.03-.06-.96-.93-1-1,3.59-3.17,30.37.69,34.24,2,11.19,3.79,5.23,7.26,3.25,9.5Z"></path><path class="cls-12" d="M317.8,90.02c-4.72,5.32-10.27,8.76-16.5,12,1.89-6.11,4.92-13.56-2-18l-.25-1c9.37-1.25,14.26-2.6,18.75,7Z"></path><path class="cls-7" d="M299.3,84.02c6.92,4.44,3.89,11.89,2,18-5.81,3.01-8.6,4.26-15,6l-2-1c1.45-.64,2.75-2.12,4-3,7.99-5.6,12.61-11.55,7-21.25.11-.19,3.68,1.04,4,1.25Z"></path><path class="cls-30" d="M225.82,69.52c-1.14,3.48-1.84,4.53-1.5,8.75.52,6.42,7.38,12.41,4.5,13.25-4.1-5.86-12.41-11.21-5.5-23,.66.09,2.22-.71,3-1-.05.09-.12.85-.5,2Z"></path><path class="cls-30" d="M175.83,139.51c3.32.96,6.69,1.98,10,3,2.77.85,4.28.93,4.5,1,9.02,2.94,17.24,6.88,26.49,9.5.15.04.35-.04.5,0,13.79,8.42,31.97,12.2,46.74,4l.75.75c-8.11,5.68-22.08,10.06-31.74,9.25-9.42-.79-56.71-19.41-67.24-26.99.05-1.25-.22-1.6,0-3,3.37.53,6.73,1.55,10,2.5Z"></path><path class="cls-2" d="M299.8,131.01c-4.58,2.77-9.3,4.99-14,7.5l-2-2c3.39-1.66,11.18-6.27,14-8.5-.12,2.15.13,2.63,2,3Z"></path><path class="cls-12" d="M312.3,176c-.47,13.24-5.88,31.1-13.5,41.99-.88,1.26-6.33,7.44-7.5,8.5-1.11,1-2.29,2.13-3.5,3-9.25,6.7-23.24,10.42-34.49,11-11.11.57-21.35-.36-31.99-3.5-3.78-1.11-14.96-5.56-17.5-7.5-7.48-5.71-7.2-22.13-9-30.99,11.94,1.19,47.21-3.04,60.24-5.5,16.03-3.02,41.93-10.95,57.24-17Z"></path><path class="cls-34" d="M349.79,203.5c-5.75,8.9-9.33,12.04-17,19l4-15.75c.27-3.28-1.94,1.1-4,5.25-8.03,10.04-20.47,14.51-32.99,15l-3.5-.75c0-.51,1.56-.09,2.5-.25,3.19-.54,8.04-.93,10.75-2.5.92-.53,14.57-12.89,15.75-14.25,5.16-5.93,11.17-17.89,13-25.5.72-3.01,3.34-19.16,1.5-20.75,4.85-2.72,9.8-5.99,14.5-9-.74,38.29-15.99,48.66-17,51.24-.28.71-2.01,12.13-2.75,14.75,3.43-3.77,8.88-8.28,11.75-12.25.2-.27-1.26-3.12,3.5-4.25Z"></path><path class="cls-12" d="M354.79,195c-1.49,3.13-3.13,5.61-5,8.5-4.76,1.13-3.3,3.98-3.5,4.25-2.87,3.96-8.32,8.48-11.75,12.25.74-2.62,2.47-14.04,2.75-14.75,1-2.58,16.25-12.95,17-51.24,4.07-2.61,7.61-5.81,11.5-8.5-1.63,17.95-3.13,32.96-11,49.49Z"></path><path class="cls-25" d="M329.8,168.51c3.07.13,1.57,3.48,1.5,6.5-2.26,2.73-2.89,8.7-5,13.25-3.83,8.24-17.91,27.83-26.74,31.24l-.75-1.5c7.62-10.89,13.03-28.75,13.5-41.99,2.83-1.12,5.71-2.29,8.5-3.5l-2,16.25c.89,4.02,8.13-12.65,9-19.25.64-.31,1.34-.67,2-1Z"></path><path class="cls-7" d="M339.8,163.01c1.84,1.58-.78,17.74-1.5,20.75-1.83,7.61-7.84,19.57-13,25.5-1.18,1.36-14.83,13.72-15.75,14.25-2.71,1.57-7.55,1.96-10.75,2.5.52-2.49,5.48-4.97,7.75-7,13.47-12,24.3-25.44,24.75-43.99.07-3.02,1.57-6.37-1.5-6.5,2.88-1.43,7.05-3.84,10-5.5Z"></path><path class="cls-7" d="M327.8,169.51c-.87,6.6-8.11,23.27-9,19.25l2-16.25c2.25-.98,4.83-1.96,7-3Z"></path><path class="cls-12" d="M207.32,82.52c4.04,3.15,7.89,6.37,11.5,10,1.47,1.48,2.37,3.72,3,2.5.93,1.99,3.68,4.66,5,6.5,5.1,7.15,21.9,25.11,24,22.25,1.02-1.39-12.49-9.51-23.5-25.25-1.25-1.79-2.84-3.63-3-5.5,3.3,3.94,10.06,8.16,13,11,2.54,2.46,16,18.23,17.25,18.5,1.41.3,19.62-6.81,23.5-7.5,1.87-.33,5.52.22,8,0,1.21-.11,7.06-2.71,5.75,0-3.48,1.19-7.37,1.62-6.25,2.5,4.8.01,9.21,1.93,13.75,3-3.43,2.74,5.65,1.33,2.5,4-1.16-1.39-6.2-2.52-8.5-3-18.27-3.8-23.36,1.47-39.74,4.5-14.81,2.74-29.86,5.15-44.74,7.5-2.52-4.52-4.98-10.55-5.5-15.75-.32-3.25-.17-22.94,4.5-21.75-1.73,8.09-.97,14.99.5,23,.74,4.06,1.52,7.88,3,11.75,1.59,1.15,29.89-5.26,34.24-6.25-2.42-2.29-5.32-4.25-7.75-6.5-7.49-6.92-15.28-14.32-22-22-.85-.97-1.67-2-2.5-3-1.16-1.4-4.2-7.86-8.5-9.5.1-.03,1.51-1.08,1.5-1.5.17.13.84.38,1,.5Z"></path><path class="cls-37" d="M301.8,124.51c-1.41,1.05-2.63,2.42-4,3.5-2.81,2.23-10.6,6.84-14,8.5-11.68,5.71,2.31-3.59,9.5-15,2.29.48,7.34,1.61,8.5,3Z"></path><path class="cls-39" d="M209.82,89.52c-.93,2.1-1.52,4.25-2,6.5-4.67-1.2-4.82,18.49-4.5,21.75.51,5.19,2.98,11.23,5.5,15.75-1.78.28-5.25.15-5.5,1.5-2.09-3.54-3.34-5.63-5-9.5-1.25-12.52.53-28.91,10.25-37.49.57.31,1.17,1.44,1.25,1.5Z"></path><path class="cls-12" d="M188.33,122.51c-2.27,7.31-.67,13.97,2,21-.22-.07-1.73-.15-4.5-1-1.95-6.92-3.11-20.37,2.5-20Z"></path><path class="cls-7" d="M241.82,74.02c-19.07,12.54,3,29.75,14.75,21,3.24-2.42,5.46-8.97,2-12-4.42,9.15-13.06,7.83-14-2-5.9,4.27.43,13.6-3.75,9.25-4.89-5.1,2.06-11.79,7-14.25,2.55.99-1.49,1.9-1,5.75,1.43,1.7,1.38-.69,1.5-.75,6.18-2.8-3.56,5.28,4.25,6-4.65-4.67,7.43-5.83,1.25-9-6.18-3.65,2.86-1.53,5-.5,3.58,4.69,4.71,11.24,1,16.25-.28.38-6.79,6.11-7.25,6.25-2.08.64-11.43-.04-13.75-1-6.25-2.59-9.86-11.47-9-17.75,1.26-9.13,11.3-7.66,17.75-10.75,3.85-.28-4.41,2.62-5.75,3.5Z"></path><path class="cls-12" d="M268.81,83.02c.17.22-.12,3.22,2,5-2.68-.69.15,2.14-1.5,5.25-.99,1.86-14.38,5.87-3.75,4.75,1.76-.19,5.75-1.8,7.25-3-1.89,3.74.02,4.49,0,4.75-.11,1.34-3.83,1.98-2.5,4.25-11.64,3.43-23.09-3-23,.5-1.95-.73-8.32-3.89-8.5-5.5,2.32.96,11.66,1.64,13.75,1,.46-.14,6.96-5.86,7.25-6.25,3.71-5.01,2.58-11.55-1-16.25-1.53-2.01-3.38-1.22-1.75-2.5,4.87.52,8.88,4.25,11.75,8Z"></path><path class="cls-12" d="M249.31,75.02c-1.37.49-1.42.96-1.5,1-4.94,2.46-11.89,9.14-7,14.25,4.17,4.35-2.15-4.98,3.75-9.25.93,9.83,9.58,11.15,14,2,3.46,3.02,1.24,9.58-2,12-11.75,8.76-33.82-8.46-14.75-21-.51,3.36,4.39-.51,7.5,1Z"></path><path class="cls-37" d="M288.31,99.02c-.15.19-.1,2.04-2.75,4-9.29,6.89-27.92,5.34-38.24,1.5-.1-3.5,11.35,2.93,23-.5,6.83-2.01,12.14-8.97,12.5-16,3.82.88,5.44,7.08,5.5,11Z"></path><path class="cls-7" d="M223.32,68.52c-6.91,11.79,1.4,17.13,5.5,23,3.58,5.12,3.52,6.9,9,11.5l-.5,1c-2.94-2.84-9.7-7.06-13-11,.9-1.28-.01-1.44-1-.25l1,.25c.16,1.87,1.75,3.71,3,5.5-.32,1.62-1.47.67-.5,3-1.32-1.84-4.07-4.51-5-6.5-3.35-7.21-4.15-18.8-1-25.99.2-.46.42-.95,1-1,.11.05,1.41.49,1.5.5Z"></path><path class="cls-34" d="M282.81,79.02c.1,2.51,3.65,1.82,5.5,3.75.54.57,2.84,8.18,3.25,4.25,3.31,4.8-.3,8.39-3.25,12-.05-3.92-1.68-10.12-5.5-11,.13-2.47-.35-6.37-1.5-8.5-.03-.72.72-.49,1.5-.5Z"></path><path class="cls-7" d="M268.81,83.02c-2.87-3.74-6.88-7.47-11.75-8-1.63,1.28.22.49,1.75,2.5-2.14-1.03-11.18-3.15-5,.5-2.51-.87-8.21,1.3-5.5,3-.12.06-.07,2.45-1.5.75-.49-3.84,3.55-4.76,1-5.75.08-.04.13-.51,1.5-1,9.7-3.48,18.73-.03,25.5,7.25,1.22,3.12-1.74.18-6,.75Z"></path><g><path class="cls-12" d="M280.31,78.52c.04.07.97.94,1,1,1.15,2.13,1.63,6.03,1.5,8.5-.36,7.03-5.67,13.99-12.5,16-1.33-2.27,2.39-2.91,2.5-4.25.02-.26-1.89-1.01,0-4.75,6.99-5.62-1.57-6.64-2-7-2.12-1.77-1.83-4.77-2-5,4.26-.57,7.22,2.37,6-.75-6.76-7.28-15.79-10.73-25.5-7.25-3.11-1.51-8.01,2.36-7.5-1,1.34-.88,9.6-3.78,5.75-3.5-6.45,3.09-16.49,1.62-17.75,10.75-.87,6.27,2.75,15.16,9,17.75.17,1.61,6.55,4.77,8.5,5.5,10.32,3.84,28.96,5.39,38.24-1.5,2.65-1.96,2.6-3.81,2.75-4,2.95-3.61,6.56-7.2,3.25-12-.41,3.94-2.71-3.68-3.25-4.25-1.85-1.93-5.4-1.24-5.5-3.75,9.75-.18,14.23,5.52,11.5,15.25-1.44,5.11-9.95,8.81-6,9.75-1.25.87-2.55,2.36-4,3-15.59,6.87-27.06-.72-42.24,0-1.34-1.43-2.74-2.74-4.25-4-5.48-4.6-5.42-6.38-9-11.5,2.88-.84-3.97-6.83-4.5-13.25-.34-4.21.36-5.27,1.5-8.75l2.25.5c9.03-11.09,33-9.54,43.49-1.5,1.12.86,8.41,9.43,8.75,10Z"></path><path class="cls-7" d="M238.57,64.03c4.14-.37-5.55,4.86-10.5,15.5-3.05-8.15,3.4-13.13,10.5-15.5Z"></path></g><path class="cls-6" d="M270.81,88.02c.43.36,8.99,1.37,2,7-1.5,1.2-5.49,2.81-7.25,3-10.63,1.12,2.76-2.88,3.75-4.75,1.65-3.11-1.18-5.94,1.5-5.25Z"></path><path class="cls-12" d="M221.82,68.02c-.57.05-.8.54-1,1-3.44-3.32-3.7-1.95-4-2-2.39-.43-3.09-.68-5.5,0-5.23,1.48-9.17,7.38-8.5,12.5-3.91-2.85-6.33-1.99-5.5-7.25,11.59-17.14,23.15-4.86,24.5-4.25Z"></path><path class="cls-34" d="M211.32,67.03c-4.03,5.61-4.11,8.61-4,15.5-.16-.12-.83-.37-1-.5-1.16-.88-2.34-1.65-3.5-2.5-.67-5.12,3.27-11.02,8.5-12.5Z"></path><g><path class="cls-31" d="M293.31,121.51c-7.19,11.41-21.17,20.71-9.5,15l2,2c-17.25,9.2-35.23,19.55-55.74,18-5.46-.41-7.98-2.2-12.75-3.5-.15-.04-.35.04-.5,0-5.46-5.28-9.65-11.49-13.5-18,.25-1.35,3.72-1.22,5.5-1.5,14.88-2.35,29.93-4.76,44.74-7.5,16.38-3.03,21.47-8.3,39.74-4.5Z"></path><path class="cls-12" d="M233.57,133.51c1.26.19,16.71,14.63,19.75,16.25-16.2,8.95-28.89,3.63-34.49-13.5,2.5-.04,14.01-2.86,14.75-2.75Z"></path></g><path class="cls-6" d="M298.8,225.99c-.94.16-2.49-.26-2.5.25l3.5.75c-2.58.1-6.13.3-8.5-.5,1.16-1.06,6.62-7.24,7.5-8.5l.75,1.5c8.84-3.42,22.92-23,26.74-31.24,2.11-4.54,2.74-10.52,5-13.25-.45,18.55-11.28,31.99-24.75,43.99-2.27,2.02-7.23,4.51-7.75,7Z"></path><path class="cls-37" d="M216.82,67.03c-3.84,8.09-1.38,17.6,2,25.5-3.61-3.63-7.46-6.85-11.5-10-.11-6.89-.03-9.88,4-15.5,2.41-.68,3.11-.43,5.5,0Z"></path><g><path class="cls-38" d="M215.82,96.02c-1.97,1.36,7.9,15.62,8.75,16.5,1.94,2,10.54,7.68,13.25,5.5,2.43,2.25,5.33,4.2,7.75,6.5-4.35.99-32.65,7.4-34.24,6.25-1.48-3.87-2.25-7.69-3-11.75l1-.25c-1.05-5.78,4.25-22.41,3.5-25.74h.5c.83,1,1.65,2.03,2.5,3Z"></path><path class="cls-14" d="M212.82,93.02c.75,3.33-4.55,19.97-3.5,25.74l-1,.25c-1.47-8.01-2.23-14.9-.5-23,.48-2.25,1.07-4.4,2-6.5,1.14.84,2.68,2.07,3,3.5Z"></path><path class="cls-35" d="M237.82,118.02c-2.71,2.18-11.31-3.5-13.25-5.5-.84-.87-10.71-15.13-8.75-16.5,6.71,7.67,14.51,15.08,22,22Z"></path></g><path class="cls-38" d="M220.82,69.02c-3.15,7.2-2.35,18.79,1,25.99-.63,1.22-1.53-1.02-3-2.5-3.38-7.9-5.84-17.4-2-25.5.3.05.56-1.32,4,2Z"></path><path class="cls-7" d="M226.82,101.52c-.97-2.33.18-1.38.5-3,11.01,15.74,24.52,23.85,23.5,25.25-2.1,2.87-18.89-15.1-24-22.25Z"></path><path class="cls-12" d="M253.81,78.02c6.18,3.17-5.9,4.33-1.25,9-7.81-.72,1.93-8.8-4.25-6-2.71-1.7,2.99-3.87,5.5-3Z"></path><path class="cls-12" d="M224.32,93.02l-1-.25c.98-1.19,1.9-1.03,1,.25Z"></path></g></g></g></g></svg>