<svg xmlns="http://www.w3.org/2000/svg" xmlns:xlink="http://www.w3.org/1999/xlink" id="Layer_2" data-name="Layer 2" viewBox="0 0 388.02 305.94"><metadata></metadata><defs><style>      .cls-1 {        fill: #59575d;      }      .cls-1, .cls-2, .cls-3, .cls-4, .cls-5, .cls-6, .cls-7, .cls-8, .cls-9, .cls-10, .cls-11, .cls-12, .cls-13, .cls-14, .cls-15, .cls-16, .cls-17, .cls-18, .cls-19, .cls-20, .cls-21, .cls-22, .cls-23, .cls-24, .cls-25, .cls-26, .cls-27, .cls-28, .cls-29, .cls-30, .cls-31, .cls-32, .cls-33 {        stroke-width: 0px;      }      .cls-2 {        fill: #c19967;      }      .cls-3 {        fill: #5b433d;      }      .cls-4 {        fill: #572f32;      }      .cls-5 {        fill: #7d5e45;      }      .cls-6 {        fill: #0e0e10;      }      .cls-7 {        fill: #14202a;      }      .cls-8 {        fill: #3e93ab;      }      .cls-9 {        fill: #95837a;      }      .cls-10 {        fill: url(#linear-gradient);      }      .cls-11 {        fill: #b1939b;      }      .cls-12 {        fill: #346f80;      }      .cls-13 {        fill: #ead49a;      }      .cls-14 {        fill: #886e6d;      }      .cls-15 {        fill: #1d3f52;      }      .cls-16 {        fill: #c2a467;      }      .cls-17 {        fill: #f4e4d6;      }      .cls-18 {        fill: #1f2022;      }      .cls-19 {        fill: #6a6662;      }      .cls-20 {        fill: #284e61;      }      .cls-21 {        fill: #c3dee5;      }      .cls-22 {        fill: #70b0bc;      }      .cls-23 {        fill: #7a8d98;      }      .cls-24 {        fill: #8aa8b0;      }      .cls-25 {        fill: url(#linear-gradient-2);      }      .cls-26 {        fill: url(#linear-gradient-3);      }      .cls-27 {        fill: #76cdda;      }      .cls-28 {        fill: #865b69;      }      .cls-29 {        fill: #4a4f56;      }      .cls-30 {        fill: #152d3d;      }      .cls-31 {        fill: #285f73;      }      .cls-32 {        fill: #a5825a;      }      .cls-33 {        fill: #4ba2b7;      }    </style><linearGradient id="linear-gradient" x1="200.36" y1="213.51" x2="194.23" y2="292.17" gradientUnits="userSpaceOnUse"><stop offset="0" stop-color="#285c6e"></stop><stop offset="1" stop-color="#1b3f52"></stop></linearGradient><linearGradient id="linear-gradient-2" x1="221.79" y1="213.25" x2="223.13" y2="291.14" gradientUnits="userSpaceOnUse"><stop offset="0" stop-color="#25596e"></stop><stop offset="1" stop-color="#1d4155"></stop></linearGradient><linearGradient id="linear-gradient-3" x1="240.4" y1="220.41" x2="249.26" y2="286.73" gradientUnits="userSpaceOnUse"><stop offset="0" stop-color="#25596d"></stop><stop offset="1" stop-color="#1c4054"></stop></linearGradient></defs><g id="Layer_1-2" data-name="Layer 1"><g><path class="cls-7" d="M177.24,13.34l-.75,13.98c3.24-.33,15.48.44,16.48,0,1.35-.6,1.58-12.37,2.25-14.48,1.16,0,2.33-.02,3.5,0q.62,7.24,1.25,14.48c2.4-.52,15.71.87,16.23-.25q-.5-6.87-1-13.73c1.49.08,3.01-.1,4.49,0,1.95,6.16,1.58,13.64,2,14.23.56.79,16.87,1.43,19.23,1.75q-.62-6.74-1.25-13.48c1.55.17,2.91.29,4.49.5,1.83,4.46,1.74,12.62,2,13.23.57,1.35,14.25,2.58,16.73,3.25.94-.36-.22-10.35-.75-11.98l.25-1.5c7.1-.77,5.6,13.89,7.99,15.48.64.43,12.5,2.05,14.98,3.5,2.62-10.76-3.84-13.61,3.25-12.98,3.86,7.37-2.94,16.84,12.48,17.23-1.1-24.07,3.22-9,5.74,2.75,24,10.42,12.16,4.15,15.23-4.24,4.13-2.12,4.19,13.22,4.49,13.98.24.62,9.81,5.68,10.74,7.74,2.17-1.1.42-11.51,2-11.49,4.96,6.52,3.27,15.7,3.75,17.23.16.5,5.39,4.22,6.24,6.24,1.73-.24.92-13.01,2.75-10.24,6.6,9.85-.89,16.25,5.74,22.72.27-.82.75-1.33,1.25-2l-1,4.49c-.65.93-.44,1.52-1,1.5-2.25-11.5-21.34-26.79-31.21-32.46-57.52-33.06-165.38-33.69-227.7-14.98-23.69,7.11-51.45,18.62-64.17,40.95-1.36,2.39-2.56,3.61-3.5,6.49-.54-1.22-1.15-2.72-1.5-3.99-.04-.16.05-.35,0-.5.17,2.99,2.99-2.68,4.99-6.99,1.57-3.37,2.93-3.99,3-4.24.51-1.93-.41-9.72,1-15.23,2.15-8.38,2.12,4.01,3.5,7.74,3.9,10.58-1.45-19.1,3-13.98l2.25,7.74.25-9.49c.36,1.21,3.21,9.94,3.75,9.99,5.69-6.3,6.36-2.96,8.24-10.49.76-3.03.44-10.27,3-11.49,1.41,4.53,1.27,12.44,3.75,12.48,1.51-1.96,7.89-3.25,8.74-4.74.56-.98,1.01-7.04,1.5-9.24.71-3.22-.05-4.66,2.5-5.99l2.75,12.98c1.78-1.25,11.26-4.05,11.73-4.74.32-.47,1.51-9.3,2-11.24.22-.87-.5-2.71,2-3,.25.71.5.46.5.5.61,5.53-1.26,13.13,1.25,12.48,1.79-1.27,13.53-3.42,13.98-3.99.3-.39.79-7.33,1.25-9.49,2.81-13.18,3.96,3,4.24,8.49,1.94-.75,10.54-1.63,10.99-2,.62-.51,2.18-12.34,2.75-14.48.16-.03,2.34-.89,3-1l-.5,13.73c.51.6,14.97-1.4,15.48-2,.76-.88,1.93-11.27,2.5-13.73,5.97-1.53,2.72,5.13,3.25,12.98,2.52-.43,13.79-.22,14.73-1.25.42-.46,2.67-11.46,3-11.98,1.3-2.06,3.34-.55,3-2.25.47-.02.53.52,1,.5Z"></path><path class="cls-31" d="M239.66,15.84q.62,6.74,1.25,13.48c-2.35-.31-18.67-.96-19.23-1.75-.41-.59-.05-8.07-2-14.23,6.51.42,13.25.79,19.72,1.5.42.05.2.99.25,1Z"></path><path class="cls-31" d="M288.6,25.33c-7.09-.63-.62,2.22-3.25,12.98-2.48-1.45-14.34-3.07-14.98-3.5-2.39-1.59-.89-16.25-7.99-15.48l-.25,1.5c-.05-.16-1.4.82-1-2.5,3.77.68,24,4.59,25.22,4.99,2.21.74,1.62.79,2.25,2Z"></path><path class="cls-31" d="M195.22,12.84c-.67,2.11-.9,13.88-2.25,14.48-1,.44-13.24-.33-16.48,0l.75-13.98c6.9-.29,10.78-.53,17.98-.5Z"></path><path class="cls-31" d="M131.8,18.34c-.57,2.14-2.12,13.97-2.75,14.48-.45.37-9.05,1.25-10.99,2-.29-5.49-1.44-21.67-4.24-8.49-4.53-1.65-5.43.49-5.74.5-.55.02-1.77-1.9-10.74.5,0-.04-.25.21-.5-.5-.17-.48-.13-.58-.5-1,11.99-3.33,23.22-5.41,35.45-7.49Z"></path><path class="cls-31" d="M261.13,18.34c-.41,3.32.95,2.34,1,2.5.53,1.64,1.69,11.63.75,11.98-2.48-.66-16.16-1.9-16.73-3.25-.26-.62-.16-8.77-2-13.23,5.72.74,11.21.96,16.98,2Z"></path><path class="cls-31" d="M215.19,13.34q.5,6.87,1,13.73c-.52,1.12-13.83-.27-16.23.25q-.62-7.24-1.25-14.48c5.59.08,10.89.2,16.48.5Z"></path><path class="cls-31" d="M176.24,12.84c.35,1.69-1.7.19-3,2.25-.33.52-2.58,11.53-3,11.98-.94,1.03-12.21.82-14.73,1.25-.52-7.85,2.72-14.51-3.25-12.98v-.5c7.97-.89,15.95-1.63,23.97-2Z"></path><path class="cls-31" d="M152.28,14.84v.5c-.57,2.46-1.74,12.86-2.5,13.73-.51.59-14.97,2.59-15.48,2l.5-13.73c5.87-.93,11.56-1.83,17.48-2.5Z"></path><path class="cls-31" d="M94.85,29.82c-.49,1.93-1.68,10.76-2,11.24-.47.7-9.95,3.5-11.73,4.74l-2.75-12.98c.83-.44,18.69-7.46,16.48-3Z"></path><path class="cls-31" d="M113.83,26.33c-.46,2.15-.94,9.1-1.25,9.49-.45.57-12.19,2.73-13.98,3.99-2.51.64-.64-6.95-1.25-12.48,8.97-2.4,10.19-.48,10.74-.5.31,0,1.21-2.15,5.74-.5Z"></path><path class="cls-31" d="M75.87,38.81c-.48,2.2-.94,8.26-1.5,9.24-.85,1.49-7.23,2.78-8.74,4.74-2.48-.04-2.33-7.96-3.75-12.48,3.12-1.48,10.04-1.59,13.23-3l.75,1.5Z"></path><path class="cls-2" d="M360.5,86.75c-1.01,6.04-.41,14.76-2,19.97-.01.03-.24-.21-.5.5-2.22-3.36-4.18,3.83-3-3.99.65-4.29,2.85-7.63,2-11.98.56.02.35-.56,1-1.5.82-1.19,1.48-1.95,2.5-3Z"></path><g><path class="cls-22" d="M378.98,82.25l-.5.5c-.11-.11.17-1.13-1.75-2.5-6.4-4.54-11.43-1.68-11.98-2-2.04-1.19-1.26-17.55-29.96-34.95-9.19-5.57-36.2-17.09-46.19-17.98-.63-1.2-.03-1.26-2.25-2-1.22-.41-21.44-4.31-25.22-4.99-5.76-1.04-11.26-1.26-16.98-2-1.58-.2-2.95-.33-4.49-.5-.05,0,.17-.95-.25-1-6.47-.71-13.22-1.08-19.72-1.5-1.49-.1-3,.08-4.49,0-5.59-.3-10.89-.42-16.48-.5-1.16-.02-2.33,0-3.5,0-7.2-.03-11.08.21-17.98.5-.47.02-.53-.52-1-.5-8.01.37-15.99,1.1-23.97,2-5.91.66-11.61,1.56-17.48,2.5-.66.1-2.84.97-3,1-12.23,2.08-23.46,4.16-35.45,7.49-17.67,4.91-35.73,10.98-50.68,21.97-19.36,14.23-20.26,29-21.72,30.21-.17.14-3.24-.46-4.49-.25-4.24.72-5.49.84-8.99,3.5C2.69,31.83,94.72,10.45,130.55,4.85c46.69-7.29,94.97-6.43,141.32,3,32.59,6.63,113.7,30.17,107.11,74.4Z"></path><path class="cls-31" d="M378.48,82.75c-12.58-8.34-15.22-3.12-19.47,2.5-.5.66-.98,1.18-1.25,2-6.63-6.47.86-12.87-5.74-22.72-1.83-2.77-1.01,9.99-2.75,10.24-.85-2.02-6.09-5.74-6.24-6.24-.48-1.53,1.22-10.7-3.75-17.23-1.58-.03.18,10.39-2,11.49-.93-2.06-10.49-7.12-10.74-7.74-.3-.76-.36-16.1-4.49-13.98-3.07,8.4,8.77,14.66-15.23,4.24-2.53-11.75-6.84-26.82-5.74-2.75-15.42-.39-8.62-9.85-12.48-17.23,9.99.89,37,12.4,46.19,17.98,28.7,17.41,27.92,33.77,29.96,34.95.55.32,5.58-2.54,11.98,2,1.92,1.36,1.64,2.39,1.75,2.5Z"></path><path class="cls-12" d="M96.35,25.83c.37.42.33.52.5,1-2.49.28-1.78,2.12-2,3,2.22-4.46-15.65,2.56-16.48,3-2.54,1.34-1.79,2.77-2.5,5.99l-.75-1.5c-3.2,1.41-10.11,1.51-13.23,3-2.56,1.21-2.24,8.46-3,11.49.8-9.55-2.33-7.16-12.98-.25.4.43.77-.02,1,.75l-.25,9.49-2.25-7.74c-4.45-5.11.9,24.56-3,13.98-1.37-3.73-1.35-16.12-3.5-7.74-6.31,4.81-2.9,14.14-5.99,20.72l2-1.25c-2,4.31-4.82,9.98-4.99,6.99-1.64-5.42-2.79-8.73-9.49-8.49v-.5c1.26-.21,4.32.39,4.49.25,1.46-1.21,2.36-15.98,21.72-30.21,14.96-10.99,33.02-17.06,50.68-21.97Z"></path><path class="cls-31" d="M58.9,51.79c-1.88,7.53-2.55,4.18-8.24,10.49-.53-.04-3.38-8.78-3.75-9.99-.23-.77-.59-.32-1-.75,10.65-6.91,13.78-9.3,12.98.25Z"></path><path class="cls-31" d="M37.92,60.28c-1.41,5.51-.49,13.3-1,15.23-.07.25-1.43.88-3,4.24l-2,1.25c3.09-6.58-.32-15.91,5.99-20.72Z"></path></g><path class="cls-4" d="M282.11,151.16c1.95.16,8.06.66,8.99.5l.5,1c-13.24,3.95-26.77,7.02-40.45,8.99.07-.47-.11-1.09,0-1.5.02-.09.86-1.26,1-1.5,3.13-.27,7.15.95,6.99-1.5,1.22.14,1.66,1.04,4.74,1,.6,0,11.17-1.81,11.73-2,3.12-1,2-1.96,3.99-4.49.76.12,1.1-.62,2.5-.5Z"></path><path class="cls-4" d="M230.67,162.15c.09.06-.57.64,1.5,1.5-15.33,1.44-30.55,2.27-45.94,2v-1c.31-.04,3.11-2.3,5.74-2.5,4.82-.37,6.14,1.97,6.49,2,2.91.23,21.79.17,22.97-.5.26-.14.51-1.34.75-1.5,2.7.93,5.78-1.05,6.49-1,.21.02,1.68.77,2,1Z"></path><path class="cls-4" d="M104.84,150.66c.29.29.63,1.84,1.75,2.5.63.37,12.05,3.55,14.23,3.5,1.33-.03,5.87-1.03,5.49-2,2.85.77,4.48,3.74,4.99,3.99l-.5,1.5c-11.94-2.2-23.85-5.44-35.45-8.99l.5-1,8.99.5Z"></path><g><path class="cls-11" d="M1.97,100.23c-2.7,34.99,51.67,59.51,79.15,68.41,53.98,17.49,118.41,20.34,174.27,11.98,37.58-5.62,122.6-26.78,130.58-71.41,3.13,6.04-5.95,17.59-4.49,21.97-3.11,5.63-11.15,15.28-15.98,19.47-.6.52-1.38,1-2,1.5-1.42,1.15-3.01,2.46-4.49,3.5-36.8,25.82-109.66,38.83-154.05,39.95-53.19,1.34-123.48-9.58-169.28-37.95-.66-.41-1.57.61-1.75.5-.13-.09.55.05-2.5-2-.31-.21.7-.2-5.49-4.99-1.46-1.13-4.77-3.29-4.99-3.5C7.05,135.27-2.25,119.55.47,100.23h1.5Z"></path><path class="cls-14" d="M381.48,131.19c-1.46-4.38,7.62-15.93,4.49-21.97,1.8-10.08-.14-18.99-7.49-26.47l.5-.5c12.65,12.74,10.62,34.24,2.5,48.94Z"></path><path class="cls-19" d="M19.45,77.76v.5c-9.8.35-16.81,13.29-17.48,21.97H.47c.86-6.13,4.98-15.18,9.99-18.98,3.5-2.65,4.75-2.78,8.99-3.5Z"></path><path class="cls-17" d="M19.45,78.26c6.7-.24,7.85,3.06,9.49,8.49.05.15-.04.34,0,.5-2.27-.95-2.19-3.93-3.5,0-3.64,10.96,6.98,28.3,18.98,38.45,16.33,13.82,30.87,19.34,50.93,25.47,11.61,3.54,23.52,6.79,35.45,8.99,7.1,1.31,14.3,2.16,21.47,3,3.97.46,8.01,1.18,11.98,1.5,7.28.58,14.67.87,21.97,1,15.39.27,30.61-.56,45.94-2,6.32-.59,12.7-1.09,18.98-2,13.68-1.97,27.21-5.04,40.45-8.99,16.87-5.03,27.16-9.54,41.95-18.98,4.21-2.69,7.64-4.68,11.49-7.99,7.14-6.14,10.44-9.45,13.98-18.48,2.64-6.71,5.32-15.24,2.25-21.97-.21-.02-.38,1.11-.75,1.5-1.01,1.05-1.67,1.81-2.5,3l1-4.49c4.25-5.62,6.9-10.83,19.47-2.5,7.35,7.47,9.29,16.38,7.49,26.47-7.98,44.62-93,65.79-130.58,71.41-55.87,8.36-120.29,5.5-174.27-11.98C53.64,159.74-.73,135.22,1.97,100.23c.67-8.68,7.68-21.62,17.48-21.97Z"></path><path class="cls-9" d="M28.94,87.25c.34,1.27.96,2.77,1.5,3.99-1.25,3.84-2.13,5.25-1.5,10.49-2.34-2.06-1.12-9.99-3.5-14.48,1.31-3.93,1.22-.95,3.5,0Z"></path><path class="cls-1" d="M89.86,147.17c2.06.59,4.99,2.56,5.99,2.5v.5l-.5,1c-20.07-6.13-34.6-11.65-50.93-25.47-2.03-4.07,1.55.17,0-3-.54-1.11-.82-1.51-1.5-2.5v-.5c8.98,12.79,32.28,23.26,46.94,27.46Z"></path><path class="cls-1" d="M333.54,133.69c-14.78,9.44-25.08,13.94-41.95,18.98l-.5-1c1.75-.3,1.57-1.49,3.5-2,12.96-3.4,26.32-8.93,37.45-16.98-.66,2.27-.33,1.35,1.5,1Z"></path><path class="cls-5" d="M28.94,101.73c.62,5.14,3.32,7.68,5.99,11.49,2.33,3.33,5.35,8.47,9.49,9.49,1.55,3.17-2.03-1.08,0,3-12-10.15-22.62-27.49-18.98-38.45,2.38,4.49,1.16,12.42,3.5,14.48Z"></path><path class="cls-3" d="M359.01,107.22l-.5-.5c1.59-5.22.99-13.94,2-19.97.37-.39.54-1.51.75-1.5,3.07,6.73.39,15.26-2.25,21.97Z"></path><path class="cls-29" d="M186.23,164.65v1c-7.3-.13-14.69-.42-21.97-1l.5-2c.96.5,20.4,2.12,21.47,2Z"></path><path class="cls-1" d="M152.28,161.65v1.5c-7.17-.84-14.37-1.69-21.47-3l.5-1.5c.95.46,19.11,2.99,20.97,3Z"></path><path class="cls-5" d="M359.01,107.22c-3.55,9.02-6.85,12.34-13.98,18.48l-2,.5c5.09-4.11,12.77-12.88,14.98-18.98.26-.71.49-.47.5-.5l.5.5Z"></path><path class="cls-1" d="M251.15,160.15c-.11.41.07,1.03,0,1.5-6.28.9-12.66,1.41-18.98,2-2.07-.86-1.41-1.44-1.5-1.5,5.66-.46,11.32-.94,16.98-1.5,1.2-.12,2.34,0,3.5-.5Z"></path><path class="cls-3" d="M345.02,125.7c-3.84,3.31-7.28,5.3-11.49,7.99-1.83.35-2.15,1.28-1.5-1,2.4-1.74,4.8-3.49,6.99-5.49-1.37,4.34,2.86-.08,3.99-1l2-.5Z"></path></g><path class="cls-28" d="M104.84,150.66l-8.99-.5v-.5c.36-.02,3.73-2.92,6.74-2,.97.3,2.04,2.79,2.25,3Z"></path><g><path class="cls-31" d="M42.42,172.14c-6.75,10.92-8.94,31.63-4.99,43.94.13,7.29.44,11.89,3,18.98-1.49-1.98-3.23-3.83-4.49-5.99-1.81-3.1-4.56-8.86-5.99-12.23-2.48-5.84-4.53-17-6.99-15.73-.1-1.34.52-1.63.5-2.5-.34-14.54,2.1-24.79,8.99-37.45-.41,3.41,6.15,6.46,9.99,10.99Z"></path><path class="cls-7" d="M358.51,223.07c-.6,1.42-1.34,3.11-2,4.49-.02.03-.16-.2-.5.5-2.86-1.86-2.84,2.33-5.49,2,1.58-2.81,2.6-4.86,3.5-7.99l1,.25c3.29-8.61,7.31-19.54,6.99-28.71v-2.5h1.75c1.45-1.32.5-34.53-.25-38.95.62-.5,1.4-.98,2-1.5,5.04,24.23,2.66,49.6-6.99,72.41Z"></path><path class="cls-31" d="M25.94,151.16c-.04,3.75-2.28,9.49.5,12.48-3.69,7.94-4.69,16.88-5.49,25.47-1.69-13.83-2.06-27.65,0-41.45.23.2,3.54,2.37,4.99,3.5Z"></path><path class="cls-22" d="M33.93,158.15c-.35.66-.62,1.36-1,2-.31.54-.37.76-.5,1-6.89,12.66-9.33,22.91-8.99,37.45-2.16.92-1.98-5.27-2.5-9.49.8-8.59,1.81-17.53,5.49-25.47,1.2-2.59,3.36-5.14,4.99-7.49,3.05,2.05,2.36,1.91,2.5,2Z"></path><path class="cls-7" d="M35.93,229.06l-3.99-.5c-.82-1.69-2.87-4.4-3.5-5.99-2.07-5.24-5.1-16-5.49-21.47,2.46-1.27,4.51,9.89,6.99,15.73,1.43,3.37,4.18,9.13,5.99,12.23Z"></path><path class="cls-6" d="M356.01,228.06c-1.33,2.75-2.94,5.87-4.49,8.49-39.45,66.22-139.84,77.38-208.48,64.92-38.19-6.93-86.97-30.58-107.61-64.92-.67-1.11-2.56-6.06-3.5-7.99l3.99.5c1.27,2.17,3,4.01,4.49,5.99,3.71,4.92,7.76,9.86,12.98,13.48,2.02,2.67,2.45,3.75,5.49,6.49,5.63,5.08,9.49,6.16,9.99,6.49,1.86,1.27,3.53,2.8,5.49,3.99,1.16.71,2.33,1.32,3.5,2,1.89,1.1,3.58,1.97,5.49,3,3.42,1.82,6.45,4.36,10.49,4.99,1.34,1.11,3.01,1.65,4.49,2.5,4.49,2.55,7.07,2.81,7.49,3,2.23.96,4.23,1.66,6.49,2.5,6.19,2.29,8.31,3.15,14.98,4.99,2.76.76,5.38.89,7.99,1.5,4.46,1.05,8.4,2.19,12.98,3,2.71.47,5.21,1.09,7.99,1.5,5.16.75,10.28,1.52,15.48,2,2.84.26,5.65.32,8.49.5,2.02.12,3.94.41,5.99.5,1,.04,2-.03,3,0,1.67.05,3.34-.02,4.99,0,3.65.04,7.34.1,10.99,0,2.04-.06,4.03-.4,5.99-.5,4.67-.23,9.58-.05,14.23-.5.1,0,1.18-.94,1.75-1,.81-.09,4.48.24,6.24,0,.33-.04,1.17-.99,1.25-1,3.47-.5,7.22-.32,10.74-1,5.43-1.04,6.87-2.41,7.24-2.5.31-.07-.44.7,5.99-1,5.98-1.58,11.18-3.4,16.98-5.49,2.39-.87,4.58-1.53,6.99-2.5,1.78-.71,3.72-1.22,5.49-2,2.5-1.09,4.65-2.83,6.99-3.99,1.8-.9,3.62-1.49,5.49-2.5,1.31-.71,2.64-1.24,3.99-2,2.73-1.54,4.91-3.38,7.49-4.99,1.6-1,2.95-1.96,4.49-3,1.29-.87,2.68-1.56,3.99-2.5.19-.14.96-.21,3.99-2.5,4.44-3.34,8.31-6.25,11.98-10.49,4.28-4.93,5.1-5.83,7.49-11.98,2.25,2.34,3.28-.82,4.49-2.5.66-.9,1.41-2.45,2-3.5,2.65.33,2.64-3.86,5.49-2Z"></path><path class="cls-6" d="M359.01,155.66c.15,1.41-.13,2.85-1,3.99-.14.18-1.28.69-3.5,3-2.51,2.61-5.8,4.62-7.49,7.99-2.75-3.16-2.75-1.6-3-1.5-1.58.63-16.65,11.54-30.71,13.98-1.89,1.37,5.49,9.54,3.99,10.49-6.75-4.23-10.31-10.51-18.23-5.74,1.67,4.41,5.05,5.36.5,7.74-1.43-1.45-2.8-2.38-4.49-3.5-7.26-4.76-4.75-2.61-17.23,0-1.13,1.2,2.22,5.93.5,5.99-8.58-8-12.61-1.82-22.97-1.5-3.6,1.18,4.42,11.2,1.75,11.98-1.73-.54-3.42-.76-4.49-2.5-3.23-8.78-6.54-9.57-15.48-6.24,8.95,15.45-3.34.87-4.74.25-1.2-.53-15.7.2-16.48.5-2.84,1.08-1.03,11.96-7.49,2-13.32,2.96-39.73-3.29-41.95-3-2.65.36-2.83,3.8-4.49,5.49-9.48-12.17-12.19-4.76-15.73-1.5-1.41,1.3-3.03,3.48-3.99,1.5.02-.18.6-.66.5-3.5-.05-1.25-1.86-2.09-.5-3.75-7.4-.74-14.86-4.73-17.98,1.25-.72-.47-1.29-1.01-2-1.5-1.07-.74-3.37-4.09-4.24-4.49-.67-.31-11.61-2.31-14.48-3-.65-.16-1.85,1.15-2.5,1-.93-.22-14.36-5.79-17.73-6.99-.24-.09-.76.09-1,0-5.31-1.92-10.81-4.22-15.98-6.49-4.49-1.98-3.79-.9-3.99-1-4.71-2.18-9.26-5.44-12.98-8.49-.69-.57-1.14-1.69-2.25-2-.75.83-1.49,1.66-2.25,2.5-3.89-3.05-7.37-6.61-11.98-8.49.37-.64.65-1.34,1-2,.18.12,1.09-.91,1.75-.5,45.8,28.37,116.09,39.29,169.28,37.95,44.39-1.12,117.25-14.13,154.05-39.95Z"></path><path class="cls-7" d="M362,191.11c0-9.72,1.03-23.45-3.99-31.46.87-1.14,1.15-2.58,1-3.99,1.48-1.04,3.08-2.35,4.49-3.5.75,4.42,1.7,37.63.25,38.95h-1.75Z"></path><path class="cls-18" d="M31.43,156.16c-1.64,2.35-3.79,4.9-4.99,7.49-2.78-2.99-.54-8.73-.5-12.48,6.2,4.79,5.18,4.79,5.49,4.99Z"></path><path class="cls-22" d="M49.41,168.14c-1.28.36-1.3,2.11-1.5,2.5-7.51,14.57-9.06,20.97-9.99,37.45-.15,2.71-.55,5.22-.5,7.99-3.95-12.31-1.76-33.02,4.99-43.94.19-.31,2.35-3.34,2.5-3.5.75-.83,1.49-1.66,2.25-2.5,1.11.31,1.55,1.43,2.25,2Z"></path><path class="cls-7" d="M53.4,248.54c-5.22-3.62-9.27-8.56-12.98-13.48-2.56-7.08-2.87-11.68-3-18.98-.05-2.77.35-5.28.5-7.99,2.22,1.63,1.9,9.15,3,13.73,2.42,10.16,6.25,18.47,12.48,26.72Z"></path><path class="cls-15" d="M44.91,168.64c-.14.16-2.31,3.19-2.5,3.5-3.84-4.52-10.4-7.58-9.99-10.99.13-.23.19-.46.5-1,4.61,1.88,8.09,5.44,11.98,8.49Z"></path><path class="cls-7" d="M354.51,162.65c4.22,9.41,7.13,20.63,7.49,30.96.32,9.17-3.7,20.1-6.99,28.71l-1-.25c3.98-13.93,2.92-40.07-6.99-51.43,1.69-3.37,4.98-5.38,7.49-7.99Z"></path><path class="cls-20" d="M347.02,170.64c9.91,11.37,10.97,37.5,6.99,51.43-.89,3.12-1.92,5.18-3.5,7.99-.59,1.04-1.34,2.59-2,3.5-.9-1.39,2.74-7.55,3.5-10.24,5.09-18.18.79-37.81-7.99-54.18.25-.1.24-1.66,3,1.5Z"></path><path class="cls-15" d="M362,191.11v2.5c-.36-10.33-3.27-21.55-7.49-30.96,2.22-2.31,3.36-2.81,3.5-3,5.02,8.01,3.99,21.74,3.99,31.46Z"></path><path class="cls-15" d="M302.08,223.57c1.02,11.32,1.4,22.6.5,33.96-2.2,6.35-4.34,12.51-7.49,18.48-2.34,1.16-4.49,2.9-6.99,3.99-.57-4.6,4.65-12.66,3-18.48,1.91-8.4,2.51-16.64,1.5-25.22l-1-.5c-.24,22.04-5.16,30.74-15.98,48.69-5.8,2.1-10.99,3.91-16.98,5.49,10.18-14.45,14.5-32.86,13.98-50.43-.19-6.64-3.32-26.59-8.49-24.97-.75-1.67-2.13-3.36-3-4.99,3.15.06,8.52-2.23,10.49-.5,1.6,1.4,3.79,8.29,6.49,9.99,1.72,5.62,2.68,12.08,4.99,13.48.66,6.88,1.35,13.8,1,20.72-.12,2.48-2.81,14.52,0,7.99,7.23-16.83,4.53-44.61-6.99-59.17,3.43,1.22,5.92-1.44,7.74-1,1.71.42,10.96,11.15,12.23,13.23,2.15,3.5,2.63,8.68,4.99,9.24Z"></path><path class="cls-7" d="M348.52,233.56c-1.22,1.67-2.24,4.84-4.49,2.5,10.83-27.9-10.62-57.17-13.73-57.43-2.96.14-.3,1.84-.25,2,5.13,15.96,5.26,31.83,3.5,48.44-6.02,2.38-.95-4.71-5.49-3-.43-6.94-2.24-15.77-4.99-22.22-4.74-11.08-5.92-7.41-7.99-7.74-.16-.03-.34.03-.5,0-.08-.02.29-.8-.75-1.5-.87.92.72,1.42.75,1.5,1.49,3.76,4.23,13.17,4.49,16.73.03.36-1.03.14-1,.5.68,8.52,1.5,20.52,1,28.71h-.5c.48-4.4-.52-10.57-1.5-14.98-.6-2.7-1.47-4.94-2.5-7.49,3.26-2.16-6.89-20.07-9.99-17.48-1.58-2.2-3.08-4.56-4.99-6.49,4.55-2.38,1.17-3.33-.5-7.74,7.92-4.77,11.47,1.51,18.23,5.74,1.49-.94-5.88-9.11-3.99-10.49,14.06-2.45,29.13-13.36,30.71-13.98,8.78,16.37,13.08,36,7.99,54.18-.75,2.69-4.39,8.84-3.5,10.24Z"></path><path class="cls-10" d="M208.7,223.07c-3.91,20.04-.73,29.69.5,49.44-1.66,6.1-1.4,16.6-3.99,24.97-3.65.1-7.34.04-10.99,0-5.51-9.94,0-45.51-1-47.69-.4-.88-1.4,1.23-2.5-.75,2.12-13.96,1.12-26.19-3.5-39.45,3.78.7,16.2-1.14,17.73-.5,2.64,1.1,1,13.29,3.75,13.98Z"></path><path class="cls-25" d="M226.18,212.58c3.65,8.36,2.43,17.89,6.49,22.97.27,10.71,2.32,21.74,2,32.46-.3,9.8-3.08,18.76-7.49,27.46-.57.06-1.65.99-1.75,1-4.65.45-9.56.27-14.23.5,8.02-14,9.66-34.36,8.49-50.18-.14-1.86-.12-7.2-2.5-6.74.38-9.92-.1-21.07-3.5-30.46,9.27-.33,9.39-4.08,12.48,3Z"></path><path class="cls-31" d="M176.24,210.09v17.73c1.25,2.19.83-5.39,2.5-5.74-3.81,17.35.13,35.81,5.49,52.43-.62,7.92,1.51,15.94,4.99,22.97-1-.03-2,.04-3,0,1.02-1.66-.89-1.09-4.24-3.99-7.13-6.17-8.48-13.16-10.24-9.99-2.31-5.02-5.24-12.85-5.99-18.23-.89-6.31.49-28.71-3-8.49-.48,2.77-.15,5.98-1,8.74-.92-18.9,1.12-38.55,2.5-57.43.57.21,10.14,1.73,11.98,2Z"></path><path class="cls-26" d="M245.65,209.59c3.27,4.36,4.54,11.86,6.49,8.99,2.75,7.99,1.5,11.56,4.49,6.99,2.18,13.91,3.51,27.84,2.5,41.95-1.3,3.98-.92,8.31-2.5,12.23l1.5,1.25c-1.88,3.31-3.94,6.5-5.49,9.99-.37.09-1.81,1.46-7.24,2.5-3.52.67-7.27.5-10.74,1,12.44-17.42,12.27-37.64,10.99-58.17-1.99,4.41-1.34,12.73-3.99,14.23,1.99-12.73-.1-29.36-5.99-40.95,8.14.71,4.42-7.41,9.99,0Z"></path><path class="cls-31" d="M95.35,197.6c-10.76,14.07-11.49,41.48-1,55.93.17,1.5.19,2.4.5,3.99-2.5,5.05,1.71,15.31,4.49,20.22l-1,.25c-1.49-.84-3.16-1.38-4.49-2.5-8.74-7.29-17.81-28.72-18.98-40.2l-2,1.75c-.94-18.28,3.16-32.73,9.49-49.44q6.49,4.99,12.98,9.99Z"></path><path class="cls-31" d="M78.87,188.12c-9.72,13.88-13.2,39.38-5.49,54.93.27,2.05,1.02,4.02,1.5,5.99-3.99.29,2.79,14.64,3,18.48-1.17-.68-2.33-1.29-3.5-2,.91-1.71-6.89-12.61-8.49-9.49-9.45-19.17-7.79-31.63-8.49-33.21-.22-.48-1.5-.17-2-.25,1.51-17.07,2.98-26.64,9.99-42.44,4.33,2.7,8.76,7.63,13.48,7.99Z"></path><path class="cls-31" d="M58.9,180.63c-7.16,9.69-8.96,22.99-7.99,34.7.17,2.07,2.22,12.82,3.5,13.23-.41,9.7-.07,17.65,4.49,26.47-3.04-2.74-3.48-3.83-5.49-6.49-6.24-8.25-10.06-16.55-12.48-26.72-1.09-4.58-.78-12.1-3-13.73.93-16.48,2.47-22.88,9.99-37.45l10.99,9.99Z"></path><path class="cls-31" d="M336.54,248.04c-3.68,4.24-7.55,7.15-11.98,10.49,5.86-8.99,7.87-18.93,8.99-29.46,1.76-16.61,1.63-32.47-3.5-48.44,14.69,21.92,21.11,38.38,7.99,63.17-.66,1.24-3.89,3.88-1.5,4.24Z"></path><path class="cls-30" d="M234.67,294.48c-.08.01-.92.95-1.25,1-1.76.24-5.44-.09-6.24,0,4.41-8.71,7.19-17.67,7.49-27.46,2.89-5.34,6.04-11.42,6.99-17.48,2.66-1.5,2-9.82,3.99-14.23,1.28,20.53,1.46,40.75-10.99,58.17Z"></path><path class="cls-7" d="M211.2,296.97c-1.96.1-3.95.44-5.99.5,2.6-8.36,2.34-18.87,3.99-24.97,1.59-5.86,7.2-11.64,7.99-32.46,2.38-.46,2.36,4.88,2.5,6.74,1.17,15.82-.47,36.19-8.49,50.18Z"></path><path class="cls-31" d="M316.56,263.52c-1.54,1.03-2.9,2-4.49,3-.44-3.68,5.39-11.72,6.49-16.23.42-1.72.37-6.12.5-8.24.5-8.19-.32-20.19-1-28.71-.03-.36,1.03-.14,1-.5-.27-3.56-3-12.96-4.49-16.73.16.03.34-.03.5,0,11.86,19.48,13.1,47.59,1.5,67.41Z"></path><path class="cls-7" d="M194.22,297.47c-1.66-.02-3.33.05-4.99,0-3.49-7.03-5.61-15.05-4.99-22.97.46-5.89,5.12-16.41,6.49-25.47,1.1,1.98,2.09-.13,2.5.75,1,2.18-4.51,37.75,1,47.69Z"></path><path class="cls-7" d="M128.31,277c2.16,4.5,3.64,9.09,6.99,12.98-2.61-.61-5.23-.73-7.99-1.5-.85-2.14-4.13-4.32-4.99-5.49-1.32-1.8-5.55-9.92-5.49-11.73,0-.28,1-1.17,1-1.25-.66-11.39-.81-21.57,0-32.96.31-.03.97.61,1,.75,2.18,12.86-2.51,14.16,9.49,39.2Z"></path><path class="cls-7" d="M171.75,283.49c2.24,4.86,4.98,9.41,8.49,13.48-2.84-.17-5.65-.24-8.49-.5.46-1.95-1.77-2.49-2.5-3.5-4.22-5.78-6.69-14.45-7.49-21.47-.21-1.83.09-4.06,0-5.99.85-2.76.52-5.97,1-8.74,3.48-20.22,2.11,2.18,3,8.49.76,5.38,3.68,13.21,5.99,18.23Z"></path><path class="cls-15" d="M328.05,226.07c.88,14.22-2.2,22.12-7.49,34.95-1.32.94-2.7,1.63-3.99,2.5,11.6-19.82,10.36-47.93-1.5-67.41,2.07.33,3.25-3.34,7.99,7.74,2.76,6.45,4.57,15.28,4.99,22.22Z"></path><path class="cls-7" d="M272.62,239.55c.51,17.58-3.8,35.98-13.98,50.43-6.43,1.7-5.68.93-5.99,1,1.56-3.48,3.61-6.68,5.49-9.99,8.61-15.15,11.08-25.21,12.48-42.69l2,1.25Z"></path><path class="cls-7" d="M65.89,256.03c.93,1.88,2.1,3.6,3,5.49-.49-.34-4.36-1.41-9.99-6.49-4.56-8.81-4.9-16.77-4.49-26.47.09-2.18.82-3.98,1-5.99.5.08,1.78-.23,2,.25.7,1.58-.96,14.04,8.49,33.21Z"></path><path class="cls-15" d="M344.03,236.05c-2.39,6.15-3.21,7.05-7.49,11.98-2.39-.36.84-3,1.5-4.24,13.12-24.78,6.7-41.24-7.99-63.17-.05-.16-2.71-1.86.25-2,3.11.25,24.56,29.53,13.73,57.43Z"></path><path class="cls-7" d="M291.09,261.52c-1.9,8.34-4.7,13.09-8.49,20.47-2.41.97-4.6,1.63-6.99,2.5,10.82-17.94,15.74-26.64,15.98-48.69l1,.5c1.02,8.58.42,16.81-1.5,25.22Z"></path><path class="cls-7" d="M313.57,246.04c-.71,9.52-4.45,17.34-8.99,25.47-1.35.76-2.69,1.29-3.99,2,3.17-10.17,6.98-15.59,8.99-26.96,1.45-8.19,1.78-14.66,1-22.97,2.58,7.74,3.61,14.27,3,22.47Z"></path><path class="cls-7" d="M146.78,280.5c2.42,5.21,5.53,9.79,9.49,13.98-2.78-.41-5.28-1.02-7.99-1.5-5.72-9.87-7.77-12.99-9.49-24.47-.03-.17-.3-.63-.5-2.5-.05-.48-.46-.53-.5-1,2.54,3.02,1.32-14.17,3-11.24.07,9.42,2.02,18.16,5.99,26.72Z"></path><path class="cls-7" d="M93.85,275.5c-4.04-.64-7.07-3.17-10.49-4.99-2.63-6.55-6.63-13.83-8.49-21.47-.48-1.98-1.23-3.95-1.5-5.99-.2-1.53-.42-4.36-.5-5.99l2-1.75c1.17,11.48,10.23,32.9,18.98,40.2Z"></path><path class="cls-7" d="M333.54,229.06c-1.12,10.53-3.12,20.48-8.99,29.46-3.04,2.29-3.8,2.36-3.99,2.5,5.29-12.84,8.37-20.73,7.49-34.95,4.55-1.72-.52,5.37,5.49,3Z"></path><path class="cls-15" d="M138.79,268.51c1.72,11.47,3.77,14.6,9.49,24.47-4.58-.8-8.52-1.95-12.98-3-3.35-3.89-4.83-8.48-6.99-12.98,1.51-1.33,2.56,3.05,3.5,4.24.96,1.22,9.84,10.19,10.74,9.74-3.42-5.4-8.93-26.09-3.75-22.47Z"></path><path class="cls-7" d="M102.84,269.01c2.71,5.6,4.98,9.88,9.49,14.48-2.26-.83-4.26-1.53-6.49-2.5-4.98-5.1-9.64-16.58-10.99-23.47-.31-1.59-.32-2.5-.5-3.99-.04-.37-.4-.43-.5-1.5l2.5-2.5c1.35,7.92,3.05,12.35,6.49,19.47Z"></path><path class="cls-15" d="M169.25,292.98c.73,1,2.95,1.54,2.5,3.5-5.2-.47-10.32-1.24-15.48-2-3.95-4.19-7.07-8.77-9.49-13.98,1.66-2.42,2.3,2.23,7.24,5.99,3.28,2.5,11.06,5.97,15.23,6.49Z"></path><path class="cls-15" d="M122.31,282.99c.86,1.17,4.14,3.35,4.99,5.49-6.67-1.85-8.79-2.71-14.98-4.99-4.51-4.6-6.78-8.88-9.49-14.48l.75-2c2.98,5.04,14.58,17.2,18.73,15.98Z"></path><path class="cls-15" d="M312.07,266.51c-2.58,1.61-4.76,3.45-7.49,4.99,4.54-8.13,8.27-15.95,8.99-25.47l1.5.75c-2.18,13.3,2.95.31,3.5-4.74h.5c-.13,2.12-.08,6.52-.5,8.24-1.1,4.51-6.93,12.55-6.49,16.23Z"></path><path class="cls-15" d="M309.57,246.54c-2.01,11.38-5.81,16.8-8.99,26.96-1.87,1.01-3.69,1.6-5.49,2.5,3.15-5.97,5.29-12.13,7.49-18.48,1.03-2.99,2.75-5.9,3.5-8.99l3.5-2Z"></path><path class="cls-15" d="M105.84,281c-.42-.18-3-.44-7.49-3l1-.25c-2.79-4.91-7-15.18-4.49-20.22,1.35,6.88,6.01,18.37,10.99,23.47Z"></path><path class="cls-15" d="M74.88,249.04c1.86,7.64,5.86,14.93,8.49,21.47-1.92-1.02-3.6-1.89-5.49-3-.21-3.84-6.98-18.19-3-18.48Z"></path><path class="cls-15" d="M186.23,297.47c-2.05-.08-3.97-.38-5.99-.5-3.51-4.08-6.25-8.62-8.49-13.48,1.75-3.17,3.11,3.82,10.24,9.99,3.35,2.9,5.26,2.33,4.24,3.99Z"></path><path class="cls-15" d="M288.1,280c-1.77.77-3.72,1.28-5.49,2,3.79-7.39,6.59-12.13,8.49-20.47,1.65,5.82-3.57,13.88-3,18.48Z"></path><path class="cls-15" d="M74.38,265.52c-1.96-1.19-3.63-2.73-5.49-3.99-.9-1.9-2.07-3.61-3-5.49,1.6-3.12,9.4,7.78,8.49,9.49Z"></path><path class="cls-7" d="M252.64,206.09c.03.07-.64-.53,0,1.5,1.85,5.91,3.04,11.88,3.99,17.98-3,4.56-1.75,1-4.49-6.99-1.54-4.47-1.57-8.14-6.24-9.99l-.25,1c-5.57-7.41-1.85.71-9.99,0-4.48-8.8-2.61-3.68-2.5-1.75.29,4.79-.46,9.51-.5,14.23-1.1-2.76-3.81-12.9-6.49-9.49-3.09-7.07-3.22-3.33-12.48-3-.95-4.84-3.75,7.09-4.99,13.48-2.75-.69-1.1-12.88-3.75-13.98-1.52-.64-13.95,1.2-17.73.5-.2-.58-.25-2.71-1.75-4.99-.5,2.14-1.89,4.05-2.75,5.99-2.09-.4-4.42-.2-6.49-.5-1.84-.26-11.41-1.79-11.98-2-2.2-.81-1.39-5.57-4.49,1-4.11-3.42-8.43-4.16-13.48-5.49,3.53-3.26,6.25-10.67,15.73,1.5,1.66-1.69,1.84-5.14,4.49-5.49,2.22-.3,28.63,5.95,41.95,3,6.46,9.97,4.65-.92,7.49-2,.77-.3,15.28-1.03,16.48-.5,1.4.62,13.69,15.2,4.74-.25,8.94-3.33,12.25-2.54,15.48,6.24Z"></path><path class="cls-30" d="M295.09,192.11c.12,3.25,2.49,6.24,3.5,9.49.68,2.19,1.05,4.26,1.5,6.49.89,4.41,1.58,10.88,2,15.48-2.36-.56-2.84-5.74-4.99-9.24-1.28-2.08-10.52-12.81-12.23-13.23-1.82-.44-4.31,2.22-7.74,1-.51-.65-2.08-2.91-2-1.25,5.49,9.53,6.95,20.91,7.99,31.71-2.31-1.4-3.27-7.86-4.99-13.48-.92-3.02-1.2-12.62-6.49-9.99-1.97-1.73-7.34.56-10.49.5-.21,0-3.62-.88-3.99-1,2.67-.79-5.35-10.8-1.75-11.98,10.36-.32,14.39-6.51,22.97,1.5,1.72-.06-1.63-4.8-.5-5.99,12.47-2.61,9.97-4.76,17.23,0Z"></path><path class="cls-22" d="M124.31,199.1c.86.56.94.96,1,1-5.67,11.62-6.59,24.32-7.49,36.95-.81,11.39-.66,21.57,0,32.96-9.41-16.67-12.3-34.83-6.99-53.43,1.4-4.9,4.35-11.02,7.49-14.98,1.2-1.52,2.45-2.83,3.99-3.99.71.49,1.28,1.03,2,1.5Z"></path><path class="cls-22" d="M66.39,177.63c-.82,1.23-.92,2.33-1,2.5-7,15.81-8.48,25.38-9.99,42.44-.18,2.01-.91,3.82-1,5.99-1.28-.41-3.32-11.16-3.5-13.23-.97-11.71.82-25.01,7.99-34.7,1.06-1.44,2.49-2.52,3.5-3.99.21.09-.5-.98,3.99,1Z"></path><path class="cls-22" d="M142.29,205.09c-.08.81-.4,1.17-.5,2-2.28,18.53-5.66,39.23-3.99,57.92.04.47.45.52.5,1-1.78-1.51-4.04-12.03-4.49-15.23-2.08-14.7-1.04-29.73,5.49-43.19,1-2.07,2.21-4.09,3.5-5.99.11,2.83-.48,3.32-.5,3.5Z"></path><path class="cls-15" d="M122.31,197.6c-1.55,1.17-2.79,2.48-3.99,3.99-1.8-1.23-4.07-1.65-5.99-2.5-3.28-1.46-6.3-3.38-9.49-4.99-1.84-.93-1.5-4.34-7.49,3.5q-6.49-4.99-12.98-9.99c.13-.34.12-2.06,1-3.5,3.36,1.21,16.8,6.77,17.73,6.99.65.16,1.85-1.15,2.5-1,2.87.69,13.81,2.68,14.48,3,.87.4,3.17,3.76,4.24,4.49Z"></path><path class="cls-22" d="M83.36,184.12c-.88,1.43-.87,3.15-1,3.5-6.33,16.71-10.43,31.15-9.49,49.44.08,1.63.3,4.46.5,5.99-7.71-15.55-4.23-41.05,5.49-54.93,1.02-1.46,2.52-2.5,3.5-3.99.24.09.75-.09,1,0Z"></path><path class="cls-8" d="M257.14,208.59c.37.12,3.79.99,3.99,1,.87,1.64,2.24,3.33,3,4.99,5.06,11.22,6.15,23.12,3,34.95-3.35,1.61-.88-3.33-1.5-9.74-1.13-11.68-5.83-23.07-12.98-32.21-.64-2.03.03-1.43,0-1.5,1.07,1.74,2.76,1.96,4.49,2.5Z"></path><path class="cls-30" d="M142.79,201.6c-1.29,1.9-2.49,3.93-3.5,5.99-4.47-2.66-9.64-4.68-13.98-7.49-.06-.04-.14-.44-1-1,3.11-5.98,10.57-1.99,17.98-1.25-1.36,1.65.45,2.49.5,3.75Z"></path><path class="cls-15" d="M299.58,195.61c1.91,1.94,3.42,4.29,4.99,6.49,2.79,3.91,8.27,13.21,9.99,17.48,1.03,2.55,1.9,4.79,2.5,7.49-4.46-4.77-3.78-13.15-11.49-14.48-2.02-3.89-4.27-7.55-6.99-10.99-1.01-3.25-3.38-6.24-3.5-9.49,1.7,1.11,3.06,2.05,4.49,3.5Z"></path><path class="cls-15" d="M82.37,184.12c-.98,1.5-2.47,2.53-3.5,3.99-4.73-.36-9.15-5.29-13.48-7.99.07-.17.18-1.27,1-2.5,5.17,2.27,10.67,4.58,15.98,6.49Z"></path><path class="cls-15" d="M159.77,209.09c-.62,1.31-.81,2.93-1,3.5-5.43-2.77-11.11-4.04-16.98-5.49.1-.82.42-1.18.5-2,.96,1.99,2.58-.19,3.99-1.5,5.06,1.33,9.38,2.07,13.48,5.49Z"></path><path class="cls-15" d="M62.39,176.63c-1,1.48-2.43,2.56-3.5,3.99l-10.99-9.99c.2-.39.21-2.14,1.5-2.5,3.73,3.05,8.28,6.31,12.98,8.49Z"></path><path class="cls-15" d="M272.62,239.55l-2-1.25c-1.4,17.49-3.88,27.55-12.48,42.69l-1.5-1.25c1.58-3.93,1.19-8.25,2.5-12.23,1.25-3.82,6.03-10.62,7.99-17.98,3.16-11.83,2.06-23.74-3-34.95,5.17-1.63,8.3,18.33,8.49,24.97Z"></path><path class="cls-33" d="M277.11,202.1c11.52,14.56,14.22,42.35,6.99,59.17-2.81,6.53-.12-5.51,0-7.99.35-6.93-.34-13.84-1-20.72-1.04-10.8-2.5-22.18-7.99-31.71-.08-1.66,1.49.6,2,1.25Z"></path><path class="cls-8" d="M306.08,248.54c-.74,3.09-2.46,6-3.5,8.99.9-11.35.52-22.64-.5-33.96-.41-4.6-1.1-11.07-2-15.48,7.17,12.04,9.26,26.85,5.99,40.45Z"></path><path class="cls-15" d="M278.11,219.08c-2.7-1.7-4.89-8.59-6.49-9.99,5.29-2.63,5.57,6.97,6.49,9.99Z"></path><path class="cls-31" d="M317.06,227.07c.97,4.41,1.97,10.58,1.5,14.98-.55,5.06-5.68,18.05-3.5,4.74l-1.5-.75c.62-8.2-.42-14.73-3-22.47-1.02-3.05-3.43-7.98-4.99-10.99,7.7,1.33,7.03,9.71,11.49,14.48Z"></path><path class="cls-7" d="M314.56,219.58c-1.72-4.27-7.19-13.57-9.99-17.48,3.1-2.59,13.24,15.32,9.99,17.48Z"></path><path class="cls-31" d="M314.56,196.11c-.03-.08-1.62-.57-.75-1.5,1.04.7.67,1.48.75,1.5Z"></path><path class="cls-22" d="M187.23,209.59c4.61,13.26,5.61,25.48,3.5,39.45-1.37,9.06-6.03,19.58-6.49,25.47-5.36-16.62-9.3-35.08-5.49-52.43.52-2.37,2.95-9.11,3.99-11.49.86-1.94,2.25-3.85,2.75-5.99,1.5,2.28,1.55,4.41,1.75,4.99Z"></path><path class="cls-22" d="M213.7,209.59c3.39,9.39,3.87,20.54,3.5,30.46-.79,20.82-6.4,26.6-7.99,32.46-1.23-19.75-4.4-29.4-.5-49.44,1.25-6.4,4.05-18.32,4.99-13.48Z"></path><path class="cls-22" d="M235.67,209.59c5.89,11.58,7.98,28.21,5.99,40.95-.95,6.06-4.1,12.14-6.99,17.48.32-10.71-1.73-21.75-2-32.46-.11-4.55-.04-8.94,0-13.48.04-4.72.79-9.44.5-14.23-.12-1.93-1.98-7.05,2.5,1.75Z"></path><path class="cls-15" d="M232.67,222.07c-.04,4.54-.11,8.94,0,13.48-4.06-5.09-2.84-14.61-6.49-22.97,2.69-3.41,5.39,6.73,6.49,9.49Z"></path><path class="cls-22" d="M164.26,208.09c-1.37,18.87-3.42,38.52-2.5,57.43.09,1.93-.21,4.16,0,5.99-7.84-15.97-8.64-42.3-3-58.92.19-.57.38-2.19,1-3.5,3.11-6.57,2.29-1.81,4.49-1Z"></path><path class="cls-15" d="M182.74,210.59c-1.05,2.37-3.47,9.11-3.99,11.49-1.67.35-1.25,7.94-2.5,5.74v-17.73c2.07.3,4.4.1,6.49.5Z"></path><path class="cls-22" d="M267.13,249.54c-1.96,7.35-6.74,14.16-7.99,17.98,1.01-14.1-.32-28.03-2.5-41.95-.95-6.1-2.14-12.07-3.99-17.98,7.15,9.14,11.85,20.53,12.98,32.21.62,6.41-1.85,11.35,1.5,9.74Z"></path><path class="cls-15" d="M252.15,218.58c-1.95,2.87-3.22-4.63-6.49-8.99l.25-1c4.67,1.85,4.71,5.52,6.24,9.99Z"></path><path class="cls-22" d="M102.84,194.11c-5.71,10.66-8.29,25.44-8.99,37.45-.24,4.1-.32,16.88,0,20.47.09,1.07.46,1.13.5,1.5-10.49-14.45-9.76-41.86,1-55.93,5.99-7.83,5.65-4.43,7.49-3.5Z"></path><path class="cls-31" d="M139.29,207.59c-6.53,13.47-7.58,28.5-5.49,43.19.45,3.2,2.71,13.72,4.49,15.23.2,1.87.47,2.32.5,2.5-5.19-3.62.32,17.07,3.75,22.47-.9.45-9.78-8.51-10.74-9.74-.93-1.2-1.98-5.58-3.5-4.24-12-25.04-7.31-26.34-9.49-39.2-.02-.14-.69-.78-1-.75.9-12.63,1.82-25.33,7.49-36.95,4.35,2.81,9.51,4.83,13.98,7.49Z"></path><path class="cls-31" d="M112.33,199.1c-.89,3.97-3.48,8.2-3.5,12.23,0,.34,1.29-.8,1.25,5.74l.75-.5c-5.31,18.6-2.42,36.76,6.99,53.43,0,.08-.99.97-1,1.25-.06,1.81,4.17,9.93,5.49,11.73-4.14,1.22-15.74-10.94-18.73-15.98l-.75,2c-3.44-7.12-5.14-11.56-6.49-19.47-1.35-7.95-1.29-16.86-1.5-17.73-.09-.37-.66-.25-1-.25.7-12.01,3.28-26.8,8.99-37.45,3.19,1.61,6.21,3.54,9.49,4.99Z"></path><path class="cls-31" d="M158.77,212.58c-5.64,16.62-4.85,42.95,3,58.92.8,7.02,3.27,15.69,7.49,21.47-4.17-.52-11.95-3.99-15.23-6.49-4.94-3.77-5.58-8.41-7.24-5.99-3.97-8.55-5.92-17.3-5.99-26.72-1.68-2.93-.45,14.26-3,11.24-1.66-18.7,1.71-39.39,3.99-57.92,5.87,1.45,11.55,2.72,16.98,5.49Z"></path><path class="cls-31" d="M305.58,212.58c1.56,3.01,3.98,7.93,4.99,10.99.78,8.31.45,14.78-1,22.97l-3.5,2c3.27-13.59,1.17-28.41-5.99-40.45-.45-2.23-.82-4.3-1.5-6.49,2.72,3.43,4.98,7.1,6.99,10.99Z"></path><path class="cls-30" d="M96.35,249.54l-2.5,2.5c-.32-3.6-.24-16.38,0-20.47.34,0,.91-.12,1,.25.21.87.14,9.78,1.5,17.73Z"></path><path class="cls-15" d="M118.32,201.6c-3.14,3.96-6.09,10.08-7.49,14.98l-.75.5c.04-6.54-1.25-5.4-1.25-5.74.02-4.04,2.6-8.26,3.5-12.23,1.92.85,4.19,1.27,5.99,2.5Z"></path></g><g><path class="cls-13" d="M357.01,91.24c.85,4.36-1.35,7.7-2,11.98-.09-2.92-1.37-6.31-2.5-8.99-21.77-51.98-130.35-60.45-178.02-58.42-38.04,1.61-139.57,17.31-140.07,68.91-4.15-5.41-1.12-14.17.25-20.47l-.75.5c12.72-22.33,40.48-33.83,64.17-40.95,62.32-18.71,170.18-18.08,227.7,14.98,9.87,5.67,28.96,20.96,31.21,32.46Z"></path><path class="cls-16" d="M34.43,104.72c-.04,4.17,1.17,6.88.5,8.49-2.67-3.8-5.37-6.34-5.99-11.49-.63-5.23.25-6.64,1.5-10.49.94-2.88,2.13-4.1,3.5-6.49l.75-.5c-1.37,6.31-4.4,15.06-.25,20.47Z"></path><path class="cls-4" d="M164.76,162.65l-.5,2c-3.97-.32-8.02-1.03-11.98-1.5v-1.5c4.92.02,8.52-1.81,10.24-1.5,1.91.34,2.1,2.42,2.25,2.5Z"></path><path class="cls-16" d="M352.51,94.24c-3.61,1.46-2.83-2.19-5.49-5.74-6.01-8.02-12.43-14.01-20.97-19.23-52.91-32.28-142.19-36.16-201.24-22.47-.02-1.96,3.55-.3.75-2-25.95,6-76.57,19.59-85.64,47.94-1.19,3.71-3,14.24-2.5,17.73.54,3.75,3.51,6.86,5.49,9.74.68.99.96,1.39,1.5,2.5-4.13-1.01-7.15-6.16-9.49-9.49.67-1.61-.54-4.32-.5-8.49.5-51.6,102.03-67.3,140.07-68.91,47.66-2.02,156.25,6.45,178.02,58.42Z"></path><path class="cls-2" d="M352.51,94.24c1.12,2.68,2.4,6.07,2.5,8.99-1.19,7.82.78.64,3,3.99-2.21,6.1-9.89,14.87-14.98,18.98-2.46-1,1.47-2.56,4.49-8.49,3.83-5.54,4.58-6.75,3.5-13.73-1.13-7.28-6.51-15.57-11.49-20.97-6.23-6.76-16.64-11.9-13.48-13.73,8.54,5.21,14.96,11.2,20.97,19.23,2.67,3.56,1.88,7.21,5.49,5.74Z"></path><path class="cls-24" d="M194.72,151.16c5.23,5.2,17.53,11.21,24.72,10.49,6.65-.67-13.71-8.73-16.73-11.98,3.59-.65,6.04-1.42,6.49-1.5q9.74,6.24,19.47,12.48c-6.08-2.18-6.18,1.29-6.49,1.5-.24.16-.49,1.35-.75,1.5-1.18.66-20.06.73-22.97.5-.35-.03-1.68-2.36-6.49-2-2.63.2-5.43,2.46-5.74,2.5-1.07.12-20.51-1.5-21.47-2-.15-.08-.34-2.15-2.25-2.5-1.71-.31-5.32,1.52-10.24,1.5-1.86,0-20.02-2.53-20.97-3-.52-.25-2.14-3.23-4.99-3.99-2.14-.58-4.87-.93-5.49,2-2.19.06-13.6-3.12-14.23-3.5-1.12-.66-1.46-2.21-1.75-2.5-.21-.2-1.28-2.7-2.25-3-3.01-.92-6.38,1.97-6.74,2-1,.06-3.93-1.91-5.99-2.5-.63-.77-1.15-1.94-1.25-2-.7-.4-10.13-4.29-14.48-6.99-4.5-2.79-15.26-10.87-19.23-14.48.69-1.96,1.79-2.21,2.5-3,.72-.11.36.97.75,1,1.07.08,16.94-7.05,20.22-6.99,14.01,18.74,41.4,29.73,63.67,33.96,18.87,3.58,33.6,5.02,52.68,2.5Z"></path><path class="cls-5" d="M326.05,69.27c-3.16,1.83,7.25,6.97,13.48,13.73,4.98,5.4,10.35,13.69,11.49,20.97,1.09,6.98.34,8.19-3.5,13.73,4.62-9.05,3.05-10.58-.5-19.47-.04-.11-.09-.58-.5-1.5-.52-1.17-.85-2.35-1.5-3.5-1.27-2.22-2.88-4.03-4.49-5.99-2.74-3.34-5.72-5.73-8.99-8.49-2.31-1.95-4.03-3.26-6.49-4.99-1.56-1.1-2.88-1.98-4.49-3-2.14-1.36-4.27-2.77-6.49-3.99-1.45-.8-3.06-1.27-4.49-2-1.37-.69-2.59-1.34-3.99-2-9.25-4.34-14.71-6.43-24.47-9.49-2.91-.91-5.54-1.7-8.49-2.5-2.74-.74-5.22-1.36-7.99-2-2.64-.61-5.33-1.48-7.99-2-2.64-.52-5.34-1.06-7.99-1.5-2.5-.41-4.98-.66-7.49-1-2.89-.39-7.18-1.27-9.49-1.5-3.07-.31-6.36-.28-9.49-.5-26.54-1.87-52.59-1.71-78.9,2.5-1.38.22-2.69.77-3.99,1-10.68,1.91-15.79,2.9-26.47,5.99-10,2.9-19.36,6.49-28.96,10.49-.15.06-.79.03-3,1-1.98.87-4.03,1.55-5.99,2.5-1.91.92-3.65,1.99-5.49,3-1.8.98-3.27,1.92-4.99,3-2.68,1.67-4.98,3.01-7.49,4.99-1.08.86-1.96,1.58-3,2.5-1.83,1.62-3.38,3.15-4.99,4.99-.53.6-1.75,1.46-3.5,3.99-.34.5-.69.98-1,1.5-.71,1.17-1.43,2.23-2,3.5-.99,2.21-.94,3.32-1,3.5-.65,2-1.67,3.84-2,5.99-1.15,7.59-.92,10.69,3.5,16.98v.5c-1.98-2.88-4.95-5.98-5.49-9.74-.5-3.48,1.31-14.02,2.5-17.73,1.81.53,3.43-4.09,5.49-6.74,15.75-20.18,54.98-33.54,79.4-39.2,59.04-13.69,148.33-9.81,201.24,22.47Z"></path><path class="cls-23" d="M48.41,116.71c.31.37.48.47.5.5,2.2,2.54,3.39,4.12,5.99,6.49,3.96,3.61,14.72,11.69,19.23,14.48,4.35,2.7,13.78,6.59,14.48,6.99.1.06.62,1.23,1.25,2-14.66-4.2-37.96-14.67-46.94-27.46-4.41-6.29-4.65-9.39-3.5-16.98,1.9,6.73,4.87,9.05,8.99,13.98Z"></path><path class="cls-24" d="M246.65,142.68c8.91,5.84,20.54,8.19,28.96,13.48-.57.18-11.14,1.99-11.73,2-3.08.05-3.53-.86-4.74-1-2.54-.3-3.87-2.29-6.49,0q-12.73-6.24-25.47-12.48c3.53-.59,7.02-.25,8.49-.5,2.61,1.75,19.38,10.31,21.22,8.99,2.27-4.02-9.39-4.47-14.73-9.99,1.49-.24,3.05-.27,4.49-.5Z"></path><path class="cls-24" d="M268.62,138.68c6.11,2.59,21.53,8.4,26.96,8.49l-1,2.5c-1.93.51-1.75,1.69-3.5,2-.93.16-7.04-.34-8.99-.5.61-5.74-15.57-6.2-21.47-10.99,2.36-.51,6.01-.92,7.99-1.5Z"></path><path class="cls-24" d="M253.64,141.18c3.59,1.9,24.58,10.27,25.97,10.49-1.99,2.54-.88,3.49-3.99,4.49-8.42-5.29-20.05-7.64-28.96-13.48,2.32-.36,4.67-1.08,6.99-1.5Z"></path><path class="cls-24" d="M227.18,144.67q12.73,6.24,25.47,12.48c-.49.43-.44,1.4-.5,1.5-.14.24-.97,1.41-1,1.5-1.16.49-2.29.38-3.5.5q-13.73-7.49-27.46-14.98c3.42-1.34,6.64-.94,6.99-1Z"></path><path class="cls-24" d="M260.63,140.18c5.91,4.79,22.09,5.24,21.47,10.99-1.4-.12-1.73.62-2.5.5-1.38-.21-22.38-8.59-25.97-10.49,2.28-.41,4.73-.51,6.99-1Z"></path><path class="cls-28" d="M259.14,157.16c.16,2.45-3.86,1.23-6.99,1.5.06-.1,0-1.07.5-1.5,2.62-2.29,3.95-.3,6.49,0Z"></path><path class="cls-24" d="M220.19,145.67q13.73,7.49,27.46,14.98c-5.66.55-11.31,1.04-16.98,1.5-.32-.23-1.79-.98-2-1v-.5q-9.74-6.24-19.47-12.48c3.75-.64,7.28-1.71,10.99-2.5Z"></path><path class="cls-28" d="M228.68,160.65v.5c-.72-.05-3.79,1.93-6.49,1,.31-.21.42-3.68,6.49-1.5Z"></path><path class="cls-23" d="M347.52,117.71c-1.26,1.82-6.76,7.9-8.49,9.49-2.19,2.01-4.59,3.76-6.99,5.49-11.13,8.05-24.49,13.58-37.45,16.98l1-2.5c.96.01,1.6-.33,2.5-.5,2.33-.45,3.56-2.03,5.49-3,1.55-.77,2.99-1.7,4.49-2.5,2.55-1.35,4.05-2.75,4.49-3,.25-.14,2.47-.75,4.49-2,1.66-1.03,3.36-1.92,4.99-3,1.85-1.21,3.67-2.14,5.49-3.5,1.17-.88,1.42-1.43,1.5-1.5,4.55-3.64,8.12-7.15,11.98-11.49.43-.48.96-.87,1.5-1.5,2.45-2.88,7.03-6.21,6.24-10.49-4.51,2.45-17.2,10.91-21.47,10.99-5.91.11,10.5-5.93,15.98-10.49,2.67-2.22,4.63-3.4,3.75-6.99,3.55,8.9,5.12,10.42.5,19.47Z"></path><path class="cls-28" d="M126.31,154.66c.38.97-4.17,1.96-5.49,2,.62-2.93,3.35-2.58,5.49-2Z"></path><path class="cls-5" d="M343.03,126.2c-1.13.92-5.36,5.34-3.99,1,1.73-1.58,7.23-7.67,8.49-9.49-3.02,5.93-6.95,7.49-4.49,8.49Z"></path><path class="cls-32" d="M124.81,46.8c-24.42,5.66-63.65,19.02-79.4,39.2-2.07,2.65-3.69,7.27-5.49,6.74,9.07-28.35,59.69-41.93,85.64-47.94,2.8,1.7-.77.03-.75,2Z"></path><path class="cls-24" d="M194.72,151.16c2.72-.36,5.3-1.01,7.99-1.5,3.02,3.26,23.38,11.32,16.73,11.98-7.19.72-19.48-5.28-24.72-10.49Z"></path><path class="cls-24" d="M78.37,114.71c-3.28-.06-19.16,7.08-20.22,6.99-.39-.03-.03-1.11-.75-1,.48-.53,1.92-1.88,2-2,.69-.12.4,1.03.75,1,.9-.07,10.58-6.34,16.23-7.99.37.63,1.54,2.39,2,3Z"></path><path class="cls-24" d="M59.4,118.71c-.07.12-1.51,1.46-2,2-.71.78-1.8,1.04-2.5,3-2.6-2.37-3.79-3.95-5.99-6.49,3.59-.1,6.61-.82,9.99-2,2.02,1.84,1.57,1.77.5,3.5Z"></path><path class="cls-24" d="M231.67,42.8c-.07.65.23,1.49-.25,2-1.24,1.33-28.31,14.42-32.46,16.48l-3.25,3.5c-31.49-4.69-27.81,1.02-38.7,3.5-5.05,1.15-14.19.44-35.2,6.49l-.25-1-37.7-11.49c9.61-4,18.96-7.59,28.96-10.49,6.31,1.65,12.67-.26,19.23,0,24.04.97,35.35,10.97,38.45,10.99.73,0,10.83-6.46,12.73-7.24-8.6-2.14-15.41-8.53-23.72-11.24l.5-1c7.21,1.7,17.13,1.99,23.97,4.49,5.86,2.14,11.74,7.93,12.48,7.99.82.06,13.01-6.07,14.98-6.99,4.39-2.05,5.97-.28,10.74-6.49,3.13.22,6.42.19,9.49.5Z"></path><path class="cls-24" d="M272.62,50.79c.13.64-.23,1.21-.75,1.5-1.78,1-18.75,6.74-26.96,10.99-10.57,5.46-12.87,8.48,1,4.49,5.58-1.61,18.14-7.92,24.97-10.49,3.76-1.42,9.98-2.48,10.24-3.99,9.76,3.06,15.22,5.15,24.47,9.49-10.48,3.55-22.26,11.36-31.71,15.48-2.62,1.14-8.73,1.99-9.24,3.99-14.27-5.7-29-8.08-43.94-11.49,1.89-2.5,5.9-2.77,8.74-3.99,3.92-1.69,32.88-15.4,34.46-16.48.52-.36.89-.81.75-1.5,2.76.64,5.25,1.26,7.99,2Z"></path><path class="cls-24" d="M340.53,87.25c1.61,1.96,3.23,3.77,4.49,5.99-11.54,7.82-23.96,14.1-36.45,20.22,10.74.12,26.48-12.43,37.95-16.73.41.91.46,1.39.5,1.5.89,3.59-1.07,4.77-3.75,6.99-5.48,4.56-21.88,10.59-15.98,10.49,4.28-.08,16.96-8.53,21.47-10.99.79,4.28-3.79,7.61-6.24,10.49-13.28,2.74-22.78.61-36.2-.5,5.55,2.2,18.13,5.1,23.47,4.49,3.03-.35,7.99-3.72,11.24-2.5-3.87,4.34-7.43,7.85-11.98,11.49l-1.25-2c-43.44-17.56-41.69-14.1-.25,3.5-1.82,1.36-3.64,2.28-5.49,3.5q-15.23-6.49-30.46-12.98c.98-3.28,1.06-5.11,1-8.49,16.96-5.77,31.59-17.75,47.94-24.47Z"></path><path class="cls-24" d="M222.18,42.31c-4.77,6.21-6.35,4.44-10.74,6.49-1.97.92-14.16,7.05-14.98,6.99-.74-.06-6.62-5.85-12.48-7.99-6.84-2.5-16.76-2.8-23.97-4.49l-.5,1c8.31,2.7,15.12,9.1,23.72,11.24-1.9.78-12,7.24-12.73,7.24-3.1-.02-14.41-10.02-38.45-10.99-6.55-.26-12.92,1.65-19.23,0,10.68-3.1,15.78-4.08,26.47-5.99-.85,1.35,9.55,3.21,14.23,4.99,12.48,4.75,18.78,12.67,22.72,5.74-.35-2.04-22.48-9.52-25.72-10.24-3.79-.85-7.64.15-7.24-1.5,26.31-4.21,52.35-4.37,78.9-2.5Z"></path><path class="cls-24" d="M325.05,73.76c2.46,1.74,4.19,3.04,6.49,4.99-2.22-.38-4.26,2.36-6.24,3.5-11.41,6.52-23.61,11.85-34.7,18.98-.54-1.32-2.96-4.77-3.99-5.99,12.8-7.18,24.77-15.95,38.45-21.47Z"></path><path class="cls-24" d="M320.56,70.77c-11.09,8.59-24.85,14.14-35.95,22.47-1.7-1.63-4.48-3.8-6.49-4.99l35.95-21.47c2.22,1.22,4.35,2.64,6.49,3.99Z"></path><path class="cls-24" d="M74.88,108.72c.39.96.98,2.09,1.5,3-5.65,1.65-15.33,7.92-16.23,7.99-.35.03-.06-1.12-.75-1,1.07-1.72,1.52-1.66-.5-3.5,1.63-.57,8.54-2.67,6.24-4.49-5.4,2.37-12.18,1.84-16.73,5.99-4.12-4.93-7.09-7.25-8.99-13.98.33-2.15,1.35-3.99,2-5.99,1.77,6.66,24.86,12.52,33.46,11.98Z"></path><path class="cls-24" d="M305.58,62.78c1.4.66,2.63,1.3,3.99,2-11.13,8.6-23.91,15.62-36.95,20.97-2.53-1.28-5.35-2.44-7.99-3.5.51-2.01,6.62-2.85,9.24-3.99,9.45-4.12,21.23-11.93,31.71-15.48Z"></path><path class="cls-24" d="M80.87,63.28l2.75,2.5q15.11,5.74,30.21,11.49c-6.59,2.24-16.46,5.87-22.47,8.99-8.24-6.01-17.35-11.17-26.96-14.48,1.73-1.08,3.19-2.01,4.99-3,3.65,1.7,24.27,13.78,25.72,13.98,2.31.32,9.23-3.24,9.24-3.75-8.76-6.18-19.16-10.07-29.46-13.23,1.96-.95,4.01-1.63,5.99-2.5Z"></path><path class="cls-24" d="M331.54,78.76c3.27,2.76,6.24,5.15,8.99,8.49-16.35,6.72-30.98,18.7-47.94,24.47,0-.5.03-1,0-1.5,5.28-2.82,44.72-23.06,44.44-25.72l-3.75-3.25-42.2,21.97c-.17-.53-.31-1.53-.5-2,11.1-7.13,23.29-12.45,34.7-18.98,1.98-1.13,4.02-3.88,6.24-3.5Z"></path><path class="cls-24" d="M264.63,48.8c.14.69-.22,1.14-.75,1.5-1.57,1.08-30.54,14.78-34.46,16.48-2.84,1.23-6.84,1.5-8.74,3.99-3.69-.84-6.15-2.42-6.49-2.5,13.9-7.53,29.33-12.81,42.44-21.47,2.66.52,5.35,1.39,7.99,2Z"></path><path class="cls-24" d="M64.39,71.77c9.61,3.31,18.73,8.47,26.96,14.48-2.54,1.32-5.11,2.88-7.49,4.49-8.17-4.7-18.29-11.32-26.96-13.98,2.51-1.98,4.81-3.32,7.49-4.99Z"></path><path class="cls-24" d="M79.87,93.24c-1.38,1.19-4.76,4.88-5.49,6.49-7.33-6.02-17.42-9.72-25.47-15.48,1.62-1.85,3.16-3.37,4.99-4.99,9.15,3.38,17.65,8.79,25.97,13.98Z"></path><path class="cls-24" d="M69.38,68.77c1.85-1.01,3.59-2.07,5.49-3,10.3,3.16,20.7,7.05,29.46,13.23,0,.51-6.93,4.07-9.24,3.75-1.45-.2-22.07-12.28-25.72-13.98Z"></path><path class="cls-24" d="M241.16,44.3q-19.47,10.74-38.95,21.47c-2.07-.41-4.38-.68-6.49-1l3.25-3.5c4.15-2.06,31.22-15.15,32.46-16.48.48-.51.18-1.35.25-2,2.31.23,6.6,1.11,9.49,1.5Z"></path><path class="cls-24" d="M248.65,45.3c-.37.58-.52,1.36-.75,1.5-11.7,7.03-25.42,12.05-37.45,18.48-.39.21-1.97,1.36-1.75,2-2.16-.48-4.33-1.07-6.49-1.5q19.47-10.74,38.95-21.47c2.51.34,4.99.59,7.49,1Z"></path><path class="cls-24" d="M256.64,46.8c-13.11,8.67-28.55,13.94-42.44,21.47-1.79-.4-3.72-.6-5.49-1-.23-.64,1.35-1.79,1.75-2,12.03-6.43,25.75-11.45,37.45-18.48.23-.14.37-.92.75-1.5,2.65.43,5.35.98,7.99,1.5Z"></path><path class="cls-24" d="M281.11,53.29c-.26,1.52-6.47,2.58-10.24,3.99-6.83,2.57-19.39,8.88-24.97,10.49-13.87,3.99-11.57.97-1-4.49,8.21-4.24,25.18-9.99,26.96-10.99.52-.29.88-.86.75-1.5,2.95.79,5.58,1.58,8.49,2.5Z"></path><path class="cls-24" d="M83.86,62.28l37.7,11.49.25,1c-2.73.78-5.31,1.58-7.99,2.5q-15.11-5.74-30.21-11.49l-2.75-2.5c2.21-.97,2.85-.94,3-1Z"></path><path class="cls-24" d="M143.29,44.8c-.4,1.65,3.45.65,7.24,1.5,3.23.72,25.36,8.2,25.72,10.24-3.94,6.93-10.24-.99-22.72-5.74-4.68-1.78-15.08-3.65-14.23-4.99,1.3-.23,2.61-.78,3.99-1Z"></path><path class="cls-24" d="M325.05,73.76c-13.68,5.52-25.65,14.29-38.45,21.47-.69-.82-1.25-1.28-2-2,11.1-8.33,24.86-13.88,35.95-22.47,1.61,1.02,2.93,1.89,4.49,3Z"></path><path class="cls-24" d="M73.88,106.22c.24,1.1.63,1.58,1,2.5-8.6.54-31.69-5.32-33.46-11.98.06-.17.01-1.29,1-3.5,8.16,3.37,29.77,18.19,31.46,12.98Z"></path><path class="cls-24" d="M314.06,66.77l-35.95,21.47c-1.57-.94-3.79-1.64-5.49-2.5,13.04-5.35,25.82-12.37,36.95-20.97,1.43.73,3.05,1.2,4.49,2Z"></path><path class="cls-24" d="M74.38,99.73c-.4.88-.87,1.46-1,2.5-9.72-3.74-18.47-10.53-27.96-13.98,1.75-2.54,2.97-3.39,3.5-3.99,8.05,5.76,18.14,9.46,25.47,15.48Z"></path><path class="cls-24" d="M83.86,90.74c-1.03.7-3.3,1.9-3.99,2.5-8.32-5.19-16.81-10.61-25.97-13.98,1.04-.92,1.91-1.64,3-2.5,8.68,2.66,18.8,9.28,26.96,13.98Z"></path><path class="cls-24" d="M73.88,105.72c.03.16-.04.34,0,.5-1.69,5.21-23.3-9.62-31.46-12.98.56-1.27,1.29-2.32,2-3.5l29.46,15.98Z"></path><path class="cls-24" d="M345.02,93.24c.65,1.14.98,2.33,1.5,3.5-11.47,4.29-27.22,16.85-37.95,16.73,12.5-6.12,24.92-12.41,36.45-20.22Z"></path><path class="cls-24" d="M73.38,102.23c-.31,2.38.45,3.21.5,3.5l-29.46-15.98c.31-.52.66-1,1-1.5,9.49,3.45,18.25,10.24,27.96,13.98Z"></path><path class="cls-24" d="M58.9,115.21c-3.37,1.18-6.4,1.9-9.99,2-.02-.03-.19-.13-.5-.5,4.55-4.15,11.32-3.62,16.73-5.99,2.3,1.82-4.61,3.92-6.24,4.49Z"></path><path class="cls-24" d="M242.16,143.17c5.34,5.51,17,5.97,14.73,9.99-1.84,1.32-18.61-7.24-21.22-8.99,2.17-.36,4.32-.65,6.49-1Z"></path><path class="cls-24" d="M275.12,136.18l22.97,10.49c-.9.17-1.54.51-2.5.5-5.43-.08-20.86-5.9-26.96-8.49.46-.13,5.6-2.1,6.49-2.5Z"></path><path class="cls-24" d="M317.06,136.18c-2.02,1.25-4.25,1.86-4.49,2l-25.97-9.99c.71-.78,4.35-5.65,4.49-5.99,8.53,4.63,18.58,8.42,25.97,13.98Z"></path><path class="cls-24" d="M308.07,141.18c-1.51.8-2.94,1.73-4.49,2.5-7.95-3.67-17.02-4.75-24.47-9.49.87-.5,4.73-3.31,5.49-3.99,7.19,4.88,16.72,5.76,23.47,10.99Z"></path><path class="cls-24" d="M279.11,134.19c7.45,4.74,16.52,5.82,24.47,9.49-1.93.96-3.16,2.54-5.49,3l-22.97-10.49c.51-.22,3.59-1.76,3.99-2Z"></path><path class="cls-24" d="M322.05,133.19c-1.64,1.07-3.33,1.97-4.99,3-7.39-5.56-17.44-9.35-25.97-13.98.04-.1.26-1.21.5-2q15.23,6.49,30.46,12.98Z"></path><path class="cls-24" d="M312.57,138.18c-.44.25-1.94,1.65-4.49,3-6.75-5.22-16.28-6.11-23.47-10.99.37-.33,1.63-1.6,2-2l25.97,9.99Z"></path><path class="cls-24" d="M329.05,128.19c-.08.07-.32.62-1.5,1.5-41.44-17.59-43.19-21.06.25-3.5l1.25,2Z"></path><path class="cls-24" d="M342.53,115.21c-.53.63-1.07,1.02-1.5,1.5-3.24-1.23-8.21,2.15-11.24,2.5-5.34.61-17.92-2.29-23.47-4.49,13.42,1.11,22.93,3.24,36.2.5Z"></path><path class="cls-24" d="M292.59,110.22c-.13-1.99-.87-5.02-1.5-6.99l42.2-21.97,3.75,3.25c.27,2.66-39.16,22.9-44.44,25.72Z"></path><g><path class="cls-21" d="M195.72,64.78c2.11.31,4.42.59,6.49,1,2.17.43,4.34,1.01,6.49,1.5,1.77.4,3.7.6,5.49,1,.34.08,2.8,1.66,6.49,2.5,14.94,3.4,29.67,5.78,43.94,11.49,2.64,1.05,5.45,2.22,7.99,3.5,1.7.86,3.92,1.56,5.49,2.5,2.01,1.2,4.79,3.36,6.49,4.99.74.72,1.31,1.18,2,2,1.04,1.22,3.46,4.68,3.99,5.99.19.47.33,1.47.5,2,.63,1.97,1.37,5,1.5,6.99.03.5,0,1,0,1.5.06,3.38-.02,5.21-1,8.49-.24.79-.46,1.9-.5,2-.14.35-3.78,5.21-4.49,5.99-.37.4-1.62,1.67-2,2-.77.68-4.62,3.49-5.49,3.99-.41.24-3.49,1.78-3.99,2-.9.39-6.04,2.36-6.49,2.5-1.98.58-5.63.98-7.99,1.5-2.26.49-4.71.59-6.99,1-2.32.41-4.68,1.14-6.99,1.5-1.45.22-3,.26-4.49.5-2.17.35-4.32.64-6.49,1-1.47.25-4.96-.09-8.49.5-.35.06-3.57-.35-6.99,1-3.7.79-7.24,1.86-10.99,2.5-.45.08-2.9.85-6.49,1.5-2.69.49-5.27,1.14-7.99,1.5-19.08,2.53-33.81,1.08-52.68-2.5-22.27-4.22-49.65-15.21-63.67-33.96-.46-.61-1.63-2.36-2-3-.52-.9-1.11-2.04-1.5-3-.37-.91-.75-1.4-1-2.5-.04-.16.03-.34,0-.5-.05-.29-.81-1.11-.5-3.5.13-1.03.6-1.61,1-2.5.74-1.62,4.11-5.31,5.49-6.49.7-.6,2.96-1.79,3.99-2.5,2.38-1.61,4.95-3.17,7.49-4.49,6.01-3.12,15.88-6.74,22.47-8.99,2.68-.91,5.26-1.71,7.99-2.5,21.01-6.05,30.15-5.34,35.2-6.49,10.89-2.48,7.21-8.19,38.7-3.5Z"></path><path class="cls-27" d="M207.2,80.76c-6.41,1.76-8.03,2.87-14.98,1-3.07-.83-1.99-3.46-5.99-2-3.74,1.37-4.74,4.75-3.5,8.24.37,1.05,6.41,7.66-1.25,2.25-6.34-4.48-6.05-14.53,10.74-12.48,7.13,2.08,3.58,6.4,17.73-1,.68,1.88-2.36,3.45-2.75,3.99Z"></path><path class="cls-8" d="M216.69,125.2c-4.06,1.63-7.89,3.61-12.23,4.49-10.53,2.13-36.49,1.31-46.44-2-1.53-.51-3.2-1.85-4.74-2.5l-.25-1.5c11.46,3.86,30.28,7.17,40.95.5l-1.75,4.24c10.52,2.07,13.02-14.83,11.49-2,3.02,1.17,10.56-3.67,10.74-4.24.23-.75-2.23-.79-.5-2,2.09-1.46,7.89-.21,9.49-3.5,1.68,2.29-8.56,5.68-6.74,8.49Z"></path><g><path class="cls-8" d="M192.22,77.76c-16.79-2.04-17.07,8-10.74,12.48,7.65,5.41,1.62-1.2,1.25-2.25-1.24-3.49-.24-6.87,3.5-8.24-4.21,4.11-2.53,9.24,2.25,11.98,7.23,4.15,18.93-.94,15.73,7.24-2.33,4.23-16.53,1.11-14.23,2.75,18.05,6.21,17.28-4.47,18.48-5.49,2.23-1.92,14.59.52,17.73,2.25-8.29,4.94,1.19,2.7,2,4.49-5.5,16.5-33.8,14.5-47.69,14.73-3.73.06-10.8,2.41-22.47,0-23.71-4.9-7.14-22.26,1.5-19.97,2.99.79,2.45,6.42,6.99,3.99,18.46-23.79-39.65-7.14-33.21,10.74,1.55,4.31,15.45,10.83,19.97,12.73,1.54.65,3.22,1.99,4.74,2.5,9.95,3.3,35.91,4.13,46.44,2,4.34-.88,8.18-2.87,12.23-4.49,9.03-3.62,23.68-9.53,16.98-22.22-4.51-8.54-18.73-8.04-20.72-8.74-1.01-.36-7.32-8.15-19.72-6.24-.97,1.25,8.74,3,9.24,3.25,4.95,2.48-12.4.54-14.23-3.75-2.77-6.49,8.33-.6,3.99-5.74,6.95,1.87,8.57.76,14.98-1-.68.97-1.61,1.57-.25,2.5,19.94-4.75,38.43,6.1,57.43,10.49,36.53,27.13-63.42,44.02-80.89,44.44-20.64.5-39.85-3.97-58.92-11.49-.71-.28-.78-1.7-1.5-2-.33-.14-4.45-.36-6.99-1.5-4.17-1.87-4.72-3.37-4.99-3.5-1.7-.8-21.26-4.23-14.73-19.72,8.84-8.03,25.93-8.97,28.71-9.74,2.89-.8,3.75-3.39,3.99-3.5.3-.13,3.22.17,5.49-.5,5.29-1.55,10.92-5.09,16.48-3.99,1.5-3.6,9.98-.24,13.48-.5,3.18-.23,17.38-7.01,27.71-3.99Z"></path><path class="cls-22" d="M174.5,93.74c8.9-.61,16.94,4.16,25.22,6.74-10.57,1.85-20.62-7.81-25.47-3.5,1.33,8.31,14.18,2.27,18.48,9.49-8.13.99-29.35-3.62-18.23-12.73Z"></path><path class="cls-22" d="M248.4,94.74c4.54,2.09,8.89,2.96,9.74,8.74-3.03,5.92-3.07-2.02-9.74-8.74Z"></path><path class="cls-22" d="M125.56,93.74c5.08.77.88,5.44-4.99,3.99-4.66-1.8,3.19-4.27,4.99-3.99Z"></path></g><g><path class="cls-22" d="M192.22,81.75c4.33,5.14-6.77-.75-3.99,5.74,1.83,4.29,19.18,6.22,14.23,3.75-.5-.25-10.21-2-9.24-3.25,12.41-1.91,18.72,5.89,19.72,6.24,1.99.7,16.21.19,20.72,8.74,6.7,12.69-7.95,18.6-16.98,22.22-1.82-2.81,8.42-6.2,6.74-8.49-1.6,3.28-7.4,2.04-9.49,3.5-1.73,1.21.73,1.24.5,2-.17.57-7.72,5.41-10.74,4.24,1.53-12.84-.97,4.07-11.49,2l1.75-4.24c-10.66,6.67-29.48,3.36-40.95-.5l.25,1.5c-4.52-1.91-18.42-8.43-19.97-12.73-6.44-17.88,51.67-34.53,33.21-10.74-4.54,2.43-4-3.2-6.99-3.99-8.64-2.28-25.21,15.07-1.5,19.97,11.67,2.41,18.74.06,22.47,0,13.89-.23,42.19,1.76,47.69-14.73-.81-1.8-10.28.45-2-4.49-3.14-1.73-15.5-4.16-17.73-2.25-1.19,1.03-.42,11.71-18.48,5.49-2.3-1.64,11.91,1.48,14.23-2.75,3.2-8.18-8.5-3.09-15.73-7.24-4.78-2.74-6.46-7.87-2.25-11.98,4-1.46,2.92,1.17,5.99,2Z"></path><path class="cls-8" d="M146.53,99.73l-6.49,8.49c-4.28,2.41-5.09-5.83,6.49-8.49Z"></path><path class="cls-8" d="M137.05,109.72c2.58,4.7,20.04,10.12,11.49,8.99-2.04-.27-12.92-5.56-11.49-8.99Z"></path><path class="cls-8" d="M164.01,122.2c2.44-.34,5.22.81,6.74,2.75-3.07.06-13.46-1.81-6.74-2.75Z"></path><path class="cls-8" d="M182.49,124.7c4.37-.22-6.24,4.15-6.24,2.25l6.24-2.25Z"></path></g></g></g></g></g></svg>