<svg xmlns="http://www.w3.org/2000/svg" id="Layer_2" data-name="Layer 2" viewBox="0 0 250.09 192.5"><metadata></metadata><defs><style>      .cls-1 {        fill: #fdeea8;      }      .cls-1, .cls-2, .cls-3, .cls-4, .cls-5, .cls-6, .cls-7, .cls-8, .cls-9, .cls-10, .cls-11, .cls-12, .cls-13, .cls-14, .cls-15, .cls-16, .cls-17, .cls-18, .cls-19, .cls-20, .cls-21, .cls-22, .cls-23 {        stroke-width: 0px;      }      .cls-2 {        fill: #eff967;      }      .cls-3 {        fill: #3e1505;      }      .cls-4 {        fill: #e5c5a9;      }      .cls-5 {        fill: #e14113;      }      .cls-6 {        fill: #db630d;      }      .cls-7 {        fill: #9b7f6a;      }      .cls-8 {        fill: #eff094;      }      .cls-9 {        fill: #c2a993;      }      .cls-10 {        fill: #723919;      }      .cls-11 {        fill: #756550;      }      .cls-12 {        fill: #fde6bf;      }      .cls-13 {        fill: #efe358;      }      .cls-14 {        fill: #fd8109;      }      .cls-15 {        fill: #121113;      }      .cls-16 {        fill: #c32b11;      }      .cls-17 {        fill: #eed012;      }      .cls-18 {        fill: #5c280e;      }      .cls-19 {        fill: #1d130d;      }      .cls-20 {        fill: #a06213;      }      .cls-21 {        fill: #fbc816;      }      .cls-22 {        fill: #720f09;      }      .cls-23 {        fill: #aa9384;      }    </style></defs><g id="Layer_1-2" data-name="Layer 1"><g><path class="cls-4" d="M195.28,68h29c-.21,32.88.9,65.85.5,98.75l-1,3.75c-2.2-.38-23.81-.07-29.5,0-.4-34.06-.39-68.19,0-102.25,0-.41,1-.2,1-.25Z"></path><g><path class="cls-18" d="M233.78,179c1.01,4.02,0,9.29,1.75,13.5H7.28c2.44-4.59,4.73-9.42,8-13.5h218.5Z"></path><path class="cls-10" d="M53.28,170.5c.05,0-.16.99.25,1,46.6.87,93.38.58,140,0,.36,0,.69-1,.75-1,5.69-.07,27.3-.38,29.5,0,4.27.75,9.8,7.71,10,8.5H15.28c1.23-1.53.93-1.92,1-2,.34-.37,7.47-5.83,8-6,1.61-.51,24.95-.58,29-.5Z"></path></g><g><path class="cls-4" d="M224.78,39.5c0-.35.13-.87-.25-1-3.24-1.13-24.6.45-29.75.5-47.16.43-94.34-.47-141.5,0-9.77-1.31-19.72.05-29.5-.5-1.21-.07-9.33-.31-9.5-.75-1.03-2.67.6-19.08.5-23.25l220.5-.5c.04,2.98.69,22.78,0,23.75-.91,1.29-9.43-1.46-10.5,1.75Z"></path><path class="cls-4" d="M235.28,9.5H14.78C12.71,4.57-4.3,14.09,1.03,0h248.5c3.06,14.42-6.99,5.6-14.25,9.5Z"></path><path class="cls-23" d="M235.28,9.5c.02,1.5-.02,3,0,4.5l-220.5.5c-.02-.71.1-4.77,0-5h220.5Z"></path></g><g><path class="cls-7" d="M224.78,39.5c-.3.9.05,15.55,0,19h-30c.09-6.5-.07-13,0-19.5,5.15-.05,26.51-1.63,29.75-.5.38.13.25.65.25,1Z"></path><path class="cls-9" d="M224.78,58.5c-.03,2,.02,4,0,6h-30c.03-2-.03-4,0-6h30Z"></path></g><path class="cls-11" d="M224.78,64.5c-.04,4.22-.5,3.32-.5,3.5h-29c0-.2-.57,1.04-.5-3.5h30Z"></path><g><path class="cls-4" d="M52.78,68c0,33.82,1.04,67.67.5,101.5v1c-4.05-.08-27.39,0-29,.5-1.46-34.33,0-68.68,0-103h28.5Z"></path><g><path class="cls-7" d="M53.28,39c0,6.5,0,13,0,19.5h-29.5c0-6.67,0-13.33,0-20,9.78.55,19.73-.81,29.5.5Z"></path><path class="cls-9" d="M53.28,58.5c0,.83,0,1.67,0,2.5,0,4.2-.5,3.32-.5,3.5l-29,.5c0-2.17,0-4.33,0-6.5h29.5Z"></path></g><path class="cls-11" d="M52.78,64.5c0,1.17,0,2.33,0,3.5h-28.5c0-.15-.5-.5-.5-3l29-.5Z"></path></g><path class="cls-15" d="M194.78,39c-.07,6.5.09,13,0,19.5-.03,2,.03,4,0,6-.07,4.54.5,3.3.5,3.5,0,.05-1-.16-1,.25-.39,34.06-.4,68.19,0,102.25-.06,0-.39,1-.75,1-46.62.58-93.4.87-140,0-.41,0-.2-1-.25-1v-1c4.05,2.17,11.99,1.43,17.5,1.5,34.74.44,69.51-.33,104.25,0,.46-.96.6-1.96.75-3,12.25-1.54,10.37,4.05,17,2.25l1-104c-.51-9.16-1.6-.46-10.75-2.25-3.43-.67-14.01-10.59-19.25-7-.6-.28-1.27-.52-1.75-1-13.58,1.2-64.33-1.56-71-.5-5.37.86-17.62,9.27-18.75,14.75-.4,1.93,0,26.2,0,32.25-.34,0-.91.12-1-.25-.75-3.15,1.49-31.9,1-33.5-.31-1.01-16.38-9.27-19-7.75,0-.83,0-1.67,0-2.5,0-6.5,0-13,0-19.5,47.16-.47,94.34.43,141.5,0Z"></path><path class="cls-15" d="M72.28,102.5c0,4.8.43,9.67.5,14.5.12,8.49-.11,17.77,0,25.25,3.78,4.44-1.49,2.46-2.5,4-.68,1.04,1.42,21.84.5,24.75-5.51-.07-13.45.67-17.5-1.5.54-33.83-.5-67.68-.5-101.5,0-1.17,0-2.33,0-3.5,0-.18.5.7.5-3.5,2.62-1.52,18.69,6.74,19,7.75.49,1.6-1.75,30.35-1,33.5.09.37.66.25,1,.25Z"></path><path class="cls-15" d="M175.78,168c.12-.8-.13-15.53-.5-16.25-.38-.73-1.08.46-2.5.25,1.92-8.25-1.06-9.72-1-10.25.04-.37,2.07-.97,2-2.5-.01-.33-1.4-1.51-1.5-2.75l1,.25c1.26-11.28,2.8-49.83,2-58-.65-6.61-5.13-18.73-11.5-21.75,5.24-3.59,15.82,6.33,19.25,7,9.15,1.79,10.24-6.91,10.75,2.25l-1,104c-6.63,1.8-4.75-3.79-17-2.25Z"></path><g><path class="cls-22" d="M163.78,57c6.37,3.02,10.85,15.14,11.5,21.75.8,8.17-.74,46.72-2,58l-1-.25c-.21-2.57.15-4.09-.5-7-4.49-20.12-23.59-35.26-38.25-48.5-1.63-.16-9.01,14.23-14.25,19.5-.17.17-1.6-.52-2.5.75-.43.6-3.04,12.28-3.5,14.25-7.73-8.9-11.96-32.85-13.75-33-15.1,16.78-19.46,45.18-22.75,67-.35,0-.78.16-1-.25-2.54-4.71-2.03-25.66-3-32.25-.07-4.83-.5-9.7-.5-14.5,0-6.05-.4-30.32,0-32.25,1.13-5.48,13.38-13.89,18.75-14.75,6.67-1.06,57.42,1.7,71,.5.48.48,1.15.72,1.75,1Z"></path><path class="cls-5" d="M171.78,129.5l-.75,11c-10.08-3.09-14.08-10.62-17.5-13-4.03-2.81-4.84-1.13-5.25-1.75-.8-1.22-1.03-17.21-4-14.75l-8.75,16c-1.08-3.15-.61-29.28-6-27-1.5.63-2.82,16.91-2.75,20.5.05,2.63-.51,2.37-.5,2.5-.88-2.18-1.93-2.36-2-2.5-1.57-3.12-2.69-11.54-3.5-15.5-.3-1.46-.41-3.6-1.5-4.5,5.24-5.27,12.62-19.66,14.25-19.5,14.66,13.24,33.76,28.38,38.25,48.5Z"></path><path class="cls-5" d="M113.28,115.5c-.71,3.04-.89,8.1-3,10-10.64-21.54-13.87-21.8-6-2-1,.33-1.31,1.35-2,2-4.54,4.29-11.26,6.28-5,12.5-.96,2.08-6.03-1.58-8.5-.5-1.08-1.58-4.28-2.11-4.5-1.75.18,2.81,1.17,5.46,1.5,8.25l-5,8.5c-2.77-.24-4.4.99-4-3,3.29-21.82,7.65-50.22,22.75-67,1.79.15,6.02,24.1,13.75,33Z"></path><path class="cls-1" d="M119.28,100.5c1.09.9,1.2,3.04,1.5,4.5-3.2,9.86,2.11,21.57-7.5,10.5.46-1.97,3.07-13.65,3.5-14.25.9-1.27,2.33-.58,2.5-.75Z"></path><path class="cls-16" d="M171.78,129.5c.65,2.91.29,4.43.5,7,.1,1.24,1.49,2.42,1.5,2.75.07,1.53-1.96,2.13-2,2.5-.06.53,2.92,2,1,10.25-2.46-.37-1.9-.49-2-.5,1.03-13.51-2.26-10.03-3-10.5-4.06-2.61-4.27-1.85-4.5-2-3.02-1.99-6.78-7.54-11-10.5-.2-.14-.52-3.65-3.5-.5-2.8-4.66-1.6-12.86-4.5-17,2.97-2.46,3.2,13.53,4,14.75.41.62,1.22-1.06,5.25,1.75,3.42,2.38,7.42,9.91,17.5,13l.75-11Z"></path><path class="cls-3" d="M116.78,126.5c-.77,1.37-.87,3.47-1.5,5-.27.66-2.52,3.86-2.5,4.25,10.87,10.82,9.67,4.73,11,3.75.07-.05,1.44-.24,1.75-.5,1.63-1.37,2.44-3.01,3.75-4.5,1.02-1.16,2.86-2.72,4-4,9.63,11.51,14.33-1.26,15.5-2.5,2.98-3.15,3.3.36,3.5.5l-6,9.75c1.86,1.61,4.04,2.79,6,4.25-.19,2.09-.7,4.43-.5,6.5-3.11-.89-17.44-7.67-18.75-7.5-.74.1-12.11,7.14-10.25,9.75,5.66-.1,26.24.97,29.25.25.37-.09.25-.66.25-1,.2,2.28,1.28,3.51.5,6-.1.33-3.49-.8-.25,5.5-6.16,1.45-3.19-4.2-8-4.5-4.61-.29-4.18,5.46-5,5.5-.96.05-6.45-12.02-14.5,1.5-1.36-.66,1.97-6.62,3.25-7.25-5.42-.85-7.71-.37-8.5,5.25l-1.25,2-.75-.5c-1.44-3.47-10.48-10.91-16-3-2.11,0-1.07,2.56-2.5.5.37-.99,1.76-4.3,1.5-5-.63-1.66-3.94,1.25-3.5-5,5.36.57,13.42-.42,19.25,0-.19-12.96-15-3.56-21.25-.5,1.71-1.85,2.22-4.27,0-6,1.31-.83,4.01-3.76,5.5-5,1.91-1.59,3.67-3.32,5.5-5,1.04-.96,1.99-2.03,3-3,1.04-1,1.98-2,3-3,.59-.58,3.48-4,3.75-4,.2,0,.49,1.3.75,1.5Z"></path><path class="cls-13" d="M152.78,156.5c5.54.25,7.12,5,6.75,10h-39.5c-1.55-1.23-.44-2.65-.25-4,.79-5.62,3.08-6.1,8.5-5.25-1.28.63-4.61,6.59-3.25,7.25,8.05-13.52,13.54-1.45,14.5-1.5.82-.04.39-5.79,5-5.5,4.81.3,1.84,5.95,8,4.5-3.24-6.3.15-5.17.25-5.5Z"></path><path class="cls-13" d="M151.78,149c.04.36.4.43.5,1.5,0,.34.12.91-.25,1-3.01.72-23.59-.35-29.25-.25-1.86-2.61,9.51-9.65,10.25-9.75,1.31-.17,15.64,6.61,18.75,7.5Z"></path><path class="cls-13" d="M163.28,139l-3.25,8.5c-.65.23-6.76-4.26-7.75-5-1.96-1.46-4.14-2.64-6-4.25l6-9.75c4.22,2.96,7.98,8.51,11,10.5Z"></path><path class="cls-13" d="M117.78,164c1.56,3.74-1.17,2.31-8,2.5.16-5.79-2.56-6.4-2.5,0-6.6-.18-10.54,1.71-5.5-5.5,5.52-7.91,14.56-.47,16,3Z"></path><path class="cls-13" d="M97.28,151.5c-1.02-.11-2.02.32-2-.5,6.25-3.06,21.06-12.46,21.25.5-5.83-.42-13.89.57-19.25,0Z"></path><path class="cls-13" d="M100.78,156.5c.26.7-1.13,4.01-1.5,5-.39,1.04-1.44,4.68-2.25,5-.71.28-3.86-.2-5.5,0-.11-6.29,2.14-11.21,9.25-10Z"></path><path class="cls-17" d="M97.28,138c.52.51,2.56,1.04,3.5,2-1.49,1.24-4.19,4.17-5.5,5-6.8,4.32-3.79-3.55-6.5-7.5,2.47-1.08,7.54,2.58,8.5.5Z"></path><path class="cls-21" d="M170.78,151.5c-1.09-.13-5.04.32-5.5-.25l2.5-10.25c.74.47,4.03-3.01,3,10.5Z"></path><g><path class="cls-19" d="M76.78,149.5c-.4,3.99,1.23,2.76,4,3,8.3.71,6-.18,5-8.5-.33-2.79-1.32-5.44-1.5-8.25.22-.36,3.42.17,4.5,1.75,2.71,3.95-.3,11.82,6.5,7.5,2.22,1.73,1.71,4.15,0,6-.02.82.98.39,2,.5-.44,6.25,2.87,3.34,3.5,5-7.11-1.21-9.36,3.71-9.25,10,1.64-.2,4.79.28,5.5,0,.81-.32,1.86-3.96,2.25-5,1.43,2.06.39-.51,2.5-.5-5.04,7.21-1.1,5.32,5.5,5.5.83.02,1.67.02,2.5,0,6.83-.19,9.56,1.24,8-2.5l.75.5,1.25-2c-.19,1.35-1.3,2.77.25,4h39.5c.37-5-1.21-9.75-6.75-10,.78-2.49-.3-3.72-.5-6-.1-1.07-.46-1.14-.5-1.5-.2-2.07.31-4.41.5-6.5.99.74,7.1,5.23,7.75,5l3.25-8.5c.23.15.44-.61,4.5,2l-2.5,10.25c.46.57,4.41.12,5.5.25.1.01-.46.13,2,.5,1.42.21,2.12-.98,2.5-.25.37.72.62,15.45.5,16.25-.15,1.04-.29,2.04-.75,3-34.74-.33-69.51.44-104.25,0,.92-2.91-1.18-23.71-.5-24.75,1.01-1.54,6.28.44,2.5-4-.11-7.48.12-16.76,0-25.25.97,6.59.46,27.54,3,32.25.22.41.65.25,1,.25Z"></path><path class="cls-5" d="M77.28,167c5.35-1.37,4.8-6.54,5.25-11.5-5.37-.88-1.77,2.65-4.75,3.5,2.15-6.8,1.77-3.68,8.75-4.5,1.36,11.89,3.77,14.34-9.25,12.5Z"></path><path class="cls-6" d="M165.53,156.5h4.5c3.61,14.63-8.95,14.93-4.5,0Z"></path><path class="cls-16" d="M77.28,167c-1.81,1.21.26-7.26.5-8,2.98-.85-.62-4.38,4.75-3.5-.45,4.96.1,10.13-5.25,11.5Z"></path></g><path class="cls-21" d="M80.78,152.5l5-8.5c1,8.32,3.3,9.21-5,8.5Z"></path><path class="cls-20" d="M109.78,166.5c-.83.02-1.67.02-2.5,0-.06-6.4,2.66-5.79,2.5,0Z"></path><path class="cls-13" d="M144.28,111c2.9,4.14,1.7,12.34,4.5,17-1.17,1.24-5.87,14.01-15.5,2.5-1.56-1.87-4.22-7.62-6.5-10-.07-3.59,1.25-19.87,2.75-20.5,5.39-2.28,4.92,23.85,6,27l8.75-16Z"></path><path class="cls-13" d="M124.28,120.5c-1.1,2.95-3.9,4.48-5,7.5-1.04,0-1.75-.92-2.5-1.5-.26-.2-.55-1.5-.75-1.5-.27,0-3.16,3.42-3.75,4-.61.05-1.07-1.63-2-3.5,2.11-1.9,2.29-6.96,3-10,9.61,11.07,4.3-.64,7.5-10.5.81,3.96,1.93,12.38,3.5,15.5Z"></path><path class="cls-1" d="M126.28,123c.27,2.57,1.87,5.65,2.5,11-6.11,3.04-12.45,2.07-9.5-6,1.1-3.02,3.9-4.55,5-7.5.07.14,1.12.32,2,2.5Z"></path><path class="cls-14" d="M133.28,130.5c-1.14,1.28-2.98,2.84-4,4-.43.05-.46-.12-.5-.5-.63-5.35-2.23-8.43-2.5-11-.01-.13.55.13.5-2.5,2.28,2.38,4.94,8.13,6.5,10Z"></path><path class="cls-12" d="M106.28,135c-1.83,1.68-3.59,3.41-5.5,5-.94-.96-2.98-1.49-3.5-2-6.26-6.22.46-8.21,5-12.5l4,9.5Z"></path><path class="cls-2" d="M110.28,125.5c.93,1.87,1.39,3.55,2,3.5-1.02,1-1.96,2-3,3-1.77-.11-3.95-5.85-5-8.5-7.87-19.8-4.64-19.54,6,2Z"></path><path class="cls-14" d="M109.28,132c-1.01.97-1.96,2.04-3,3l-4-9.5c.69-.65,1-1.67,2-2,1.05,2.65,3.23,8.39,5,8.5Z"></path><path class="cls-13" d="M119.28,128c-2.95,8.07,3.39,9.04,9.5,6,.04.38.07.55.5.5-1.31,1.49-2.12,3.13-3.75,4.5-.31.26-1.68.45-1.75.5-4.13-2.15-6.26-3.74-8.5-8,.63-1.53.73-3.63,1.5-5,.75.58,1.46,1.5,2.5,1.5Z"></path><path class="cls-8" d="M123.78,139.5c-1.33.98-.13,7.07-11-3.75-.02-.39,2.23-3.59,2.5-4.25,2.24,4.26,4.37,5.85,8.5,8Z"></path></g></g></g></svg>