<svg xmlns="http://www.w3.org/2000/svg" id="Layer_2" data-name="Layer 2" viewBox="0 0 390.58 130.94"><metadata></metadata><defs><style>      .cls-1 {        fill: #1d586a;      }      .cls-1, .cls-2, .cls-3, .cls-4, .cls-5, .cls-6, .cls-7, .cls-8, .cls-9, .cls-10, .cls-11, .cls-12, .cls-13, .cls-14, .cls-15, .cls-16, .cls-17, .cls-18 {        stroke-width: 0px;      }      .cls-2 {        fill: #b5730b;      }      .cls-3 {        fill: #513a42;      }      .cls-4 {        fill: #e3a027;      }      .cls-5 {        fill: #eaeaea;      }      .cls-6 {        fill: #080705;      }      .cls-7 {        fill: #111813;      }      .cls-8 {        fill: #e3d4d5;      }      .cls-9 {        fill: #c69890;      }      .cls-10 {        fill: #e9b43f;      }      .cls-11 {        fill: #1e2323;      }      .cls-12 {        fill: #9c5b39;      }      .cls-13 {        fill: #d28620;      }      .cls-14 {        fill: #dfc7bf;      }      .cls-15 {        fill: #c9afaa;      }      .cls-16 {        fill: #0c252e;      }      .cls-17 {        fill: #f1e4d8;      }      .cls-18 {        fill: #f3cf65;      }    </style></defs><g id="Layer_1-2" data-name="Layer 1"><g><g><path class="cls-5" d="M369.52,106.95c2.08.71,3.73,12.33,16.98,8.99-9.63,3.72-12.45-2.68-14.23-3.5-.49-.22-3.49.08-9.74-3.5.52-2.61,4.85-2.73,6.99-2Z"></path><path class="cls-3" d="M286.63,107.95c-.17,1.58-12.81,1.58-12.98,0,4.33-.04,8.66.05,12.98,0Z"></path></g><g><path class="cls-11" d="M341.56,2.58c.07.73-.91.34-1,.75-.47,2.15-.8,41.9,0,43.94.2.5,6.73,3.48,6.99,3,.42-4.76-.57-22.83,0-24.47.13-.38.65-.25,1-.25-.89,7-1.09,20.47.5,26.96-4.23-2.14-6.89-3.5-11.49-4.99-6.82-2.21-12.29-2.87-18.98-4.49-1.13-.27-7.49-1.2-7.74-1.5-.73-.87.11-3.96-.25-4.99-.92-2.6-11.23,1.61-10.49-9.74.55-8.5,7.81-6.71-2-10.74-22.56-9.26-47.57-12.64-71.66-8.99-10.24,1.55-20.05,5.93-30.21,7.49-7.82,1.2-7.69,1.38-15.48-.5-2.4-.58-8.82-3.55-12.73-4.49-26.65-6.45-55.8-4.14-80.65,7.24l3.5,10.24c-8.89,1.76-20.91,3.25-3.5,4.99-1.79,1.86-4.9,7.02-5.99,7.99-4.34,3.86-20.3,4.82-27.21,6.99-6.56,2.06-8.74,4.43-10.74,5.49-.64.34-1.33.62-2,1,.71-2.36,4.88-3.26,5.49-5.74,1.27-5.15-1.28-42.62,0-44.44.55-.79,3.35.43,3.99-.75h290.62Z"></path><path class="cls-2" d="M200.24,34.04c.19,0-1.34,1.02,3,1,6.8-.03,13.63-.53,20.47-.5,14.94.07,30.01.14,44.94.5,11.03.26,21.95,1.11,32.96,1.5,2.99.11,6-.08,8.99,0,.36,1.03-.48,4.12.25,4.99.25.3,6.61,1.22,7.74,1.5-.96.52-1.6,1.44-2.75,1.5-1.66.08-26.36-2.19-33.21-2.5-47.66-2.16-117.08-2.93-164.29-.5-12.62.65-34.86,2.18-46.69,3.99-.4.06-.1.94-.5,1-9.43-.02-18.74,3.42-27.71,5.99,2-1.07,4.17-3.43,10.74-5.49,6.91-2.17,22.88-3.13,27.21-6.99,9.67-.78,19.28-2.27,28.96-3,15.71-1.18,31.69-1.58,47.44-2,8.14-.21,16.32.11,24.47,0,6.3-.09,4.23-1,4.49-1,4.45-.05,9,.03,13.48,0Z"></path><path class="cls-4" d="M91.88,27.55c-1.46,1.47-3.07,3.02-4.49,4.49-17.42-1.74-5.39-3.23,3.5-4.99.46-.09,1.01-.12,1,.5Z"></path><g><path class="cls-6" d="M50.93,2.58c-.65,1.18-3.44-.04-3.99.75-1.28,1.82,1.27,39.3,0,44.44-.61,2.48-4.78,3.38-5.49,5.74-1.71.99-3.32,1.94-4.99,3-3.03,1.92-5.65,4.36-6.49,3.5C31.73,50.52,27.7,2.14,39.7.09c4.42-.76,6.45,3.64,11.24,2.5Z"></path><path class="cls-16" d="M40.7,3.08h1.5c-5.38,12.87-4.13,49.31-5.24,51.68-.23.5-3.01,2.44-3.25,2.25-1.79-7.08-1.4-53.22,6.99-53.93Z"></path></g><g><path class="cls-7" d="M370.02,105.45l-.5,1.5c-2.14-.73-6.47-.62-6.99,2-.27,1.35-.83,18.32,1.75,17.98,18.17.67,27.43,2.92,2,3.99-3.95.17-7.88-.5-11.73-.5v-3c.27-5.12-.37-10.37,0-15.48.1-1.35-.2-3.36,0-3.99.97-3.1,12.83-1.41,13.48-2.25-6.88-9.18-12.22-20.72-24.22-23.72H42.69c-4.74.84-10.84,8.26-12.73,12.48,2.54-5.44,3.61-6.82,7.49-11.49.48-.23,5.27-1.1,7.24-2h297.11c13.83,1.3,19.87,15.13,28.21,24.47Z"></path><path class="cls-16" d="M354.54,107.95c.14-1.94-7.13-.63-12.23-1-.51.36-.2,4.08-.25,4.99-.17,2.92.51,6.24-.5,8.99-1.84-1.16-4.1-1.47-4.99-2.5,5.99,2.07,4.17-1.48,3.99-5.99-.1-2.56.84-4.79.5-5.24-2.98-.88-4.74.26-4.99.25-10.92-.65-21.56-.23-32.46,0-5.67.12-11.3.43-16.98.5-4.33.05-8.66-.04-12.98,0h-1.5c.79-.07,11.87-.55,9.24-2-62.41-.48-126.37,1.93-187.76-.5,9.84.64,2.39,1.56-2,1.5-2.67-.04-5.21-.99-5.49-1-8.25-.18-52.73,1.12-55.43.5-1.35-.31-2.46-1.3-3.75-1.75,1.13-2.84,2.51-9.16,3-10.24,1.9-4.22,8-11.65,12.73-12.48h301.11c12,3,17.33,14.54,24.22,23.72-.65.83-12.51-.85-13.48,2.25Z"></path><g><path class="cls-13" d="M37.45,82.98c-3.88,4.67-4.95,6.05-7.49,11.49-2.45,5.23-2.98,9.27-4.49,12.98-2.13,5.22-8.49,17.34-12.98,20.47-5.45,3.8-12.29.06-12.48-2.25.04-1.71,4.65-4.7,7.99-7.74.55-.5.99-1.02,1.5-1.5.14-.13,2.78-.9,3.5-1.75.58-.69,4.1-9.71,7.99-16.23,2.06-3.45,4.12-6.73,6.49-9.99,6.44-.52,6.28-3.77,9.99-5.49Z"></path><path class="cls-5" d="M349.05,52.52c2.45,1.24,5.17,2.55,7.49,3.99,2.76,1.72,2.86,1.4,3,1.5,1.94,1.31,11.26,9.28,12.98,11.24,9.25,10.5,19.11,40.4,17.98,43.94-.14.44-.95.9-1.5.75,2.3-3.23-2.19-5.53-2.5-5.99-4.39-6.66-4.68-9.11-7.49-15.98-4.51-11.01-5.29-22.6-23.47-33.46-.3-3.36-13.1-7.64-17.98-10.99,4.6,1.49,7.25,2.85,11.49,4.99Z"></path><path class="cls-5" d="M34.46,60.01c-6.09,3.83-12.87,15.44-15.98,21.97-2.96,6.23-5.41,12.9-7.49,19.47-1.57,4.94-2.38,10.21-4.49,14.98-.38-.37-1.37-.48-1.5-.75-1.11-2.38,4.51-24.1,5.99-27.96,1.3-3.38,7.29-14.11,9.49-16.98,2.32-3.03,8.92-7.7,9.49-10.74.84.87,3.46-1.58,6.49-3.5l-2,3.5Z"></path><path class="cls-13" d="M375.51,105.45c.85.98,1.12,2.03,2.5,2.5,1.15.39,7.04.52,8.49,0,.3.46,4.79,2.76,2.5,5.99-.1.55-2.28,1.91-2.5,2-13.25,3.34-14.9-8.27-16.98-8.99l.5-1.5c3.06,3.42,1.3,6.43,5.49,0Z"></path><path class="cls-15" d="M9.49,116.44c-.51.48-.94.99-1.5,1.5-1.37.22-.61-.64-1.5-1.5,2.12-4.77,2.93-10.04,4.49-14.98,2.7,1.79.61,12.28-1.5,14.98Z"></path><path class="cls-8" d="M118.35,41.53l-.25,3c-19.34,1.04-53.93,3.89-71.41,9.99-2.95,1.03-6.22,3.47-8.99,4.99-.14.08-1.45-.63-3.25.5l2-3.5c1.67-1.06,3.28-2.01,4.99-3,.67-.38,1.36-.66,2-1,8.98-2.58,18.29-6.01,27.71-5.99.4-.06.1-.94.5-1,11.83-1.82,34.07-3.34,46.69-3.99Z"></path><path class="cls-8" d="M318.59,43.03c6.69,1.62,12.16,2.28,18.98,4.49,4.87,3.35,17.68,7.63,17.98,10.99-20.46-12.22-49.45-10.97-72.66-12.98l-.25-3.5c6.84.31,31.54,2.58,33.21,2.5,1.15-.05,1.79-.98,2.75-1.5Z"></path><path class="cls-4" d="M375.51,105.45c-4.2,6.43-2.44,3.42-5.49,0-8.34-9.34-14.38-23.17-28.21-24.47H44.69c-1.97.9-6.76,1.77-7.24,2-3.71,1.72-3.54,4.97-9.99,5.49,10.93-15,15.68-11.61,32.71-17.48h274.64c26.24,5.61,31.16,23.47,40.7,34.46Z"></path><path class="cls-9" d="M379.01,91.97c2.81,6.87,3.1,9.32,7.49,15.98-1.45.52-7.34.39-8.49,0-10.23-16.38-22.59-35.93-43.69-38.45-8.96-1.07-81.24-.07-97.87,0-7.06.03-14.41.98-21.47,1-50.94.12-101.86-.65-152.8-.5-21.02,3.63-33.72,6.84-41.2,28.46-3.89,6.52-7.41,15.54-7.99,16.23-.71.85-3.35,1.61-3.5,1.75,2.1-2.7,4.2-13.19,1.5-14.98,2.08-6.57,4.53-13.25,7.49-19.47,23.13-26.77,105.15-24.84,143.06-25.47,33.58-.56,136.76-.2,164.79,3,18.79,2.14,36.07,7.14,47.19,23.72,3.55,5.3,3.61,10.33,5.49,8.74Z"></path><path class="cls-12" d="M378.01,107.95c-1.38-.47-1.64-1.51-2.5-2.5-9.54-10.98-14.46-28.85-40.7-34.46H60.17c-17.02,5.87-21.77,2.47-32.71,17.48-2.38,3.26-4.43,6.54-6.49,9.99,7.47-21.63,20.18-24.84,41.2-28.46,50.94-.15,101.86.62,152.8.5,7.06-.02,14.41-.97,21.47-1,16.63-.07,88.91-1.07,97.87,0,21.1,2.52,33.46,22.07,43.69,38.45Z"></path><path class="cls-14" d="M282.63,42.03l.25,3.5c23.2,2.01,52.2.76,72.66,12.98,18.18,10.86,18.96,22.45,23.47,33.46-1.88,1.59-1.94-3.44-5.49-8.74-11.12-16.58-28.4-21.58-47.19-23.72-28.02-3.2-131.21-3.55-164.79-3-37.92.63-119.94-1.3-143.06,25.47,3.11-6.53,9.89-18.14,15.98-21.97,1.79-1.13,3.1-.42,3.25-.5,2.77-1.52,6.04-3.96,8.99-4.99,17.48-6.1,52.07-8.94,71.41-9.99l.25-3c47.2-2.43,116.63-1.66,164.29.5Z"></path></g></g><g><path class="cls-6" d="M354.04,4.58c-3.08-3.59-10.31-.17-4.99,3.5-1.27,3.87,1.19,13.06,1,13.73-.17.6-1.04-1.65-1.5,0-.22.79.15,2.56,0,3.75-.35,0-.87-.13-1,.25-.57,1.63.42,19.71,0,24.47-.26.48-6.79-2.49-6.99-3-.8-2.05-.47-41.8,0-43.94.09-.41,1.07-.02,1-.75,4.99-2.98,9.36-4.29,12.48,2Z"></path><g><path class="cls-1" d="M354.04,4.58c3.94,7.93,4.48,42.38,5.49,53.43-.14-.09-.24.22-3-1.5-1.07-9.17-2.31-18.31-3.5-27.46,3.92-1.52-.91-12.24-.5-18.73l-1.5.25c-.02-.11.54-1.77,0-2.25-.62-.54-1.7-.04-2-.25-5.32-3.66,1.91-7.09,4.99-3.5Z"></path><path class="cls-16" d="M351.04,10.57c.38,1.82,1.19,12.21,2,18.48,1.19,9.15,2.43,18.3,3.5,27.46-2.32-1.45-5.04-2.75-7.49-3.99-1.59-6.5-1.39-19.96-.5-26.96.15-1.18-.22-2.95,0-3.75.46-1.65,1.32.6,1.5,0,.2-.67-2.27-9.86-1-13.73.3.21,1.38-.29,2,.25.54.48-.02,2.14,0,2.25Z"></path><path class="cls-1" d="M353.04,29.05c-.81-6.27-1.62-16.65-2-18.48l1.5-.25c-.41,6.49,4.42,17.21.5,18.73Z"></path></g></g><g><g><path class="cls-18" d="M180.76,14.07c1.75,3.77,8.33.86,6.74,7.49.97-.98,1.9-2.25,2.25-1-5,3.77-2.43,6.52-3,13.48-.26,0,1.81.91-4.49,1-6.04-8.94-14.42-27.73-26.96-25.22l2.5,25.22c-15.75.42-31.73.82-47.44,2,.44-3.01,11.48-26.4,8.74-27.46-9.67-1.06-20.11,10.86-27.21,17.98.02-.62-.54-.59-1-.5l-3.5-10.24c24.85-11.38,54-13.69,80.65-7.24,3.91.95,10.33,3.92,12.73,4.49Z"></path><path class="cls-17" d="M110.36,37.04c-9.68.73-19.29,2.22-28.96,3,1.09-.97,4.2-6.13,5.99-7.99,1.42-1.47,3.03-3.03,4.49-4.49,7.1-7.12,17.54-19.04,27.21-17.98,2.74,1.06-8.3,24.46-8.74,27.46Z"></path><path class="cls-17" d="M182.26,35.04c-8.15.11-16.32-.21-24.47,0l-2.5-25.22c12.54-2.52,20.93,16.28,26.96,25.22Z"></path></g><path class="cls-11" d="M200.24,34.04c-4.49.03-9.03-.05-13.48,0,.56-6.96-2-9.72,3-13.48.82-.62,1.58-1.21,2.25-2,9.05.94,8.64,7.57,8.24,15.48Z"></path><g><path class="cls-18" d="M298.11,16.07q-3,5.49-5.99,10.99c-8.59-8.35-16.11-18.72-26.72-18.48-1.31.99,2.86,23.11,3.25,26.47-14.93-.36-30-.43-44.94-.5.14-3.16,2.77-20.66,2.5-21.72-.61-2.4-4.27-4.23-6.49-2.5-.73.57-8.99,13.1-10.49,15.23-6.63,7.59-7.5-4.01-13.48-7.74,2.5-1.83,4.64-2.27.5-3.25,10.16-1.56,19.97-5.94,30.21-7.49,24.08-3.65,49.1-.27,71.66,8.99Z"></path><path class="cls-10" d="M310.6,36.54c-2.99-.08-6,.11-8.99,0-3.12-3.18-6.3-6.39-9.49-9.49q3-5.49,5.99-10.99c9.8,4.03,2.55,2.23,2,10.74-.74,11.35,9.57,7.14,10.49,9.74Z"></path><path class="cls-10" d="M196.24,14.57c4.14.98,2,1.41-.5,3.25,5.98,3.73,6.85,15.33,13.48,7.74-2.13,3.02-4.58,6.04-5.99,9.49-4.34.02-2.81-1-3-1,.4-7.91.81-14.54-8.24-15.48-.67.79-1.43,1.38-2.25,2-.34-1.25-1.27.02-2.25,1,1.59-6.63-4.99-3.73-6.74-7.49,7.79,1.88,7.66,1.7,15.48.5Z"></path><path class="cls-17" d="M292.12,27.05c3.19,3.1,6.37,6.31,9.49,9.49-11-.39-21.93-1.24-32.96-1.5-.39-3.35-4.56-25.47-3.25-26.47,10.61-.24,18.12,10.12,26.72,18.48Z"></path><path class="cls-17" d="M223.71,34.54c-6.84-.03-13.67.47-20.47.5,1.41-3.45,3.87-6.47,5.99-9.49,1.5-2.13,9.76-14.66,10.49-15.23,2.23-1.73,5.88.1,6.49,2.5.27,1.06-2.36,18.56-2.5,21.72Z"></path></g></g></g><g><path class="cls-6" d="M340.56,112.44c.18,4.51,1.99,8.06-3.99,5.99-1.41-1.61-.48-3.48-.5-3.99-.03-.66-.02-1.34,0-2h4.49Z"></path><path class="cls-6" d="M340.56,112.44h-4.49c.05-1.66-.04-3.33,0-4.99.25.01,2.02-1.13,4.99-.25.34.46-.6,2.68-.5,5.24Z"></path></g></g></g></svg>