<svg xmlns="http://www.w3.org/2000/svg" xmlns:xlink="http://www.w3.org/1999/xlink" id="Layer_2" data-name="Layer 2" viewBox="0 0 358.42 389.92"><metadata></metadata><defs><style>      .cls-1 {        fill: #be0f25;      }      .cls-1, .cls-2, .cls-3, .cls-4, .cls-5, .cls-6, .cls-7, .cls-8, .cls-9, .cls-10, .cls-11, .cls-12, .cls-13, .cls-14, .cls-15, .cls-16, .cls-17, .cls-18, .cls-19, .cls-20, .cls-21, .cls-22, .cls-23, .cls-24, .cls-25, .cls-26, .cls-27 {        stroke-width: 0px;      }      .cls-2 {        fill: #f75d62;      }      .cls-3 {        fill: #92b77a;      }      .cls-4 {        fill: #200b06;      }      .cls-5 {        fill: url(#linear-gradient);      }      .cls-6 {        fill: #d71f31;      }      .cls-7 {        fill: #53802f;      }      .cls-8 {        fill: #0a3c0a;      }      .cls-9 {        fill: #120907;      }      .cls-10 {        fill: #2d0806;      }      .cls-11 {        fill: #69060e;      }      .cls-12 {        fill: #b32438;      }      .cls-13 {        fill: #fcf8f3;      }      .cls-14 {        fill: #a10e23;      }      .cls-15 {        fill: #d63b4c;      }      .cls-16 {        fill: url(#linear-gradient-4);      }      .cls-17 {        fill: url(#linear-gradient-2);      }      .cls-18 {        fill: url(#linear-gradient-3);      }      .cls-19 {        fill: url(#linear-gradient-5);      }      .cls-20 {        fill: url(#linear-gradient-6);      }      .cls-21 {        fill: #406e21;      }      .cls-22 {        fill: #f69d98;      }      .cls-23 {        fill: #880516;      }      .cls-24 {        fill: #d01949;      }      .cls-25 {        fill: #900c28;      }      .cls-26 {        fill: #450708;      }      .cls-27 {        fill: #295b0d;      }    </style><linearGradient id="linear-gradient" x1="221.16" y1="99.19" x2="161.26" y2="102.74" gradientTransform="translate(171.93 25.7) scale(.5)" gradientUnits="userSpaceOnUse"><stop offset="0" stop-color="#d91e30"></stop><stop offset="1" stop-color="#96081f"></stop></linearGradient><linearGradient id="linear-gradient-2" x1="-69.68" y1="40.59" x2="-41.09" y2="68.56" gradientTransform="translate(171.93 25.7) scale(.5)" gradientUnits="userSpaceOnUse"><stop offset="0" stop-color="#9e1229"></stop><stop offset="1" stop-color="#d11e30"></stop></linearGradient><linearGradient id="linear-gradient-3" x1="-146.02" y1="15.79" x2="-126.76" y2="54.24" gradientTransform="translate(171.93 25.7) scale(.5)" gradientUnits="userSpaceOnUse"><stop offset="0" stop-color="#d01630"></stop><stop offset="1" stop-color="#8c0715"></stop></linearGradient><linearGradient id="linear-gradient-4" x1="90.12" y1="264.69" x2="204.06" y2="302.33" gradientTransform="translate(171.93 25.7) scale(.5)" gradientUnits="userSpaceOnUse"><stop offset="0" stop-color="#bf273b"></stop><stop offset=".59" stop-color="#891120"></stop><stop offset="1" stop-color="#e5222c"></stop></linearGradient><linearGradient id="linear-gradient-5" x1="-11.19" y1="59.79" x2="-.21" y2="93.02" gradientTransform="translate(171.93 25.7) scale(.5)" gradientUnits="userSpaceOnUse"><stop offset="0" stop-color="#ce1f33"></stop><stop offset="1" stop-color="#aa0f23"></stop></linearGradient><linearGradient id="linear-gradient-6" x1="-76.86" y1="216.95" x2="-175.65" y2="283.29" gradientTransform="translate(171.93 25.7) scale(.5)" gradientUnits="userSpaceOnUse"><stop offset="0" stop-color="#58050b"></stop><stop offset="1" stop-color="#090604"></stop></linearGradient></defs><g id="Layer_1-2" data-name="Layer 1"><g><path class="cls-11" d="M230.42,288.87c-7.29-1.98-4.82-2.72-9.5-5.5-.08-.05-.96-1.85-1.5-1.25-1.39,7.02-5.48,13.05-9.5,18.75-4,2.14-7.45,5.45-11.5,7.5-1.24.63-17.07,7.22-18,7.5-.74.22-1.61.26-2.5.5-1.09.29-2.43.27-3.5.5-.91.2-.93.99-1,1-2.32.42-5.51.3-8,.5-9.77.79-22.27.31-32-1-1.31-.18-2.74-.29-4-.5-.79-.13-.79.04-1,0-.06-.01-.32-.92-.75-1-.97-.19-3.27-.26-6.25-1-12.26-3.05-56.41-19.79-66-28.5,7.56,4.85,9.36,3.84,11.25,4.5,7.64,2.65,17.12,4.69,18,5,10.88,3.86,27.43,12.18,38,15,13.2,3.52,36.29,5.02,50,4.5.39-.01-.12,1.07,1,1,3.88-.24,23.35-8.82,27.75-11.5,1.54-.93,8.35-5.54,9-6.25,1.57-1.73,6.1-10.68,7-13.25.66-1.87,2.11-3.02.75-5-31.67,3.67-57.94,5.78-88-7-9.99-4.25-24.43-13.61-31.5-16.5-4.36-1.78-12.59-3.33-15.5-4.5-19.94-8-25.46-15.23-27-15.5-1.62-.29-4.89,4-15.75-9.25-11.31-13.8-19.29-40.36-16.5-58,.76-4.8,5.72-8.45,8-12.75,1.08.43,2.38.14,3.5,1,2.43,1.86,2.56,12.91,2,15.75-.71,3.63-10.13,10.89-.5,27.25-3.64,1.65,6.65,18.04,10,22.25,12.51,15.73,11.4,6.1,14.25,6.25,1.43.07,15.76,12.95,23,17,8.63,4.83,19.84,8.17,28.5,12.5.93.46,1.87,1.94,2,2,.06.03.44-.66.75-.5,11.21,5.61,17.49,14.38,44.5,18.5,20.2,3.08,27.75,1.02,46.5-2,.41-.07,2.87.52,8.25-.5,4.04-.77,11.91-2.78,15.5-4.5,3.29-1.58,23.48-17.46,24.25-22,10.46-6.35,27.21-24.11,24-37.5,1.97-1.04,4.83-15.63,2.5-16.5,2.9-5.1,5.74-10.89,7.5-16.5,4.02-12.82,6.94-42.37,6-55.75-.02-.34-.63-.27-1-.25.81-2.4,2.59-4.62,3.5-7,2.01-.25.08,3.56,0,4.75-.3,4.4.65,12.05.5,16.5-.3,8.8-1.43,17.7-2,26.5-.03.49.82,2.94.5,7-.01.17-1.45,2.41-1.5,3-.09,1,.92,4.1.5,8-1.56,14.3-6.88,36.26-14.5,48.5-.41.67-5.31,3.26-9,12.5-7.7,7.4-23.87,29.79-28,34-4.6,4.68-13.71,8.59-13,11.75Z"></path><path class="cls-8" d="M331.92,176.37c-.02-.09-1.29.24-1.5-.25-.6-1.37.96-2.2,1-2.75,7.07-2.61,21.96-17,27-8.75-5.08,7.74-18.03,8.99-26.5,11.75Z"></path><path class="cls-27" d="M260.42,288.87c2.28-.69,2.97-1.08,5-2,6.06,5.61,21.03,7.28,17.25,17.5l-22.25-15.5Z"></path><path class="cls-21" d="M133.42,317.37l-1.75,11.5-2.25-12c1.26.21,2.69.32,4,.5Z"></path><g><path class="cls-27" d="M209.92,300.87c-4.51,6.4-11.05,13.68-17.25,18.5-.3.24-2.67-.24-3,0-.69.49-9.06,9.11-9.25,9.75-.64,2.18,4.65,30.06,5.5,35.25.33,1.99.49,1.42.5,1.5.81,4.95,1.83,10.06,2.5,15,.22,1.63.39,3.35.5,5,.18,2.76,2.12,3.62-1.5,4-2.58-19.26-6.5-38.92-9-57.75l-1-15.75c.89-.24,1.76-.28,2.5-.5l.25,9,17.75-16.5c4.05-2.05,7.5-5.36,11.5-7.5Z"></path><path class="cls-27" d="M128.42,316.87c-1.77,2.79-16.95,13.75-17.5,14.75-.1.17.68,1.99,0,4-1.67,4.95-2.97,12.97-8.25,14.75-7.62-13.27,11.87-24.98,18.75-35.5,2.98.74,5.28.81,6.25,1,.43.08.69.99.75,1Z"></path><g><path class="cls-8" d="M173.42,317.87c1.96,22.6,6.65,44.79,11,67,.3,1.52.05,3.51,1,5-9.9-.64-7.57-1.2-9-9-.14-.77.14-1.74,0-2.5-.8-4.33-1.69-8.66-2.5-13-.06-.31-.31-.5-.5-1.5-2.81-15.14-4.93-30.41-8-45.5,2.49-.2,5.68-.08,8-.5Z"></path><path class="cls-7" d="M177.92,316.37l1,15.75c2.5,18.83,6.42,38.49,9,57.75-.76.08-1.73.05-2.5,0-.95-1.49-.7-3.48-1-5,.94-.59,1.07-1.77,1-2.75-.76-10.19-10.49-48.18-11-65.25,1.07-.23,2.41-.21,3.5-.5Z"></path><path class="cls-3" d="M184.42,384.87c-4.35-22.21-9.04-44.4-11-67,.07-.01.09-.8,1-1,.51,17.07,10.24,55.06,11,65.25.07.98-.06,2.16-1,2.75Z"></path></g></g><path class="cls-13" d="M198.42,308.37l-17.75,16.5-.25-9c.93-.28,16.76-6.87,18-7.5Z"></path><g><path class="cls-23" d="M31.92,156.87c-2.28,4.3-7.24,7.95-8,12.75-2.79,17.64,5.19,44.2,16.5,58,10.86,13.25,14.13,8.96,15.75,9.25,1.54.27,7.06,7.5,27,15.5,2.91,1.17,11.14,2.72,15.5,4.5,7.07,2.89,21.51,12.25,31.5,16.5,30.06,12.78,56.33,10.67,88,7,1.36,1.98-.09,3.13-.75,5-10.63.14-22.13,2.42-33.25,2.5-2.21.02-19.48-.39-20.5-.5-.14-.02-.17-1.19-2.5-1.5-5.1-.67-8.49-1.25-13.5-2.5-1.49-.37-1.9.53-2,.5-.4-.11-.78-2.34-7.5-2.5l-38.5-18.5c-16.47-3.06-23.91,6.1-10,18,15.28,13.07,56.63,26.58,76.5,27.5,16.39.76,23.17-3.41,35.25-3.5-4.4,2.68-23.87,11.26-27.75,11.5-1.12.07-.61-1.01-1-1-13.71.52-36.8-.98-50-4.5-10.57-2.82-27.12-11.14-38-15-.88-.31-10.36-2.35-18-5-1.89-.66-3.69.35-11.25-4.5-2.58-1.65-14.12-11.81-14.5-14.25-.31-1.95,6.96-21.24,8.5-25-11.17-4.56-38.71-23.88-44.5-33-8.82-13.89-3.74-12.81-.5-23.5,3.84-12.66,6.62-25.71,10-38.5.92-1.12,14.93,3.73,17.5,4.75Z"></path><path class="cls-1" d="M217.42,285.37c-.9,2.57-5.43,11.52-7,13.25-.65.71-7.46,5.32-9,6.25-12.08.09-18.86,4.26-35.25,3.5-19.87-.92-61.22-14.43-76.5-27.5-13.91-11.9-6.47-21.06,10-18l38.5,18.5c6.72.16,7.1,2.39,7.5,2.5.1.03.51-.87,2-.5,5.01,1.25,8.4,1.83,13.5,2.5,2.33.31,2.36,1.48,2.5,1.5,1.02.11,18.29.52,20.5.5,11.12-.08,22.62-2.36,33.25-2.5Z"></path><path class="cls-26" d="M36.92,200.87c7.29,12.38,17.19,16.35,28.75,23,.45.26,3.55.74,4,1,9.66,5.57,19.08,11.88,28.75,17.5l-2-.25c-1.36,3.47,16.41,15.04,19,18.25-.31-.16-.69.53-.75.5-.13-.06-1.07-1.54-2-2-8.66-4.33-19.87-7.67-28.5-12.5-7.24-4.05-21.57-16.93-23-17-2.85-.15-1.74,9.48-14.25-6.25-3.35-4.21-13.64-20.6-10-22.25Z"></path></g><path class="cls-9" d="M98.42,242.37c3.02,1.76,17.26,10.6,18.25,11,.71.29,1.5-.01,1.25-1,.06.07,1.56.28,1.75.5,14.14,16.26,32.75,19.39,53,23.5-.45,4.08-9,.52-12.75,2.5-27.01-4.12-33.29-12.89-44.5-18.5-2.59-3.21-20.36-14.78-19-18.25l2,.25Z"></path><g><path class="cls-1" d="M331.42,173.37c-.04.55-1.6,1.38-1,2.75.21.49,1.48.16,1.5.25,1.44,5.6,8.63,38.02,8,40.75-.25,1.09-11,8.16-12.75,9.75-12.59,11.41-23.02,29.58-36.5,42-5.58,5.14-18.56,14.97-25.25,18-2.03.92-2.72,1.31-5,2-8.33,2.51-15.88,2.76-24.5,2.5-2.29-.82-7.12-1.53-10-2.5-1.6-1.79-3.76-3.32-5-5.5,4.68,2.78,2.21,3.52,9.5,5.5,15,4.07,32.82.55,45-9.25-20.15-4.44,1.8-23.94,11-40.5,9.7-17.46,14.52-36.84,19.5-56,.23-13.13,2.9-26.68,4-40,.7-8.43.45-35.1,2-39.5,1.65-4.67,9.03-7.07,13.25-10.25,3.71-2.79,6.86-6.34,10.25-9.5.64,0,2.67-.21,3,.25-1.99,29.74-4.97,59.5-7,89.25Z"></path><path class="cls-23" d="M335.42,83.87c-3.39,3.16-6.54,6.71-10.25,9.5-4.22,3.18-11.6,5.58-13.25,10.25-1.55,4.4-1.3,31.07-2,39.5-1.1,13.32-3.77,26.87-4,40-4.98,19.16-9.8,38.54-19.5,56-9.2,16.56-31.15,36.06-11,40.5-12.18,9.8-30,13.32-45,9.25-.71-3.16,8.4-7.07,13-11.75,4.13-4.21,20.3-26.6,28-34,3.69-9.24,8.59-11.83,9-12.5,7.62-12.24,12.94-34.2,14.5-48.5.42-3.9-.59-7-.5-8,.05-.59,1.49-2.83,1.5-3,.32-4.06-.53-6.51-.5-7,.57-8.8,1.7-17.7,2-26.5.15-4.45-.8-12.1-.5-16.5.08-1.19,2.01-5,0-4.75,1.65-4.32,3.12-8.83,4.5-13.25-2,.13-10.09-4.01-10.5-4.75-.2-.36-1.52-7.59-1.5-8,7.77-.54,21.18.29,27-2.75l-5-.75c9.69-.66,22.79-3,24-3Z"></path><path class="cls-1" d="M311.42,86.87l5,.75c-5.82,3.04-19.23,2.21-27,2.75.19-4.65,8.26.1,10-3,4.05-.05,7.96-.23,12-.5Z"></path><path class="cls-26" d="M254.42,249.87c-.77,4.54-20.96,20.42-24.25,22-3.59,1.72-11.46,3.73-15.5,4.5-5.38,1.02-7.84.43-8.25.5,5.19-1.64,9.56-4.27,11.25-5,.21-.09,2.34.03,3.5-.5,6.59-3.03,11.6-6.9,17-11.5.89-.76,3.95-.32,3.75-4,1.95-.79,11.13-5.17,12.5-6Z"></path><path class="cls-26" d="M278.42,212.37c-.08-.35-3.1-5.48-4-6,.17-.22-.18-1.51,0-1.75,1.93-2.63,4.91-5.95,6.5-8.75,2.33.87-.53,15.46-2.5,16.5Z"></path></g><g><path class="cls-6" d="M257.42,52.87c-1.88,0-12.53-.48-13,.75,3.75,8.72,10.03,29.52,10.5,38.25.17,3.23-.87,12.4-1.5,16-3.43,2.46-1.15-10.52-2-18.25-.87-7.91-3.97-15.84-6-23.5-.18-.67.68-.83.5-1.5-.12-.45-3.47-3.69-2.5-8.5-3.4-5.94-4.69-15.11-9.5-20.25-1.31-7.03-2.78-4.21-5.25-5.5-.13-.07-1.18-1.7-2-2-5.27-1.91-15.75-2.23-21.5-1.5-3-1.48,1.86-.93,2.75-1,3.73-.29,9.05-.36,9-1.25-5.43-2.11-6.75-6.69-8.5-8.5-.47-.49-2.58.38-9.5-9.5-1.08-1.55,1.35-1.74-2.5-4.25-2.41-1.57.29-1.99-5,1.5,5.72-7.22,3.87-3.23,11.75,3,18.63,14.73,37.81,28.74,54.25,46Z"></path><path class="cls-14" d="M196.42,2.37c-1.46,9.54-19.7,21.45-28.25,26-5.69,3.03-11.98,3.74-12.25,6.5-.2-.06-.64-.94-3.25-1.5-1.5-.32-3.04,1.07-5.75-1,8.9-7.21,19.64-11.49,29.25-17.5,5.3-3.31,10.03-7.56,15.25-11,5.29-3.49,2.59-3.07,5-1.5Z"></path><path class="cls-1" d="M207.92,25.87c-1.76-4.81-11.53-4.79-16.25-3-1.89.72-8.69,7.47-14.5,11-2.41,1.46-8.29,3.01-8.75,5.5-3.34-2.15-8.72-3.43-12.5-4.5.27-2.76,6.56-3.47,12.25-6.5,8.55-4.55,26.79-16.46,28.25-26,3.85,2.51,1.42,2.7,2.5,4.25,6.92,9.88,9.03,9.01,9.5,9.5,1.75,1.81,3.07,6.39,8.5,8.5.05.89-5.27.96-9,1.25Z"></path></g><g><path class="cls-27" d="M235.92,291.37c13.24,4.75,10.81,12.85,3.25,24.5-.78-16.95-2.89-15.41-13.25-27,2.88.97,7.71,1.68,10,2.5Z"></path><path class="cls-21" d="M241.17,294.87l2.75,1.75c-.89,16.65-2.73,22.35-3,2,0-.37-2.32-1.94.25-3.75Z"></path></g><g><path class="cls-5" d="M257.42,52.87c3.5,0,28.54.64,29.75,1.5,1.34.95.38,25.69,2.25,32.75,1.05,1.54,5.72.3,10,.25-1.74,3.1-9.81-1.65-10,3-.02.41,1.3,7.64,1.5,8-.65.14-.84.81-1.5,1-4.89-1.75-9.91-2.99-15-4-.14-.03,1.35-.48-2-.5-2.67-2.11-12.14-2.29-17.5-3-.47-8.73-6.75-29.53-10.5-38.25.47-1.23,11.12-.75,13-.75Z"></path><path class="cls-2" d="M274.42,95.37c5.09,1.01,10.11,2.25,15,4-2.81.81-13.67-2.9-17-4h2Z"></path><g><path class="cls-1" d="M288.42,179.37l-1.5.75c-7.6,20.65,2.1-12.77-3-15.25,3.97-13.67,4.91-27.93,9.5-41.5.37-.02.98-.09,1,.25.94,13.38-1.98,42.93-6,55.75Z"></path><path class="cls-23" d="M288.42,179.37c-1.76,5.61-4.6,11.4-7.5,16.5-1.59,2.8-4.57,6.12-6.5,8.75-.18.24.17,1.53,0,1.75-1.3,1.71-3.1,2.96-4.5,4.5-.8-6.6,5.64-15.31,2-16,.59-.92.97-2.03,1.5-3,2.17-3.95,9.02-21.89,10.5-27,5.1,2.48-4.6,35.9,3,15.25l1.5-.75Z"></path><path class="cls-11" d="M269.92,210.87c-3.98,4.36-6.26,6.53-11.5,9.5.21-3.7,3.25-11.49,3-14.5,1.53-.09,8.29-8.71,9.5-10.5.03-.05.97-.45,1-.5,3.64.69-2.8,9.4-2,16Z"></path></g><path class="cls-26" d="M270.92,195.37c-1.21,1.79-7.97,10.41-9.5,10.5-.16-1.86.58-2.2-2-2,5.95-8.73,11.8-17.93,11.5-8.5Z"></path></g><g><path class="cls-23" d="M35.42,137.37c-.38,1.28,12.75,10.82,13.5,8,.26.85-.66,1.77,1.5,1.5-3.48,8.83-.58,6.02,1.5,13.75.78,2.89,3.29,15.81,4.75,17.25.53.52,3.47-.25,4.75,1.25,1.2,1.41,3.23,13.44,18,28.75,7.84,8.13,16.72,14.79,27,19.5,5.75,2.64,9.56,4.31,16,5l-3.5,1c-7.28-1.58-8.94-1.49-16-5-13.09-6.52-28.13-20.14-36-32.5-5.08-7.98-8.14-18.08-9-14.25-.25,4.06,3.79,9.35,4.5,11.5.27.81.54,5.33,1.5,7.75,5.6,14.19,13.83,20.91,27,28,1.78.96,4.04,3.24,6.25,4,1.12.38,9.7,1.81,11.75,2-.65,3.34,1.33,3.7,1.5,4,1.71,3.06,6.45,12.21,7.5,13.5.25.99-.54,1.29-1.25,1-.99-.4-15.23-9.24-18.25-11-9.67-5.62-19.09-11.93-28.75-17.5-.45-.26-3.55-.74-4-1-11.56-6.65-21.46-10.62-28.75-23-9.63-16.36-.21-23.62.5-27.25.56-2.84.43-13.89-2-15.75,2.87-4.41-6.96-18.83,0-20.5Z"></path><path class="cls-17" d="M146.92,32.37c2.71,2.07,4.25.68,5.75,1,2.61.56,3.05,1.44,3.25,1.5,3.78,1.07,9.16,2.35,12.5,4.5.31.2,4.97,4.43,5.5,5,.38.41.55,1.85,2.5,3-15.83,7.42-25.56,15.66-34.5,31-2.08-.18-7.42,1.17-10.5-.25.35-3.1,1.08-6.17,1.5-9.25.76-5.6,1.44-11.47,2.5-17,.54-2.83,4.36-14.49,4-15.25-.27-.58-9.9-1.72-4-2.75,3.41-.59,8.01.06,7.5-1.5,1.76.45,1.17,1.59,4,0Z"></path><g><path class="cls-18" d="M142.92,32.37c.51,1.56-4.09.91-7.5,1.5.08-2.23-5.54-.69-6,.5.28-2.03-6.47-1.92-6.5-1.25,5.41,6.36,3.26,14.07,6.5,11.25-.11,2.42-.25,4.67-1,7-12.63-.16-25.68,4.41-38.25,8.5-.95.75-.84,2.28-1.75,3.5-1.66-2.01-7.07.71-8.5,2.5-2,.03-4-.04-6,0-4.94-.13-5.69-1.07-.25-6,.59-.54.92,1.07,1,1,5.75-5.16,28.71-30.11,31.75-35.75,1.64-3.03,1.6-3.91-1.5-5.25,10.85,2.26,31.89,10.92,38,12.5Z"></path><path class="cls-23" d="M104.92,19.87c3.1,1.34,3.14,2.22,1.5,5.25-3.04,5.64-26,30.59-31.75,35.75-.08.07-.41-1.54-1-1-5.44,4.93-4.69,5.87.25,6-3.86.07-7.64.65-11.5.5-.79-4.27,36.16-40.94,40.25-47.5,1.41-.19,2.14.95,2.25,1Z"></path></g><path class="cls-23" d="M48.92,77.37c6.05,13.92,5.89,24.79,5.5,39.75-.2,7.54-3.16,15.8-1,23.25-.81,1.46-2.37,4.9-3,6.5-2.16.27-1.24-.65-1.5-1.5-.12-.41.13-1.1,0-1.5l1.5-.75c-.39-2-1.75-1.09-1.5.75-1.54-4.9-10.01-8.1-13.5-6.5,1.51-5.1,10.2,3.13,13.5,2.25-.62-14.03,1.62-43.35-2.5-55-3.24-9.16-11.18-10.95-2-13.75-3.68,2.34,1.89,4.44,4.5,6.5Z"></path><path class="cls-1" d="M79.92,66.87c-3.12,4.31-4.72,8.82-5.5,14-.38.07-.66.33-1,.5l.5-2.75c-.52-.96-15.89-1.37-18.25-1.75-5.44-.87-8.71-5.59-3.75,2.5-.14-.12-.49-.02-3-2-2.61-2.06-8.18-4.16-4.5-6.5,3.36-1.03,14.34-3.11,18-3.5,5.72-.61,11.75-.4,17.5-.5Z"></path><path class="cls-2" d="M73.92,65.87c2-.04,4,.03,6,0-.1.12.1.86,0,1-5.75.1-11.78-.11-17.5.5-.03-.33.06-.69,0-1,3.86.15,7.64-.43,11.5-.5Z"></path><path class="cls-4" d="M115.42,243.37c4.59,10.55,7.59,10.86,15.25,16,1.09.73.42,1.82,1.5,2.5,8.51,5.37,15.93,3.01,17,7,12.93,3.87,26.59,3.66,40,4.5,8.68-1.24,17.91-1.27,26.5-4.5.8-.3,16.29-8.23,12.75-8.5,4.41-1.15,9.28-2.79,13.5-4.5.2,3.68-2.86,3.24-3.75,4-5.4,4.6-10.41,8.47-17,11.5-1.16.53-3.29.41-3.5.5-1.69.73-6.06,3.36-11.25,5-18.75,3.02-26.3,5.08-46.5,2,3.75-1.98,12.3,1.58,12.75-2.5-20.25-4.11-38.86-7.24-53-23.5-.19-.22-1.69-.43-1.75-.5-1.05-1.29-5.79-10.44-7.5-13.5.73-1.21,3.02,3.09,5,4.5Z"></path><path class="cls-15" d="M74.92,129.37c-.98,8.3-17.85,17.85-9,29.25,6.29,8.09,10.4,2.29,13-4.75.66,4.24,1.21,8.84,2,13,.44,2.33.54,4.7,1,7,4.16,21.04,8.21,30.46,27,41.5,3.35,1.97,4.74,2.89,8.5,4.5,2.35,1,4.5,2.29,7,3,6.51,1.86,11.66,1.81,17.75,3,1.92.38,8.65,2.74,10.5,3,2.6.37,10.59,1.13,12.75,1,.85-.05,1.12-.41,2-.5-.99,1.23.34,1.26.5,1.5.66,1.01,3.89,5.34,4.5,6-4.64-.59-10.21-2.45-14-2.25,7.17,8.54,18.92,13.8,30,12.25.74,1.33-6.54,1.29-9.75,1-13.32-1.22-29.65-15.93-43-19,.17-2.75-10.49-2.11-14-2-2.23,6.96-16.62-5.1-15.25.5-10.28-4.71-19.16-11.37-27-19.5,7.3,3.1-3.3-13.32-5-17.25-2.03-4.71-3.04-10.75-5.5-15.5-.45-.86-2.34-1.15-2.5-1.5-.61-1.32.55-2.86.5-3-.36-1.08-15.17-7.97-12-17.5,4.31,1.41,1.38-.65,3.5-5.5,2.98-6.82,11.26-12.59,16.5-18.25Z"></path><path class="cls-6" d="M73.42,81.37c-1.31.66-8.79,3.6-9,4.25-.33,1.01,6.02,16.14,7,20,.46,1.82-.13,4.44,0,5,.45,1.97,1.7,3.66,2,5.25.25,1.33.77,2.6,1,4,.31,1.89.7,7.77.5,9.5-5.24,5.66-13.52,11.43-16.5,18.25-2.12,4.85.81,6.91-3.5,5.5-3.17,9.53,11.64,16.42,12,17.5.05.14-1.11,1.68-.5,3,.16.35,2.05.64,2.5,1.5,2.46,4.75,3.47,10.79,5.5,15.5,1.7,3.93,12.3,20.35,5,17.25-14.77-15.31-16.8-27.34-18-28.75-1.28-1.5-4.22-.73-4.75-1.25-1.46-1.44-3.97-14.36-4.75-17.25-2.08-7.73-4.98-4.92-1.5-13.75.63-1.6,2.19-5.04,3-6.5.92-1.67,3.44-4.37,4-6.5,2.39-.33,4.11-9.15,4.5-11.75,1.39-9.29,2.72-36.81-7.5-40.25-.76-.95-1.58-1.69-2.5-2.5-4.96-8.09-1.69-3.37,3.75-2.5,2.36.38,17.73.79,18.25,1.75l-.5,2.75Z"></path><path class="cls-6" d="M102.92,228.37c-2,3.31-7.77-2.1-12,.5-13.17-7.09-21.4-13.81-27-28,4.55-2.23-.43-1.75,3-5,7.87,12.36,22.91,25.98,36,32.5Z"></path><path class="cls-1" d="M102.92,228.37c7.06,3.51,8.72,3.42,16,5,6.1,1.32,5.17,1.68-2.5,2-2.51.1-5.01-.27-7.5-.5-2.05-.19-10.63-1.62-11.75-2-2.21-.76-4.47-3.04-6.25-4,4.23-2.6,10,2.81,12-.5Z"></path><path class="cls-1" d="M48.92,143.87c.13.4-.12,1.09,0,1.5-.75,2.82-13.88-6.72-13.5-8,3.49-1.6,11.96,1.6,13.5,6.5Z"></path><path class="cls-6" d="M66.92,195.87c-3.43,3.25,1.55,2.77-3,5-.96-2.42-1.23-6.94-1.5-7.75-.71-2.15-4.75-7.44-4.5-11.5.86-3.83,3.92,6.27,9,14.25Z"></path><g><path class="cls-16" d="M272.42,94.87c-4.29-.02-1.9-.13,0,.5,3.33,1.1,14.19,4.81,17,4,.66-.19.85-.86,1.5-1,.41.74,8.5,4.88,10.5,4.75-1.38,4.42-2.85,8.93-4.5,13.25-.91,2.38-2.69,4.6-3.5,7-4.59,13.57-5.53,27.83-9.5,41.5-1.48,5.11-8.33,23.05-10.5,27-2.38,1.88-2.23-1.15-4.75-2-4.99,8.59-11.35,8.57-12,9-3.19,2.11-5.97,4.95-9.25,7-5.62,3.52-21.26,12.93-26.25,15-8.91,3.7-19.88,6.21-29.5,5.5-4.78-.35-9.47-2.95-10-3-1.16-.12-2.71.94-3.25,1l2-1.75c-.29-2.58-36.53.18-38-6.75,7.05,1.12,14.02,3.59,21.25,4,19.3,1.11,35.98-5.12,52.25-15,6.72-4.08,12.1-8.24,17.5-14,1.52-1.62,2.02-2.02,3.5-4,.87-1.16,2.87-2.62,3.5-3.75,6.52-11.58,7.34-32.86,7-46l-1.5.25c1.03-4.87,2.45-9.65,3.5-14.5,1.08-5.01,3.12-9.95,4-15,.63-3.6,1.67-12.77,1.5-16,5.36.71,14.83.89,17.5,3Z"></path><path class="cls-15" d="M272.42,94.87c3.35.02,1.86.47,2,.5h-2c-1.9-.63-4.29-.52,0-.5Z"></path></g><path class="cls-6" d="M128.42,51.37c2.38.03,4.64.22,7,.5-1.06,5.53-1.74,11.4-2.5,17-5.26.87-8.75,3.43-9.25,3.5-1.71.23-1.15-1.01-1.5-1-6.97.15-11.55-1.61-18.75,2.5-6.55,3.74-10.46,8.5-14,15-7.51,13.8-5.62,21.37-8,36-.64,8.06,2.52,17.28,4,25.5-1.89-1.57-2.39.76-3-.75-1.22-3.04-3.9-18-5-22.5-.11-.43-.99-.2-1-.25-.63-2.48-.31-7.2-2-7-.23-1.4-.75-2.67-1-4,.47-6.6.84-12.96,2-19.5,1.79-10.14,6.84-24.73,13-33,.91-1.22.8-2.75,1.75-3.5,12.57-4.09,25.62-8.66,38.25-8.5Z"></path><path class="cls-23" d="M88.42,63.37c-6.16,8.27-11.21,22.86-13,33-2.79,2.15-1.35-13.19-1-15.5.78-5.18,2.38-9.69,5.5-14,.1-.14-.1-.88,0-1,1.43-1.79,6.84-4.51,8.5-2.5Z"></path><g><path class="cls-1" d="M135.42,33.87c-5.9,1.03,3.73,2.17,4,2.75.36.76-3.46,12.42-4,15.25-2.36-.28-4.62-.47-7-.5.75-2.33.89-4.58,1-7,.1-2.29-.28-9.28,0-10,.46-1.19,6.08-2.73,6-.5Z"></path><path class="cls-11" d="M129.42,34.37c-.28.72.1,7.71,0,10-3.24,2.82-1.09-4.89-6.5-11.25.03-.67,6.78-.78,6.5,1.25Z"></path></g><path class="cls-19" d="M182.92,44.37c9.16,5.17,10.7,6.58,16.5,15,.55.8,1,3.81,1.5,4.5-.48-.06-1.04.1-1.5,0-.71-.15-5.85-2.97-12.75-2-8.2,1.16-20.52,14.46-23.25,22.5-8.32-3.17-12.11-5.19-21.5-6,8.94-15.34,18.67-23.58,34.5-31,2.71-1.27,4-2.18,6.5-3Z"></path><path class="cls-14" d="M51.92,79.37c.92.81,1.74,1.55,2.5,2.5,9.09,11.33,7.54,39.41,1.5,52.25l1.5-.25c-.56,2.13-3.08,4.83-4,6.5-2.16-7.45.8-15.71,1-23.25.39-14.96.55-25.83-5.5-39.75,2.51,1.98,2.86,1.88,3,2Z"></path><path class="cls-23" d="M48.92,143.87c-.25-1.84,1.11-2.75,1.5-.75l-1.5.75Z"></path><path class="cls-14" d="M75.42,96.37c-1.16,6.54-1.53,12.9-2,19.5-.3-1.59-1.55-3.28-2-5.25-.13-.56.46-3.18,0-5-.98-3.86-7.33-18.99-7-20,.21-.65,7.69-3.59,9-4.25.34-.17.62-.43,1-.5-.35,2.31-1.79,17.65,1,15.5Z"></path><path class="cls-1" d="M273.42,191.87c-.53.97-.91,2.08-1.5,3-.03.05-.97.45-1,.5.3-9.43-5.55-.23-11.5,8.5-1.14,1.67-2.34,3.32-3.5,5-.52-2.38-6.53,4.7-10,7.5-4.6,3.72-16.12,11.5-19.25,14.5-1.5,1.44-.01,1.7-.25,2-1.16,1.5-10.07,6.37-12.5,7.5l.25-2c-19.32,6.46-28.3,13.24-41.75-1.5-.61-.66-3.84-4.99-4.5-6,4.94,1.46,10.25-.47,13.75-.5,2.3-.02,13.49,2.81,17.75-1.5.67-.05,1.74.83,3.75.5.12-.02,1.34-1.36,2-1.5,11.29-2.38,18.6-6.43,28.5-12,.77-.43,1.43.54,1.5.5.52-.3-.02-1.19.5-1.5,4.92-2.9,13.79-7.4,11.75-9,3.28-2.05,6.06-4.89,9.25-7,.65-.43,7.01-.41,12-9,2.52.85,2.37,3.88,4.75,2Z"></path><g><path class="cls-14" d="M207.92,25.87c-.89.07-5.75-.48-2.75,1,5.75-.73,16.23-.41,21.5,1.5.82.3,1.87,1.93,2,2,2.47,1.29,3.94-1.53,5.25,5.5.77,4.1-.63,3.76-.5,4.25.47,1.81,6.59,13.24,3.25,9.75-2.17.88,10.24,19.52,12.25,44.75.62,7.8-1.63,14.99,1,14.5-3.52,7.13-.51,6.57-.5,7.5,0,.5-2.14,4.94-2,7.5l2-1.25c-1.05,4.85-2.47,9.63-3.5,14.5-1.47,7-3.08,14-4.5,21-.11-8.59.44-17.17.5-25.75,0-.18,1-3.32,1-3.5-.01-6.65-1.99-11.86-2-12.5-.17-13,4.2-31.36-6.5-49-3.59-5.93-25.12-27.14-31.25-29.25-.46-.16-7.12-1.49-7.5-1.5-7.43-.19-15.39,5.4-17,6-2.57.96-5.15-.2-4.75,1.5-.53-.57-5.19-4.8-5.5-5,.46-2.49,6.34-4.04,8.75-5.5,5.81-3.53,12.61-10.28,14.5-11,4.72-1.79,14.49-1.81,16.25,3Z"></path><path class="cls-23" d="M241.42,158.37c-.03.16.03.34,0,.5-2.52.34-.62,6.58-3,7.25.24-9.13-.81-18.38-.5-27.5.07-2.08,1.76-8.88,1.5-10.5-.22-1.36-1.95.69-3.75-.25-4.84-2.54-.2-15.18-1.25-22.25-.58-3.9-2.44-5.19-2.5-5.5-.3-1.49,1.13-3.5,1-4-.88-3.25-7.59-16.88-11.5-11.75-8.39-12.42-19.65-19.32-20.5-20.5-.5-.69-.95-3.7-1.5-4.5,3.32-1.84,6.62,2.98,10,.25-.82-18.53-10.92-20.35-26.5-15.25-2.5.82-3.79,1.73-6.5,3-1.95-1.15-2.12-2.59-2.5-3-.4-1.7,2.18-.54,4.75-1.5,1.61-.6,9.57-6.19,17-6,.38,0,7.04,1.34,7.5,1.5,6.13,2.11,27.66,23.32,31.25,29.25,10.7,17.64,6.33,36,6.5,49,0,.64,1.99,5.85,2,12.5,0,.18-1,3.32-1,3.5-.06,8.58-.61,17.16-.5,25.75Z"></path><path class="cls-1" d="M253.42,107.87c-.88,5.05-2.92,9.99-4,15l-2,1.25c-.14-2.56,2-7,2-7.5,0-.93-3.02-.37.5-7.5-2.63.49-.38-6.7-1-14.5-2.01-25.23-14.42-43.87-12.25-44.75,3.34,3.49-2.78-7.94-3.25-9.75-.13-.49,1.27-.15.5-4.25,4.81,5.14,6.1,14.31,9.5,20.25-.97,4.81,2.38,8.05,2.5,8.5.18.67-.68.83-.5,1.5,2.03,7.66,5.13,15.59,6,23.5.85,7.73-1.43,20.71,2,18.25Z"></path><path class="cls-11" d="M241.42,158.87c-1.76,8.68-4.54,19.7-4.5,28-1.48,1.98-1.98,2.38-3.5,4,.07-.65-.11-1.37,0-2,1.42-8.26-.57-21.68-2-30.5-.91-5.61-2.28-11.12-3-16.75-.57-.8-2.78,1.87-5,3.25-.83-3.14-2.52-5.43-2.5-5.75.02-.36,2.22-2.76,3.5-6.25,6.98-19,8.73-31.15-3-48.5,3.91-5.13,10.62,8.5,11.5,11.75.13.5-1.3,2.51-1,4,.06.31,1.92,1.6,2.5,5.5,1.05,7.07-3.59,19.71,1.25,22.25,1.8.94,3.53-1.11,3.75.25.26,1.62-1.43,8.42-1.5,10.5-.31,9.12.74,18.37.5,27.5,2.38-.67.48-6.91,3-7.25Z"></path></g><path class="cls-11" d="M199.42,228.87c-13.57,1-22.81-1.62-24.75-1.5-.46.03-4.41,1.72-7.25,2-.88.09-1.15.45-2,.5.98-2.04,2.76-.73,3-4,3.46.16,6.65-1.1,10-1.5.54-.06,2.09-1.12,3.25-1,.53.05,5.22,2.65,10,3,9.62.71,20.59-1.8,29.5-5.5,4.99-2.07,20.63-11.48,26.25-15,2.04,1.6-6.83,6.1-11.75,9-.52.31.02,1.2-.5,1.5-.07.04-.73-.93-1.5-.5-9.9,5.57-17.21,9.62-28.5,12-.66.14-1.88,1.48-2,1.5-2.01.33-3.08-.55-3.75-.5Z"></path><path class="cls-4" d="M236.92,186.87c-.04-8.3,2.74-19.32,4.5-28,.03-.16-.03-.34,0-.5,1.42-7,3.03-14,4.5-21l1.5-.25c.34,13.14-.48,34.42-7,46-.63,1.13-2.63,2.59-3.5,3.75Z"></path><path class="cls-6" d="M138.42,214.87c.21,0,1.76.65,4,1,1.47,6.93,37.71,4.17,38,6.75l-2,1.75c-3.35.4-6.54,1.66-10,1.5-4.93-.23-27.73-6.65-34.5-9,.23-.08,1.03-2.01,4.5-2Z"></path><g><path class="cls-11" d="M116.42,235.37c-1.3,3.04,16.08,8.73,20.25,10,4.01,1.22,17.37,5.36,18.75,3,6.16,4.53,10.39,7.61,16,13,.08.08-.08.42,0,.5-12.73-.82-27.04-3.83-38.75-9-2.11-.93-15.96-8.58-17.25-9.5-1.98-1.41-4.27-5.71-5-4.5-.17-.3-2.15-.66-1.5-4,2.49.23,4.99.6,7.5.5Z"></path><path class="cls-23" d="M155.42,248.37c-1.38,2.36-14.74-1.78-18.75-3-4.17-1.27-21.55-6.96-20.25-10,7.67-.32,8.6-.68,2.5-2l3.5-1c3.15.34,4.31-1.28,5.25-1,.5.15,0,1.33.5,1.5,1.43.48,3.31-1.12,3.5,1.5,8.82,2.37,16.48,8.65,23.75,14Z"></path><path class="cls-26" d="M171.42,261.87c.45.45.51,1.66,1.25,2,2.59,1.19,21.01,1.18,25.25,1,9.41-.39,21.36-2.11,30.5-4.5,3.54.27-11.95,8.2-12.75,8.5-8.59,3.23-17.82,3.26-26.5,4.5-13.41-.84-27.07-.63-40-4.5-1.07-3.99-8.49-1.63-17-7-1.08-.68-.41-1.77-1.5-2.5-7.66-5.14-10.66-5.45-15.25-16,1.29.92,15.14,8.57,17.25,9.5,11.71,5.17,26.02,8.18,38.75,9Z"></path></g><path class="cls-26" d="M172.42,236.87c13.45,14.74,22.43,7.96,41.75,1.5l-.25,2c-8.26,3.85-7.83,2.35-8.25,2.5-1.74.61-9.35,5.46-17.25,4-11.08,1.55-22.83-3.71-30-12.25,3.79-.2,9.36,1.66,14,2.25Z"></path><path class="cls-4" d="M261.42,205.87c.25,3.01-2.79,10.8-3,14.5-4.62,2.62-9.63,4.02-14.5,6-3.06-.42,1.66-1.6,5.5-6.25,3.2-3.88,5.67-10.05,6.5-11.25,1.16-1.68,2.36-3.33,3.5-5,2.58-.2,1.84.14,2,2Z"></path><path class="cls-11" d="M245.92,216.37c1.1,1.4-1.89,3.1-2.5,4.25-.46.86.62,2.1.5,2.5-.09.31-5.41,1.47-2,3.5l-3.5,2.25c-3.9,1.5-7.86,3.25-12,4,.24-.3-1.25-.56.25-2,3.13-3,14.65-10.78,19.25-14.5Z"></path><path class="cls-23" d="M255.92,208.87c-.83,1.2-3.3,7.37-6.5,11.25-3.84,4.65-8.56,5.83-5.5,6.25-.06.03.2.82-.25,1-.65.26-2.53.45-5.25,1.5l3.5-2.25c-3.41-2.03,1.91-3.19,2-3.5.12-.4-.96-1.64-.5-2.5.61-1.15,3.6-2.85,2.5-4.25,3.47-2.8,9.48-9.88,10-7.5Z"></path><g><path class="cls-1" d="M278.42,212.37c3.21,13.39-13.54,31.15-24,37.5-1.37.83-10.55,5.21-12.5,6-4.22,1.71-9.09,3.35-13.5,4.5-9.14,2.39-21.09,4.11-30.5,4.5.31-2.42,6.67.52,3.25-2.5-9.94,1.36-19.81-1.01-29.75-1-5.61-5.39-9.84-8.47-16-13-7.27-5.35-14.93-11.63-23.75-14-.19-2.62-2.07-1.02-3.5-1.5-.5-.17,0-1.35-.5-1.5-.94-.28-2.1,1.34-5.25,1-6.44-.69-10.25-2.36-16-5-1.37-5.6,13.02,6.46,15.25-.5,3.51-.11,14.17-.75,14,2,13.35,3.07,29.68,17.78,43,19,3.21.29,10.49.33,9.75-1,7.9,1.46,15.51-3.39,17.25-4,.42-.15,0,1.35,8.25-2.5,2.43-1.13,11.34-6,12.5-7.5,4.14-.75,8.1-2.5,12-4,2.72-1.05,4.6-1.24,5.25-1.5.45-.18.19-.97.25-1,4.87-1.98,9.88-3.38,14.5-6,5.24-2.97,7.52-5.14,11.5-9.5,1.4-1.54,3.2-2.79,4.5-4.5.9.52,3.92,5.65,4,6Z"></path><path class="cls-12" d="M197.92,264.87c-4.24.18-22.66.19-25.25-1-.74-.34-.8-1.55-1.25-2-.08-.08.08-.42,0-.5,9.94,0,19.81,2.36,29.75,1,3.42,3.02-2.94.08-3.25,2.5Z"></path></g><path class="cls-20" d="M90.42,93.37c-3.45,8.5-4.88,17.35-4.5,26.5.4,9.52,6.7,35.63,11.5,43.5.14.23-.84,1.9,3.5,3.5l-1,1c-1.66.56,5.08,5.28,6.75,6,7.59,3.3,23.32,3.7,31.5,2.5,5.69-.84,11.14-3.87,11.75-4,5.84-1.27,17.53,2.41,28-1,.68.54.55.67.5,1.5-20.14,15.88-42.25,29.36-61,47-3.76-1.61-5.15-2.53-8.5-4.5.28-2.31-1.46-3.77-2.5-5.5-9.92-16.59-15.52-35.11-19.5-54-2.14-10.18-2.36-20.91-5.5-31,2.38-14.63.49-22.2,8-36,3.33,1.63-.84,2.68,1,4.5Z"></path><path class="cls-23" d="M204.92,153.37c-5.91,6.72-12.84,12.56-19.5,18.5-9.65,8.62-28.28,21.79-35,31.25-.23.33.61,1.19-4.5,6.25-3.07,2.17-7.05,3.99-7.5,5.5-3.47-.01-4.27,1.92-4.5,2-2.47.89-12.23,3.81-9.5,6-2.5-.71-4.65-2-7-3,18.75-17.64,40.86-31.12,61-47,5.61-4.43,11.64-8.72,16.5-14,1.3-1.41.94-1.43,1-1.5.04-.05.96-.46,1-.5.1,2.6,4.89-2.19,7-4.5l1,1Z"></path><path class="cls-12" d="M76.42,126.87c-.34,0-.91-.12-1,.25-.95,3.98,2.64,21.21,3.5,26.75-2.6,7.04-6.71,12.84-13,4.75-8.85-11.4,8.02-20.95,9-29.25.2-1.73-.19-7.61-.5-9.5,1.69-.2,1.37,4.52,2,7Z"></path><path class="cls-23" d="M106.42,209.87l-1.25,1c-10.86-10.14-17.03-23.94-21.75-37.75l-1.5.75c-.46-2.3-.56-4.67-1-7,1.76-.17,7.97,6.89,9,5.25-2.31-5.09-2.55-10.99-3.5-16.25h.5c3.98,18.89,9.58,37.41,19.5,54Z"></path><path class="cls-26" d="M133.92,216.87c6.77,2.35,29.57,8.77,34.5,9-.24,3.27-2.02,1.96-3,4-2.16.13-10.15-.63-12.75-1-1.85-.26-8.58-2.62-10.5-3-6.09-1.19-11.24-1.14-17.75-3-2.73-2.19,7.03-5.11,9.5-6Z"></path><path class="cls-1" d="M76.42,126.87s.89-.18,1,.25c1.1,4.5,3.78,19.46,5,22.5.61,1.51,1.11-.82,3,.75.33,1.83.67,3.67,1,5.5.95,5.26,1.19,11.16,3.5,16.25-1.03,1.64-7.24-5.42-9-5.25-.79-4.16-1.34-8.76-2-13-.86-5.54-4.45-22.77-3.5-26.75.09-.37.66-.25,1-.25Z"></path><path class="cls-26" d="M106.42,209.87c1.04,1.73,2.78,3.19,2.5,5.5-18.79-11.04-22.84-20.46-27-41.5l1.5-.75c4.72,13.81,10.89,27.61,21.75,37.75l1.25-1Z"></path><path class="cls-6" d="M199.42,228.87c-4.26,4.31-15.45,1.48-17.75,1.5-3.5.03-8.81,1.96-13.75.5-.16-.24-1.49-.27-.5-1.5,2.84-.28,6.79-1.97,7.25-2,1.94-.12,11.18,2.5,24.75,1.5Z"></path><path class="cls-1" d="M57.42,133.87l-1.5.25c6.04-12.84,7.59-40.92-1.5-52.25,10.22,3.44,8.89,30.96,7.5,40.25-.39,2.6-2.11,11.42-4.5,11.75Z"></path><path class="cls-25" d="M103.92,75.37c-6.13,3.45-10.92,11.65-13.5,18-1.84-1.82,2.33-2.87-1-4.5,3.54-6.5,7.45-11.26,14-15l.5,1.5Z"></path><path class="cls-22" d="M86.92,155.87h-.5c-.33-1.83-.67-3.67-1-5.5-1.48-8.22-4.64-17.44-4-25.5,3.14,10.09,3.36,20.82,5.5,31Z"></path><path class="cls-1" d="M200.92,63.87c.85,1.18,12.11,8.08,20.5,20.5,11.73,17.35,9.98,29.5,3,48.5-3.88,3.58-4.52,10.66-10.5,10.75-.5-1.04,5.27-6.65,2-7.25.87-2.09,1.23-7.15,4.5-12.25l-3,.25c1.71-5.99,2.81-9.59,3-16,4.91,2.32,1.56-7.2,1.5-7.75-.61-5.37,1.14-1.47-2-8.75-2.4-5.55-4.47-7.3-4.5-7.75-.06-.93,2.87-2.27-1-5,1.67,5.48-7.67-10.81-16-14.5l1-.75c.46.1,1.02-.06,1.5,0Z"></path><path class="cls-14" d="M199.42,59.37c-5.8-8.42-7.34-9.83-16.5-15,15.58-5.1,25.68-3.28,26.5,15.25-3.38,2.73-6.68-2.09-10-.25Z"></path><path class="cls-23" d="M199.42,63.87l-1,.75c8.33,3.69,17.67,19.98,16,14.5,3.87,2.73.94,4.07,1,5,.03.45,2.1,2.2,4.5,7.75-4.06-2.16.9,2.82.5,16.5-.19,6.41-1.29,10.01-3,16-1.29,4.53-3.07,9.21-5,13.5-.3-2.41-1.96-5.21-2-5.5-.95-6.74,2.34-17.53-7-33-2.42-2.68-4.61-5.56-7.75-7.5-6.02-3.72-9.98-3.29-10.5-3.5-3.62-1.43-7.55-6.27-16-5-.43.07-3.54,1.96-3.75,2-2.03.4-1.78-.92-2-1,2.73-8.04,15.05-21.34,23.25-22.5,6.9-.97,12.04,1.85,12.75,2Z"></path><path class="cls-23" d="M117.92,81.87c-2.01,2.61,2.09-.26-1.5,3.5-2.42,2.54-5.96,4.86-8.5,9.25-1.71,2.96-4.86,12.5-4.5,15.75-.22,11.82-8.14,18.34-8.5,25.25-.34,6.62,5.02,22.95,2.5,27.75-4.8-7.87-11.1-33.98-11.5-43.5,6.37-3.6,6.67-12.87,9.5-19.25,2.42-5.46,7.94-13.38,13.25-16.25,2.97-1.61,6.21-1.58,9.25-2.5Z"></path><path class="cls-1" d="M127.92,109.37c.38,2.22-1.28-1.05-3.5-1.5-.84-.17-4.8-.11-6,0-2.86.27-6.78,1.69-9,3.5-1.36-4.18-5.09,7.3-6-1-.36-3.25,2.79-12.79,4.5-15.75,2.54-4.39,6.08-6.71,8.5-9.25,5.34-1.24,8.74-4.84,14.25-6l13.75,1.25c-9.47,4.23-15.42,13.29-16.5,23.5,13.15-9.25,3.82-1.89,0,5.25Z"></path><path class="cls-6" d="M117.92,81.87c-3.04.92-6.28.89-9.25,2.5-5.31,2.87-10.83,10.79-13.25,16.25-2.83,6.38-3.13,15.65-9.5,19.25-.38-9.15,1.05-18,4.5-26.5,2.58-6.35,7.37-14.55,13.5-18,12.8-7.2,26.6.95,25.5,3.25-3.8,1.23-7.68,2.09-11.5,3.25Z"></path><path class="cls-1" d="M191.92,107.37c.06.14-.06.36,0,.5.28,4.92-14.96-9.09-17-1-1.81-.96-2.12-1.54-2.25-1.5-.26.08.4,2.12-4.25,2.5-12.75-3.38-14.06-1.44-21.5,8-3.54,4.49-5.29,9.22-6,4.25-.41-2.89,5.32-11.47,7.5-14,1.76-2.05,5.68-3.76,4-4.75.24-.14.67-1.7,4.75-3,.51-.16,4.86.2,10.25-2,16.08,2.36,16.94,5.84,19.75,7,1.66.68,1.18-4.15,4.75,4Z"></path><path class="cls-23" d="M142.92,135.37c.62.93,1.05,1.36,1.5,2,2.85,4.07,5.79,4.6,4,10.5-.48.05-.34-.41-1-1-5.8-5.2-6.85-11.02-13.75-16l-2.75,2c-1.73-7.59.85-.94,1.5-3.75l-6.25-10.75c-4.63,3.51-7.66,16.59-4.75,21.5-1.2-.21-2.46-.89-3.5-1.5-1.71-11.8,2.51-19.9,6.5-30.5,2.22.45,3.88,3.72,3.5,1.5,5.98,2.64,6.86-6.42,17.5-8.25,1.72,3.14-15.23,1.76-11.5,20.5,3.01,2.29,7.08,12.36,7.5,13,.68,1.04,1.45.68,1.5.75Z"></path><path class="cls-23" d="M202.42,109.87c-.2,1.81-.44,3.77-1,5.5-.79-.6-1.45-.44-1.5-.5-1.72-2.19-4.17-10.11-8-7.5-3.57-8.15-3.09-3.32-4.75-4-2.81-1.16-3.67-4.64-19.75-7-1.77-.26-3.26-.33-5-.5,1-6.41,25.32-3.86,28.75-2.5,2.56,1.01,10.03,9.56,10.25,10.25.6,1.88-1.08,5.05,1,6.25Z"></path><path class="cls-26" d="M152.42,101.37c1.68.99-2.24,2.7-4,4.75-2.18,2.53-7.91,11.11-7.5,14,.71,4.97,2.46.24,6-4.25,1.51-.23,1.59-1.04,1.5,1-.09.21-.9,3.86-1,4.5-2.52,16.27,6.01-7.38,9.25-6.5,1.63,1.46-2.28,3.55-3.25,9.75.62,5.25,7.22-6.64,13.5-9.75,2.68.9.85,1.59,1,2-8.86,18.2-20.41,11.54-21,12.75,2.29,1.37,4.66,3.53,7,4.75l-1.5,1.5c-2.77-1.68-5.36-3.82-7.75-6-.98.32,3.66,7.07-.25,7.5-.45-.64-.88-1.07-1.5-2,2.82,1.4-1.96-3.86-2.5-5.75-2.01-7.09-.98-15.99,3.5-22,2.21-2.96,5.4-4.49,8.5-6.25Z"></path><path class="cls-14" d="M203.42,99.37c-2.21-.34-.04,1.9-1,10.5-2.08-1.2-.4-4.37-1-6.25-.22-.69-7.69-9.24-10.25-10.25-3.43-1.36-27.75-3.91-28.75,2.5-2.13-.21-4.89-.45-7-.5.76-.85,1.14-2.08,1.5-2.5,3.93-4.57,8.99-6.37,8.5-7.5.21-.04,3.32-1.93,3.75-2,8.45-1.27,12.38,3.57,16,5,.52.21,4.48-.22,10.5,3.5,3.14,1.94,5.33,4.82,7.75,7.5Z"></path><g><path class="cls-1" d="M132.92,68.87c-.42,3.08-1.15,6.15-1.5,9.25,3.08,1.42,8.42.07,10.5.25,9.39.81,13.18,2.83,21.5,6,.22.08-.03,1.4,2,1,.49,1.13-4.57,2.93-8.5,7.5,1.41-3.34-11.03.12-16.75,2.5-8.9,8.18,2.87.21,7.5-.5,2.61-.4,5.23.44,7.75.5,2.11.05,4.87.29,7,.5,1.74.17,3.23.24,5,.5-5.39,2.2-9.74,1.84-10.25,2-4.08,1.3-4.51,2.86-4.75,3-3.1,1.76-6.29,3.29-8.5,6.25-4.48,6.01-5.51,14.91-3.5,22,.54,1.89,5.32,7.15,2.5,5.75-.05-.07-.82.29-1.5-.75-.42-.64-4.49-10.71-7.5-13-3.73-18.74,13.22-17.36,11.5-20.5-10.64,1.83-11.52,10.89-17.5,8.25,3.82-7.14,13.15-14.5,0-5.25,1.08-10.21,7.03-19.27,16.5-23.5l-13.75-1.25c-5.51,1.16-8.91,4.76-14.25,6,3.59-3.76-.51-.89,1.5-3.5,3.82-1.16,7.7-2.02,11.5-3.25,1.1-2.3-12.7-10.45-25.5-3.25l-.5-1.5c7.2-4.11,11.78-2.35,18.75-2.5.35,0-.21,1.23,1.5,1,.5-.07,3.99-2.63,9.25-3.5Z"></path><path class="cls-23" d="M156.92,92.87c-.36.42-.74,1.65-1.5,2.5-2.52-.06-5.14-.9-7.75-.5-4.63.71-16.4,8.68-7.5.5,5.72-2.38,18.16-5.84,16.75-2.5Z"></path></g><path class="cls-9" d="M232.92,187.87c-.37,5.8-7.83,9.27-12.25,13-1.16-.91,2.91-8.54,2.25-19.5-.34-5.69-1.85-11.09-3.5-16.5-1.35-4.43-3.35-8.68-5-13,1.92-1.6,3.52-3.5,5.5-5,.33,0,.85-.14,1,.25,1.37,3.63,5.04,15.3,6.5,20,1.41,4.54,5.07,19.77,5.5,20.75Z"></path><path class="cls-1" d="M181.42,179.87c-1.78,1.94-5.98,5.22-8.5,7.5-4.36,3.94-19.58,16.69-24,20-.87.65-2.05,1.33-3,2,5.11-5.06,4.27-5.92,4.5-6.25,6.72-9.46,25.35-22.63,35-31.25,1.58,5.25-.41,2.56-2,4.25-1.98,2.1-1.86,3.59-2,3.75Z"></path><path class="cls-6" d="M224.42,132.87c-1.28,3.49-3.48,5.89-3.5,6.25-.02.32,1.67,2.61,2.5,5.75-.77.48-1.48.47-3.5,2-1.98,1.5-3.58,3.4-5.5,5-1.45,1.21-2.46,2.55-3,3-.64.53-1.09,1.15-1.5,1.5-9.35,7.81-19.2,15.04-28,23.5h-.5c.14-.16.02-1.65,2-3.75,1.59-1.69,3.58,1,2-4.25,6.66-5.94,13.59-11.78,19.5-18.5,8.07-9.18,5.14-7.67,6.5-10.25.27-.52,1.24.02,1.5-.5.96-1.93,2.18-4.29,3-6.25,3.27.6-2.5,6.21-2,7.25,5.98-.09,6.62-7.17,10.5-10.75Z"></path><path class="cls-26" d="M223.42,144.87c2.01,7.56,5.99,22.98,8,13.5,1.43,8.82,3.42,22.24,2,30.5.18-1.17-.48-.95-.5-1-.43-.98-4.09-16.21-5.5-20.75-1.46-4.7-5.13-16.37-6.5-20-.15-.39-.67-.25-1-.25,2.02-1.53,2.73-1.52,3.5-2Z"></path><path class="cls-4" d="M231.42,158.37c-2.01,9.48-5.99-5.94-8-13.5,2.22-1.38,4.43-4.05,5-3.25.72,5.63,2.09,11.14,3,16.75Z"></path><path class="cls-26" d="M127.42,146.87c7.71,3.57,16.43,5.79,25,5-.04,1.12-11.84,6.67-9.75,7.5,10-.71,14.13-9.82,15.25-3-2.43,1.6-4.82,3.1-7.5,4.25,14.88,2.73,29.71.13,44.5-1.75-4.86,5.28-10.89,9.57-16.5,14,.05-.83.18-.96-.5-1.5-.75-.59-11.12.05-19-1,1.79-1.34-9.18-2.95-11.75-4-9.88-4.05-19.66-13.91-26.25-22.25.15-2.3,2.87,1.07,6.5,2.75Z"></path><path class="cls-26" d="M109.42,111.37c-8.45,6.88-5.02,17.62-.5,25.5-3.45-1.74-2.74,13.07-4.25,13-3.45-5.09-4.4-15.5-6.75-14.25-2.31,2.92,9.57,34.61,3,31.25-4.34-1.6-3.36-3.27-3.5-3.5,2.52-4.8-2.84-21.13-2.5-27.75.36-6.91,8.28-13.43,8.5-25.25.91,8.3,4.64-3.18,6,1Z"></path><path class="cls-10" d="M108.92,136.87c.43.75,1.03,1.79,1.5,2.5.07,9.98-.29,20.04-2.5,29.75l-2.5.25c-1.84-.48-3.73-.68-5.5-1.5l1-1c6.57,3.36-5.31-28.33-3-31.25,2.35-1.25,3.3,9.16,6.75,14.25,1.51.07.8-14.74,4.25-13Z"></path><path class="cls-23" d="M105.42,169.37c4.23,1.11,8.15,1.97,12.5,2.5,9.16,1.12,21.14,2.28,29.5-1.5,1.75.48,5.83.49,2.5,2-.61.13-6.06,3.16-11.75,4-8.18,1.2-23.91.8-31.5-2.5-1.67-.72-8.41-5.44-6.75-6,1.77.82,3.66,1.02,5.5,1.5Z"></path><path class="cls-1" d="M158.92,170.37c7.88,1.05,18.25.41,19,1-10.47,3.41-22.16-.27-28,1,3.33-1.51-.75-1.52-2.5-2-5.76-1.58-7.27-3.34-12-6.5,5.91-1.16,3.08.27,4.75,1,1.66.72,10.43,4.34,11,4.5,2.57.72,5.13.65,7.75,1Z"></path><path class="cls-23" d="M194.92,122.87c-.5,1.39-1.85,2.96.5,2-.35,2.01,6.1,17.45-2,31.75l2.5.75c-.06.07.3.09-1,1.5-14.79,1.88-29.62,4.48-44.5,1.75,2.68-1.15,5.07-2.65,7.5-4.25,9.35-6.15,10.68-9.71,14-12.5,1.46-1.22,3-2.17,4.5-3.5,4.73-4.21,13.51-8.1,15.5-15,.11-.39-.08-1.02,0-1.5,2.44,1.02,1.41-1.1,3-1Z"></path><path class="cls-4" d="M204.92,143.37c-.79,3.46-5.63,10.6-8,13.5-.04.04-.96.45-1,.5l-2.5-.75c8.1-14.3,1.65-29.74,2-31.75.16-.92,3.1-3.52,4.5-6.5,2.24.75,5.31,13.19,5.5,15.75.06.75-.4,8.8-.5,9.25Z"></path><path class="cls-1" d="M212.42,137.87c-2.56,5.71-4.1,9.7-8.5,14.5-2.11,2.31-6.9,7.1-7,4.5,2.37-2.9,7.21-10.04,8-13.5,3.05-.02,4.76-7.56,5-10.5.03-.38.08-.55.5-.5.04.29,1.7,3.09,2,5.5Z"></path><path class="cls-26" d="M215.92,136.37c-.82,1.96-2.04,4.32-3,6.25-.26.52-1.23-.02-1.5.5-1.36,2.58,1.57,1.07-6.5,10.25l-1-1c4.4-4.8,5.94-8.79,8.5-14.5,1.93-4.29,3.71-8.97,5-13.5l3-.25c-3.27,5.1-3.63,10.16-4.5,12.25Z"></path><path class="cls-23" d="M219.92,91.87c3.14,7.28,1.39,3.38,2,8.75.06.55,3.41,10.07-1.5,7.75.4-13.68-4.56-18.66-.5-16.5Z"></path><path class="cls-4" d="M203.42,99.37c9.34,15.47,6.05,26.26,7,33-.42-.05-.47.12-.5.5-3.49-4.59-4.01-12.4-8.5-17,.05-.15-.05-.35,0-.5.56-1.73.8-3.69,1-5.5.96-8.6-1.21-10.84,1-10.5Z"></path><path class="cls-6" d="M118.42,107.87c-5.17,7.9-10.99,24.41-.5,30.5,1.04.61,2.3,1.29,3.5,1.5.39.65.54.6,1,1,3.33,2.93,20.72,7.96,24.75,7l.25-1c.66.59.52,1.05,1,1l.25,1c-7.97.79-24.67-5.68-21.25-2-3.63-1.68-6.35-5.05-6.5-2.75,6.59,8.34,16.37,18.2,26.25,22.25,2.57,1.05,13.54,2.66,11.75,4-2.62-.35-5.18-.28-7.75-1-.57-.16-9.34-3.78-11-4.5-1.67-.73,1.16-2.16-4.75-1-5.21-3.48-10.67-7.47-15-12-.85-.89-9.33-11.47-10-12.5-.47-.71-1.07-1.75-1.5-2.5-4.52-7.88-7.95-18.62.5-25.5,2.22-1.81,6.14-3.23,9-3.5Z"></path><path class="cls-1" d="M124.42,107.87c-3.99,10.6-8.21,18.7-6.5,30.5-10.49-6.09-4.67-22.6.5-30.5,1.2-.11,5.16-.17,6,0Z"></path><path class="cls-11" d="M191.92,107.87c3.32,8.06,1.8,10.57,3.5,13.5-.49.98-.45,1.36-.5,1.5-1.59-.1-.56,2.02-3,1,.91-5.7-1.33-9.66-7.5-10-.78-1.64-4.58-3.83-6.5-5-1-.62-1.97-1.45-3-2,2.04-8.09,17.28,5.92,17,1Z"></path><path class="cls-23" d="M168.42,107.87c2.98.79,7.48,4.74,9.5,1,1.92,1.17,5.72,3.36,6.5,5-2.12-.12-3.99.54-6,1,.48-1.19-2.73-1.08-5.5-2-3.2-1.06-6.08-2.96-9.5-3.5-2.87-.45-7.42.05-9.75,1.5-.91.57-4.96,5.35-5.25,6,.09-2.04,0-1.23-1.5-1,7.44-9.44,8.75-11.38,21.5-8Z"></path><path class="cls-26" d="M199.92,114.87c-1.41,2.09-3.39,4.26-4.5,6.5-1.7-2.93-.18-5.44-3.5-13.5-.06-.14.06-.36,0-.5,3.83-2.61,6.28,5.31,8,7.5Z"></path><path class="cls-23" d="M174.92,106.87c1.03.55,2,1.38,3,2-2.02,3.74-6.52-.21-9.5-1,4.65-.38,3.99-2.42,4.25-2.5.13-.04.44.54,2.25,1.5Z"></path><path class="cls-23" d="M152.42,135.87c1.31.8,2.84,1.92,3,2-1.42-.43-.58,1.42-1,3.5-3.62-1.1-5.5-3.64-7-3.25,5.91,12.73,7.14,9.11,18,6.25,1.09-.29,3.75-1.46,4.25-1.5.4-.03.2.99.25,1-5.23,3.78-11.01,7.4-17.5,8-8.57.79-17.29-1.43-25-5-3.42-3.68,13.28,2.79,21.25,2l-.25-1c1.79-5.9-1.15-6.43-4-10.5,3.91-.43-.73-7.18.25-7.5,2.39,2.18,4.98,4.32,7.75,6Z"></path><path class="cls-4" d="M147.42,146.87l-.25,1c-4.03.96-21.42-4.07-24.75-7l3.25-8.5c.86-.04,1.25,7.57,6.5,12,2.28-1.42-.03-6.14-1.25-11.5l2.75-2c6.9,4.98,7.95,10.8,13.75,16Z"></path><path class="cls-26" d="M130.92,132.87c1.22,5.36,3.53,10.08,1.25,11.5-5.25-4.43-5.64-12.04-6.5-12l-3.25,8.5c-.46-.4-.61-.35-1-1-2.91-4.91.12-17.99,4.75-21.5l6.25,10.75c-.65,2.81-3.23-3.84-1.5,3.75Z"></path><path class="cls-2" d="M201.42,115.37c-.05.15.05.35,0,.5-.05.14-.71.83-1.5,2.5-1.4,2.98-4.34,5.58-4.5,6.5-2.35.96-1-.61-.5-2,.05-.14.01-.52.5-1.5,1.11-2.24,3.09-4.41,4.5-6.5.05.06.71-.1,1.5.5Z"></path><path class="cls-23" d="M168.92,118.37c-2.46,1.92-2.17,5.33-1.5,8,.27,1.1.83,1.91,1,3-.63.09-2.95,2.43-3,2.75-.08.46,2.13,8.5,2.5,8.25-.11.02-1.93.69-2,1-2.51-.48-4.63-1.04-7-2,2.13-5.48-3.24-4.08-5-5-2.34-1.22-4.71-3.38-7-4.75.59-1.21,12.14,5.45,21-12.75.03.08,1.04.8,1,1.5Z"></path><path class="cls-14" d="M172.92,112.87c-2.67.52-3.6.81-6,2-6.28,3.11-12.88,15-13.5,9.75.97-6.2,4.88-8.29,3.25-9.75-3.24-.88-11.77,22.77-9.25,6.5,2.12.32,2.85-4.15,4.25-5.5.04-.04.6.85,1,.5,8.2-7.34,9.87-4.22,10.75-7,3.42.54,6.3,2.44,9.5,3.5Z"></path><path class="cls-1" d="M163.42,109.37c-.88,2.78-2.55-.34-10.75,7-.4.35-.96-.54-1-.5-1.4,1.35-2.13,5.82-4.25,5.5.1-.64.91-4.29,1-4.5.29-.65,4.34-5.43,5.25-6,2.33-1.45,6.88-1.95,9.75-1.5Z"></path><path class="cls-11" d="M178.42,114.87c-.49.11-9.1,3.19-9.5,3.5.04-.7-.97-1.42-1-1.5-.15-.41,1.68-1.1-1-2,2.4-1.19,3.33-1.48,6-2,2.77.92,5.98.81,5.5,2Z"></path><path class="cls-11" d="M158.92,139.37c-1.07-.43-2.49-.99-3.5-1.5-.16-.08-1.69-1.2-3-2l1.5-1.5c1.76.92,7.13-.48,5,5Z"></path><g><path class="cls-26" d="M222.92,181.37l-1-.25c.13,16.24-15.22,22.46-6,23.75-16.27,9.88-32.95,16.11-52.25,15-7.23-.41-14.2-2.88-21.25-4-2.24-.35-3.79-1-4-1,.45-1.51,4.43-3.33,7.5-5.5.95-.67,2.13-1.35,3-2,33.59,6.42,72.01-1.46,70.5-42.5,1.65,5.41,3.16,10.81,3.5,16.5Z"></path><path class="cls-4" d="M222.92,181.37c.66,10.96-3.41,18.59-2.25,19.5,4.42-3.73,11.88-7.2,12.25-13,.02.05.68-.17.5,1-.11.63.07,1.35,0,2-5.4,5.76-10.78,9.92-17.5,14-9.22-1.29,6.13-7.51,6-23.75l1,.25Z"></path><path class="cls-11" d="M219.42,164.87c1.51,41.04-36.91,48.92-70.5,42.5,4.42-3.31,19.64-16.06,24-20,9.31,1.17,22.77-.25,30.25-6,6.85-5.26,12.63-18.68,8.25-26.5.54-.45,1.55-1.79,3-3,1.65,4.32,3.65,8.57,5,13Z"></path><path class="cls-23" d="M172.92,187.37c2.52-2.28,6.72-5.56,8.5-7.5h.5c0,.34-.13.89.25,1,1.19.36,14.81-1.67,20-6,4.12-3.43,9.99-15.74,7.75-18.5.41-.35.86-.97,1.5-1.5,4.38,7.82-1.4,21.24-8.25,26.5-7.48,5.75-20.94,7.17-30.25,6Z"></path><path class="cls-12" d="M209.92,156.37c2.24,2.76-3.63,15.07-7.75,18.5-5.19,4.33-18.81,6.36-20,6-.38-.11-.25-.66-.25-1,8.8-8.46,18.65-15.69,28-23.5Z"></path></g><path class="cls-11" d="M171.92,143.87c-3.32,2.79-4.65,6.35-14,12.5-1.12-6.82-5.25,2.29-15.25,3-2.09-.83,9.71-6.38,9.75-7.5,6.49-.6,12.27-4.22,17.5-8,1.04.1,1.75-1.19,2,0Z"></path><path class="cls-9" d="M120.42,151.87c-1.66,6.46-3.83,13.22-2.5,20-4.35-.53-8.27-1.39-12.5-2.5l2.5-.25c2.21-9.71,2.57-19.77,2.5-29.75.67,1.03,9.15,11.61,10,12.5Z"></path><path class="cls-11" d="M135.42,163.87c4.73,3.16,6.24,4.92,12,6.5-8.36,3.78-20.34,2.62-29.5,1.5-1.33-6.78.84-13.54,2.5-20,4.33,4.53,9.79,8.52,15,12Z"></path><path class="cls-10" d="M184.42,113.87c6.17.34,8.41,4.3,7.5,10-.08.48.11,1.11,0,1.5-3.82,1.89-3.58-1.31-5.5-1-.04-1.16.02-2.33,0-3.5-1.21-4.4-10.42,1.74-13,3-1.93.94-4.02,1.67-6,2.5-.67-2.67-.96-6.08,1.5-8,.4-.31,9.01-3.39,9.5-3.5,2.01-.46,3.88-1.12,6-1Z"></path><path class="cls-26" d="M191.92,125.37c-1.99,6.9-10.77,10.79-15.5,15-3.03.04-5.42,2.48-5.75,2.5-.25.02-2.76-1.12-4.75-1.5.07-.31,1.89-.98,2-1,.46-.1,1.06.11,1.5,0,4.95-1.22,12.01-4.19,15-8.5,2.33-3.36,2.14-3.1,2-7.5,1.92-.31,1.68,2.89,5.5,1Z"></path><path class="cls-14" d="M155.42,137.87c1.01.51,2.43,1.07,3.5,1.5,2.37.96,4.49,1.52,7,2,1.99.38,4.5,1.52,4.75,1.5.33-.02,2.72-2.46,5.75-2.5-1.5,1.33-3.04,2.28-4.5,3.5-.25-1.19-.96.1-2,0-.05,0,.15-1.03-.25-1-.5.04-3.16,1.21-4.25,1.5.83-2.45-2.91-.53-11-3,.42-2.08-.42-3.93,1-3.5Z"></path><path class="cls-23" d="M209.92,132.87c-.24,2.94-1.95,10.48-5,10.5.1-.45.56-8.5.5-9.25-.19-2.56-3.26-15-5.5-15.75.79-1.67,1.45-2.36,1.5-2.5,4.49,4.6,5.01,12.41,8.5,17Z"></path><path class="cls-26" d="M154.42,141.37c8.09,2.47,11.83.55,11,3-10.86,2.86-12.09,6.48-18-6.25,1.5-.39,3.38,2.15,7,3.25Z"></path><path class="cls-23" d="M186.42,124.37c.14,4.4.33,4.14-2,7.5,4.04-7.65-4.5-2.77-4.5-2.25,0,.78,4.16.59-3,.75-6.49.14-8.08-1.06-8.5-1-.17-1.09-.73-1.9-1-3,1.98-.83,4.07-1.56,6-2.5-1.76,3.31,11.62-.18,12.25-.5.4-.2-1.21-1.77.75-2.5.02,1.17-.04,2.34,0,3.5Z"></path><path class="cls-14" d="M176.92,130.37l2.25,1c-12.76-.96-5.46,5.8-5.75,6.75-.41,1.35-4.39.64-4,2.25-.44.11-1.04-.1-1.5,0-.37.25-2.58-7.79-2.5-8.25.05-.32,2.37-2.66,3-2.75.42-.06,2.01,1.14,8.5,1Z"></path><path class="cls-11" d="M186.42,120.87c-1.96.73-.35,2.3-.75,2.5-.63.32-14.01,3.81-12.25.5,2.58-1.26,11.79-7.4,13-3Z"></path><path class="cls-24" d="M184.42,131.87c-2.99,4.31-10.05,7.28-15,8.5-.39-1.61,3.59-.9,4-2.25.29-.95-7.01-7.71,5.75-6.75l-2.25-1c7.16-.16,2.99.03,3-.75,0-.52,8.54-5.4,4.5,2.25Z"></path></g></g></g></svg>